  0
SECTION
  2
HEADER
  9
$ANGBASE
  50
0.0
  9
$ANGDIR
  70
1
  9
$MEASUREMENT
  70
0
  0
ENDSEC
  0
SECTION
  2
TABLES
  0
TABLE
  2
LTYPE
  70
4
  0
LTYPE
  5
40F
  2
CONTINUOUS
  70
0
  3
Solid line
  72
65
  73
0
  40
0.0
  0
LTYPE
  5
410
  2
DASHDOT
 70
0
  3
Dash Dot ____ _ ____ _
 72
65
 73
4
 40
2.0
 49
1.25
 49
-0.25
 49
0.25
 49
-0.25
  0
LTYPE
  5
411
  2
DASHED
 70
0
  3
Dashed __ __ __ __ __
 72
65
 73
2
 40
0.75
 49
0.5
 49
-0.25
  0
LTYPE
  5
43B
  2
DOTTED
 70
0
  3
Dotted .  .  .  .
 72
65
 73
2
 40
0.2
 49
0.0
 49
-0.2
  0
ENDTAB
  0
TABLE
  2
STYLE
  70
4
  0
STYLE
  2
KICAD
  70
0
  40
0
  41
1
  42
1
  50
0
  71
0
  3
isocp.shx
  0
STYLE
  2
KICADB
  70
0
  40
0
  41
1
  42
1
  50
0
  71
0
  3
isocp.shx
  0
STYLE
  2
KICADI
  70
0
  40
0
  41
1
  42
1
  50
15
  71
0
  3
isocp.shx
  0
STYLE
  2
KICADBI
  70
0
  40
0
  41
1
  42
1
  50
15
  71
0
  3
isocp.shx
  0
ENDTAB
  0
TABLE
  2
LAYER
  70
1
  0
LAYER
  2
BLACK
  70
0
  62
7
  6
CONTINUOUS
  0
ENDTAB
  0
ENDSEC
  0
SECTION
  2
ENTITIES
0
LINE
8
BLACK
6
CONTINUOUS
10
2.0161417322834647
20
0.3883858267716535
11
2.016837716535433
21
0.3880975590551181
0
LINE
8
BLACK
6
CONTINUOUS
10
2.016837716535433
20
0.3880975590551181
11
2.0171259842519684
21
0.3874015748031496
0
LINE
8
BLACK
6
CONTINUOUS
10
2.0171259842519684
20
0.3874015748031496
11
2.0171259842519684
21
0.3125984251968504
0
LINE
8
BLACK
6
CONTINUOUS
10
2.0171259842519684
20
0.3125984251968504
11
2.016837716535433
21
0.3119024409448819
0
LINE
8
BLACK
6
CONTINUOUS
10
2.016837716535433
20
0.3119024409448819
11
2.0161417322834647
21
0.3116141732283464
0
LINE
8
BLACK
6
CONTINUOUS
10
2.0161417322834647
20
0.3116141732283464
11
1.8838582677165354
21
0.3116141732283464
0
LINE
8
BLACK
6
CONTINUOUS
10
1.8838582677165354
20
0.3116141732283464
11
1.8831622834645669
21
0.3119024409448819
0
LINE
8
BLACK
6
CONTINUOUS
10
1.8831622834645669
20
0.3119024409448819
11
1.8828740157480315
21
0.3125984251968504
0
LINE
8
BLACK
6
CONTINUOUS
10
1.8828740157480315
20
0.3125984251968504
11
1.8828740157480315
21
0.3874015748031496
0
LINE
8
BLACK
6
CONTINUOUS
10
1.8828740157480315
20
0.3874015748031496
11
1.8831622834645669
21
0.3880975590551181
0
LINE
8
BLACK
6
CONTINUOUS
10
1.8831622834645669
20
0.3880975590551181
11
1.8838582677165354
21
0.3883858267716535
0
LINE
8
BLACK
6
CONTINUOUS
10
1.8838582677165354
20
0.3883858267716535
11
2.0161417322834647
21
0.3883858267716535
0
LINE
8
BLACK
6
CONTINUOUS
10
1.8848425196850394
20
0.3864173228346456
11
1.8848425196850394
21
0.3135826771653543
0
LINE
8
BLACK
6
CONTINUOUS
10
1.8848425196850394
20
0.3135826771653543
11
2.0151574803149606
21
0.3135826771653543
0
LINE
8
BLACK
6
CONTINUOUS
10
2.0151574803149606
20
0.3135826771653543
11
2.0151574803149606
21
0.3864173228346456
0
LINE
8
BLACK
6
CONTINUOUS
10
2.0151574803149606
20
0.3864173228346456
11
1.8848425196850394
21
0.3864173228346456
0
LINE
8
BLACK
6
CONTINUOUS
10
2.0161417322834647
20
0.4883858267716535
11
2.016837716535433
21
0.4880975590551181
0
LINE
8
BLACK
6
CONTINUOUS
10
2.016837716535433
20
0.4880975590551181
11
2.0171259842519684
21
0.4874015748031496
0
LINE
8
BLACK
6
CONTINUOUS
10
2.0171259842519684
20
0.4874015748031496
11
2.0171259842519684
21
0.4125984251968504
0
LINE
8
BLACK
6
CONTINUOUS
10
2.0171259842519684
20
0.4125984251968504
11
2.016837716535433
21
0.4119024409448819
0
LINE
8
BLACK
6
CONTINUOUS
10
2.016837716535433
20
0.4119024409448819
11
2.0161417322834647
21
0.4116141732283464
0
LINE
8
BLACK
6
CONTINUOUS
10
2.0161417322834647
20
0.4116141732283464
11
1.8838582677165354
21
0.4116141732283464
0
LINE
8
BLACK
6
CONTINUOUS
10
1.8838582677165354
20
0.4116141732283464
11
1.8831622834645669
21
0.4119024409448819
0
LINE
8
BLACK
6
CONTINUOUS
10
1.8831622834645669
20
0.4119024409448819
11
1.8828740157480315
21
0.4125984251968504
0
LINE
8
BLACK
6
CONTINUOUS
10
1.8828740157480315
20
0.4125984251968504
11
1.8828740157480315
21
0.4874015748031496
0
LINE
8
BLACK
6
CONTINUOUS
10
1.8828740157480315
20
0.4874015748031496
11
1.8831622834645669
21
0.4880975590551181
0
LINE
8
BLACK
6
CONTINUOUS
10
1.8831622834645669
20
0.4880975590551181
11
1.8838582677165354
21
0.4883858267716535
0
LINE
8
BLACK
6
CONTINUOUS
10
1.8838582677165354
20
0.4883858267716535
11
2.0161417322834647
21
0.4883858267716535
0
LINE
8
BLACK
6
CONTINUOUS
10
1.8848425196850394
20
0.4864173228346457
11
1.8848425196850394
21
0.4135826771653543
0
LINE
8
BLACK
6
CONTINUOUS
10
1.8848425196850394
20
0.4135826771653543
11
2.0151574803149606
21
0.4135826771653543
0
LINE
8
BLACK
6
CONTINUOUS
10
2.0151574803149606
20
0.4135826771653543
11
2.0151574803149606
21
0.4864173228346457
0
LINE
8
BLACK
6
CONTINUOUS
10
2.0151574803149606
20
0.4864173228346457
11
1.8848425196850394
21
0.4864173228346457
0
LINE
8
BLACK
6
CONTINUOUS
10
2.3036417322834644
20
0.5883858267716535
11
2.3043377165354331
21
0.5880975590551181
0
LINE
8
BLACK
6
CONTINUOUS
10
2.3043377165354331
20
0.5880975590551181
11
2.3046259842519685
21
0.5874015748031496
0
LINE
8
BLACK
6
CONTINUOUS
10
2.3046259842519685
20
0.5874015748031496
11
2.3046259842519685
21
0.5125984251968504
0
LINE
8
BLACK
6
CONTINUOUS
10
2.3046259842519685
20
0.5125984251968504
11
2.3043377165354331
21
0.5119024409448819
0
LINE
8
BLACK
6
CONTINUOUS
10
2.3043377165354331
20
0.5119024409448819
11
2.3036417322834644
21
0.5116141732283465
0
LINE
8
BLACK
6
CONTINUOUS
10
2.3036417322834644
20
0.5116141732283465
11
2.1713582677165353
21
0.5116141732283465
0
LINE
8
BLACK
6
CONTINUOUS
10
2.1713582677165353
20
0.5116141732283465
11
2.170662283464567
21
0.5119024409448819
0
LINE
8
BLACK
6
CONTINUOUS
10
2.170662283464567
20
0.5119024409448819
11
2.1703740157480316
21
0.5125984251968504
0
LINE
8
BLACK
6
CONTINUOUS
10
2.1703740157480316
20
0.5125984251968504
11
2.1703740157480316
21
0.5874015748031496
0
LINE
8
BLACK
6
CONTINUOUS
10
2.1703740157480316
20
0.5874015748031496
11
2.170662283464567
21
0.5880975590551181
0
LINE
8
BLACK
6
CONTINUOUS
10
2.170662283464567
20
0.5880975590551181
11
2.1713582677165353
21
0.5883858267716535
0
LINE
8
BLACK
6
CONTINUOUS
10
2.1713582677165353
20
0.5883858267716535
11
2.3036417322834644
21
0.5883858267716535
0
LINE
8
BLACK
6
CONTINUOUS
10
2.1723425196850394
20
0.5864173228346456
11
2.1723425196850394
21
0.5135826771653543
0
LINE
8
BLACK
6
CONTINUOUS
10
2.1723425196850394
20
0.5135826771653543
11
2.3026574803149606
21
0.5135826771653543
0
LINE
8
BLACK
6
CONTINUOUS
10
2.3026574803149606
20
0.5135826771653543
11
2.3026574803149606
21
0.5864173228346456
0
LINE
8
BLACK
6
CONTINUOUS
10
2.3026574803149606
20
0.5864173228346456
11
2.1723425196850394
21
0.5864173228346456
0
LINE
8
BLACK
6
CONTINUOUS
10
2.1286417322834645
20
0.6133858267716535
11
2.1293377165354328
21
0.6130975590551181
0
LINE
8
BLACK
6
CONTINUOUS
10
2.1293377165354328
20
0.6130975590551181
11
2.1296259842519683
21
0.6124015748031496
0
LINE
8
BLACK
6
CONTINUOUS
10
2.1296259842519683
20
0.6124015748031496
11
2.1296259842519683
21
0.5375984251968504
0
LINE
8
BLACK
6
CONTINUOUS
10
2.1296259842519683
20
0.5375984251968504
11
2.1293377165354328
21
0.5369024409448819
0
LINE
8
BLACK
6
CONTINUOUS
10
2.1293377165354328
20
0.5369024409448819
11
2.1286417322834645
21
0.5366141732283465
0
LINE
8
BLACK
6
CONTINUOUS
10
2.1286417322834645
20
0.5366141732283465
11
1.9963582677165355
21
0.5366141732283465
0
LINE
8
BLACK
6
CONTINUOUS
10
1.9963582677165355
20
0.5366141732283465
11
1.995662283464567
21
0.5369024409448819
0
LINE
8
BLACK
6
CONTINUOUS
10
1.995662283464567
20
0.5369024409448819
11
1.9953740157480315
21
0.5375984251968504
0
LINE
8
BLACK
6
CONTINUOUS
10
1.9953740157480315
20
0.5375984251968504
11
1.9953740157480315
21
0.6124015748031496
0
LINE
8
BLACK
6
CONTINUOUS
10
1.9953740157480315
20
0.6124015748031496
11
1.995662283464567
21
0.6130975590551181
0
LINE
8
BLACK
6
CONTINUOUS
10
1.995662283464567
20
0.6130975590551181
11
1.9963582677165355
21
0.6133858267716535
0
LINE
8
BLACK
6
CONTINUOUS
10
1.9963582677165355
20
0.6133858267716535
11
2.1286417322834645
21
0.6133858267716535
0
LINE
8
BLACK
6
CONTINUOUS
10
1.9973425196850394
20
0.6114173228346457
11
1.9973425196850394
21
0.5385826771653544
0
LINE
8
BLACK
6
CONTINUOUS
10
1.9973425196850394
20
0.5385826771653544
11
2.1276574803149604
21
0.5385826771653544
0
LINE
8
BLACK
6
CONTINUOUS
10
2.1276574803149604
20
0.5385826771653544
11
2.1276574803149604
21
0.6114173228346457
0
LINE
8
BLACK
6
CONTINUOUS
10
2.1276574803149604
20
0.6114173228346457
11
1.9973425196850394
21
0.6114173228346457
0
LINE
8
BLACK
6
CONTINUOUS
10
1.9452755905511812
20
0.8738188976377953
11
1.9459715748031496
21
0.8735306299212598
0
LINE
8
BLACK
6
CONTINUOUS
10
1.9459715748031496
20
0.8735306299212598
11
1.9462598425196851
21
0.8728346456692914
0
LINE
8
BLACK
6
CONTINUOUS
10
1.9462598425196851
20
0.8728346456692914
11
1.9462598425196851
21
0.6271653543307086
0
LINE
8
BLACK
6
CONTINUOUS
10
1.9462598425196851
20
0.6271653543307086
11
1.9459715748031496
21
0.6264693700787402
0
LINE
8
BLACK
6
CONTINUOUS
10
1.9459715748031496
20
0.6264693700787402
11
1.9452755905511812
21
0.6261811023622047
0
LINE
8
BLACK
6
CONTINUOUS
10
1.9452755905511812
20
0.6261811023622047
11
1.8547244094488189
21
0.6261811023622047
0
LINE
8
BLACK
6
CONTINUOUS
10
1.8547244094488189
20
0.6261811023622047
11
1.8540284251968504
21
0.6264693700787402
0
LINE
8
BLACK
6
CONTINUOUS
10
1.8540284251968504
20
0.6264693700787402
11
1.853740157480315
21
0.6271653543307086
0
LINE
8
BLACK
6
CONTINUOUS
10
1.853740157480315
20
0.6271653543307086
11
1.853740157480315
21
0.8728346456692914
0
LINE
8
BLACK
6
CONTINUOUS
10
1.853740157480315
20
0.8728346456692914
11
1.8540284251968504
21
0.8735306299212598
0
LINE
8
BLACK
6
CONTINUOUS
10
1.8540284251968504
20
0.8735306299212598
11
1.8547244094488189
21
0.8738188976377953
0
LINE
8
BLACK
6
CONTINUOUS
10
1.8547244094488189
20
0.8738188976377953
11
1.9452755905511812
21
0.8738188976377953
0
LINE
8
BLACK
6
CONTINUOUS
10
1.8557086614173228
20
0.8718503937007874
11
1.8557086614173228
21
0.6281496062992126
0
LINE
8
BLACK
6
CONTINUOUS
10
1.8557086614173228
20
0.6281496062992126
11
1.9442913385826772
21
0.6281496062992126
0
LINE
8
BLACK
6
CONTINUOUS
10
1.9442913385826772
20
0.6281496062992126
11
1.9442913385826772
21
0.8718503937007874
0
LINE
8
BLACK
6
CONTINUOUS
10
1.9442913385826772
20
0.8718503937007874
11
1.8557086614173228
21
0.8718503937007874
0
LINE
8
BLACK
6
CONTINUOUS
10
2.0624015748031495
20
0.8546259842519685
11
2.0630975590551182
21
0.854337716535433
0
LINE
8
BLACK
6
CONTINUOUS
10
2.0630975590551182
20
0.854337716535433
11
2.0633858267716536
21
0.8536417322834645
0
LINE
8
BLACK
6
CONTINUOUS
10
2.0633858267716536
20
0.8536417322834645
11
2.0633858267716536
21
0.7213582677165354
0
LINE
8
BLACK
6
CONTINUOUS
10
2.0633858267716536
20
0.7213582677165354
11
2.0630975590551182
21
0.720662283464567
0
LINE
8
BLACK
6
CONTINUOUS
10
2.0630975590551182
20
0.720662283464567
11
2.0624015748031495
21
0.7203740157480315
0
LINE
8
BLACK
6
CONTINUOUS
10
2.0624015748031495
20
0.7203740157480315
11
1.9875984251968504
21
0.7203740157480315
0
LINE
8
BLACK
6
CONTINUOUS
10
1.9875984251968504
20
0.7203740157480315
11
1.9869024409448819
21
0.720662283464567
0
LINE
8
BLACK
6
CONTINUOUS
10
1.9869024409448819
20
0.720662283464567
11
1.9866141732283464
21
0.7213582677165354
0
LINE
8
BLACK
6
CONTINUOUS
10
1.9866141732283464
20
0.7213582677165354
11
1.9866141732283464
21
0.8536417322834645
0
LINE
8
BLACK
6
CONTINUOUS
10
1.9866141732283464
20
0.8536417322834645
11
1.9869024409448819
21
0.854337716535433
0
LINE
8
BLACK
6
CONTINUOUS
10
1.9869024409448819
20
0.854337716535433
11
1.9875984251968504
21
0.8546259842519685
0
LINE
8
BLACK
6
CONTINUOUS
10
1.9875984251968504
20
0.8546259842519685
11
2.0624015748031495
21
0.8546259842519685
0
LINE
8
BLACK
6
CONTINUOUS
10
1.9885826771653543
20
0.8526574803149606
11
1.9885826771653543
21
0.7223425196850394
0
LINE
8
BLACK
6
CONTINUOUS
10
1.9885826771653543
20
0.7223425196850394
11
2.0614173228346457
21
0.7223425196850394
0
LINE
8
BLACK
6
CONTINUOUS
10
2.0614173228346457
20
0.7223425196850394
11
2.0614173228346457
21
0.8526574803149606
0
LINE
8
BLACK
6
CONTINUOUS
10
2.0614173228346457
20
0.8526574803149606
11
1.9885826771653543
21
0.8526574803149606
0
LINE
8
BLACK
6
CONTINUOUS
10
2.1624015748031495
20
0.8546259842519685
11
2.1630975590551182
21
0.854337716535433
0
LINE
8
BLACK
6
CONTINUOUS
10
2.1630975590551182
20
0.854337716535433
11
2.1633858267716537
21
0.8536417322834645
0
LINE
8
BLACK
6
CONTINUOUS
10
2.1633858267716537
20
0.8536417322834645
11
2.1633858267716537
21
0.7213582677165354
0
LINE
8
BLACK
6
CONTINUOUS
10
2.1633858267716537
20
0.7213582677165354
11
2.1630975590551182
21
0.720662283464567
0
LINE
8
BLACK
6
CONTINUOUS
10
2.1630975590551182
20
0.720662283464567
11
2.1624015748031495
21
0.7203740157480315
0
LINE
8
BLACK
6
CONTINUOUS
10
2.1624015748031495
20
0.7203740157480315
11
2.0875984251968505
21
0.7203740157480315
0
LINE
8
BLACK
6
CONTINUOUS
10
2.0875984251968505
20
0.7203740157480315
11
2.0869024409448818
21
0.720662283464567
0
LINE
8
BLACK
6
CONTINUOUS
10
2.0869024409448818
20
0.720662283464567
11
2.0866141732283463
21
0.7213582677165354
0
LINE
8
BLACK
6
CONTINUOUS
10
2.0866141732283463
20
0.7213582677165354
11
2.0866141732283463
21
0.8536417322834645
0
LINE
8
BLACK
6
CONTINUOUS
10
2.0866141732283463
20
0.8536417322834645
11
2.0869024409448818
21
0.854337716535433
0
LINE
8
BLACK
6
CONTINUOUS
10
2.0869024409448818
20
0.854337716535433
11
2.0875984251968505
21
0.8546259842519685
0
LINE
8
BLACK
6
CONTINUOUS
10
2.0875984251968505
20
0.8546259842519685
11
2.1624015748031495
21
0.8546259842519685
0
LINE
8
BLACK
6
CONTINUOUS
10
2.0885826771653542
20
0.8526574803149606
11
2.0885826771653542
21
0.7223425196850394
0
LINE
8
BLACK
6
CONTINUOUS
10
2.0885826771653542
20
0.7223425196850394
11
2.1614173228346458
21
0.7223425196850394
0
LINE
8
BLACK
6
CONTINUOUS
10
2.1614173228346458
20
0.7223425196850394
11
2.1614173228346458
21
0.8526574803149606
0
LINE
8
BLACK
6
CONTINUOUS
10
2.1614173228346458
20
0.8526574803149606
11
2.0885826771653542
21
0.8526574803149606
0
LINE
8
BLACK
6
CONTINUOUS
10
1.8124015748031497
20
0.8671259842519685
11
1.8130975590551182
21
0.8668377165354331
0
LINE
8
BLACK
6
CONTINUOUS
10
1.8130975590551182
20
0.8668377165354331
11
1.8133858267716536
21
0.8661417322834646
0
LINE
8
BLACK
6
CONTINUOUS
10
1.8133858267716536
20
0.8661417322834646
11
1.8133858267716536
21
0.7338582677165354
0
LINE
8
BLACK
6
CONTINUOUS
10
1.8133858267716536
20
0.7338582677165354
11
1.8130975590551182
21
0.7331622834645669
0
LINE
8
BLACK
6
CONTINUOUS
10
1.8130975590551182
20
0.7331622834645669
11
1.8124015748031497
21
0.7328740157480315
0
LINE
8
BLACK
6
CONTINUOUS
10
1.8124015748031497
20
0.7328740157480315
11
1.7375984251968504
21
0.7328740157480315
0
LINE
8
BLACK
6
CONTINUOUS
10
1.7375984251968504
20
0.7328740157480315
11
1.7369024409448819
21
0.7331622834645669
0
LINE
8
BLACK
6
CONTINUOUS
10
1.7369024409448819
20
0.7331622834645669
11
1.7366141732283464
21
0.7338582677165354
0
LINE
8
BLACK
6
CONTINUOUS
10
1.7366141732283464
20
0.7338582677165354
11
1.7366141732283464
21
0.8661417322834646
0
LINE
8
BLACK
6
CONTINUOUS
10
1.7366141732283464
20
0.8661417322834646
11
1.7369024409448819
21
0.8668377165354331
0
LINE
8
BLACK
6
CONTINUOUS
10
1.7369024409448819
20
0.8668377165354331
11
1.7375984251968504
21
0.8671259842519685
0
LINE
8
BLACK
6
CONTINUOUS
10
1.7375984251968504
20
0.8671259842519685
11
1.8124015748031497
21
0.8671259842519685
0
LINE
8
BLACK
6
CONTINUOUS
10
1.7385826771653543
20
0.8651574803149606
11
1.7385826771653543
21
0.7348425196850393
0
LINE
8
BLACK
6
CONTINUOUS
10
1.7385826771653543
20
0.7348425196850393
11
1.8114173228346457
21
0.7348425196850393
0
LINE
8
BLACK
6
CONTINUOUS
10
1.8114173228346457
20
0.7348425196850393
11
1.8114173228346457
21
0.8651574803149606
0
LINE
8
BLACK
6
CONTINUOUS
10
1.8114173228346457
20
0.8651574803149606
11
1.7385826771653543
21
0.8651574803149606
0
LINE
8
BLACK
6
CONTINUOUS
10
2.3036417322834644
20
0.8133858267716535
11
2.3043377165354331
21
0.813097559055118
0
LINE
8
BLACK
6
CONTINUOUS
10
2.3043377165354331
20
0.813097559055118
11
2.3046259842519685
21
0.8124015748031496
0
LINE
8
BLACK
6
CONTINUOUS
10
2.3046259842519685
20
0.8124015748031496
11
2.3046259842519685
21
0.7375984251968504
0
LINE
8
BLACK
6
CONTINUOUS
10
2.3046259842519685
20
0.7375984251968504
11
2.3043377165354331
21
0.7369024409448819
0
LINE
8
BLACK
6
CONTINUOUS
10
2.3043377165354331
20
0.7369024409448819
11
2.3036417322834644
21
0.7366141732283464
0
LINE
8
BLACK
6
CONTINUOUS
10
2.3036417322834644
20
0.7366141732283464
11
2.1713582677165353
21
0.7366141732283464
0
LINE
8
BLACK
6
CONTINUOUS
10
2.1713582677165353
20
0.7366141732283464
11
2.170662283464567
21
0.7369024409448819
0
LINE
8
BLACK
6
CONTINUOUS
10
2.170662283464567
20
0.7369024409448819
11
2.1703740157480316
21
0.7375984251968504
0
LINE
8
BLACK
6
CONTINUOUS
10
2.1703740157480316
20
0.7375984251968504
11
2.1703740157480316
21
0.8124015748031496
0
LINE
8
BLACK
6
CONTINUOUS
10
2.1703740157480316
20
0.8124015748031496
11
2.170662283464567
21
0.813097559055118
0
LINE
8
BLACK
6
CONTINUOUS
10
2.170662283464567
20
0.813097559055118
11
2.1713582677165353
21
0.8133858267716535
0
LINE
8
BLACK
6
CONTINUOUS
10
2.1713582677165353
20
0.8133858267716535
11
2.3036417322834644
21
0.8133858267716535
0
LINE
8
BLACK
6
CONTINUOUS
10
2.1723425196850394
20
0.8114173228346456
11
2.1723425196850394
21
0.7385826771653543
0
LINE
8
BLACK
6
CONTINUOUS
10
2.1723425196850394
20
0.7385826771653543
11
2.3026574803149606
21
0.7385826771653543
0
LINE
8
BLACK
6
CONTINUOUS
10
2.3026574803149606
20
0.7385826771653543
11
2.3026574803149606
21
0.8114173228346456
0
LINE
8
BLACK
6
CONTINUOUS
10
2.3026574803149606
20
0.8114173228346456
11
2.1723425196850394
21
0.8114173228346456
0
LINE
8
BLACK
6
CONTINUOUS
10
1.7124015748031496
20
0.8796259842519685
11
1.7130975590551181
21
0.879337716535433
0
LINE
8
BLACK
6
CONTINUOUS
10
1.7130975590551181
20
0.879337716535433
11
1.7133858267716535
21
0.8786417322834645
0
LINE
8
BLACK
6
CONTINUOUS
10
1.7133858267716535
20
0.8786417322834645
11
1.7133858267716535
21
0.7463582677165355
0
LINE
8
BLACK
6
CONTINUOUS
10
1.7133858267716535
20
0.7463582677165355
11
1.7130975590551181
21
0.7456622834645669
0
LINE
8
BLACK
6
CONTINUOUS
10
1.7130975590551181
20
0.7456622834645669
11
1.7124015748031496
21
0.7453740157480315
0
LINE
8
BLACK
6
CONTINUOUS
10
1.7124015748031496
20
0.7453740157480315
11
1.6375984251968503
21
0.7453740157480315
0
LINE
8
BLACK
6
CONTINUOUS
10
1.6375984251968503
20
0.7453740157480315
11
1.6369024409448818
21
0.7456622834645669
0
LINE
8
BLACK
6
CONTINUOUS
10
1.6369024409448818
20
0.7456622834645669
11
1.6366141732283463
21
0.7463582677165355
0
LINE
8
BLACK
6
CONTINUOUS
10
1.6366141732283463
20
0.7463582677165355
11
1.6366141732283463
21
0.8786417322834645
0
LINE
8
BLACK
6
CONTINUOUS
10
1.6366141732283463
20
0.8786417322834645
11
1.6369024409448818
21
0.879337716535433
0
LINE
8
BLACK
6
CONTINUOUS
10
1.6369024409448818
20
0.879337716535433
11
1.6375984251968503
21
0.8796259842519685
0
LINE
8
BLACK
6
CONTINUOUS
10
1.6375984251968503
20
0.8796259842519685
11
1.7124015748031496
21
0.8796259842519685
0
LINE
8
BLACK
6
CONTINUOUS
10
1.6385826771653542
20
0.8776574803149606
11
1.6385826771653542
21
0.7473425196850394
0
LINE
8
BLACK
6
CONTINUOUS
10
1.6385826771653542
20
0.7473425196850394
11
1.7114173228346456
21
0.7473425196850394
0
LINE
8
BLACK
6
CONTINUOUS
10
1.7114173228346456
20
0.7473425196850394
11
1.7114173228346456
21
0.8776574803149606
0
LINE
8
BLACK
6
CONTINUOUS
10
1.7114173228346456
20
0.8776574803149606
11
1.6385826771653542
21
0.8776574803149606
0
LINE
8
BLACK
6
CONTINUOUS
10
2.0161417322834647
20
0.9633858267716535
11
2.016837716535433
21
0.9630975590551181
0
LINE
8
BLACK
6
CONTINUOUS
10
2.016837716535433
20
0.9630975590551181
11
2.0171259842519684
21
0.9624015748031496
0
LINE
8
BLACK
6
CONTINUOUS
10
2.0171259842519684
20
0.9624015748031496
11
2.0171259842519684
21
0.8875984251968504
0
LINE
8
BLACK
6
CONTINUOUS
10
2.0171259842519684
20
0.8875984251968504
11
2.016837716535433
21
0.8869024409448819
0
LINE
8
BLACK
6
CONTINUOUS
10
2.016837716535433
20
0.8869024409448819
11
2.0161417322834647
21
0.8866141732283465
0
LINE
8
BLACK
6
CONTINUOUS
10
2.0161417322834647
20
0.8866141732283465
11
1.8838582677165354
21
0.8866141732283465
0
LINE
8
BLACK
6
CONTINUOUS
10
1.8838582677165354
20
0.8866141732283465
11
1.8831622834645669
21
0.8869024409448819
0
LINE
8
BLACK
6
CONTINUOUS
10
1.8831622834645669
20
0.8869024409448819
11
1.8828740157480315
21
0.8875984251968504
0
LINE
8
BLACK
6
CONTINUOUS
10
1.8828740157480315
20
0.8875984251968504
11
1.8828740157480315
21
0.9624015748031496
0
LINE
8
BLACK
6
CONTINUOUS
10
1.8828740157480315
20
0.9624015748031496
11
1.8831622834645669
21
0.9630975590551181
0
LINE
8
BLACK
6
CONTINUOUS
10
1.8831622834645669
20
0.9630975590551181
11
1.8838582677165354
21
0.9633858267716535
0
LINE
8
BLACK
6
CONTINUOUS
10
1.8838582677165354
20
0.9633858267716535
11
2.0161417322834647
21
0.9633858267716535
0
LINE
8
BLACK
6
CONTINUOUS
10
1.8848425196850394
20
0.9614173228346456
11
1.8848425196850394
21
0.8885826771653543
0
LINE
8
BLACK
6
CONTINUOUS
10
1.8848425196850394
20
0.8885826771653543
11
2.0151574803149606
21
0.8885826771653543
0
LINE
8
BLACK
6
CONTINUOUS
10
2.0151574803149606
20
0.8885826771653543
11
2.0151574803149606
21
0.9614173228346456
0
LINE
8
BLACK
6
CONTINUOUS
10
2.0151574803149606
20
0.9614173228346456
11
1.8848425196850394
21
0.9614173228346456
0
LINE
8
BLACK
6
CONTINUOUS
10
2.2374015748031497
20
1.0796259842519684
11
2.238097559055118
21
1.079337716535433
0
LINE
8
BLACK
6
CONTINUOUS
10
2.238097559055118
20
1.079337716535433
11
2.2383858267716534
21
1.0786417322834645
0
LINE
8
BLACK
6
CONTINUOUS
10
2.2383858267716534
20
1.0786417322834645
11
2.2383858267716534
21
0.9463582677165354
0
LINE
8
BLACK
6
CONTINUOUS
10
2.2383858267716534
20
0.9463582677165354
11
2.238097559055118
21
0.9456622834645669
0
LINE
8
BLACK
6
CONTINUOUS
10
2.238097559055118
20
0.9456622834645669
11
2.2374015748031497
21
0.9453740157480315
0
LINE
8
BLACK
6
CONTINUOUS
10
2.2374015748031497
20
0.9453740157480315
11
2.1625984251968502
21
0.9453740157480315
0
LINE
8
BLACK
6
CONTINUOUS
10
2.1625984251968502
20
0.9453740157480315
11
2.1619024409448819
21
0.9456622834645669
0
LINE
8
BLACK
6
CONTINUOUS
10
2.1619024409448819
20
0.9456622834645669
11
2.1616141732283465
21
0.9463582677165354
0
LINE
8
BLACK
6
CONTINUOUS
10
2.1616141732283465
20
0.9463582677165354
11
2.1616141732283465
21
1.0786417322834645
0
LINE
8
BLACK
6
CONTINUOUS
10
2.1616141732283465
20
1.0786417322834645
11
2.1619024409448819
21
1.079337716535433
0
LINE
8
BLACK
6
CONTINUOUS
10
2.1619024409448819
20
1.079337716535433
11
2.1625984251968502
21
1.0796259842519684
0
LINE
8
BLACK
6
CONTINUOUS
10
2.1625984251968502
20
1.0796259842519684
11
2.2374015748031497
21
1.0796259842519684
0
LINE
8
BLACK
6
CONTINUOUS
10
2.1635826771653544
20
1.0776574803149606
11
2.1635826771653544
21
0.9473425196850394
0
LINE
8
BLACK
6
CONTINUOUS
10
2.1635826771653544
20
0.9473425196850394
11
2.2364173228346456
21
0.9473425196850394
0
LINE
8
BLACK
6
CONTINUOUS
10
2.2364173228346456
20
0.9473425196850394
11
2.2364173228346456
21
1.0776574803149606
0
LINE
8
BLACK
6
CONTINUOUS
10
2.2364173228346456
20
1.0776574803149606
11
2.1635826771653544
21
1.0776574803149606
0
LINE
8
BLACK
6
CONTINUOUS
10
2.3374015748031494
20
1.0796259842519684
11
2.3380975590551181
21
1.079337716535433
0
LINE
8
BLACK
6
CONTINUOUS
10
2.3380975590551181
20
1.079337716535433
11
2.3383858267716535
21
1.0786417322834645
0
LINE
8
BLACK
6
CONTINUOUS
10
2.3383858267716535
20
1.0786417322834645
11
2.3383858267716535
21
0.9463582677165354
0
LINE
8
BLACK
6
CONTINUOUS
10
2.3383858267716535
20
0.9463582677165354
11
2.3380975590551181
21
0.9456622834645669
0
LINE
8
BLACK
6
CONTINUOUS
10
2.3380975590551181
20
0.9456622834645669
11
2.3374015748031494
21
0.9453740157480315
0
LINE
8
BLACK
6
CONTINUOUS
10
2.3374015748031494
20
0.9453740157480315
11
2.2625984251968503
21
0.9453740157480315
0
LINE
8
BLACK
6
CONTINUOUS
10
2.2625984251968503
20
0.9453740157480315
11
2.261902440944882
21
0.9456622834645669
0
LINE
8
BLACK
6
CONTINUOUS
10
2.261902440944882
20
0.9456622834645669
11
2.2616141732283466
21
0.9463582677165354
0
LINE
8
BLACK
6
CONTINUOUS
10
2.2616141732283466
20
0.9463582677165354
11
2.2616141732283466
21
1.0786417322834645
0
LINE
8
BLACK
6
CONTINUOUS
10
2.2616141732283466
20
1.0786417322834645
11
2.261902440944882
21
1.079337716535433
0
LINE
8
BLACK
6
CONTINUOUS
10
2.261902440944882
20
1.079337716535433
11
2.2625984251968503
21
1.0796259842519684
0
LINE
8
BLACK
6
CONTINUOUS
10
2.2625984251968503
20
1.0796259842519684
11
2.3374015748031494
21
1.0796259842519684
0
LINE
8
BLACK
6
CONTINUOUS
10
2.2635826771653544
20
1.0776574803149606
11
2.2635826771653544
21
0.9473425196850394
0
LINE
8
BLACK
6
CONTINUOUS
10
2.2635826771653544
20
0.9473425196850394
11
2.3364173228346456
21
0.9473425196850394
0
LINE
8
BLACK
6
CONTINUOUS
10
2.3364173228346456
20
0.9473425196850394
11
2.3364173228346456
21
1.0776574803149606
0
LINE
8
BLACK
6
CONTINUOUS
10
2.3364173228346456
20
1.0776574803149606
11
2.2635826771653544
21
1.0776574803149606
0
LINE
8
BLACK
6
CONTINUOUS
10
2.1286417322834645
20
1.0633858267716536
11
2.1293377165354328
21
1.0630975590551182
0
LINE
8
BLACK
6
CONTINUOUS
10
2.1293377165354328
20
1.0630975590551182
11
2.1296259842519683
21
1.0624015748031497
0
LINE
8
BLACK
6
CONTINUOUS
10
2.1296259842519683
20
1.0624015748031497
11
2.1296259842519683
21
0.9875984251968504
0
LINE
8
BLACK
6
CONTINUOUS
10
2.1296259842519683
20
0.9875984251968504
11
2.1293377165354328
21
0.9869024409448819
0
LINE
8
BLACK
6
CONTINUOUS
10
2.1293377165354328
20
0.9869024409448819
11
2.1286417322834645
21
0.9866141732283464
0
LINE
8
BLACK
6
CONTINUOUS
10
2.1286417322834645
20
0.9866141732283464
11
1.9963582677165355
21
0.9866141732283464
0
LINE
8
BLACK
6
CONTINUOUS
10
1.9963582677165355
20
0.9866141732283464
11
1.995662283464567
21
0.9869024409448819
0
LINE
8
BLACK
6
CONTINUOUS
10
1.995662283464567
20
0.9869024409448819
11
1.9953740157480315
21
0.9875984251968504
0
LINE
8
BLACK
6
CONTINUOUS
10
1.9953740157480315
20
0.9875984251968504
11
1.9953740157480315
21
1.0624015748031497
0
LINE
8
BLACK
6
CONTINUOUS
10
1.9953740157480315
20
1.0624015748031497
11
1.995662283464567
21
1.0630975590551182
0
LINE
8
BLACK
6
CONTINUOUS
10
1.995662283464567
20
1.0630975590551182
11
1.9963582677165355
21
1.0633858267716536
0
LINE
8
BLACK
6
CONTINUOUS
10
1.9963582677165355
20
1.0633858267716536
11
2.1286417322834645
21
1.0633858267716536
0
LINE
8
BLACK
6
CONTINUOUS
10
1.9973425196850394
20
1.0614173228346457
11
1.9973425196850394
21
0.9885826771653543
0
LINE
8
BLACK
6
CONTINUOUS
10
1.9973425196850394
20
0.9885826771653543
11
2.1276574803149604
21
0.9885826771653543
0
LINE
8
BLACK
6
CONTINUOUS
10
2.1276574803149604
20
0.9885826771653543
11
2.1276574803149604
21
1.0614173228346457
0
LINE
8
BLACK
6
CONTINUOUS
10
2.1276574803149604
20
1.0614173228346457
11
1.9973425196850394
21
1.0614173228346457
0
LINE
8
BLACK
6
CONTINUOUS
10
2.0286417322834644
20
1.1633858267716535
11
2.0293377165354332
21
1.163097559055118
0
LINE
8
BLACK
6
CONTINUOUS
10
2.0293377165354332
20
1.163097559055118
11
2.0296259842519686
21
1.1624015748031495
0
LINE
8
BLACK
6
CONTINUOUS
10
2.0296259842519686
20
1.1624015748031495
11
2.0296259842519686
21
1.0875984251968505
0
LINE
8
BLACK
6
CONTINUOUS
10
2.0296259842519686
20
1.0875984251968505
11
2.0293377165354332
21
1.086902440944882
0
LINE
8
BLACK
6
CONTINUOUS
10
2.0293377165354332
20
1.086902440944882
11
2.0286417322834644
21
1.0866141732283465
0
LINE
8
BLACK
6
CONTINUOUS
10
2.0286417322834644
20
1.0866141732283465
11
1.8963582677165354
21
1.0866141732283465
0
LINE
8
BLACK
6
CONTINUOUS
10
1.8963582677165354
20
1.0866141732283465
11
1.8956622834645669
21
1.086902440944882
0
LINE
8
BLACK
6
CONTINUOUS
10
1.8956622834645669
20
1.086902440944882
11
1.8953740157480314
21
1.0875984251968505
0
LINE
8
BLACK
6
CONTINUOUS
10
1.8953740157480314
20
1.0875984251968505
11
1.8953740157480314
21
1.1624015748031495
0
LINE
8
BLACK
6
CONTINUOUS
10
1.8953740157480314
20
1.1624015748031495
11
1.8956622834645669
21
1.163097559055118
0
LINE
8
BLACK
6
CONTINUOUS
10
1.8956622834645669
20
1.163097559055118
11
1.8963582677165354
21
1.1633858267716535
0
LINE
8
BLACK
6
CONTINUOUS
10
1.8963582677165354
20
1.1633858267716535
11
2.0286417322834644
21
1.1633858267716535
0
LINE
8
BLACK
6
CONTINUOUS
10
1.8973425196850393
20
1.1614173228346456
11
1.8973425196850393
21
1.0885826771653544
0
LINE
8
BLACK
6
CONTINUOUS
10
1.8973425196850393
20
1.0885826771653544
11
2.0276574803149607
21
1.0885826771653544
0
LINE
8
BLACK
6
CONTINUOUS
10
2.0276574803149607
20
1.0885826771653544
11
2.0276574803149607
21
1.1614173228346456
0
LINE
8
BLACK
6
CONTINUOUS
10
2.0276574803149607
20
1.1614173228346456
11
1.8973425196850393
21
1.1614173228346456
  0
ENDSEC
  0
EOF
