  0
SECTION
  2
HEADER
  9
$ANGBASE
  50
0.0
  9
$ANGDIR
  70
1
  9
$MEASUREMENT
  70
0
  0
ENDSEC
  0
SECTION
  2
TABLES
  0
TABLE
  2
LTYPE
  70
4
  0
LTYPE
  5
40F
  2
CONTINUOUS
  70
0
  3
Solid line
  72
65
  73
0
  40
0.0
  0
LTYPE
  5
410
  2
DASHDOT
 70
0
  3
Dash Dot ____ _ ____ _
 72
65
 73
4
 40
2.0
 49
1.25
 49
-0.25
 49
0.25
 49
-0.25
  0
LTYPE
  5
411
  2
DASHED
 70
0
  3
Dashed __ __ __ __ __
 72
65
 73
2
 40
0.75
 49
0.5
 49
-0.25
  0
LTYPE
  5
43B
  2
DOTTED
 70
0
  3
Dotted .  .  .  .
 72
65
 73
2
 40
0.2
 49
0.0
 49
-0.2
  0
ENDTAB
  0
TABLE
  2
STYLE
  70
4
  0
STYLE
  2
KICAD
  70
0
  40
0
  41
1
  42
1
  50
0
  71
0
  3
isocp.shx
  0
STYLE
  2
KICADB
  70
0
  40
0
  41
1
  42
1
  50
0
  71
0
  3
isocp.shx
  0
STYLE
  2
KICADI
  70
0
  40
0
  41
1
  42
1
  50
15
  71
0
  3
isocp.shx
  0
STYLE
  2
KICADBI
  70
0
  40
0
  41
1
  42
1
  50
15
  71
0
  3
isocp.shx
  0
ENDTAB
  0
TABLE
  2
LAYER
  70
1
  0
LAYER
  2
BLACK
  70
0
  62
7
  6
CONTINUOUS
  0
ENDTAB
  0
ENDSEC
  0
SECTION
  2
ENTITIES
0
LINE
8
BLACK
6
CONTINUOUS
10
2.3734251968503934
20
0.5572834645669291
11
2.3741211811023621
21
0.5569951968503937
0
LINE
8
BLACK
6
CONTINUOUS
10
2.3741211811023621
20
0.5569951968503937
11
2.3744094488188976
21
0.5562992125984252
0
LINE
8
BLACK
6
CONTINUOUS
10
2.3744094488188976
20
0.5562992125984252
11
2.3744094488188976
21
0.3437007874015748
0
LINE
8
BLACK
6
CONTINUOUS
10
2.3744094488188976
20
0.3437007874015748
11
2.3741211811023621
21
0.3430048031496063
0
LINE
8
BLACK
6
CONTINUOUS
10
2.3741211811023621
20
0.3430048031496063
11
2.3734251968503934
21
0.3427165354330708
0
LINE
8
BLACK
6
CONTINUOUS
10
2.3734251968503934
20
0.3427165354330708
11
1.9757874015748031
21
0.3427165354330708
0
LINE
8
BLACK
6
CONTINUOUS
10
1.9757874015748031
20
0.3427165354330708
11
1.9750914173228347
21
0.3430048031496063
0
LINE
8
BLACK
6
CONTINUOUS
10
1.9750914173228347
20
0.3430048031496063
11
1.9748031496062992
21
0.3437007874015748
0
LINE
8
BLACK
6
CONTINUOUS
10
1.9748031496062992
20
0.3437007874015748
11
1.9748031496062992
21
0.5562992125984252
0
LINE
8
BLACK
6
CONTINUOUS
10
1.9748031496062992
20
0.5562992125984252
11
1.9750914173228347
21
0.5569951968503937
0
LINE
8
BLACK
6
CONTINUOUS
10
1.9750914173228347
20
0.5569951968503937
11
1.9757874015748031
21
0.5572834645669291
0
LINE
8
BLACK
6
CONTINUOUS
10
1.9757874015748031
20
0.5572834645669291
11
2.3734251968503934
21
0.5572834645669291
0
LINE
8
BLACK
6
CONTINUOUS
10
1.9767716535433071
20
0.5553149606299213
11
1.9767716535433071
21
0.3446850393700787
0
LINE
8
BLACK
6
CONTINUOUS
10
1.9767716535433071
20
0.3446850393700787
11
2.3724409448818897
21
0.3446850393700787
0
LINE
8
BLACK
6
CONTINUOUS
10
2.3724409448818897
20
0.3446850393700787
11
2.3724409448818897
21
0.5553149606299213
0
LINE
8
BLACK
6
CONTINUOUS
10
2.3724409448818897
20
0.5553149606299213
11
1.9767716535433071
21
0.5553149606299213
0
LINE
8
BLACK
6
CONTINUOUS
10
2.3734251968503934
20
0.7822834645669291
11
2.3741211811023621
21
0.7819951968503936
0
LINE
8
BLACK
6
CONTINUOUS
10
2.3741211811023621
20
0.7819951968503936
11
2.3744094488188976
21
0.7812992125984252
0
LINE
8
BLACK
6
CONTINUOUS
10
2.3744094488188976
20
0.7812992125984252
11
2.3744094488188976
21
0.5687007874015748
0
LINE
8
BLACK
6
CONTINUOUS
10
2.3744094488188976
20
0.5687007874015748
11
2.3741211811023621
21
0.5680048031496063
0
LINE
8
BLACK
6
CONTINUOUS
10
2.3741211811023621
20
0.5680048031496063
11
2.3734251968503934
21
0.5677165354330709
0
LINE
8
BLACK
6
CONTINUOUS
10
2.3734251968503934
20
0.5677165354330709
11
1.9757874015748031
21
0.5677165354330709
0
LINE
8
BLACK
6
CONTINUOUS
10
1.9757874015748031
20
0.5677165354330709
11
1.9750914173228347
21
0.5680048031496063
0
LINE
8
BLACK
6
CONTINUOUS
10
1.9750914173228347
20
0.5680048031496063
11
1.9748031496062992
21
0.5687007874015748
0
LINE
8
BLACK
6
CONTINUOUS
10
1.9748031496062992
20
0.5687007874015748
11
1.9748031496062992
21
0.7812992125984252
0
LINE
8
BLACK
6
CONTINUOUS
10
1.9748031496062992
20
0.7812992125984252
11
1.9750914173228347
21
0.7819951968503936
0
LINE
8
BLACK
6
CONTINUOUS
10
1.9750914173228347
20
0.7819951968503936
11
1.9757874015748031
21
0.7822834645669291
0
LINE
8
BLACK
6
CONTINUOUS
10
1.9757874015748031
20
0.7822834645669291
11
2.3734251968503934
21
0.7822834645669291
0
LINE
8
BLACK
6
CONTINUOUS
10
1.9767716535433071
20
0.7803149606299212
11
1.9767716535433071
21
0.5696850393700787
0
LINE
8
BLACK
6
CONTINUOUS
10
1.9767716535433071
20
0.5696850393700787
11
2.3724409448818897
21
0.5696850393700787
0
LINE
8
BLACK
6
CONTINUOUS
10
2.3724409448818897
20
0.5696850393700787
11
2.3724409448818897
21
0.7803149606299212
0
LINE
8
BLACK
6
CONTINUOUS
10
2.3724409448818897
20
0.7803149606299212
11
1.9767716535433071
21
0.7803149606299212
0
LINE
8
BLACK
6
CONTINUOUS
10
1.6931002755905511
20
1.0084616929133858
11
1.7110627559055118
21
1.0060968897637794
0
LINE
8
BLACK
6
CONTINUOUS
10
1.7110627559055118
20
1.0060968897637794
11
1.7287507874015748
21
1.0021755511811024
0
LINE
8
BLACK
6
CONTINUOUS
10
1.7287507874015748
20
1.0021755511811024
11
1.7460297637795275
21
0.9967275196850394
0
LINE
8
BLACK
6
CONTINUOUS
10
1.7460297637795275
20
0.9967275196850394
11
1.7627681496062992
21
0.9897942519685039
0
LINE
8
BLACK
6
CONTINUOUS
10
1.7627681496062992
20
0.9897942519685039
11
1.7788385826771653
21
0.9814285039370079
0
LINE
8
BLACK
6
CONTINUOUS
10
1.7788385826771653
20
0.9814285039370079
11
1.7941187401574803
21
0.9716939763779527
0
LINE
8
BLACK
6
CONTINUOUS
10
1.7941187401574803
20
0.9716939763779527
11
1.8084923228346457
21
0.9606647244094488
0
LINE
8
BLACK
6
CONTINUOUS
10
1.8084923228346457
20
0.9606647244094488
11
1.8218499212598425
21
0.9484247244094488
0
LINE
8
BLACK
6
CONTINUOUS
10
1.8218499212598425
20
0.9484247244094488
11
1.8340899212598425
21
0.9350671259842519
0
LINE
8
BLACK
6
CONTINUOUS
10
1.8340899212598425
20
0.9350671259842519
11
1.8451191732283465
21
0.9206935433070866
0
LINE
8
BLACK
6
CONTINUOUS
10
1.8451191732283465
20
0.9206935433070866
11
1.8548537007874015
21
0.9054133858267717
0
LINE
8
BLACK
6
CONTINUOUS
10
1.8548537007874015
20
0.9054133858267717
11
1.8632194488188976
21
0.8893429527559055
0
LINE
8
BLACK
6
CONTINUOUS
10
1.8632194488188976
20
0.8893429527559055
11
1.870152716535433
21
0.8726045669291338
0
LINE
8
BLACK
6
CONTINUOUS
10
1.870152716535433
20
0.8726045669291338
11
1.875600748031496
21
0.8553255905511811
0
LINE
8
BLACK
6
CONTINUOUS
10
1.875600748031496
20
0.8553255905511811
11
1.8795220866141731
21
0.8376375590551181
0
LINE
8
BLACK
6
CONTINUOUS
10
1.8795220866141731
20
0.8376375590551181
11
1.8818868897637795
21
0.8196750787401574
0
LINE
8
BLACK
6
CONTINUOUS
10
1.8818868897637795
20
0.8196750787401574
11
1.8826771653543306
21
0.8015748031496063
0
LINE
8
BLACK
6
CONTINUOUS
10
1.8826771653543306
20
0.8015748031496063
11
1.8818868897637795
21
0.7834745275590551
0
LINE
8
BLACK
6
CONTINUOUS
10
1.8818868897637795
20
0.7834745275590551
11
1.8795220866141731
21
0.7655120472440945
0
LINE
8
BLACK
6
CONTINUOUS
10
1.8795220866141731
20
0.7655120472440945
11
1.875600748031496
21
0.7478240157480315
0
LINE
8
BLACK
6
CONTINUOUS
10
1.875600748031496
20
0.7478240157480315
11
1.870152716535433
21
0.7305450393700788
0
LINE
8
BLACK
6
CONTINUOUS
10
1.870152716535433
20
0.7305450393700788
11
1.8632194488188976
21
0.7138066535433071
0
LINE
8
BLACK
6
CONTINUOUS
10
1.8632194488188976
20
0.7138066535433071
11
1.8548537007874015
21
0.6977362204724409
0
LINE
8
BLACK
6
CONTINUOUS
10
1.8548537007874015
20
0.6977362204724409
11
1.8451191732283465
21
0.682456062992126
0
LINE
8
BLACK
6
CONTINUOUS
10
1.8451191732283465
20
0.682456062992126
11
1.8340899212598425
21
0.6680824803149606
0
LINE
8
BLACK
6
CONTINUOUS
10
1.8340899212598425
20
0.6680824803149606
11
1.8218499212598425
21
0.6547248818897637
0
LINE
8
BLACK
6
CONTINUOUS
10
1.8218499212598425
20
0.6547248818897637
11
1.8084923228346457
21
0.6424848818897637
0
LINE
8
BLACK
6
CONTINUOUS
10
1.8084923228346457
20
0.6424848818897637
11
1.7941187401574803
21
0.6314556299212598
0
LINE
8
BLACK
6
CONTINUOUS
10
1.7941187401574803
20
0.6314556299212598
11
1.7788385826771653
21
0.6217211023622047
0
LINE
8
BLACK
6
CONTINUOUS
10
1.7788385826771653
20
0.6217211023622047
11
1.7627681496062992
21
0.6133553543307086
0
LINE
8
BLACK
6
CONTINUOUS
10
1.7627681496062992
20
0.6133553543307086
11
1.7460297637795275
21
0.6064220866141732
0
LINE
8
BLACK
6
CONTINUOUS
10
1.7460297637795275
20
0.6064220866141732
11
1.7287507874015748
21
0.6009740551181102
0
LINE
8
BLACK
6
CONTINUOUS
10
1.7287507874015748
20
0.6009740551181102
11
1.7110627559055118
21
0.597052716535433
0
LINE
8
BLACK
6
CONTINUOUS
10
1.7110627559055118
20
0.597052716535433
11
1.6931002755905511
21
0.5946879133858267
0
LINE
8
BLACK
6
CONTINUOUS
10
1.6931002755905511
20
0.5946879133858267
11
1.675
21
0.5938976377952756
0
LINE
8
BLACK
6
CONTINUOUS
10
1.675
20
0.5938976377952756
11
1.6568997244094488
21
0.5946879133858267
0
LINE
8
BLACK
6
CONTINUOUS
10
1.6568997244094488
20
0.5946879133858267
11
1.638937244094488
21
0.597052716535433
0
LINE
8
BLACK
6
CONTINUOUS
10
1.638937244094488
20
0.597052716535433
11
1.6212492125984252
21
0.6009740551181102
0
LINE
8
BLACK
6
CONTINUOUS
10
1.6212492125984252
20
0.6009740551181102
11
1.6039702362204724
21
0.6064220866141732
0
LINE
8
BLACK
6
CONTINUOUS
10
1.6039702362204724
20
0.6064220866141732
11
1.5872318503937008
21
0.6133553543307086
0
LINE
8
BLACK
6
CONTINUOUS
10
1.5872318503937008
20
0.6133553543307086
11
1.5711614173228345
21
0.6217211023622047
0
LINE
8
BLACK
6
CONTINUOUS
10
1.5711614173228345
20
0.6217211023622047
11
1.5558812598425196
21
0.6314556299212598
0
LINE
8
BLACK
6
CONTINUOUS
10
1.5558812598425196
20
0.6314556299212598
11
1.5415076771653542
21
0.6424848818897637
0
LINE
8
BLACK
6
CONTINUOUS
10
1.5415076771653542
20
0.6424848818897637
11
1.5281500787401574
21
0.6547248818897637
0
LINE
8
BLACK
6
CONTINUOUS
10
1.5281500787401574
20
0.6547248818897637
11
1.5159100787401574
21
0.6680824803149606
0
LINE
8
BLACK
6
CONTINUOUS
10
1.5159100787401574
20
0.6680824803149606
11
1.5048808267716536
21
0.682456062992126
0
LINE
8
BLACK
6
CONTINUOUS
10
1.5048808267716536
20
0.682456062992126
11
1.4951462992125983
21
0.6977362204724409
0
LINE
8
BLACK
6
CONTINUOUS
10
1.4951462992125983
20
0.6977362204724409
11
1.4867805511811023
21
0.7138066535433071
0
LINE
8
BLACK
6
CONTINUOUS
10
1.4867805511811023
20
0.7138066535433071
11
1.4798472834645668
21
0.7305450393700788
0
LINE
8
BLACK
6
CONTINUOUS
10
1.4798472834645668
20
0.7305450393700788
11
1.4743992519685039
21
0.7478240157480315
0
LINE
8
BLACK
6
CONTINUOUS
10
1.4743992519685039
20
0.7478240157480315
11
1.4704779133858268
21
0.7655120472440945
0
LINE
8
BLACK
6
CONTINUOUS
10
1.4704779133858268
20
0.7655120472440945
11
1.4681131102362204
21
0.7834745275590551
0
LINE
8
BLACK
6
CONTINUOUS
10
1.4681131102362204
20
0.7834745275590551
11
1.4673228346456693
21
0.8015748031496063
0
LINE
8
BLACK
6
CONTINUOUS
10
1.4673228346456693
20
0.8015748031496063
11
1.4681131102362204
21
0.8196750787401574
0
LINE
8
BLACK
6
CONTINUOUS
10
1.4681131102362204
20
0.8196750787401574
11
1.4704779133858268
21
0.8376375590551181
0
LINE
8
BLACK
6
CONTINUOUS
10
1.4704779133858268
20
0.8376375590551181
11
1.4743992519685039
21
0.8553255905511811
0
LINE
8
BLACK
6
CONTINUOUS
10
1.4743992519685039
20
0.8553255905511811
11
1.4798472834645668
21
0.8726045669291338
0
LINE
8
BLACK
6
CONTINUOUS
10
1.4798472834645668
20
0.8726045669291338
11
1.4867805511811023
21
0.8893429527559055
0
LINE
8
BLACK
6
CONTINUOUS
10
1.4867805511811023
20
0.8893429527559055
11
1.4951462992125983
21
0.9054133858267717
0
LINE
8
BLACK
6
CONTINUOUS
10
1.4951462992125983
20
0.9054133858267717
11
1.5048808267716536
21
0.9206935433070866
0
LINE
8
BLACK
6
CONTINUOUS
10
1.5048808267716536
20
0.9206935433070866
11
1.5159100787401574
21
0.9350671259842519
0
LINE
8
BLACK
6
CONTINUOUS
10
1.5159100787401574
20
0.9350671259842519
11
1.5281500787401574
21
0.9484247244094488
0
LINE
8
BLACK
6
CONTINUOUS
10
1.5281500787401574
20
0.9484247244094488
11
1.5415076771653542
21
0.9606647244094488
0
LINE
8
BLACK
6
CONTINUOUS
10
1.5415076771653542
20
0.9606647244094488
11
1.5558812598425196
21
0.9716939763779527
0
LINE
8
BLACK
6
CONTINUOUS
10
1.5558812598425196
20
0.9716939763779527
11
1.5711614173228345
21
0.9814285039370079
0
LINE
8
BLACK
6
CONTINUOUS
10
1.5711614173228345
20
0.9814285039370079
11
1.5872318503937008
21
0.9897942519685039
0
LINE
8
BLACK
6
CONTINUOUS
10
1.5872318503937008
20
0.9897942519685039
11
1.6039702362204724
21
0.9967275196850394
0
LINE
8
BLACK
6
CONTINUOUS
10
1.6039702362204724
20
0.9967275196850394
11
1.6212492125984252
21
1.0021755511811024
0
LINE
8
BLACK
6
CONTINUOUS
10
1.6212492125984252
20
1.0021755511811024
11
1.638937244094488
21
1.0060968897637794
0
LINE
8
BLACK
6
CONTINUOUS
10
1.638937244094488
20
1.0060968897637794
11
1.6568997244094488
21
1.0084616929133858
0
LINE
8
BLACK
6
CONTINUOUS
10
1.6568997244094488
20
1.0084616929133858
11
1.675
21
1.0092519685039369
0
LINE
8
BLACK
6
CONTINUOUS
10
1.675
20
1.0092519685039369
11
1.6931002755905511
21
1.0084616929133858
0
LINE
8
BLACK
6
CONTINUOUS
10
1.4698788976377952
20
0.7836290157480315
11
1.4722235039370077
21
0.765819842519685
0
LINE
8
BLACK
6
CONTINUOUS
10
1.4722235039370077
20
0.765819842519685
11
1.4761113779527559
21
0.7482827559055117
0
LINE
8
BLACK
6
CONTINUOUS
10
1.4761113779527559
20
0.7482827559055117
11
1.4815129133858267
21
0.7311512598425197
0
LINE
8
BLACK
6
CONTINUOUS
10
1.4815129133858267
20
0.7311512598425197
11
1.4883870078740158
21
0.714555748031496
0
LINE
8
BLACK
6
CONTINUOUS
10
1.4883870078740158
20
0.714555748031496
11
1.4966813385826772
21
0.6986224803149607
0
LINE
8
BLACK
6
CONTINUOUS
10
1.4966813385826772
20
0.6986224803149607
11
1.5063327952755905
21
0.6834727559055118
0
LINE
8
BLACK
6
CONTINUOUS
10
1.5063327952755905
20
0.6834727559055118
11
1.5172678740157479
21
0.6692218503937007
0
LINE
8
BLACK
6
CONTINUOUS
10
1.5172678740157479
20
0.6692218503937007
11
1.5294034251968505
21
0.6559782283464567
0
LINE
8
BLACK
6
CONTINUOUS
10
1.5294034251968505
20
0.6559782283464567
11
1.5426470472440945
21
0.6438426771653544
0
LINE
8
BLACK
6
CONTINUOUS
10
1.5426470472440945
20
0.6438426771653544
11
1.5568979527559055
21
0.6329075984251968
0
LINE
8
BLACK
6
CONTINUOUS
10
1.5568979527559055
20
0.6329075984251968
11
1.5720476771653542
21
0.6232561417322835
0
LINE
8
BLACK
6
CONTINUOUS
10
1.5720476771653542
20
0.6232561417322835
11
1.5879809448818898
21
0.614961811023622
0
LINE
8
BLACK
6
CONTINUOUS
10
1.5879809448818898
20
0.614961811023622
11
1.6045764566929133
21
0.608087716535433
0
LINE
8
BLACK
6
CONTINUOUS
10
1.6045764566929133
20
0.608087716535433
11
1.6217079527559055
21
0.6026861811023622
0
LINE
8
BLACK
6
CONTINUOUS
10
1.6217079527559055
20
0.6026861811023622
11
1.6392450393700786
21
0.5987983070866142
0
LINE
8
BLACK
6
CONTINUOUS
10
1.6392450393700786
20
0.5987983070866142
11
1.6570542125984251
21
0.5964537007874016
0
LINE
8
BLACK
6
CONTINUOUS
10
1.6570542125984251
20
0.5964537007874016
11
1.675
21
0.5956701574803149
0
LINE
8
BLACK
6
CONTINUOUS
10
1.675
20
0.5956701574803149
11
1.6929457874015748
21
0.5964537007874016
0
LINE
8
BLACK
6
CONTINUOUS
10
1.6929457874015748
20
0.5964537007874016
11
1.7107549606299213
21
0.5987983070866142
0
LINE
8
BLACK
6
CONTINUOUS
10
1.7107549606299213
20
0.5987983070866142
11
1.7282920472440944
21
0.6026861811023622
0
LINE
8
BLACK
6
CONTINUOUS
10
1.7282920472440944
20
0.6026861811023622
11
1.7454235433070866
21
0.608087716535433
0
LINE
8
BLACK
6
CONTINUOUS
10
1.7454235433070866
20
0.608087716535433
11
1.7620190551181103
21
0.614961811023622
0
LINE
8
BLACK
6
CONTINUOUS
10
1.7620190551181103
20
0.614961811023622
11
1.7779523228346457
21
0.6232561417322835
0
LINE
8
BLACK
6
CONTINUOUS
10
1.7779523228346457
20
0.6232561417322835
11
1.7931020472440944
21
0.6329075984251968
0
LINE
8
BLACK
6
CONTINUOUS
10
1.7931020472440944
20
0.6329075984251968
11
1.8073529527559056
21
0.6438426771653544
0
LINE
8
BLACK
6
CONTINUOUS
10
1.8073529527559056
20
0.6438426771653544
11
1.8205965748031496
21
0.6559782283464567
0
LINE
8
BLACK
6
CONTINUOUS
10
1.8205965748031496
20
0.6559782283464567
11
1.8327321259842519
21
0.6692218503937007
0
LINE
8
BLACK
6
CONTINUOUS
10
1.8327321259842519
20
0.6692218503937007
11
1.8436672047244094
21
0.6834727559055118
0
LINE
8
BLACK
6
CONTINUOUS
10
1.8436672047244094
20
0.6834727559055118
11
1.8533186614173227
21
0.6986224803149607
0
LINE
8
BLACK
6
CONTINUOUS
10
1.8533186614173227
20
0.6986224803149607
11
1.8616129921259843
21
0.714555748031496
0
LINE
8
BLACK
6
CONTINUOUS
10
1.8616129921259843
20
0.714555748031496
11
1.8684870866141732
21
0.7311512598425197
0
LINE
8
BLACK
6
CONTINUOUS
10
1.8684870866141732
20
0.7311512598425197
11
1.8738886220472442
21
0.7482827559055117
0
LINE
8
BLACK
6
CONTINUOUS
10
1.8738886220472442
20
0.7482827559055117
11
1.8777764960629921
21
0.765819842519685
0
LINE
8
BLACK
6
CONTINUOUS
10
1.8777764960629921
20
0.765819842519685
11
1.8801211023622046
21
0.7836290157480315
0
LINE
8
BLACK
6
CONTINUOUS
10
1.8801211023622046
20
0.7836290157480315
11
1.8809046456692913
21
0.8015748031496063
0
LINE
8
BLACK
6
CONTINUOUS
10
1.8809046456692913
20
0.8015748031496063
11
1.8801211023622046
21
0.8195205905511811
0
LINE
8
BLACK
6
CONTINUOUS
10
1.8801211023622046
20
0.8195205905511811
11
1.8777764960629921
21
0.8373297637795275
0
LINE
8
BLACK
6
CONTINUOUS
10
1.8777764960629921
20
0.8373297637795275
11
1.8738886220472442
21
0.8548668503937008
0
LINE
8
BLACK
6
CONTINUOUS
10
1.8738886220472442
20
0.8548668503937008
11
1.8684870866141732
21
0.8719983464566929
0
LINE
8
BLACK
6
CONTINUOUS
10
1.8684870866141732
20
0.8719983464566929
11
1.8616129921259843
21
0.8885938582677165
0
LINE
8
BLACK
6
CONTINUOUS
10
1.8616129921259843
20
0.8885938582677165
11
1.8533186614173227
21
0.904527125984252
0
LINE
8
BLACK
6
CONTINUOUS
10
1.8533186614173227
20
0.904527125984252
11
1.8436672047244094
21
0.9196768503937007
0
LINE
8
BLACK
6
CONTINUOUS
10
1.8436672047244094
20
0.9196768503937007
11
1.8327321259842519
21
0.9339277559055118
0
LINE
8
BLACK
6
CONTINUOUS
10
1.8327321259842519
20
0.9339277559055118
11
1.8205965748031496
21
0.9471713779527559
0
LINE
8
BLACK
6
CONTINUOUS
10
1.8205965748031496
20
0.9471713779527559
11
1.8073529527559056
21
0.9593069291338583
0
LINE
8
BLACK
6
CONTINUOUS
10
1.8073529527559056
20
0.9593069291338583
11
1.7931020472440944
21
0.9702420078740157
0
LINE
8
BLACK
6
CONTINUOUS
10
1.7931020472440944
20
0.9702420078740157
11
1.7779523228346457
21
0.9798934645669292
0
LINE
8
BLACK
6
CONTINUOUS
10
1.7779523228346457
20
0.9798934645669292
11
1.7620190551181103
21
0.9881877952755905
0
LINE
8
BLACK
6
CONTINUOUS
10
1.7620190551181103
20
0.9881877952755905
11
1.7454235433070866
21
0.9950618897637795
0
LINE
8
BLACK
6
CONTINUOUS
10
1.7454235433070866
20
0.9950618897637795
11
1.7282920472440944
21
1.0004634251968503
0
LINE
8
BLACK
6
CONTINUOUS
10
1.7282920472440944
20
1.0004634251968503
11
1.7107549606299213
21
1.0043512992125985
0
LINE
8
BLACK
6
CONTINUOUS
10
1.7107549606299213
20
1.0043512992125985
11
1.6929457874015748
21
1.006695905511811
0
LINE
8
BLACK
6
CONTINUOUS
10
1.6929457874015748
20
1.006695905511811
11
1.675
21
1.0074794488188976
0
LINE
8
BLACK
6
CONTINUOUS
10
1.675
20
1.0074794488188976
11
1.6570542125984251
21
1.006695905511811
0
LINE
8
BLACK
6
CONTINUOUS
10
1.6570542125984251
20
1.006695905511811
11
1.6392450393700786
21
1.0043512992125985
0
LINE
8
BLACK
6
CONTINUOUS
10
1.6392450393700786
20
1.0043512992125985
11
1.6217079527559055
21
1.0004634251968503
0
LINE
8
BLACK
6
CONTINUOUS
10
1.6217079527559055
20
1.0004634251968503
11
1.6045764566929133
21
0.9950618897637795
0
LINE
8
BLACK
6
CONTINUOUS
10
1.6045764566929133
20
0.9950618897637795
11
1.5879809448818898
21
0.9881877952755905
0
LINE
8
BLACK
6
CONTINUOUS
10
1.5879809448818898
20
0.9881877952755905
11
1.5720476771653542
21
0.9798934645669292
0
LINE
8
BLACK
6
CONTINUOUS
10
1.5720476771653542
20
0.9798934645669292
11
1.5568979527559055
21
0.9702420078740157
0
LINE
8
BLACK
6
CONTINUOUS
10
1.5568979527559055
20
0.9702420078740157
11
1.5426470472440945
21
0.9593069291338583
0
LINE
8
BLACK
6
CONTINUOUS
10
1.5426470472440945
20
0.9593069291338583
11
1.5294034251968505
21
0.9471713779527559
0
LINE
8
BLACK
6
CONTINUOUS
10
1.5294034251968505
20
0.9471713779527559
11
1.5172678740157479
21
0.9339277559055118
0
LINE
8
BLACK
6
CONTINUOUS
10
1.5172678740157479
20
0.9339277559055118
11
1.5063327952755905
21
0.9196768503937007
0
LINE
8
BLACK
6
CONTINUOUS
10
1.5063327952755905
20
0.9196768503937007
11
1.4966813385826772
21
0.904527125984252
0
LINE
8
BLACK
6
CONTINUOUS
10
1.4966813385826772
20
0.904527125984252
11
1.4883870078740158
21
0.8885938582677165
0
LINE
8
BLACK
6
CONTINUOUS
10
1.4883870078740158
20
0.8885938582677165
11
1.4815129133858267
21
0.8719983464566929
0
LINE
8
BLACK
6
CONTINUOUS
10
1.4815129133858267
20
0.8719983464566929
11
1.4761113779527559
21
0.8548668503937008
0
LINE
8
BLACK
6
CONTINUOUS
10
1.4761113779527559
20
0.8548668503937008
11
1.4722235039370077
21
0.8373297637795275
0
LINE
8
BLACK
6
CONTINUOUS
10
1.4722235039370077
20
0.8373297637795275
11
1.4698788976377952
21
0.8195205905511811
0
LINE
8
BLACK
6
CONTINUOUS
10
1.4698788976377952
20
0.8195205905511811
11
1.4690953543307086
21
0.8015748031496063
0
LINE
8
BLACK
6
CONTINUOUS
10
1.4690953543307086
20
0.8015748031496063
11
1.4698788976377952
21
0.7836290157480315
0
LINE
8
BLACK
6
CONTINUOUS
10
2.3734251968503934
20
1.0072834645669291
11
2.3741211811023621
21
1.0069951968503936
0
LINE
8
BLACK
6
CONTINUOUS
10
2.3741211811023621
20
1.0069951968503936
11
2.3744094488188976
21
1.0062992125984251
0
LINE
8
BLACK
6
CONTINUOUS
10
2.3744094488188976
20
1.0062992125984251
11
2.3744094488188976
21
0.7937007874015748
0
LINE
8
BLACK
6
CONTINUOUS
10
2.3744094488188976
20
0.7937007874015748
11
2.3741211811023621
21
0.7930048031496063
0
LINE
8
BLACK
6
CONTINUOUS
10
2.3741211811023621
20
0.7930048031496063
11
2.3734251968503934
21
0.7927165354330709
0
LINE
8
BLACK
6
CONTINUOUS
10
2.3734251968503934
20
0.7927165354330709
11
1.9757874015748031
21
0.7927165354330709
0
LINE
8
BLACK
6
CONTINUOUS
10
1.9757874015748031
20
0.7927165354330709
11
1.9750914173228347
21
0.7930048031496063
0
LINE
8
BLACK
6
CONTINUOUS
10
1.9750914173228347
20
0.7930048031496063
11
1.9748031496062992
21
0.7937007874015748
0
LINE
8
BLACK
6
CONTINUOUS
10
1.9748031496062992
20
0.7937007874015748
11
1.9748031496062992
21
1.0062992125984251
0
LINE
8
BLACK
6
CONTINUOUS
10
1.9748031496062992
20
1.0062992125984251
11
1.9750914173228347
21
1.0069951968503936
0
LINE
8
BLACK
6
CONTINUOUS
10
1.9750914173228347
20
1.0069951968503936
11
1.9757874015748031
21
1.0072834645669291
0
LINE
8
BLACK
6
CONTINUOUS
10
1.9757874015748031
20
1.0072834645669291
11
2.3734251968503934
21
1.0072834645669291
0
LINE
8
BLACK
6
CONTINUOUS
10
1.9767716535433071
20
1.0053149606299212
11
1.9767716535433071
21
0.7946850393700787
0
LINE
8
BLACK
6
CONTINUOUS
10
1.9767716535433071
20
0.7946850393700787
11
2.3724409448818897
21
0.7946850393700787
0
LINE
8
BLACK
6
CONTINUOUS
10
2.3724409448818897
20
0.7946850393700787
11
2.3724409448818897
21
1.0053149606299212
0
LINE
8
BLACK
6
CONTINUOUS
10
2.3724409448818897
20
1.0053149606299212
11
1.9767716535433071
21
1.0053149606299212
0
LINE
8
BLACK
6
CONTINUOUS
10
2.3734251968503934
20
1.2322834645669292
11
2.3741211811023621
21
1.2319951968503937
0
LINE
8
BLACK
6
CONTINUOUS
10
2.3741211811023621
20
1.2319951968503937
11
2.3744094488188976
21
1.2312992125984252
0
LINE
8
BLACK
6
CONTINUOUS
10
2.3744094488188976
20
1.2312992125984252
11
2.3744094488188976
21
1.0187007874015748
0
LINE
8
BLACK
6
CONTINUOUS
10
2.3744094488188976
20
1.0187007874015748
11
2.3741211811023621
21
1.0180048031496063
0
LINE
8
BLACK
6
CONTINUOUS
10
2.3741211811023621
20
1.0180048031496063
11
2.3734251968503934
21
1.0177165354330708
0
LINE
8
BLACK
6
CONTINUOUS
10
2.3734251968503934
20
1.0177165354330708
11
1.9757874015748031
21
1.0177165354330708
0
LINE
8
BLACK
6
CONTINUOUS
10
1.9757874015748031
20
1.0177165354330708
11
1.9750914173228347
21
1.0180048031496063
0
LINE
8
BLACK
6
CONTINUOUS
10
1.9750914173228347
20
1.0180048031496063
11
1.9748031496062992
21
1.0187007874015748
0
LINE
8
BLACK
6
CONTINUOUS
10
1.9748031496062992
20
1.0187007874015748
11
1.9748031496062992
21
1.2312992125984252
0
LINE
8
BLACK
6
CONTINUOUS
10
1.9748031496062992
20
1.2312992125984252
11
1.9750914173228347
21
1.2319951968503937
0
LINE
8
BLACK
6
CONTINUOUS
10
1.9750914173228347
20
1.2319951968503937
11
1.9757874015748031
21
1.2322834645669292
0
LINE
8
BLACK
6
CONTINUOUS
10
1.9757874015748031
20
1.2322834645669292
11
2.3734251968503934
21
1.2322834645669292
0
LINE
8
BLACK
6
CONTINUOUS
10
1.9767716535433071
20
1.2303149606299213
11
1.9767716535433071
21
1.0196850393700787
0
LINE
8
BLACK
6
CONTINUOUS
10
1.9767716535433071
20
1.0196850393700787
11
2.3724409448818897
21
1.0196850393700787
0
LINE
8
BLACK
6
CONTINUOUS
10
2.3724409448818897
20
1.0196850393700787
11
2.3724409448818897
21
1.2303149606299213
0
LINE
8
BLACK
6
CONTINUOUS
10
2.3724409448818897
20
1.2303149606299213
11
1.9767716535433071
21
1.2303149606299213
  0
ENDSEC
  0
EOF
