  0
SECTION
  2
HEADER
  9
$ANGBASE
  50
0.0
  9
$ANGDIR
  70
1
  9
$MEASUREMENT
  70
0
  0
ENDSEC
  0
SECTION
  2
TABLES
  0
TABLE
  2
LTYPE
  70
4
  0
LTYPE
  5
40F
  2
CONTINUOUS
  70
0
  3
Solid line
  72
65
  73
0
  40
0.0
  0
LTYPE
  5
410
  2
DASHDOT
 70
0
  3
Dash Dot ____ _ ____ _
 72
65
 73
4
 40
2.0
 49
1.25
 49
-0.25
 49
0.25
 49
-0.25
  0
LTYPE
  5
411
  2
DASHED
 70
0
  3
Dashed __ __ __ __ __
 72
65
 73
2
 40
0.75
 49
0.5
 49
-0.25
  0
LTYPE
  5
43B
  2
DOTTED
 70
0
  3
Dotted .  .  .  .
 72
65
 73
2
 40
0.2
 49
0.0
 49
-0.2
  0
ENDTAB
  0
TABLE
  2
STYLE
  70
4
  0
STYLE
  2
KICAD
  70
0
  40
0
  41
1
  42
1
  50
0
  71
0
  3
isocp.shx
  0
STYLE
  2
KICADB
  70
0
  40
0
  41
1
  42
1
  50
0
  71
0
  3
isocp.shx
  0
STYLE
  2
KICADI
  70
0
  40
0
  41
1
  42
1
  50
15
  71
0
  3
isocp.shx
  0
STYLE
  2
KICADBI
  70
0
  40
0
  41
1
  42
1
  50
15
  71
0
  3
isocp.shx
  0
ENDTAB
  0
TABLE
  2
LAYER
  70
1
  0
LAYER
  2
BLACK
  70
0
  62
7
  6
CONTINUOUS
  0
ENDTAB
  0
ENDSEC
  0
SECTION
  2
ENTITIES
0
LINE
8
BLACK
6
CONTINUOUS
10
1.9299999999999999
20
0.3224409448818897
11
1.895
21
0.3224409448818897
0
LINE
8
BLACK
6
CONTINUOUS
10
1.895
20
0.3224409448818897
11
1.895
21
0.3775590551181102
0
LINE
8
BLACK
6
CONTINUOUS
10
1.895
20
0.3775590551181102
11
1.9299999999999999
21
0.3775590551181102
0
LINE
8
BLACK
6
CONTINUOUS
10
1.9299999999999999
20
0.3775590551181102
11
1.9299999999999999
21
0.3224409448818897
0
LINE
8
BLACK
6
CONTINUOUS
10
2.0051968503937005
20
0.3224409448818897
11
1.9698031496062991
21
0.3224409448818897
0
LINE
8
BLACK
6
CONTINUOUS
10
1.9698031496062991
20
0.3224409448818897
11
1.9698031496062991
21
0.3775590551181102
0
LINE
8
BLACK
6
CONTINUOUS
10
1.9698031496062991
20
0.3775590551181102
11
2.0051968503937005
21
0.3775590551181102
0
LINE
8
BLACK
6
CONTINUOUS
10
2.0051968503937005
20
0.3775590551181102
11
2.0051968503937005
21
0.3224409448818897
0
LINE
8
BLACK
6
CONTINUOUS
10
1.9299999999999999
20
0.4224409448818898
11
1.895
21
0.4224409448818898
0
LINE
8
BLACK
6
CONTINUOUS
10
1.895
20
0.4224409448818898
11
1.895
21
0.4775590551181102
0
LINE
8
BLACK
6
CONTINUOUS
10
1.895
20
0.4775590551181102
11
1.9299999999999999
21
0.4775590551181102
0
LINE
8
BLACK
6
CONTINUOUS
10
1.9299999999999999
20
0.4775590551181102
11
1.9299999999999999
21
0.4224409448818898
0
LINE
8
BLACK
6
CONTINUOUS
10
2.0051968503937005
20
0.4224409448818898
11
1.9698031496062991
21
0.4224409448818898
0
LINE
8
BLACK
6
CONTINUOUS
10
1.9698031496062991
20
0.4224409448818898
11
1.9698031496062991
21
0.4775590551181102
0
LINE
8
BLACK
6
CONTINUOUS
10
1.9698031496062991
20
0.4775590551181102
11
2.0051968503937005
21
0.4775590551181102
0
LINE
8
BLACK
6
CONTINUOUS
10
2.0051968503937005
20
0.4775590551181102
11
2.0051968503937005
21
0.4224409448818898
0
LINE
8
BLACK
6
CONTINUOUS
10
2.2176968503937009
20
0.5224409448818897
11
2.182303149606299
21
0.5224409448818897
0
LINE
8
BLACK
6
CONTINUOUS
10
2.182303149606299
20
0.5224409448818897
11
2.182303149606299
21
0.5775590551181102
0
LINE
8
BLACK
6
CONTINUOUS
10
2.182303149606299
20
0.5775590551181102
11
2.2176968503937009
21
0.5775590551181102
0
LINE
8
BLACK
6
CONTINUOUS
10
2.2176968503937009
20
0.5775590551181102
11
2.2176968503937009
21
0.5224409448818897
0
LINE
8
BLACK
6
CONTINUOUS
10
2.2925
20
0.5224409448818897
11
2.2574999999999998
21
0.5224409448818897
0
LINE
8
BLACK
6
CONTINUOUS
10
2.2574999999999998
20
0.5224409448818897
11
2.2574999999999998
21
0.5775590551181102
0
LINE
8
BLACK
6
CONTINUOUS
10
2.2574999999999998
20
0.5775590551181102
11
2.2925
21
0.5775590551181102
0
LINE
8
BLACK
6
CONTINUOUS
10
2.2925
20
0.5775590551181102
11
2.2925
21
0.5224409448818897
0
LINE
8
BLACK
6
CONTINUOUS
10
2.0425
20
0.5474409448818898
11
2.0074999999999998
21
0.5474409448818898
0
LINE
8
BLACK
6
CONTINUOUS
10
2.0074999999999998
20
0.5474409448818898
11
2.0074999999999998
21
0.6025590551181103
0
LINE
8
BLACK
6
CONTINUOUS
10
2.0074999999999998
20
0.6025590551181103
11
2.0425
21
0.6025590551181103
0
LINE
8
BLACK
6
CONTINUOUS
10
2.0425
20
0.6025590551181103
11
2.0425
21
0.5474409448818898
0
LINE
8
BLACK
6
CONTINUOUS
10
2.1176968503937008
20
0.5474409448818898
11
2.0823031496062994
21
0.5474409448818898
0
LINE
8
BLACK
6
CONTINUOUS
10
2.0823031496062994
20
0.5474409448818898
11
2.0823031496062994
21
0.6025590551181103
0
LINE
8
BLACK
6
CONTINUOUS
10
2.0823031496062994
20
0.6025590551181103
11
2.1176968503937008
21
0.6025590551181103
0
LINE
8
BLACK
6
CONTINUOUS
10
2.1176968503937008
20
0.6025590551181103
11
2.1176968503937008
21
0.5474409448818898
0
LINE
8
BLACK
6
CONTINUOUS
10
1.9293571259842519
20
0.6980696850393701
11
1.932550275590551
21
0.6959361023622047
0
LINE
8
BLACK
6
CONTINUOUS
10
1.932550275590551
20
0.6959361023622047
11
1.9346838582677164
21
0.6927429527559055
0
LINE
8
BLACK
6
CONTINUOUS
10
1.9346838582677164
20
0.6927429527559055
11
1.9354330708661416
21
0.6889763779527559
0
LINE
8
BLACK
6
CONTINUOUS
10
1.9354330708661416
20
0.6889763779527559
11
1.9354330708661416
21
0.6466535433070866
0
LINE
8
BLACK
6
CONTINUOUS
10
1.9354330708661416
20
0.6466535433070866
11
1.9346838582677164
21
0.642886968503937
0
LINE
8
BLACK
6
CONTINUOUS
10
1.9346838582677164
20
0.642886968503937
11
1.932550275590551
21
0.6396938188976378
0
LINE
8
BLACK
6
CONTINUOUS
10
1.932550275590551
20
0.6396938188976378
11
1.9293571259842519
21
0.6375602362204724
0
LINE
8
BLACK
6
CONTINUOUS
10
1.9293571259842519
20
0.6375602362204724
11
1.9255905511811022
21
0.6368110236220472
0
LINE
8
BLACK
6
CONTINUOUS
10
1.9255905511811022
20
0.6368110236220472
11
1.8744094488188976
21
0.6368110236220472
0
LINE
8
BLACK
6
CONTINUOUS
10
1.8744094488188976
20
0.6368110236220472
11
1.8706428740157479
21
0.6375602362204724
0
LINE
8
BLACK
6
CONTINUOUS
10
1.8706428740157479
20
0.6375602362204724
11
1.8674497244094488
21
0.6396938188976378
0
LINE
8
BLACK
6
CONTINUOUS
10
1.8674497244094488
20
0.6396938188976378
11
1.8653161417322834
21
0.642886968503937
0
LINE
8
BLACK
6
CONTINUOUS
10
1.8653161417322834
20
0.642886968503937
11
1.8645669291338582
21
0.6466535433070866
0
LINE
8
BLACK
6
CONTINUOUS
10
1.8645669291338582
20
0.6466535433070866
11
1.8645669291338582
21
0.6889763779527559
0
LINE
8
BLACK
6
CONTINUOUS
10
1.8645669291338582
20
0.6889763779527559
11
1.8653161417322834
21
0.6927429527559055
0
LINE
8
BLACK
6
CONTINUOUS
10
1.8653161417322834
20
0.6927429527559055
11
1.8674497244094488
21
0.6959361023622047
0
LINE
8
BLACK
6
CONTINUOUS
10
1.8674497244094488
20
0.6959361023622047
11
1.8706428740157479
21
0.6980696850393701
0
LINE
8
BLACK
6
CONTINUOUS
10
1.8706428740157479
20
0.6980696850393701
11
1.8744094488188976
21
0.6988188976377953
0
LINE
8
BLACK
6
CONTINUOUS
10
1.8744094488188976
20
0.6988188976377953
11
1.9255905511811022
21
0.6988188976377953
0
LINE
8
BLACK
6
CONTINUOUS
10
1.9255905511811022
20
0.6988188976377953
11
1.9293571259842519
21
0.6980696850393701
0
LINE
8
BLACK
6
CONTINUOUS
10
1.5742
20
0.6497999999999999
11
1.4758
21
0.6497999999999999
0
LINE
8
BLACK
6
CONTINUOUS
10
1.4758
20
0.6497999999999999
11
1.4758
21
0.7502
0
LINE
8
BLACK
6
CONTINUOUS
10
1.4758
20
0.7502
11
1.5742
21
0.7502
0
LINE
8
BLACK
6
CONTINUOUS
10
1.5742
20
0.7502
11
1.5742
21
0.6497999999999999
0
LINE
8
BLACK
6
CONTINUOUS
10
1.9590551181102362
20
0.7204724409448818
11
1.8409448818897638
21
0.7204724409448818
0
LINE
8
BLACK
6
CONTINUOUS
10
1.8409448818897638
20
0.7204724409448818
11
1.8409448818897638
21
0.7795275590551181
0
LINE
8
BLACK
6
CONTINUOUS
10
1.8409448818897638
20
0.7795275590551181
11
1.9590551181102362
21
0.7795275590551181
0
LINE
8
BLACK
6
CONTINUOUS
10
1.9590551181102362
20
0.7795275590551181
11
1.9590551181102362
21
0.7204724409448818
0
LINE
8
BLACK
6
CONTINUOUS
10
2.0525590551181101
20
0.7323031496062992
11
1.9974409448818897
21
0.7323031496062992
0
LINE
8
BLACK
6
CONTINUOUS
10
1.9974409448818897
20
0.7323031496062992
11
1.9974409448818897
21
0.7676968503937007
0
LINE
8
BLACK
6
CONTINUOUS
10
1.9974409448818897
20
0.7676968503937007
11
2.0525590551181101
21
0.7676968503937007
0
LINE
8
BLACK
6
CONTINUOUS
10
2.0525590551181101
20
0.7676968503937007
11
2.0525590551181101
21
0.7323031496062992
0
LINE
8
BLACK
6
CONTINUOUS
10
2.1525590551181102
20
0.7324999999999999
11
2.0974409448818898
21
0.7324999999999999
0
LINE
8
BLACK
6
CONTINUOUS
10
2.0974409448818898
20
0.7324999999999999
11
2.0974409448818898
21
0.7675
0
LINE
8
BLACK
6
CONTINUOUS
10
2.0974409448818898
20
0.7675
11
2.1525590551181102
21
0.7675
0
LINE
8
BLACK
6
CONTINUOUS
10
2.1525590551181102
20
0.7675
11
2.1525590551181102
21
0.7324999999999999
0
LINE
8
BLACK
6
CONTINUOUS
10
1.8025590551181101
20
0.7448031496062992
11
1.7474409448818897
21
0.7448031496062992
0
LINE
8
BLACK
6
CONTINUOUS
10
1.7474409448818897
20
0.7448031496062992
11
1.7474409448818897
21
0.7801968503937008
0
LINE
8
BLACK
6
CONTINUOUS
10
1.7474409448818897
20
0.7801968503937008
11
1.8025590551181101
21
0.7801968503937008
0
LINE
8
BLACK
6
CONTINUOUS
10
1.8025590551181101
20
0.7801968503937008
11
1.8025590551181101
21
0.7448031496062992
0
LINE
8
BLACK
6
CONTINUOUS
10
2.2176968503937009
20
0.7474409448818897
11
2.182303149606299
21
0.7474409448818897
0
LINE
8
BLACK
6
CONTINUOUS
10
2.182303149606299
20
0.7474409448818897
11
2.182303149606299
21
0.8025590551181102
0
LINE
8
BLACK
6
CONTINUOUS
10
2.182303149606299
20
0.8025590551181102
11
2.2176968503937009
21
0.8025590551181102
0
LINE
8
BLACK
6
CONTINUOUS
10
2.2176968503937009
20
0.8025590551181102
11
2.2176968503937009
21
0.7474409448818897
0
LINE
8
BLACK
6
CONTINUOUS
10
2.2925
20
0.7474409448818897
11
2.2574999999999998
21
0.7474409448818897
0
LINE
8
BLACK
6
CONTINUOUS
10
2.2574999999999998
20
0.7474409448818897
11
2.2574999999999998
21
0.8025590551181102
0
LINE
8
BLACK
6
CONTINUOUS
10
2.2574999999999998
20
0.8025590551181102
11
2.2925
21
0.8025590551181102
0
LINE
8
BLACK
6
CONTINUOUS
10
2.2925
20
0.8025590551181102
11
2.2925
21
0.7474409448818897
0
LINE
8
BLACK
6
CONTINUOUS
10
1.7025590551181102
20
0.7573031496062992
11
1.6474409448818896
21
0.7573031496062992
0
LINE
8
BLACK
6
CONTINUOUS
10
1.6474409448818896
20
0.7573031496062992
11
1.6474409448818896
21
0.7926968503937007
0
LINE
8
BLACK
6
CONTINUOUS
10
1.6474409448818896
20
0.7926968503937007
11
1.7025590551181102
21
0.7926968503937007
0
LINE
8
BLACK
6
CONTINUOUS
10
1.7025590551181102
20
0.7926968503937007
11
1.7025590551181102
21
0.7573031496062992
0
LINE
8
BLACK
6
CONTINUOUS
10
1.9293467716535433
20
0.8624385039370078
11
1.9325453543307085
21
0.8603012598425197
0
LINE
8
BLACK
6
CONTINUOUS
10
1.9325453543307085
20
0.8603012598425197
11
1.9346825984251967
21
0.8571026771653543
0
LINE
8
BLACK
6
CONTINUOUS
10
1.9346825984251967
20
0.8571026771653543
11
1.935433031496063
21
0.85332968503937
0
LINE
8
BLACK
6
CONTINUOUS
10
1.935433031496063
20
0.85332968503937
11
1.9354330708661416
21
0.8110403543307086
0
LINE
8
BLACK
6
CONTINUOUS
10
1.9354330708661416
20
0.8110403543307086
11
1.9346825984251967
21
0.8072674015748031
0
LINE
8
BLACK
6
CONTINUOUS
10
1.9346825984251967
20
0.8072674015748031
11
1.9325453543307085
21
0.8040688188976378
0
LINE
8
BLACK
6
CONTINUOUS
10
1.9325453543307085
20
0.8040688188976378
11
1.9293467716535433
21
0.8019315748031496
0
LINE
8
BLACK
6
CONTINUOUS
10
1.9293467716535433
20
0.8019315748031496
11
1.9255737795275589
21
0.8011811417322835
0
LINE
8
BLACK
6
CONTINUOUS
10
1.9255737795275589
20
0.8011811417322835
11
1.8744261811023621
21
0.8011811023622047
0
LINE
8
BLACK
6
CONTINUOUS
10
1.8744261811023621
20
0.8011811023622047
11
1.8706532283464568
21
0.8019315748031496
0
LINE
8
BLACK
6
CONTINUOUS
10
1.8706532283464568
20
0.8019315748031496
11
1.8674546456692913
21
0.8040688188976378
0
LINE
8
BLACK
6
CONTINUOUS
10
1.8674546456692913
20
0.8040688188976378
11
1.8653174015748031
21
0.8072674015748031
0
LINE
8
BLACK
6
CONTINUOUS
10
1.8653174015748031
20
0.8072674015748031
11
1.864566968503937
21
0.8110403937007874
0
LINE
8
BLACK
6
CONTINUOUS
10
1.864566968503937
20
0.8110403937007874
11
1.8645669291338582
21
0.8533297244094488
0
LINE
8
BLACK
6
CONTINUOUS
10
1.8645669291338582
20
0.8533297244094488
11
1.8653174015748031
21
0.8571026771653543
0
LINE
8
BLACK
6
CONTINUOUS
10
1.8653174015748031
20
0.8571026771653543
11
1.8674546456692913
21
0.8603012598425197
0
LINE
8
BLACK
6
CONTINUOUS
10
1.8674546456692913
20
0.8603012598425197
11
1.8706532283464568
21
0.8624385039370078
0
LINE
8
BLACK
6
CONTINUOUS
10
1.8706532283464568
20
0.8624385039370078
11
1.8744262204724409
21
0.863188937007874
0
LINE
8
BLACK
6
CONTINUOUS
10
1.8744262204724409
20
0.863188937007874
11
1.9255738188976377
21
0.8631889763779528
0
LINE
8
BLACK
6
CONTINUOUS
10
1.9255738188976377
20
0.8631889763779528
11
1.9293467716535433
21
0.8624385039370078
0
LINE
8
BLACK
6
CONTINUOUS
10
2.1525590551181102
20
0.8073031496062992
11
2.0974409448818898
21
0.8073031496062992
0
LINE
8
BLACK
6
CONTINUOUS
10
2.0974409448818898
20
0.8073031496062992
11
2.0974409448818898
21
0.8426968503937008
0
LINE
8
BLACK
6
CONTINUOUS
10
2.0974409448818898
20
0.8426968503937008
11
2.1525590551181102
21
0.8426968503937008
0
LINE
8
BLACK
6
CONTINUOUS
10
2.1525590551181102
20
0.8426968503937008
11
2.1525590551181102
21
0.8073031496062992
0
LINE
8
BLACK
6
CONTINUOUS
10
2.0525590551181101
20
0.8075
11
1.9974409448818897
21
0.8075
0
LINE
8
BLACK
6
CONTINUOUS
10
1.9974409448818897
20
0.8075
11
1.9974409448818897
21
0.8425
0
LINE
8
BLACK
6
CONTINUOUS
10
1.9974409448818897
20
0.8425
11
2.0525590551181101
21
0.8425
0
LINE
8
BLACK
6
CONTINUOUS
10
2.0525590551181101
20
0.8425
11
2.0525590551181101
21
0.8075
0
LINE
8
BLACK
6
CONTINUOUS
10
1.8025590551181101
20
0.82
11
1.7474409448818897
21
0.82
0
LINE
8
BLACK
6
CONTINUOUS
10
1.7474409448818897
20
0.82
11
1.7474409448818897
21
0.855
0
LINE
8
BLACK
6
CONTINUOUS
10
1.7474409448818897
20
0.855
11
1.8025590551181101
21
0.855
0
LINE
8
BLACK
6
CONTINUOUS
10
1.8025590551181101
20
0.855
11
1.8025590551181101
21
0.82
0
LINE
8
BLACK
6
CONTINUOUS
10
1.7025590551181102
20
0.8325
11
1.6474409448818896
21
0.8325
0
LINE
8
BLACK
6
CONTINUOUS
10
1.6474409448818896
20
0.8325
11
1.6474409448818896
21
0.8674999999999999
0
LINE
8
BLACK
6
CONTINUOUS
10
1.6474409448818896
20
0.8674999999999999
11
1.7025590551181102
21
0.8674999999999999
0
LINE
8
BLACK
6
CONTINUOUS
10
1.7025590551181102
20
0.8674999999999999
11
1.7025590551181102
21
0.8325
0
LINE
8
BLACK
6
CONTINUOUS
10
1.5742
20
0.8486
11
1.4758
21
0.8486
0
LINE
8
BLACK
6
CONTINUOUS
10
1.4758
20
0.8486
11
1.4758
21
0.949
0
LINE
8
BLACK
6
CONTINUOUS
10
1.4758
20
0.949
11
1.5742
21
0.949
0
LINE
8
BLACK
6
CONTINUOUS
10
1.5742
20
0.949
11
1.5742
21
0.8486
0
LINE
8
BLACK
6
CONTINUOUS
10
1.9299999999999999
20
0.8974409448818897
11
1.895
21
0.8974409448818897
0
LINE
8
BLACK
6
CONTINUOUS
10
1.895
20
0.8974409448818897
11
1.895
21
0.9525590551181102
0
LINE
8
BLACK
6
CONTINUOUS
10
1.895
20
0.9525590551181102
11
1.9299999999999999
21
0.9525590551181102
0
LINE
8
BLACK
6
CONTINUOUS
10
1.9299999999999999
20
0.9525590551181102
11
1.9299999999999999
21
0.8974409448818897
0
LINE
8
BLACK
6
CONTINUOUS
10
2.0051968503937005
20
0.8974409448818897
11
1.9698031496062991
21
0.8974409448818897
0
LINE
8
BLACK
6
CONTINUOUS
10
1.9698031496062991
20
0.8974409448818897
11
1.9698031496062991
21
0.9525590551181102
0
LINE
8
BLACK
6
CONTINUOUS
10
1.9698031496062991
20
0.9525590551181102
11
2.0051968503937005
21
0.9525590551181102
0
LINE
8
BLACK
6
CONTINUOUS
10
2.0051968503937005
20
0.9525590551181102
11
2.0051968503937005
21
0.8974409448818897
0
LINE
8
BLACK
6
CONTINUOUS
10
2.2275590551181104
20
0.9573031496062991
11
2.1724409448818895
21
0.9573031496062991
0
LINE
8
BLACK
6
CONTINUOUS
10
2.1724409448818895
20
0.9573031496062991
11
2.1724409448818895
21
0.9926968503937008
0
LINE
8
BLACK
6
CONTINUOUS
10
2.1724409448818895
20
0.9926968503937008
11
2.2275590551181104
21
0.9926968503937008
0
LINE
8
BLACK
6
CONTINUOUS
10
2.2275590551181104
20
0.9926968503937008
11
2.2275590551181104
21
0.9573031496062991
0
LINE
8
BLACK
6
CONTINUOUS
10
2.32755905511811
20
0.9575
11
2.2724409448818896
21
0.9575
0
LINE
8
BLACK
6
CONTINUOUS
10
2.2724409448818896
20
0.9575
11
2.2724409448818896
21
0.9924999999999999
0
LINE
8
BLACK
6
CONTINUOUS
10
2.2724409448818896
20
0.9924999999999999
11
2.32755905511811
21
0.9924999999999999
0
LINE
8
BLACK
6
CONTINUOUS
10
2.32755905511811
20
0.9924999999999999
11
2.32755905511811
21
0.9575
0
LINE
8
BLACK
6
CONTINUOUS
10
2.0425
20
0.9974409448818897
11
2.0074999999999998
21
0.9974409448818897
0
LINE
8
BLACK
6
CONTINUOUS
10
2.0074999999999998
20
0.9974409448818897
11
2.0074999999999998
21
1.0525590551181103
0
LINE
8
BLACK
6
CONTINUOUS
10
2.0074999999999998
20
1.0525590551181103
11
2.0425
21
1.0525590551181103
0
LINE
8
BLACK
6
CONTINUOUS
10
2.0425
20
1.0525590551181103
11
2.0425
21
0.9974409448818897
0
LINE
8
BLACK
6
CONTINUOUS
10
2.1176968503937008
20
0.9974409448818897
11
2.0823031496062994
21
0.9974409448818897
0
LINE
8
BLACK
6
CONTINUOUS
10
2.0823031496062994
20
0.9974409448818897
11
2.0823031496062994
21
1.0525590551181103
0
LINE
8
BLACK
6
CONTINUOUS
10
2.0823031496062994
20
1.0525590551181103
11
2.1176968503937008
21
1.0525590551181103
0
LINE
8
BLACK
6
CONTINUOUS
10
2.1176968503937008
20
1.0525590551181103
11
2.1176968503937008
21
0.9974409448818897
0
LINE
8
BLACK
6
CONTINUOUS
10
2.32755905511811
20
1.0323031496062991
11
2.2724409448818896
21
1.0323031496062991
0
LINE
8
BLACK
6
CONTINUOUS
10
2.2724409448818896
20
1.0323031496062991
11
2.2724409448818896
21
1.0676968503937008
0
LINE
8
BLACK
6
CONTINUOUS
10
2.2724409448818896
20
1.0676968503937008
11
2.32755905511811
21
1.0676968503937008
0
LINE
8
BLACK
6
CONTINUOUS
10
2.32755905511811
20
1.0676968503937008
11
2.32755905511811
21
1.0323031496062991
0
LINE
8
BLACK
6
CONTINUOUS
10
2.2275590551181104
20
1.0325
11
2.1724409448818895
21
1.0325
0
LINE
8
BLACK
6
CONTINUOUS
10
2.1724409448818895
20
1.0325
11
2.1724409448818895
21
1.0674999999999999
0
LINE
8
BLACK
6
CONTINUOUS
10
2.1724409448818895
20
1.0674999999999999
11
2.2275590551181104
21
1.0674999999999999
0
LINE
8
BLACK
6
CONTINUOUS
10
2.2275590551181104
20
1.0674999999999999
11
2.2275590551181104
21
1.0325
0
LINE
8
BLACK
6
CONTINUOUS
10
1.9424999999999999
20
1.0974409448818898
11
1.9075
21
1.0974409448818898
0
LINE
8
BLACK
6
CONTINUOUS
10
1.9075
20
1.0974409448818898
11
1.9075
21
1.1525590551181102
0
LINE
8
BLACK
6
CONTINUOUS
10
1.9075
20
1.1525590551181102
11
1.9424999999999999
21
1.1525590551181102
0
LINE
8
BLACK
6
CONTINUOUS
10
1.9424999999999999
20
1.1525590551181102
11
1.9424999999999999
21
1.0974409448818898
0
LINE
8
BLACK
6
CONTINUOUS
10
2.0176968503937007
20
1.0974409448818898
11
1.9823031496062993
21
1.0974409448818898
0
LINE
8
BLACK
6
CONTINUOUS
10
1.9823031496062993
20
1.0974409448818898
11
1.9823031496062993
21
1.1525590551181102
0
LINE
8
BLACK
6
CONTINUOUS
10
1.9823031496062993
20
1.1525590551181102
11
2.0176968503937007
21
1.1525590551181102
0
LINE
8
BLACK
6
CONTINUOUS
10
2.0176968503937007
20
1.1525590551181102
11
2.0176968503937007
21
1.0974409448818898
  0
ENDSEC
  0
EOF
