  0
SECTION
  2
HEADER
  9
$ANGBASE
  50
0.0
  9
$ANGDIR
  70
1
  9
$MEASUREMENT
  70
0
  0
ENDSEC
  0
SECTION
  2
TABLES
  0
TABLE
  2
LTYPE
  70
4
  0
LTYPE
  5
40F
  2
CONTINUOUS
  70
0
  3
Solid line
  72
65
  73
0
  40
0.0
  0
LTYPE
  5
410
  2
DASHDOT
 70
0
  3
Dash Dot ____ _ ____ _
 72
65
 73
4
 40
2.0
 49
1.25
 49
-0.25
 49
0.25
 49
-0.25
  0
LTYPE
  5
411
  2
DASHED
 70
0
  3
Dashed __ __ __ __ __
 72
65
 73
2
 40
0.75
 49
0.5
 49
-0.25
  0
LTYPE
  5
43B
  2
DOTTED
 70
0
  3
Dotted .  .  .  .
 72
65
 73
2
 40
0.2
 49
0.0
 49
-0.2
  0
ENDTAB
  0
TABLE
  2
STYLE
  70
4
  0
STYLE
  2
KICAD
  70
0
  40
0
  41
1
  42
1
  50
0
  71
0
  3
isocp.shx
  0
STYLE
  2
KICADB
  70
0
  40
0
  41
1
  42
1
  50
0
  71
0
  3
isocp.shx
  0
STYLE
  2
KICADI
  70
0
  40
0
  41
1
  42
1
  50
15
  71
0
  3
isocp.shx
  0
STYLE
  2
KICADBI
  70
0
  40
0
  41
1
  42
1
  50
15
  71
0
  3
isocp.shx
  0
ENDTAB
  0
TABLE
  2
LAYER
  70
1
  0
LAYER
  2
BLACK
  70
0
  62
7
  6
CONTINUOUS
  0
ENDTAB
  0
ENDSEC
  0
SECTION
  2
ENTITIES
0
LINE
8
BLACK
6
CONTINUOUS
10
0.2140627559055118
20
0.3248102362204724
11
0.2279486220472441
21
0.3224509448818897
0
LINE
8
BLACK
6
CONTINUOUS
10
0.2279486220472441
20
0.3224509448818897
11
0.241483031496063
21
0.3185517322834646
0
LINE
8
BLACK
6
CONTINUOUS
10
0.241483031496063
20
0.3185517322834646
11
0.2544957874015748
21
0.3131616929133858
0
LINE
8
BLACK
6
CONTINUOUS
10
0.2544957874015748
20
0.3131616929133858
11
0.2668232283464567
21
0.3063485433070866
0
LINE
8
BLACK
6
CONTINUOUS
10
0.2668232283464567
20
0.3063485433070866
11
0.2783103149606299
21
0.298198031496063
0
LINE
8
BLACK
6
CONTINUOUS
10
0.2783103149606299
20
0.298198031496063
11
0.2888125984251969
21
0.2888125984251969
0
LINE
8
BLACK
6
CONTINUOUS
10
0.2888125984251969
20
0.2888125984251969
11
0.298198031496063
21
0.2783103149606299
0
LINE
8
BLACK
6
CONTINUOUS
10
0.298198031496063
20
0.2783103149606299
11
0.3063485433070866
21
0.2668232283464567
0
LINE
8
BLACK
6
CONTINUOUS
10
0.3063485433070866
20
0.2668232283464567
11
0.3131616929133858
21
0.2544957874015748
0
LINE
8
BLACK
6
CONTINUOUS
10
0.3131616929133858
20
0.2544957874015748
11
0.3185517322834646
21
0.241483031496063
0
LINE
8
BLACK
6
CONTINUOUS
10
0.3185517322834646
20
0.241483031496063
11
0.3224509448818897
21
0.2279486220472441
0
LINE
8
BLACK
6
CONTINUOUS
10
0.3224509448818897
20
0.2279486220472441
11
0.3248102362204724
21
0.2140627559055118
0
LINE
8
BLACK
6
CONTINUOUS
10
0.3248102362204724
20
0.2140627559055118
11
0.3256
21
0.2
0
LINE
8
BLACK
6
CONTINUOUS
10
0.3256
20
0.2
11
0.3248102362204724
21
0.1859372440944882
0
LINE
8
BLACK
6
CONTINUOUS
10
0.3248102362204724
20
0.1859372440944882
11
0.3224509448818897
21
0.1720513779527559
0
LINE
8
BLACK
6
CONTINUOUS
10
0.3224509448818897
20
0.1720513779527559
11
0.3185517322834646
21
0.158516968503937
0
LINE
8
BLACK
6
CONTINUOUS
10
0.3185517322834646
20
0.158516968503937
11
0.3131616929133858
21
0.1455042125984252
0
LINE
8
BLACK
6
CONTINUOUS
10
0.3131616929133858
20
0.1455042125984252
11
0.3063485433070866
21
0.1331767716535433
0
LINE
8
BLACK
6
CONTINUOUS
10
0.3063485433070866
20
0.1331767716535433
11
0.298198031496063
21
0.1216896850393701
0
LINE
8
BLACK
6
CONTINUOUS
10
0.298198031496063
20
0.1216896850393701
11
0.2888125984251969
21
0.1111874015748031
0
LINE
8
BLACK
6
CONTINUOUS
10
0.2888125984251969
20
0.1111874015748031
11
0.2783103149606299
21
0.101801968503937
0
LINE
8
BLACK
6
CONTINUOUS
10
0.2783103149606299
20
0.101801968503937
11
0.2668232283464567
21
0.0936514566929134
0
LINE
8
BLACK
6
CONTINUOUS
10
0.2668232283464567
20
0.0936514566929134
11
0.2544957874015748
21
0.0868383070866142
0
LINE
8
BLACK
6
CONTINUOUS
10
0.2544957874015748
20
0.0868383070866142
11
0.241483031496063
21
0.0814482677165354
0
LINE
8
BLACK
6
CONTINUOUS
10
0.241483031496063
20
0.0814482677165354
11
0.2279486220472441
21
0.0775490551181102
0
LINE
8
BLACK
6
CONTINUOUS
10
0.2279486220472441
20
0.0775490551181102
11
0.2140627559055118
21
0.0751897637795276
0
LINE
8
BLACK
6
CONTINUOUS
10
0.2140627559055118
20
0.0751897637795276
11
0.2
21
0.0744
0
LINE
8
BLACK
6
CONTINUOUS
10
0.2
20
0.0744
11
0.1859372440944882
21
0.0751897637795276
0
LINE
8
BLACK
6
CONTINUOUS
10
0.1859372440944882
20
0.0751897637795276
11
0.1720513779527559
21
0.0775490551181102
0
LINE
8
BLACK
6
CONTINUOUS
10
0.1720513779527559
20
0.0775490551181102
11
0.158516968503937
21
0.0814482677165354
0
LINE
8
BLACK
6
CONTINUOUS
10
0.158516968503937
20
0.0814482677165354
11
0.1455042125984252
21
0.0868383070866142
0
LINE
8
BLACK
6
CONTINUOUS
10
0.1455042125984252
20
0.0868383070866142
11
0.1331767716535433
21
0.0936514566929134
0
LINE
8
BLACK
6
CONTINUOUS
10
0.1331767716535433
20
0.0936514566929134
11
0.1216896850393701
21
0.101801968503937
0
LINE
8
BLACK
6
CONTINUOUS
10
0.1216896850393701
20
0.101801968503937
11
0.1111874015748031
21
0.1111874015748031
0
LINE
8
BLACK
6
CONTINUOUS
10
0.1111874015748031
20
0.1111874015748031
11
0.101801968503937
21
0.1216896850393701
0
LINE
8
BLACK
6
CONTINUOUS
10
0.101801968503937
20
0.1216896850393701
11
0.0936514566929134
21
0.1331767716535433
0
LINE
8
BLACK
6
CONTINUOUS
10
0.0936514566929134
20
0.1331767716535433
11
0.0868383070866142
21
0.1455042125984252
0
LINE
8
BLACK
6
CONTINUOUS
10
0.0868383070866142
20
0.1455042125984252
11
0.0814482677165354
21
0.158516968503937
0
LINE
8
BLACK
6
CONTINUOUS
10
0.0814482677165354
20
0.158516968503937
11
0.0775490551181102
21
0.1720513779527559
0
LINE
8
BLACK
6
CONTINUOUS
10
0.0775490551181102
20
0.1720513779527559
11
0.0751897637795276
21
0.1859372440944882
0
LINE
8
BLACK
6
CONTINUOUS
10
0.0751897637795276
20
0.1859372440944882
11
0.0744
21
0.2
0
LINE
8
BLACK
6
CONTINUOUS
10
0.0744
20
0.2
11
0.0751897637795276
21
0.2140627559055118
0
LINE
8
BLACK
6
CONTINUOUS
10
0.0751897637795276
20
0.2140627559055118
11
0.0775490551181102
21
0.2279486220472441
0
LINE
8
BLACK
6
CONTINUOUS
10
0.0775490551181102
20
0.2279486220472441
11
0.0814482677165354
21
0.241483031496063
0
LINE
8
BLACK
6
CONTINUOUS
10
0.0814482677165354
20
0.241483031496063
11
0.0868383070866142
21
0.2544957874015748
0
LINE
8
BLACK
6
CONTINUOUS
10
0.0868383070866142
20
0.2544957874015748
11
0.0936514566929134
21
0.2668232283464567
0
LINE
8
BLACK
6
CONTINUOUS
10
0.0936514566929134
20
0.2668232283464567
11
0.101801968503937
21
0.2783103149606299
0
LINE
8
BLACK
6
CONTINUOUS
10
0.101801968503937
20
0.2783103149606299
11
0.1111874015748031
21
0.2888125984251969
0
LINE
8
BLACK
6
CONTINUOUS
10
0.1111874015748031
20
0.2888125984251969
11
0.1216896850393701
21
0.298198031496063
0
LINE
8
BLACK
6
CONTINUOUS
10
0.1216896850393701
20
0.298198031496063
11
0.1331767716535433
21
0.3063485433070866
0
LINE
8
BLACK
6
CONTINUOUS
10
0.1331767716535433
20
0.3063485433070866
11
0.1455042125984252
21
0.3131616929133858
0
LINE
8
BLACK
6
CONTINUOUS
10
0.1455042125984252
20
0.3131616929133858
11
0.158516968503937
21
0.3185517322834646
0
LINE
8
BLACK
6
CONTINUOUS
10
0.158516968503937
20
0.3185517322834646
11
0.1720513779527559
21
0.3224509448818897
0
LINE
8
BLACK
6
CONTINUOUS
10
0.1720513779527559
20
0.3224509448818897
11
0.1859372440944882
21
0.3248102362204724
0
LINE
8
BLACK
6
CONTINUOUS
10
0.1859372440944882
20
0.3248102362204724
11
0.2
21
0.3256
0
LINE
8
BLACK
6
CONTINUOUS
10
0.2
20
0.3256
11
0.2140627559055118
21
0.3248102362204724
0
LINE
8
BLACK
6
CONTINUOUS
10
0.0899616535433071
20
0.1871383464566929
11
0.0921988582677165
21
0.1744506692913386
0
LINE
8
BLACK
6
CONTINUOUS
10
0.0921988582677165
20
0.1744506692913386
11
0.0958938582677165
21
0.1621084645669291
0
LINE
8
BLACK
6
CONTINUOUS
10
0.0958938582677165
20
0.1621084645669291
11
0.1009967322834646
21
0.1502787007874016
0
LINE
8
BLACK
6
CONTINUOUS
10
0.1009967322834646
20
0.1502787007874016
11
0.1074384251968504
21
0.1391212992125984
0
LINE
8
BLACK
6
CONTINUOUS
10
0.1074384251968504
20
0.1391212992125984
11
0.1151318897637795
21
0.1287872047244094
0
LINE
8
BLACK
6
CONTINUOUS
10
0.1151318897637795
20
0.1287872047244094
11
0.123973031496063
21
0.1194161417322835
0
LINE
8
BLACK
6
CONTINUOUS
10
0.123973031496063
20
0.1194161417322835
11
0.1338423228346457
21
0.111134842519685
0
LINE
8
BLACK
6
CONTINUOUS
10
0.1338423228346457
20
0.111134842519685
11
0.1446062598425197
21
0.1040552755905512
0
LINE
8
BLACK
6
CONTINUOUS
10
0.1446062598425197
20
0.1040552755905512
11
0.1561193307086614
21
0.0982731889763779
0
LINE
8
BLACK
6
CONTINUOUS
10
0.1561193307086614
20
0.0982731889763779
11
0.1682257874015748
21
0.093866811023622
0
LINE
8
BLACK
6
CONTINUOUS
10
0.1682257874015748
20
0.093866811023622
11
0.180761968503937
21
0.0908956692913386
0
LINE
8
BLACK
6
CONTINUOUS
10
0.180761968503937
20
0.0908956692913386
11
0.1935582677165354
21
0.0894
0
LINE
8
BLACK
6
CONTINUOUS
10
0.1935582677165354
20
0.0894
11
0.2064417322834646
21
0.0894
0
LINE
8
BLACK
6
CONTINUOUS
10
0.2064417322834646
20
0.0894
11
0.219238031496063
21
0.0908956692913386
0
LINE
8
BLACK
6
CONTINUOUS
10
0.219238031496063
20
0.0908956692913386
11
0.2317742125984252
21
0.093866811023622
0
LINE
8
BLACK
6
CONTINUOUS
10
0.2317742125984252
20
0.093866811023622
11
0.2438806692913386
21
0.0982731889763779
0
LINE
8
BLACK
6
CONTINUOUS
10
0.2438806692913386
20
0.0982731889763779
11
0.2553937401574803
21
0.1040552755905512
0
LINE
8
BLACK
6
CONTINUOUS
10
0.2553937401574803
20
0.1040552755905512
11
0.2661576771653543
21
0.111134842519685
0
LINE
8
BLACK
6
CONTINUOUS
10
0.2661576771653543
20
0.111134842519685
11
0.276026968503937
21
0.1194161417322835
0
LINE
8
BLACK
6
CONTINUOUS
10
0.276026968503937
20
0.1194161417322835
11
0.2848681102362204
21
0.1287872047244094
0
LINE
8
BLACK
6
CONTINUOUS
10
0.2848681102362204
20
0.1287872047244094
11
0.2925615748031496
21
0.1391212992125984
0
LINE
8
BLACK
6
CONTINUOUS
10
0.2925615748031496
20
0.1391212992125984
11
0.2990032677165354
21
0.1502787007874016
0
LINE
8
BLACK
6
CONTINUOUS
10
0.2990032677165354
20
0.1502787007874016
11
0.3041061417322835
21
0.1621084645669291
0
LINE
8
BLACK
6
CONTINUOUS
10
0.3041061417322835
20
0.1621084645669291
11
0.3078011417322835
21
0.1744506692913386
0
LINE
8
BLACK
6
CONTINUOUS
10
0.3078011417322835
20
0.1744506692913386
11
0.3100383464566929
21
0.1871383464566929
0
LINE
8
BLACK
6
CONTINUOUS
10
0.3100383464566929
20
0.1871383464566929
11
0.3107874409448819
21
0.2
0
LINE
8
BLACK
6
CONTINUOUS
10
0.3107874409448819
20
0.2
11
0.3100383464566929
21
0.2128616535433071
0
LINE
8
BLACK
6
CONTINUOUS
10
0.3100383464566929
20
0.2128616535433071
11
0.3078011417322835
21
0.2255493307086614
0
LINE
8
BLACK
6
CONTINUOUS
10
0.3078011417322835
20
0.2255493307086614
11
0.3041061417322835
21
0.2378915354330709
0
LINE
8
BLACK
6
CONTINUOUS
10
0.3041061417322835
20
0.2378915354330709
11
0.2990032677165354
21
0.2497212992125984
0
LINE
8
BLACK
6
CONTINUOUS
10
0.2990032677165354
20
0.2497212992125984
11
0.2925615748031496
21
0.2608787007874016
0
LINE
8
BLACK
6
CONTINUOUS
10
0.2925615748031496
20
0.2608787007874016
11
0.2848681102362204
21
0.2712127952755906
0
LINE
8
BLACK
6
CONTINUOUS
10
0.2848681102362204
20
0.2712127952755906
11
0.276026968503937
21
0.2805838582677165
0
LINE
8
BLACK
6
CONTINUOUS
10
0.276026968503937
20
0.2805838582677165
11
0.2661576771653543
21
0.2888651574803149
0
LINE
8
BLACK
6
CONTINUOUS
10
0.2661576771653543
20
0.2888651574803149
11
0.2553937401574803
21
0.2959447244094488
0
LINE
8
BLACK
6
CONTINUOUS
10
0.2553937401574803
20
0.2959447244094488
11
0.2438806692913386
21
0.301726811023622
0
LINE
8
BLACK
6
CONTINUOUS
10
0.2438806692913386
20
0.301726811023622
11
0.2317742125984252
21
0.3061331889763779
0
LINE
8
BLACK
6
CONTINUOUS
10
0.2317742125984252
20
0.3061331889763779
11
0.219238031496063
21
0.3091043307086614
0
LINE
8
BLACK
6
CONTINUOUS
10
0.219238031496063
20
0.3091043307086614
11
0.2064417322834646
21
0.3106
0
LINE
8
BLACK
6
CONTINUOUS
10
0.2064417322834646
20
0.3106
11
0.1935582677165354
21
0.3106
0
LINE
8
BLACK
6
CONTINUOUS
10
0.1935582677165354
20
0.3106
11
0.180761968503937
21
0.3091043307086614
0
LINE
8
BLACK
6
CONTINUOUS
10
0.180761968503937
20
0.3091043307086614
11
0.1682257874015748
21
0.3061331889763779
0
LINE
8
BLACK
6
CONTINUOUS
10
0.1682257874015748
20
0.3061331889763779
11
0.1561193307086614
21
0.301726811023622
0
LINE
8
BLACK
6
CONTINUOUS
10
0.1561193307086614
20
0.301726811023622
11
0.1446062598425197
21
0.2959447244094488
0
LINE
8
BLACK
6
CONTINUOUS
10
0.1446062598425197
20
0.2959447244094488
11
0.1338423228346457
21
0.2888651574803149
0
LINE
8
BLACK
6
CONTINUOUS
10
0.1338423228346457
20
0.2888651574803149
11
0.123973031496063
21
0.2805838582677165
0
LINE
8
BLACK
6
CONTINUOUS
10
0.123973031496063
20
0.2805838582677165
11
0.1151318897637795
21
0.2712127952755906
0
LINE
8
BLACK
6
CONTINUOUS
10
0.1151318897637795
20
0.2712127952755906
11
0.1074384251968504
21
0.2608787007874016
0
LINE
8
BLACK
6
CONTINUOUS
10
0.1074384251968504
20
0.2608787007874016
11
0.1009967322834646
21
0.2497212992125984
0
LINE
8
BLACK
6
CONTINUOUS
10
0.1009967322834646
20
0.2497212992125984
11
0.0958938582677165
21
0.2378915354330709
0
LINE
8
BLACK
6
CONTINUOUS
10
0.0958938582677165
20
0.2378915354330709
11
0.0921988582677165
21
0.2255493307086614
0
LINE
8
BLACK
6
CONTINUOUS
10
0.0921988582677165
20
0.2255493307086614
11
0.0899616535433071
21
0.2128616535433071
0
LINE
8
BLACK
6
CONTINUOUS
10
0.0899616535433071
20
0.2128616535433071
11
0.0892125590551181
21
0.2
0
LINE
8
BLACK
6
CONTINUOUS
10
0.0892125590551181
20
0.2
11
0.0899616535433071
21
0.1871383464566929
0
LINE
8
BLACK
6
CONTINUOUS
10
2.2140627559055117
20
0.3248102362204724
11
2.227948622047244
21
0.3224509448818897
0
LINE
8
BLACK
6
CONTINUOUS
10
2.227948622047244
20
0.3224509448818897
11
2.2414830314960628
21
0.3185517322834646
0
LINE
8
BLACK
6
CONTINUOUS
10
2.2414830314960628
20
0.3185517322834646
11
2.254495787401575
21
0.3131616929133858
0
LINE
8
BLACK
6
CONTINUOUS
10
2.254495787401575
20
0.3131616929133858
11
2.2668232283464564
21
0.3063485433070866
0
LINE
8
BLACK
6
CONTINUOUS
10
2.2668232283464564
20
0.3063485433070866
11
2.2783103149606299
21
0.298198031496063
0
LINE
8
BLACK
6
CONTINUOUS
10
2.2783103149606299
20
0.298198031496063
11
2.288812598425197
21
0.2888125984251969
0
LINE
8
BLACK
6
CONTINUOUS
10
2.288812598425197
20
0.2888125984251969
11
2.2981980314960628
21
0.2783103149606299
0
LINE
8
BLACK
6
CONTINUOUS
10
2.2981980314960628
20
0.2783103149606299
11
2.3063485433070867
21
0.2668232283464567
0
LINE
8
BLACK
6
CONTINUOUS
10
2.3063485433070867
20
0.2668232283464567
11
2.3131616929133858
21
0.2544957874015748
0
LINE
8
BLACK
6
CONTINUOUS
10
2.3131616929133858
20
0.2544957874015748
11
2.3185517322834643
21
0.241483031496063
0
LINE
8
BLACK
6
CONTINUOUS
10
2.3185517322834643
20
0.241483031496063
11
2.3224509448818895
21
0.2279486220472441
0
LINE
8
BLACK
6
CONTINUOUS
10
2.3224509448818895
20
0.2279486220472441
11
2.3248102362204723
21
0.2140627559055118
0
LINE
8
BLACK
6
CONTINUOUS
10
2.3248102362204723
20
0.2140627559055118
11
2.3256000000000001
21
0.2
0
LINE
8
BLACK
6
CONTINUOUS
10
2.3256000000000001
20
0.2
11
2.3248102362204723
21
0.1859372440944882
0
LINE
8
BLACK
6
CONTINUOUS
10
2.3248102362204723
20
0.1859372440944882
11
2.3224509448818895
21
0.1720513779527559
0
LINE
8
BLACK
6
CONTINUOUS
10
2.3224509448818895
20
0.1720513779527559
11
2.3185517322834643
21
0.158516968503937
0
LINE
8
BLACK
6
CONTINUOUS
10
2.3185517322834643
20
0.158516968503937
11
2.3131616929133858
21
0.1455042125984252
0
LINE
8
BLACK
6
CONTINUOUS
10
2.3131616929133858
20
0.1455042125984252
11
2.3063485433070867
21
0.1331767716535433
0
LINE
8
BLACK
6
CONTINUOUS
10
2.3063485433070867
20
0.1331767716535433
11
2.2981980314960628
21
0.1216896850393701
0
LINE
8
BLACK
6
CONTINUOUS
10
2.2981980314960628
20
0.1216896850393701
11
2.288812598425197
21
0.1111874015748031
0
LINE
8
BLACK
6
CONTINUOUS
10
2.288812598425197
20
0.1111874015748031
11
2.2783103149606299
21
0.101801968503937
0
LINE
8
BLACK
6
CONTINUOUS
10
2.2783103149606299
20
0.101801968503937
11
2.2668232283464564
21
0.0936514566929134
0
LINE
8
BLACK
6
CONTINUOUS
10
2.2668232283464564
20
0.0936514566929134
11
2.254495787401575
21
0.0868383070866142
0
LINE
8
BLACK
6
CONTINUOUS
10
2.254495787401575
20
0.0868383070866142
11
2.2414830314960628
21
0.0814482677165354
0
LINE
8
BLACK
6
CONTINUOUS
10
2.2414830314960628
20
0.0814482677165354
11
2.227948622047244
21
0.0775490551181102
0
LINE
8
BLACK
6
CONTINUOUS
10
2.227948622047244
20
0.0775490551181102
11
2.2140627559055117
21
0.0751897637795276
0
LINE
8
BLACK
6
CONTINUOUS
10
2.2140627559055117
20
0.0751897637795276
11
2.1999999999999997
21
0.0744
0
LINE
8
BLACK
6
CONTINUOUS
10
2.1999999999999997
20
0.0744
11
2.1859372440944882
21
0.0751897637795276
0
LINE
8
BLACK
6
CONTINUOUS
10
2.1859372440944882
20
0.0751897637795276
11
2.1720513779527559
21
0.0775490551181102
0
LINE
8
BLACK
6
CONTINUOUS
10
2.1720513779527559
20
0.0775490551181102
11
2.1585169685039372
21
0.0814482677165354
0
LINE
8
BLACK
6
CONTINUOUS
10
2.1585169685039372
20
0.0814482677165354
11
2.1455042125984249
21
0.0868383070866142
0
LINE
8
BLACK
6
CONTINUOUS
10
2.1455042125984249
20
0.0868383070866142
11
2.1331767716535435
21
0.0936514566929134
0
LINE
8
BLACK
6
CONTINUOUS
10
2.1331767716535435
20
0.0936514566929134
11
2.1216896850393701
21
0.101801968503937
0
LINE
8
BLACK
6
CONTINUOUS
10
2.1216896850393701
20
0.101801968503937
11
2.1111874015748029
21
0.1111874015748031
0
LINE
8
BLACK
6
CONTINUOUS
10
2.1111874015748029
20
0.1111874015748031
11
2.1018019685039371
21
0.1216896850393701
0
LINE
8
BLACK
6
CONTINUOUS
10
2.1018019685039371
20
0.1216896850393701
11
2.0936514566929132
21
0.1331767716535433
0
LINE
8
BLACK
6
CONTINUOUS
10
2.0936514566929132
20
0.1331767716535433
11
2.0868383070866141
21
0.1455042125984252
0
LINE
8
BLACK
6
CONTINUOUS
10
2.0868383070866141
20
0.1455042125984252
11
2.0814482677165356
21
0.158516968503937
0
LINE
8
BLACK
6
CONTINUOUS
10
2.0814482677165356
20
0.158516968503937
11
2.0775490551181104
21
0.1720513779527559
0
LINE
8
BLACK
6
CONTINUOUS
10
2.0775490551181104
20
0.1720513779527559
11
2.0751897637795276
21
0.1859372440944882
0
LINE
8
BLACK
6
CONTINUOUS
10
2.0751897637795276
20
0.1859372440944882
11
2.0743999999999998
21
0.2
0
LINE
8
BLACK
6
CONTINUOUS
10
2.0743999999999998
20
0.2
11
2.0751897637795276
21
0.2140627559055118
0
LINE
8
BLACK
6
CONTINUOUS
10
2.0751897637795276
20
0.2140627559055118
11
2.0775490551181104
21
0.2279486220472441
0
LINE
8
BLACK
6
CONTINUOUS
10
2.0775490551181104
20
0.2279486220472441
11
2.0814482677165356
21
0.241483031496063
0
LINE
8
BLACK
6
CONTINUOUS
10
2.0814482677165356
20
0.241483031496063
11
2.0868383070866141
21
0.2544957874015748
0
LINE
8
BLACK
6
CONTINUOUS
10
2.0868383070866141
20
0.2544957874015748
11
2.0936514566929132
21
0.2668232283464567
0
LINE
8
BLACK
6
CONTINUOUS
10
2.0936514566929132
20
0.2668232283464567
11
2.1018019685039371
21
0.2783103149606299
0
LINE
8
BLACK
6
CONTINUOUS
10
2.1018019685039371
20
0.2783103149606299
11
2.1111874015748029
21
0.2888125984251969
0
LINE
8
BLACK
6
CONTINUOUS
10
2.1111874015748029
20
0.2888125984251969
11
2.1216896850393701
21
0.298198031496063
0
LINE
8
BLACK
6
CONTINUOUS
10
2.1216896850393701
20
0.298198031496063
11
2.1331767716535435
21
0.3063485433070866
0
LINE
8
BLACK
6
CONTINUOUS
10
2.1331767716535435
20
0.3063485433070866
11
2.1455042125984249
21
0.3131616929133858
0
LINE
8
BLACK
6
CONTINUOUS
10
2.1455042125984249
20
0.3131616929133858
11
2.1585169685039372
21
0.3185517322834646
0
LINE
8
BLACK
6
CONTINUOUS
10
2.1585169685039372
20
0.3185517322834646
11
2.1720513779527559
21
0.3224509448818897
0
LINE
8
BLACK
6
CONTINUOUS
10
2.1720513779527559
20
0.3224509448818897
11
2.1859372440944882
21
0.3248102362204724
0
LINE
8
BLACK
6
CONTINUOUS
10
2.1859372440944882
20
0.3248102362204724
11
2.1999999999999997
21
0.3256
0
LINE
8
BLACK
6
CONTINUOUS
10
2.1999999999999997
20
0.3256
11
2.2140627559055117
21
0.3248102362204724
0
LINE
8
BLACK
6
CONTINUOUS
10
2.0899616535433072
20
0.1871383464566929
11
2.0921988582677167
21
0.1744506692913386
0
LINE
8
BLACK
6
CONTINUOUS
10
2.0921988582677167
20
0.1744506692913386
11
2.0958938582677167
21
0.1621084645669291
0
LINE
8
BLACK
6
CONTINUOUS
10
2.0958938582677167
20
0.1621084645669291
11
2.1009967322834644
21
0.1502787007874016
0
LINE
8
BLACK
6
CONTINUOUS
10
2.1009967322834644
20
0.1502787007874016
11
2.1074384251968503
21
0.1391212992125984
0
LINE
8
BLACK
6
CONTINUOUS
10
2.1074384251968503
20
0.1391212992125984
11
2.1151318897637794
21
0.1287872047244094
0
LINE
8
BLACK
6
CONTINUOUS
10
2.1151318897637794
20
0.1287872047244094
11
2.123973031496063
21
0.1194161417322835
0
LINE
8
BLACK
6
CONTINUOUS
10
2.123973031496063
20
0.1194161417322835
11
2.1338423228346457
21
0.111134842519685
0
LINE
8
BLACK
6
CONTINUOUS
10
2.1338423228346457
20
0.111134842519685
11
2.1446062598425195
21
0.1040552755905512
0
LINE
8
BLACK
6
CONTINUOUS
10
2.1446062598425195
20
0.1040552755905512
11
2.1561193307086612
21
0.0982731889763779
0
LINE
8
BLACK
6
CONTINUOUS
10
2.1561193307086612
20
0.0982731889763779
11
2.1682257874015747
21
0.093866811023622
0
LINE
8
BLACK
6
CONTINUOUS
10
2.1682257874015747
20
0.093866811023622
11
2.180761968503937
21
0.0908956692913386
0
LINE
8
BLACK
6
CONTINUOUS
10
2.180761968503937
20
0.0908956692913386
11
2.1935582677165355
21
0.0894
0
LINE
8
BLACK
6
CONTINUOUS
10
2.1935582677165355
20
0.0894
11
2.2064417322834644
21
0.0894
0
LINE
8
BLACK
6
CONTINUOUS
10
2.2064417322834644
20
0.0894
11
2.2192380314960629
21
0.0908956692913386
0
LINE
8
BLACK
6
CONTINUOUS
10
2.2192380314960629
20
0.0908956692913386
11
2.2317742125984252
21
0.093866811023622
0
LINE
8
BLACK
6
CONTINUOUS
10
2.2317742125984252
20
0.093866811023622
11
2.2438806692913387
21
0.0982731889763779
0
LINE
8
BLACK
6
CONTINUOUS
10
2.2438806692913387
20
0.0982731889763779
11
2.2553937401574804
21
0.1040552755905512
0
LINE
8
BLACK
6
CONTINUOUS
10
2.2553937401574804
20
0.1040552755905512
11
2.2661576771653542
21
0.111134842519685
0
LINE
8
BLACK
6
CONTINUOUS
10
2.2661576771653542
20
0.111134842519685
11
2.2760269685039369
21
0.1194161417322835
0
LINE
8
BLACK
6
CONTINUOUS
10
2.2760269685039369
20
0.1194161417322835
11
2.2848681102362205
21
0.1287872047244094
0
LINE
8
BLACK
6
CONTINUOUS
10
2.2848681102362205
20
0.1287872047244094
11
2.2925615748031496
21
0.1391212992125984
0
LINE
8
BLACK
6
CONTINUOUS
10
2.2925615748031496
20
0.1391212992125984
11
2.2990032677165355
21
0.1502787007874016
0
LINE
8
BLACK
6
CONTINUOUS
10
2.2990032677165355
20
0.1502787007874016
11
2.3041061417322832
21
0.1621084645669291
0
LINE
8
BLACK
6
CONTINUOUS
10
2.3041061417322832
20
0.1621084645669291
11
2.3078011417322832
21
0.1744506692913386
0
LINE
8
BLACK
6
CONTINUOUS
10
2.3078011417322832
20
0.1744506692913386
11
2.3100383464566927
21
0.1871383464566929
0
LINE
8
BLACK
6
CONTINUOUS
10
2.3100383464566927
20
0.1871383464566929
11
2.3107874409448819
21
0.2
0
LINE
8
BLACK
6
CONTINUOUS
10
2.3107874409448819
20
0.2
11
2.3100383464566927
21
0.2128616535433071
0
LINE
8
BLACK
6
CONTINUOUS
10
2.3100383464566927
20
0.2128616535433071
11
2.3078011417322832
21
0.2255493307086614
0
LINE
8
BLACK
6
CONTINUOUS
10
2.3078011417322832
20
0.2255493307086614
11
2.3041061417322832
21
0.2378915354330709
0
LINE
8
BLACK
6
CONTINUOUS
10
2.3041061417322832
20
0.2378915354330709
11
2.2990032677165355
21
0.2497212992125984
0
LINE
8
BLACK
6
CONTINUOUS
10
2.2990032677165355
20
0.2497212992125984
11
2.2925615748031496
21
0.2608787007874016
0
LINE
8
BLACK
6
CONTINUOUS
10
2.2925615748031496
20
0.2608787007874016
11
2.2848681102362205
21
0.2712127952755906
0
LINE
8
BLACK
6
CONTINUOUS
10
2.2848681102362205
20
0.2712127952755906
11
2.2760269685039369
21
0.2805838582677165
0
LINE
8
BLACK
6
CONTINUOUS
10
2.2760269685039369
20
0.2805838582677165
11
2.2661576771653542
21
0.2888651574803149
0
LINE
8
BLACK
6
CONTINUOUS
10
2.2661576771653542
20
0.2888651574803149
11
2.2553937401574804
21
0.2959447244094488
0
LINE
8
BLACK
6
CONTINUOUS
10
2.2553937401574804
20
0.2959447244094488
11
2.2438806692913387
21
0.301726811023622
0
LINE
8
BLACK
6
CONTINUOUS
10
2.2438806692913387
20
0.301726811023622
11
2.2317742125984252
21
0.3061331889763779
0
LINE
8
BLACK
6
CONTINUOUS
10
2.2317742125984252
20
0.3061331889763779
11
2.2192380314960629
21
0.3091043307086614
0
LINE
8
BLACK
6
CONTINUOUS
10
2.2192380314960629
20
0.3091043307086614
11
2.2064417322834644
21
0.3106
0
LINE
8
BLACK
6
CONTINUOUS
10
2.2064417322834644
20
0.3106
11
2.1935582677165355
21
0.3106
0
LINE
8
BLACK
6
CONTINUOUS
10
2.1935582677165355
20
0.3106
11
2.180761968503937
21
0.3091043307086614
0
LINE
8
BLACK
6
CONTINUOUS
10
2.180761968503937
20
0.3091043307086614
11
2.1682257874015747
21
0.3061331889763779
0
LINE
8
BLACK
6
CONTINUOUS
10
2.1682257874015747
20
0.3061331889763779
11
2.1561193307086612
21
0.301726811023622
0
LINE
8
BLACK
6
CONTINUOUS
10
2.1561193307086612
20
0.301726811023622
11
2.1446062598425195
21
0.2959447244094488
0
LINE
8
BLACK
6
CONTINUOUS
10
2.1446062598425195
20
0.2959447244094488
11
2.1338423228346457
21
0.2888651574803149
0
LINE
8
BLACK
6
CONTINUOUS
10
2.1338423228346457
20
0.2888651574803149
11
2.123973031496063
21
0.2805838582677165
0
LINE
8
BLACK
6
CONTINUOUS
10
2.123973031496063
20
0.2805838582677165
11
2.1151318897637794
21
0.2712127952755906
0
LINE
8
BLACK
6
CONTINUOUS
10
2.1151318897637794
20
0.2712127952755906
11
2.1074384251968503
21
0.2608787007874016
0
LINE
8
BLACK
6
CONTINUOUS
10
2.1074384251968503
20
0.2608787007874016
11
2.1009967322834644
21
0.2497212992125984
0
LINE
8
BLACK
6
CONTINUOUS
10
2.1009967322834644
20
0.2497212992125984
11
2.0958938582677167
21
0.2378915354330709
0
LINE
8
BLACK
6
CONTINUOUS
10
2.0958938582677167
20
0.2378915354330709
11
2.0921988582677167
21
0.2255493307086614
0
LINE
8
BLACK
6
CONTINUOUS
10
2.0921988582677167
20
0.2255493307086614
11
2.0899616535433072
21
0.2128616535433071
0
LINE
8
BLACK
6
CONTINUOUS
10
2.0899616535433072
20
0.2128616535433071
11
2.089212559055118
21
0.2
0
LINE
8
BLACK
6
CONTINUOUS
10
2.089212559055118
20
0.2
11
2.0899616535433072
21
0.1871383464566929
0
LINE
8
BLACK
6
CONTINUOUS
10
0.2140627559055118
20
1.5248102362204725
11
0.2279486220472441
21
1.5224509448818897
0
LINE
8
BLACK
6
CONTINUOUS
10
0.2279486220472441
20
1.5224509448818897
11
0.241483031496063
21
1.5185517322834645
0
LINE
8
BLACK
6
CONTINUOUS
10
0.241483031496063
20
1.5185517322834645
11
0.2544957874015748
21
1.5131616929133858
0
LINE
8
BLACK
6
CONTINUOUS
10
0.2544957874015748
20
1.5131616929133858
11
0.2668232283464567
21
1.5063485433070867
0
LINE
8
BLACK
6
CONTINUOUS
10
0.2668232283464567
20
1.5063485433070867
11
0.2783103149606299
21
1.498198031496063
0
LINE
8
BLACK
6
CONTINUOUS
10
0.2783103149606299
20
1.498198031496063
11
0.2888125984251969
21
1.4888125984251968
0
LINE
8
BLACK
6
CONTINUOUS
10
0.2888125984251969
20
1.4888125984251968
11
0.298198031496063
21
1.4783103149606298
0
LINE
8
BLACK
6
CONTINUOUS
10
0.298198031496063
20
1.4783103149606298
11
0.3063485433070866
21
1.4668232283464566
0
LINE
8
BLACK
6
CONTINUOUS
10
0.3063485433070866
20
1.4668232283464566
11
0.3131616929133858
21
1.4544957874015747
0
LINE
8
BLACK
6
CONTINUOUS
10
0.3131616929133858
20
1.4544957874015747
11
0.3185517322834646
21
1.4414830314960629
0
LINE
8
BLACK
6
CONTINUOUS
10
0.3185517322834646
20
1.4414830314960629
11
0.3224509448818897
21
1.4279486220472442
0
LINE
8
BLACK
6
CONTINUOUS
10
0.3224509448818897
20
1.4279486220472442
11
0.3248102362204724
21
1.4140627559055117
0
LINE
8
BLACK
6
CONTINUOUS
10
0.3248102362204724
20
1.4140627559055117
11
0.3256
21
1.3999999999999999
0
LINE
8
BLACK
6
CONTINUOUS
10
0.3256
20
1.3999999999999999
11
0.3248102362204724
21
1.3859372440944882
0
LINE
8
BLACK
6
CONTINUOUS
10
0.3248102362204724
20
1.3859372440944882
11
0.3224509448818897
21
1.3720513779527559
0
LINE
8
BLACK
6
CONTINUOUS
10
0.3224509448818897
20
1.3720513779527559
11
0.3185517322834646
21
1.3585169685039369
0
LINE
8
BLACK
6
CONTINUOUS
10
0.3185517322834646
20
1.3585169685039369
11
0.3131616929133858
21
1.3455042125984251
0
LINE
8
BLACK
6
CONTINUOUS
10
0.3131616929133858
20
1.3455042125984251
11
0.3063485433070866
21
1.3331767716535432
0
LINE
8
BLACK
6
CONTINUOUS
10
0.3063485433070866
20
1.3331767716535432
11
0.298198031496063
21
1.32168968503937
0
LINE
8
BLACK
6
CONTINUOUS
10
0.298198031496063
20
1.32168968503937
11
0.2888125984251969
21
1.3111874015748031
0
LINE
8
BLACK
6
CONTINUOUS
10
0.2888125984251969
20
1.3111874015748031
11
0.2783103149606299
21
1.301801968503937
0
LINE
8
BLACK
6
CONTINUOUS
10
0.2783103149606299
20
1.301801968503937
11
0.2668232283464567
21
1.2936514566929134
0
LINE
8
BLACK
6
CONTINUOUS
10
0.2668232283464567
20
1.2936514566929134
11
0.2544957874015748
21
1.2868383070866141
0
LINE
8
BLACK
6
CONTINUOUS
10
0.2544957874015748
20
1.2868383070866141
11
0.241483031496063
21
1.2814482677165353
0
LINE
8
BLACK
6
CONTINUOUS
10
0.241483031496063
20
1.2814482677165353
11
0.2279486220472441
21
1.2775490551181101
0
LINE
8
BLACK
6
CONTINUOUS
10
0.2279486220472441
20
1.2775490551181101
11
0.2140627559055118
21
1.2751897637795275
0
LINE
8
BLACK
6
CONTINUOUS
10
0.2140627559055118
20
1.2751897637795275
11
0.2
21
1.2744
0
LINE
8
BLACK
6
CONTINUOUS
10
0.2
20
1.2744
11
0.1859372440944882
21
1.2751897637795275
0
LINE
8
BLACK
6
CONTINUOUS
10
0.1859372440944882
20
1.2751897637795275
11
0.1720513779527559
21
1.2775490551181101
0
LINE
8
BLACK
6
CONTINUOUS
10
0.1720513779527559
20
1.2775490551181101
11
0.158516968503937
21
1.2814482677165353
0
LINE
8
BLACK
6
CONTINUOUS
10
0.158516968503937
20
1.2814482677165353
11
0.1455042125984252
21
1.2868383070866141
0
LINE
8
BLACK
6
CONTINUOUS
10
0.1455042125984252
20
1.2868383070866141
11
0.1331767716535433
21
1.2936514566929134
0
LINE
8
BLACK
6
CONTINUOUS
10
0.1331767716535433
20
1.2936514566929134
11
0.1216896850393701
21
1.301801968503937
0
LINE
8
BLACK
6
CONTINUOUS
10
0.1216896850393701
20
1.301801968503937
11
0.1111874015748031
21
1.3111874015748031
0
LINE
8
BLACK
6
CONTINUOUS
10
0.1111874015748031
20
1.3111874015748031
11
0.101801968503937
21
1.32168968503937
0
LINE
8
BLACK
6
CONTINUOUS
10
0.101801968503937
20
1.32168968503937
11
0.0936514566929134
21
1.3331767716535432
0
LINE
8
BLACK
6
CONTINUOUS
10
0.0936514566929134
20
1.3331767716535432
11
0.0868383070866142
21
1.3455042125984251
0
LINE
8
BLACK
6
CONTINUOUS
10
0.0868383070866142
20
1.3455042125984251
11
0.0814482677165354
21
1.3585169685039369
0
LINE
8
BLACK
6
CONTINUOUS
10
0.0814482677165354
20
1.3585169685039369
11
0.0775490551181102
21
1.3720513779527559
0
LINE
8
BLACK
6
CONTINUOUS
10
0.0775490551181102
20
1.3720513779527559
11
0.0751897637795276
21
1.3859372440944882
0
LINE
8
BLACK
6
CONTINUOUS
10
0.0751897637795276
20
1.3859372440944882
11
0.0744
21
1.3999999999999999
0
LINE
8
BLACK
6
CONTINUOUS
10
0.0744
20
1.3999999999999999
11
0.0751897637795276
21
1.4140627559055117
0
LINE
8
BLACK
6
CONTINUOUS
10
0.0751897637795276
20
1.4140627559055117
11
0.0775490551181102
21
1.4279486220472442
0
LINE
8
BLACK
6
CONTINUOUS
10
0.0775490551181102
20
1.4279486220472442
11
0.0814482677165354
21
1.4414830314960629
0
LINE
8
BLACK
6
CONTINUOUS
10
0.0814482677165354
20
1.4414830314960629
11
0.0868383070866142
21
1.4544957874015747
0
LINE
8
BLACK
6
CONTINUOUS
10
0.0868383070866142
20
1.4544957874015747
11
0.0936514566929134
21
1.4668232283464566
0
LINE
8
BLACK
6
CONTINUOUS
10
0.0936514566929134
20
1.4668232283464566
11
0.101801968503937
21
1.4783103149606298
0
LINE
8
BLACK
6
CONTINUOUS
10
0.101801968503937
20
1.4783103149606298
11
0.1111874015748031
21
1.4888125984251968
0
LINE
8
BLACK
6
CONTINUOUS
10
0.1111874015748031
20
1.4888125984251968
11
0.1216896850393701
21
1.498198031496063
0
LINE
8
BLACK
6
CONTINUOUS
10
0.1216896850393701
20
1.498198031496063
11
0.1331767716535433
21
1.5063485433070867
0
LINE
8
BLACK
6
CONTINUOUS
10
0.1331767716535433
20
1.5063485433070867
11
0.1455042125984252
21
1.5131616929133858
0
LINE
8
BLACK
6
CONTINUOUS
10
0.1455042125984252
20
1.5131616929133858
11
0.158516968503937
21
1.5185517322834645
0
LINE
8
BLACK
6
CONTINUOUS
10
0.158516968503937
20
1.5185517322834645
11
0.1720513779527559
21
1.5224509448818897
0
LINE
8
BLACK
6
CONTINUOUS
10
0.1720513779527559
20
1.5224509448818897
11
0.1859372440944882
21
1.5248102362204725
0
LINE
8
BLACK
6
CONTINUOUS
10
0.1859372440944882
20
1.5248102362204725
11
0.2
21
1.5256000000000001
0
LINE
8
BLACK
6
CONTINUOUS
10
0.2
20
1.5256000000000001
11
0.2140627559055118
21
1.5248102362204725
0
LINE
8
BLACK
6
CONTINUOUS
10
0.0899616535433071
20
1.3871383464566929
11
0.0921988582677165
21
1.3744506692913385
0
LINE
8
BLACK
6
CONTINUOUS
10
0.0921988582677165
20
1.3744506692913385
11
0.0958938582677165
21
1.362108464566929
0
LINE
8
BLACK
6
CONTINUOUS
10
0.0958938582677165
20
1.362108464566929
11
0.1009967322834646
21
1.3502787007874015
0
LINE
8
BLACK
6
CONTINUOUS
10
0.1009967322834646
20
1.3502787007874015
11
0.1074384251968504
21
1.3391212992125985
0
LINE
8
BLACK
6
CONTINUOUS
10
0.1074384251968504
20
1.3391212992125985
11
0.1151318897637795
21
1.3287872047244094
0
LINE
8
BLACK
6
CONTINUOUS
10
0.1151318897637795
20
1.3287872047244094
11
0.123973031496063
21
1.3194161417322834
0
LINE
8
BLACK
6
CONTINUOUS
10
0.123973031496063
20
1.3194161417322834
11
0.1338423228346457
21
1.3111348425196849
0
LINE
8
BLACK
6
CONTINUOUS
10
0.1338423228346457
20
1.3111348425196849
11
0.1446062598425197
21
1.3040552755905512
0
LINE
8
BLACK
6
CONTINUOUS
10
0.1446062598425197
20
1.3040552755905512
11
0.1561193307086614
21
1.2982731889763779
0
LINE
8
BLACK
6
CONTINUOUS
10
0.1561193307086614
20
1.2982731889763779
11
0.1682257874015748
21
1.293866811023622
0
LINE
8
BLACK
6
CONTINUOUS
10
0.1682257874015748
20
1.293866811023622
11
0.180761968503937
21
1.2908956692913385
0
LINE
8
BLACK
6
CONTINUOUS
10
0.180761968503937
20
1.2908956692913385
11
0.1935582677165354
21
1.2893999999999999
0
LINE
8
BLACK
6
CONTINUOUS
10
0.1935582677165354
20
1.2893999999999999
11
0.2064417322834646
21
1.2893999999999999
0
LINE
8
BLACK
6
CONTINUOUS
10
0.2064417322834646
20
1.2893999999999999
11
0.219238031496063
21
1.2908956692913385
0
LINE
8
BLACK
6
CONTINUOUS
10
0.219238031496063
20
1.2908956692913385
11
0.2317742125984252
21
1.293866811023622
0
LINE
8
BLACK
6
CONTINUOUS
10
0.2317742125984252
20
1.293866811023622
11
0.2438806692913386
21
1.2982731889763779
0
LINE
8
BLACK
6
CONTINUOUS
10
0.2438806692913386
20
1.2982731889763779
11
0.2553937401574803
21
1.3040552755905512
0
LINE
8
BLACK
6
CONTINUOUS
10
0.2553937401574803
20
1.3040552755905512
11
0.2661576771653543
21
1.3111348425196849
0
LINE
8
BLACK
6
CONTINUOUS
10
0.2661576771653543
20
1.3111348425196849
11
0.276026968503937
21
1.3194161417322834
0
LINE
8
BLACK
6
CONTINUOUS
10
0.276026968503937
20
1.3194161417322834
11
0.2848681102362204
21
1.3287872047244094
0
LINE
8
BLACK
6
CONTINUOUS
10
0.2848681102362204
20
1.3287872047244094
11
0.2925615748031496
21
1.3391212992125985
0
LINE
8
BLACK
6
CONTINUOUS
10
0.2925615748031496
20
1.3391212992125985
11
0.2990032677165354
21
1.3502787007874015
0
LINE
8
BLACK
6
CONTINUOUS
10
0.2990032677165354
20
1.3502787007874015
11
0.3041061417322835
21
1.362108464566929
0
LINE
8
BLACK
6
CONTINUOUS
10
0.3041061417322835
20
1.362108464566929
11
0.3078011417322835
21
1.3744506692913385
0
LINE
8
BLACK
6
CONTINUOUS
10
0.3078011417322835
20
1.3744506692913385
11
0.3100383464566929
21
1.3871383464566929
0
LINE
8
BLACK
6
CONTINUOUS
10
0.3100383464566929
20
1.3871383464566929
11
0.3107874409448819
21
1.3999999999999999
0
LINE
8
BLACK
6
CONTINUOUS
10
0.3107874409448819
20
1.3999999999999999
11
0.3100383464566929
21
1.412861653543307
0
LINE
8
BLACK
6
CONTINUOUS
10
0.3100383464566929
20
1.412861653543307
11
0.3078011417322835
21
1.4255493307086613
0
LINE
8
BLACK
6
CONTINUOUS
10
0.3078011417322835
20
1.4255493307086613
11
0.3041061417322835
21
1.4378915354330708
0
LINE
8
BLACK
6
CONTINUOUS
10
0.3041061417322835
20
1.4378915354330708
11
0.2990032677165354
21
1.4497212992125983
0
LINE
8
BLACK
6
CONTINUOUS
10
0.2990032677165354
20
1.4497212992125983
11
0.2925615748031496
21
1.4608787007874016
0
LINE
8
BLACK
6
CONTINUOUS
10
0.2925615748031496
20
1.4608787007874016
11
0.2848681102362204
21
1.4712127952755905
0
LINE
8
BLACK
6
CONTINUOUS
10
0.2848681102362204
20
1.4712127952755905
11
0.276026968503937
21
1.4805838582677164
0
LINE
8
BLACK
6
CONTINUOUS
10
0.276026968503937
20
1.4805838582677164
11
0.2661576771653543
21
1.4888651574803149
0
LINE
8
BLACK
6
CONTINUOUS
10
0.2661576771653543
20
1.4888651574803149
11
0.2553937401574803
21
1.4959447244094488
0
LINE
8
BLACK
6
CONTINUOUS
10
0.2553937401574803
20
1.4959447244094488
11
0.2438806692913386
21
1.5017268110236219
0
LINE
8
BLACK
6
CONTINUOUS
10
0.2438806692913386
20
1.5017268110236219
11
0.2317742125984252
21
1.5061331889763778
0
LINE
8
BLACK
6
CONTINUOUS
10
0.2317742125984252
20
1.5061331889763778
11
0.219238031496063
21
1.5091043307086613
0
LINE
8
BLACK
6
CONTINUOUS
10
0.219238031496063
20
1.5091043307086613
11
0.2064417322834646
21
1.5105999999999999
0
LINE
8
BLACK
6
CONTINUOUS
10
0.2064417322834646
20
1.5105999999999999
11
0.1935582677165354
21
1.5105999999999999
0
LINE
8
BLACK
6
CONTINUOUS
10
0.1935582677165354
20
1.5105999999999999
11
0.180761968503937
21
1.5091043307086613
0
LINE
8
BLACK
6
CONTINUOUS
10
0.180761968503937
20
1.5091043307086613
11
0.1682257874015748
21
1.5061331889763778
0
LINE
8
BLACK
6
CONTINUOUS
10
0.1682257874015748
20
1.5061331889763778
11
0.1561193307086614
21
1.5017268110236219
0
LINE
8
BLACK
6
CONTINUOUS
10
0.1561193307086614
20
1.5017268110236219
11
0.1446062598425197
21
1.4959447244094488
0
LINE
8
BLACK
6
CONTINUOUS
10
0.1446062598425197
20
1.4959447244094488
11
0.1338423228346457
21
1.4888651574803149
0
LINE
8
BLACK
6
CONTINUOUS
10
0.1338423228346457
20
1.4888651574803149
11
0.123973031496063
21
1.4805838582677164
0
LINE
8
BLACK
6
CONTINUOUS
10
0.123973031496063
20
1.4805838582677164
11
0.1151318897637795
21
1.4712127952755905
0
LINE
8
BLACK
6
CONTINUOUS
10
0.1151318897637795
20
1.4712127952755905
11
0.1074384251968504
21
1.4608787007874016
0
LINE
8
BLACK
6
CONTINUOUS
10
0.1074384251968504
20
1.4608787007874016
11
0.1009967322834646
21
1.4497212992125983
0
LINE
8
BLACK
6
CONTINUOUS
10
0.1009967322834646
20
1.4497212992125983
11
0.0958938582677165
21
1.4378915354330708
0
LINE
8
BLACK
6
CONTINUOUS
10
0.0958938582677165
20
1.4378915354330708
11
0.0921988582677165
21
1.4255493307086613
0
LINE
8
BLACK
6
CONTINUOUS
10
0.0921988582677165
20
1.4255493307086613
11
0.0899616535433071
21
1.412861653543307
0
LINE
8
BLACK
6
CONTINUOUS
10
0.0899616535433071
20
1.412861653543307
11
0.0892125590551181
21
1.3999999999999999
0
LINE
8
BLACK
6
CONTINUOUS
10
0.0892125590551181
20
1.3999999999999999
11
0.0899616535433071
21
1.3871383464566929
0
LINE
8
BLACK
6
CONTINUOUS
10
2.2140627559055117
20
1.5248102362204725
11
2.227948622047244
21
1.5224509448818897
0
LINE
8
BLACK
6
CONTINUOUS
10
2.227948622047244
20
1.5224509448818897
11
2.2414830314960628
21
1.5185517322834645
0
LINE
8
BLACK
6
CONTINUOUS
10
2.2414830314960628
20
1.5185517322834645
11
2.254495787401575
21
1.5131616929133858
0
LINE
8
BLACK
6
CONTINUOUS
10
2.254495787401575
20
1.5131616929133858
11
2.2668232283464564
21
1.5063485433070867
0
LINE
8
BLACK
6
CONTINUOUS
10
2.2668232283464564
20
1.5063485433070867
11
2.2783103149606299
21
1.498198031496063
0
LINE
8
BLACK
6
CONTINUOUS
10
2.2783103149606299
20
1.498198031496063
11
2.288812598425197
21
1.4888125984251968
0
LINE
8
BLACK
6
CONTINUOUS
10
2.288812598425197
20
1.4888125984251968
11
2.2981980314960628
21
1.4783103149606298
0
LINE
8
BLACK
6
CONTINUOUS
10
2.2981980314960628
20
1.4783103149606298
11
2.3063485433070867
21
1.4668232283464566
0
LINE
8
BLACK
6
CONTINUOUS
10
2.3063485433070867
20
1.4668232283464566
11
2.3131616929133858
21
1.4544957874015747
0
LINE
8
BLACK
6
CONTINUOUS
10
2.3131616929133858
20
1.4544957874015747
11
2.3185517322834643
21
1.4414830314960629
0
LINE
8
BLACK
6
CONTINUOUS
10
2.3185517322834643
20
1.4414830314960629
11
2.3224509448818895
21
1.4279486220472442
0
LINE
8
BLACK
6
CONTINUOUS
10
2.3224509448818895
20
1.4279486220472442
11
2.3248102362204723
21
1.4140627559055117
0
LINE
8
BLACK
6
CONTINUOUS
10
2.3248102362204723
20
1.4140627559055117
11
2.3256000000000001
21
1.3999999999999999
0
LINE
8
BLACK
6
CONTINUOUS
10
2.3256000000000001
20
1.3999999999999999
11
2.3248102362204723
21
1.3859372440944882
0
LINE
8
BLACK
6
CONTINUOUS
10
2.3248102362204723
20
1.3859372440944882
11
2.3224509448818895
21
1.3720513779527559
0
LINE
8
BLACK
6
CONTINUOUS
10
2.3224509448818895
20
1.3720513779527559
11
2.3185517322834643
21
1.3585169685039369
0
LINE
8
BLACK
6
CONTINUOUS
10
2.3185517322834643
20
1.3585169685039369
11
2.3131616929133858
21
1.3455042125984251
0
LINE
8
BLACK
6
CONTINUOUS
10
2.3131616929133858
20
1.3455042125984251
11
2.3063485433070867
21
1.3331767716535432
0
LINE
8
BLACK
6
CONTINUOUS
10
2.3063485433070867
20
1.3331767716535432
11
2.2981980314960628
21
1.32168968503937
0
LINE
8
BLACK
6
CONTINUOUS
10
2.2981980314960628
20
1.32168968503937
11
2.288812598425197
21
1.3111874015748031
0
LINE
8
BLACK
6
CONTINUOUS
10
2.288812598425197
20
1.3111874015748031
11
2.2783103149606299
21
1.301801968503937
0
LINE
8
BLACK
6
CONTINUOUS
10
2.2783103149606299
20
1.301801968503937
11
2.2668232283464564
21
1.2936514566929134
0
LINE
8
BLACK
6
CONTINUOUS
10
2.2668232283464564
20
1.2936514566929134
11
2.254495787401575
21
1.2868383070866141
0
LINE
8
BLACK
6
CONTINUOUS
10
2.254495787401575
20
1.2868383070866141
11
2.2414830314960628
21
1.2814482677165353
0
LINE
8
BLACK
6
CONTINUOUS
10
2.2414830314960628
20
1.2814482677165353
11
2.227948622047244
21
1.2775490551181101
0
LINE
8
BLACK
6
CONTINUOUS
10
2.227948622047244
20
1.2775490551181101
11
2.2140627559055117
21
1.2751897637795275
0
LINE
8
BLACK
6
CONTINUOUS
10
2.2140627559055117
20
1.2751897637795275
11
2.1999999999999997
21
1.2744
0
LINE
8
BLACK
6
CONTINUOUS
10
2.1999999999999997
20
1.2744
11
2.1859372440944882
21
1.2751897637795275
0
LINE
8
BLACK
6
CONTINUOUS
10
2.1859372440944882
20
1.2751897637795275
11
2.1720513779527559
21
1.2775490551181101
0
LINE
8
BLACK
6
CONTINUOUS
10
2.1720513779527559
20
1.2775490551181101
11
2.1585169685039372
21
1.2814482677165353
0
LINE
8
BLACK
6
CONTINUOUS
10
2.1585169685039372
20
1.2814482677165353
11
2.1455042125984249
21
1.2868383070866141
0
LINE
8
BLACK
6
CONTINUOUS
10
2.1455042125984249
20
1.2868383070866141
11
2.1331767716535435
21
1.2936514566929134
0
LINE
8
BLACK
6
CONTINUOUS
10
2.1331767716535435
20
1.2936514566929134
11
2.1216896850393701
21
1.301801968503937
0
LINE
8
BLACK
6
CONTINUOUS
10
2.1216896850393701
20
1.301801968503937
11
2.1111874015748029
21
1.3111874015748031
0
LINE
8
BLACK
6
CONTINUOUS
10
2.1111874015748029
20
1.3111874015748031
11
2.1018019685039371
21
1.32168968503937
0
LINE
8
BLACK
6
CONTINUOUS
10
2.1018019685039371
20
1.32168968503937
11
2.0936514566929132
21
1.3331767716535432
0
LINE
8
BLACK
6
CONTINUOUS
10
2.0936514566929132
20
1.3331767716535432
11
2.0868383070866141
21
1.3455042125984251
0
LINE
8
BLACK
6
CONTINUOUS
10
2.0868383070866141
20
1.3455042125984251
11
2.0814482677165356
21
1.3585169685039369
0
LINE
8
BLACK
6
CONTINUOUS
10
2.0814482677165356
20
1.3585169685039369
11
2.0775490551181104
21
1.3720513779527559
0
LINE
8
BLACK
6
CONTINUOUS
10
2.0775490551181104
20
1.3720513779527559
11
2.0751897637795276
21
1.3859372440944882
0
LINE
8
BLACK
6
CONTINUOUS
10
2.0751897637795276
20
1.3859372440944882
11
2.0743999999999998
21
1.3999999999999999
0
LINE
8
BLACK
6
CONTINUOUS
10
2.0743999999999998
20
1.3999999999999999
11
2.0751897637795276
21
1.4140627559055117
0
LINE
8
BLACK
6
CONTINUOUS
10
2.0751897637795276
20
1.4140627559055117
11
2.0775490551181104
21
1.4279486220472442
0
LINE
8
BLACK
6
CONTINUOUS
10
2.0775490551181104
20
1.4279486220472442
11
2.0814482677165356
21
1.4414830314960629
0
LINE
8
BLACK
6
CONTINUOUS
10
2.0814482677165356
20
1.4414830314960629
11
2.0868383070866141
21
1.4544957874015747
0
LINE
8
BLACK
6
CONTINUOUS
10
2.0868383070866141
20
1.4544957874015747
11
2.0936514566929132
21
1.4668232283464566
0
LINE
8
BLACK
6
CONTINUOUS
10
2.0936514566929132
20
1.4668232283464566
11
2.1018019685039371
21
1.4783103149606298
0
LINE
8
BLACK
6
CONTINUOUS
10
2.1018019685039371
20
1.4783103149606298
11
2.1111874015748029
21
1.4888125984251968
0
LINE
8
BLACK
6
CONTINUOUS
10
2.1111874015748029
20
1.4888125984251968
11
2.1216896850393701
21
1.498198031496063
0
LINE
8
BLACK
6
CONTINUOUS
10
2.1216896850393701
20
1.498198031496063
11
2.1331767716535435
21
1.5063485433070867
0
LINE
8
BLACK
6
CONTINUOUS
10
2.1331767716535435
20
1.5063485433070867
11
2.1455042125984249
21
1.5131616929133858
0
LINE
8
BLACK
6
CONTINUOUS
10
2.1455042125984249
20
1.5131616929133858
11
2.1585169685039372
21
1.5185517322834645
0
LINE
8
BLACK
6
CONTINUOUS
10
2.1585169685039372
20
1.5185517322834645
11
2.1720513779527559
21
1.5224509448818897
0
LINE
8
BLACK
6
CONTINUOUS
10
2.1720513779527559
20
1.5224509448818897
11
2.1859372440944882
21
1.5248102362204725
0
LINE
8
BLACK
6
CONTINUOUS
10
2.1859372440944882
20
1.5248102362204725
11
2.1999999999999997
21
1.5256000000000001
0
LINE
8
BLACK
6
CONTINUOUS
10
2.1999999999999997
20
1.5256000000000001
11
2.2140627559055117
21
1.5248102362204725
0
LINE
8
BLACK
6
CONTINUOUS
10
2.0899616535433072
20
1.3871383464566929
11
2.0921988582677167
21
1.3744506692913385
0
LINE
8
BLACK
6
CONTINUOUS
10
2.0921988582677167
20
1.3744506692913385
11
2.0958938582677167
21
1.362108464566929
0
LINE
8
BLACK
6
CONTINUOUS
10
2.0958938582677167
20
1.362108464566929
11
2.1009967322834644
21
1.3502787007874015
0
LINE
8
BLACK
6
CONTINUOUS
10
2.1009967322834644
20
1.3502787007874015
11
2.1074384251968503
21
1.3391212992125985
0
LINE
8
BLACK
6
CONTINUOUS
10
2.1074384251968503
20
1.3391212992125985
11
2.1151318897637794
21
1.3287872047244094
0
LINE
8
BLACK
6
CONTINUOUS
10
2.1151318897637794
20
1.3287872047244094
11
2.123973031496063
21
1.3194161417322834
0
LINE
8
BLACK
6
CONTINUOUS
10
2.123973031496063
20
1.3194161417322834
11
2.1338423228346457
21
1.3111348425196849
0
LINE
8
BLACK
6
CONTINUOUS
10
2.1338423228346457
20
1.3111348425196849
11
2.1446062598425195
21
1.3040552755905512
0
LINE
8
BLACK
6
CONTINUOUS
10
2.1446062598425195
20
1.3040552755905512
11
2.1561193307086612
21
1.2982731889763779
0
LINE
8
BLACK
6
CONTINUOUS
10
2.1561193307086612
20
1.2982731889763779
11
2.1682257874015747
21
1.293866811023622
0
LINE
8
BLACK
6
CONTINUOUS
10
2.1682257874015747
20
1.293866811023622
11
2.180761968503937
21
1.2908956692913385
0
LINE
8
BLACK
6
CONTINUOUS
10
2.180761968503937
20
1.2908956692913385
11
2.1935582677165355
21
1.2893999999999999
0
LINE
8
BLACK
6
CONTINUOUS
10
2.1935582677165355
20
1.2893999999999999
11
2.2064417322834644
21
1.2893999999999999
0
LINE
8
BLACK
6
CONTINUOUS
10
2.2064417322834644
20
1.2893999999999999
11
2.2192380314960629
21
1.2908956692913385
0
LINE
8
BLACK
6
CONTINUOUS
10
2.2192380314960629
20
1.2908956692913385
11
2.2317742125984252
21
1.293866811023622
0
LINE
8
BLACK
6
CONTINUOUS
10
2.2317742125984252
20
1.293866811023622
11
2.2438806692913387
21
1.2982731889763779
0
LINE
8
BLACK
6
CONTINUOUS
10
2.2438806692913387
20
1.2982731889763779
11
2.2553937401574804
21
1.3040552755905512
0
LINE
8
BLACK
6
CONTINUOUS
10
2.2553937401574804
20
1.3040552755905512
11
2.2661576771653542
21
1.3111348425196849
0
LINE
8
BLACK
6
CONTINUOUS
10
2.2661576771653542
20
1.3111348425196849
11
2.2760269685039369
21
1.3194161417322834
0
LINE
8
BLACK
6
CONTINUOUS
10
2.2760269685039369
20
1.3194161417322834
11
2.2848681102362205
21
1.3287872047244094
0
LINE
8
BLACK
6
CONTINUOUS
10
2.2848681102362205
20
1.3287872047244094
11
2.2925615748031496
21
1.3391212992125985
0
LINE
8
BLACK
6
CONTINUOUS
10
2.2925615748031496
20
1.3391212992125985
11
2.2990032677165355
21
1.3502787007874015
0
LINE
8
BLACK
6
CONTINUOUS
10
2.2990032677165355
20
1.3502787007874015
11
2.3041061417322832
21
1.362108464566929
0
LINE
8
BLACK
6
CONTINUOUS
10
2.3041061417322832
20
1.362108464566929
11
2.3078011417322832
21
1.3744506692913385
0
LINE
8
BLACK
6
CONTINUOUS
10
2.3078011417322832
20
1.3744506692913385
11
2.3100383464566927
21
1.3871383464566929
0
LINE
8
BLACK
6
CONTINUOUS
10
2.3100383464566927
20
1.3871383464566929
11
2.3107874409448819
21
1.3999999999999999
0
LINE
8
BLACK
6
CONTINUOUS
10
2.3107874409448819
20
1.3999999999999999
11
2.3100383464566927
21
1.412861653543307
0
LINE
8
BLACK
6
CONTINUOUS
10
2.3100383464566927
20
1.412861653543307
11
2.3078011417322832
21
1.4255493307086613
0
LINE
8
BLACK
6
CONTINUOUS
10
2.3078011417322832
20
1.4255493307086613
11
2.3041061417322832
21
1.4378915354330708
0
LINE
8
BLACK
6
CONTINUOUS
10
2.3041061417322832
20
1.4378915354330708
11
2.2990032677165355
21
1.4497212992125983
0
LINE
8
BLACK
6
CONTINUOUS
10
2.2990032677165355
20
1.4497212992125983
11
2.2925615748031496
21
1.4608787007874016
0
LINE
8
BLACK
6
CONTINUOUS
10
2.2925615748031496
20
1.4608787007874016
11
2.2848681102362205
21
1.4712127952755905
0
LINE
8
BLACK
6
CONTINUOUS
10
2.2848681102362205
20
1.4712127952755905
11
2.2760269685039369
21
1.4805838582677164
0
LINE
8
BLACK
6
CONTINUOUS
10
2.2760269685039369
20
1.4805838582677164
11
2.2661576771653542
21
1.4888651574803149
0
LINE
8
BLACK
6
CONTINUOUS
10
2.2661576771653542
20
1.4888651574803149
11
2.2553937401574804
21
1.4959447244094488
0
LINE
8
BLACK
6
CONTINUOUS
10
2.2553937401574804
20
1.4959447244094488
11
2.2438806692913387
21
1.5017268110236219
0
LINE
8
BLACK
6
CONTINUOUS
10
2.2438806692913387
20
1.5017268110236219
11
2.2317742125984252
21
1.5061331889763778
0
LINE
8
BLACK
6
CONTINUOUS
10
2.2317742125984252
20
1.5061331889763778
11
2.2192380314960629
21
1.5091043307086613
0
LINE
8
BLACK
6
CONTINUOUS
10
2.2192380314960629
20
1.5091043307086613
11
2.2064417322834644
21
1.5105999999999999
0
LINE
8
BLACK
6
CONTINUOUS
10
2.2064417322834644
20
1.5105999999999999
11
2.1935582677165355
21
1.5105999999999999
0
LINE
8
BLACK
6
CONTINUOUS
10
2.1935582677165355
20
1.5105999999999999
11
2.180761968503937
21
1.5091043307086613
0
LINE
8
BLACK
6
CONTINUOUS
10
2.180761968503937
20
1.5091043307086613
11
2.1682257874015747
21
1.5061331889763778
0
LINE
8
BLACK
6
CONTINUOUS
10
2.1682257874015747
20
1.5061331889763778
11
2.1561193307086612
21
1.5017268110236219
0
LINE
8
BLACK
6
CONTINUOUS
10
2.1561193307086612
20
1.5017268110236219
11
2.1446062598425195
21
1.4959447244094488
0
LINE
8
BLACK
6
CONTINUOUS
10
2.1446062598425195
20
1.4959447244094488
11
2.1338423228346457
21
1.4888651574803149
0
LINE
8
BLACK
6
CONTINUOUS
10
2.1338423228346457
20
1.4888651574803149
11
2.123973031496063
21
1.4805838582677164
0
LINE
8
BLACK
6
CONTINUOUS
10
2.123973031496063
20
1.4805838582677164
11
2.1151318897637794
21
1.4712127952755905
0
LINE
8
BLACK
6
CONTINUOUS
10
2.1151318897637794
20
1.4712127952755905
11
2.1074384251968503
21
1.4608787007874016
0
LINE
8
BLACK
6
CONTINUOUS
10
2.1074384251968503
20
1.4608787007874016
11
2.1009967322834644
21
1.4497212992125983
0
LINE
8
BLACK
6
CONTINUOUS
10
2.1009967322834644
20
1.4497212992125983
11
2.0958938582677167
21
1.4378915354330708
0
LINE
8
BLACK
6
CONTINUOUS
10
2.0958938582677167
20
1.4378915354330708
11
2.0921988582677167
21
1.4255493307086613
0
LINE
8
BLACK
6
CONTINUOUS
10
2.0921988582677167
20
1.4255493307086613
11
2.0899616535433072
21
1.412861653543307
0
LINE
8
BLACK
6
CONTINUOUS
10
2.0899616535433072
20
1.412861653543307
11
2.089212559055118
21
1.3999999999999999
0
LINE
8
BLACK
6
CONTINUOUS
10
2.089212559055118
20
1.3999999999999999
11
2.0899616535433072
21
1.3871383464566929
  0
ENDSEC
  0
EOF
