  0
SECTION
  2
HEADER
  9
$ANGBASE
  50
0.0
  9
$ANGDIR
  70
1
  9
$MEASUREMENT
  70
0
  0
ENDSEC
  0
SECTION
  2
TABLES
  0
TABLE
  2
LTYPE
  70
4
  0
LTYPE
  5
40F
  2
CONTINUOUS
  70
0
  3
Solid line
  72
65
  73
0
  40
0.0
  0
LTYPE
  5
410
  2
DASHDOT
 70
0
  3
Dash Dot ____ _ ____ _
 72
65
 73
4
 40
2.0
 49
1.25
 49
-0.25
 49
0.25
 49
-0.25
  0
LTYPE
  5
411
  2
DASHED
 70
0
  3
Dashed __ __ __ __ __
 72
65
 73
2
 40
0.75
 49
0.5
 49
-0.25
  0
LTYPE
  5
43B
  2
DOTTED
 70
0
  3
Dotted .  .  .  .
 72
65
 73
2
 40
0.2
 49
0.0
 49
-0.2
  0
ENDTAB
  0
TABLE
  2
STYLE
  70
4
  0
STYLE
  2
KICAD
  70
0
  40
0
  41
1
  42
1
  50
0
  71
0
  3
isocp.shx
  0
STYLE
  2
KICADB
  70
0
  40
0
  41
1
  42
1
  50
0
  71
0
  3
isocp.shx
  0
STYLE
  2
KICADI
  70
0
  40
0
  41
1
  42
1
  50
15
  71
0
  3
isocp.shx
  0
STYLE
  2
KICADBI
  70
0
  40
0
  41
1
  42
1
  50
15
  71
0
  3
isocp.shx
  0
ENDTAB
  0
TABLE
  2
LAYER
  70
1
  0
LAYER
  2
BLACK
  70
0
  62
7
  6
CONTINUOUS
  0
ENDTAB
  0
ENDSEC
  0
SECTION
  2
ENTITIES
0
LINE
8
BLACK
6
CONTINUOUS
10
0.2205096456692913
20
0.3163158661417323
11
0.2338744094488189
21
0.3131483858267716
0
LINE
8
BLACK
6
CONTINUOUS
10
0.2338744094488189
20
0.3131483858267716
11
0.246781062992126
21
0.3084507086614173
0
LINE
8
BLACK
6
CONTINUOUS
10
0.246781062992126
20
0.3084507086614173
11
0.2590551181102362
21
0.3022864566929134
0
LINE
8
BLACK
6
CONTINUOUS
10
0.2590551181102362
20
0.3022864566929134
11
0.2705305511811024
21
0.2947389763779528
0
LINE
8
BLACK
6
CONTINUOUS
10
0.2705305511811024
20
0.2947389763779528
11
0.2810521653543307
21
0.2859102755905512
0
LINE
8
BLACK
6
CONTINUOUS
10
0.2810521653543307
20
0.2859102755905512
11
0.2904776771653543
21
0.2759198031496063
0
LINE
8
BLACK
6
CONTINUOUS
10
0.2904776771653543
20
0.2759198031496063
11
0.2986796456692913
21
0.2649026377952756
0
LINE
8
BLACK
6
CONTINUOUS
10
0.2986796456692913
20
0.2649026377952756
11
0.3055471653543307
21
0.2530077952755905
0
LINE
8
BLACK
6
CONTINUOUS
10
0.3055471653543307
20
0.2530077952755905
11
0.3109873228346456
21
0.240396062992126
0
LINE
8
BLACK
6
CONTINUOUS
10
0.3109873228346456
20
0.240396062992126
11
0.3149265748031496
21
0.2272381102362205
0
LINE
8
BLACK
6
CONTINUOUS
10
0.3149265748031496
20
0.2272381102362205
11
0.3173116141732283
21
0.2137117716535433
0
LINE
8
BLACK
6
CONTINUOUS
10
0.3173116141732283
20
0.2137117716535433
11
0.3181102362204724
21
0.2
0
LINE
8
BLACK
6
CONTINUOUS
10
0.3181102362204724
20
0.2
11
0.3173116141732283
21
0.1862882283464567
0
LINE
8
BLACK
6
CONTINUOUS
10
0.3173116141732283
20
0.1862882283464567
11
0.3149265748031496
21
0.1727618897637795
0
LINE
8
BLACK
6
CONTINUOUS
10
0.3149265748031496
20
0.1727618897637795
11
0.3109873228346456
21
0.159603937007874
0
LINE
8
BLACK
6
CONTINUOUS
10
0.3109873228346456
20
0.159603937007874
11
0.3055471653543307
21
0.1469922047244094
0
LINE
8
BLACK
6
CONTINUOUS
10
0.3055471653543307
20
0.1469922047244094
11
0.2986796456692913
21
0.1350973622047244
0
LINE
8
BLACK
6
CONTINUOUS
10
0.2986796456692913
20
0.1350973622047244
11
0.2904776771653543
21
0.1240801968503937
0
LINE
8
BLACK
6
CONTINUOUS
10
0.2904776771653543
20
0.1240801968503937
11
0.2810521653543307
21
0.1140897244094488
0
LINE
8
BLACK
6
CONTINUOUS
10
0.2810521653543307
20
0.1140897244094488
11
0.2705305511811024
21
0.1052610236220472
0
LINE
8
BLACK
6
CONTINUOUS
10
0.2705305511811024
20
0.1052610236220472
11
0.2590551181102362
21
0.0977135433070866
0
LINE
8
BLACK
6
CONTINUOUS
10
0.2590551181102362
20
0.0977135433070866
11
0.246781062992126
21
0.0915492913385827
0
LINE
8
BLACK
6
CONTINUOUS
10
0.246781062992126
20
0.0915492913385827
11
0.2338744094488189
21
0.0868516141732283
0
LINE
8
BLACK
6
CONTINUOUS
10
0.2338744094488189
20
0.0868516141732283
11
0.2205096456692913
21
0.0836841338582677
0
LINE
8
BLACK
6
CONTINUOUS
10
0.2205096456692913
20
0.0836841338582677
11
0.2068674803149606
21
0.0820896062992126
0
LINE
8
BLACK
6
CONTINUOUS
10
0.2068674803149606
20
0.0820896062992126
11
0.1931325196850394
21
0.0820896062992126
0
LINE
8
BLACK
6
CONTINUOUS
10
0.1931325196850394
20
0.0820896062992126
11
0.1794903543307086
21
0.0836841338582677
0
LINE
8
BLACK
6
CONTINUOUS
10
0.1794903543307086
20
0.0836841338582677
11
0.1661255905511811
21
0.0868516141732283
0
LINE
8
BLACK
6
CONTINUOUS
10
0.1661255905511811
20
0.0868516141732283
11
0.153218937007874
21
0.0915492913385827
0
LINE
8
BLACK
6
CONTINUOUS
10
0.153218937007874
20
0.0915492913385827
11
0.1409448818897638
21
0.0977135433070866
0
LINE
8
BLACK
6
CONTINUOUS
10
0.1409448818897638
20
0.0977135433070866
11
0.1294694488188976
21
0.1052610236220472
0
LINE
8
BLACK
6
CONTINUOUS
10
0.1294694488188976
20
0.1052610236220472
11
0.1189478346456693
21
0.1140897244094488
0
LINE
8
BLACK
6
CONTINUOUS
10
0.1189478346456693
20
0.1140897244094488
11
0.1095223228346457
21
0.1240801968503937
0
LINE
8
BLACK
6
CONTINUOUS
10
0.1095223228346457
20
0.1240801968503937
11
0.1013203543307087
21
0.1350973622047244
0
LINE
8
BLACK
6
CONTINUOUS
10
0.1013203543307087
20
0.1350973622047244
11
0.0944528346456693
21
0.1469922047244094
0
LINE
8
BLACK
6
CONTINUOUS
10
0.0944528346456693
20
0.1469922047244094
11
0.0890126771653543
21
0.159603937007874
0
LINE
8
BLACK
6
CONTINUOUS
10
0.0890126771653543
20
0.159603937007874
11
0.0850734251968504
21
0.1727618897637795
0
LINE
8
BLACK
6
CONTINUOUS
10
0.0850734251968504
20
0.1727618897637795
11
0.0826883858267717
21
0.1862882283464567
0
LINE
8
BLACK
6
CONTINUOUS
10
0.0826883858267717
20
0.1862882283464567
11
0.0818897637795276
21
0.2
0
LINE
8
BLACK
6
CONTINUOUS
10
0.0818897637795276
20
0.2
11
0.0826883858267717
21
0.2137117716535433
0
LINE
8
BLACK
6
CONTINUOUS
10
0.0826883858267717
20
0.2137117716535433
11
0.0850734251968504
21
0.2272381102362205
0
LINE
8
BLACK
6
CONTINUOUS
10
0.0850734251968504
20
0.2272381102362205
11
0.0890126771653543
21
0.240396062992126
0
LINE
8
BLACK
6
CONTINUOUS
10
0.0890126771653543
20
0.240396062992126
11
0.0944528346456693
21
0.2530077952755905
0
LINE
8
BLACK
6
CONTINUOUS
10
0.0944528346456693
20
0.2530077952755905
11
0.1013203543307087
21
0.2649026377952756
0
LINE
8
BLACK
6
CONTINUOUS
10
0.1013203543307087
20
0.2649026377952756
11
0.1095223228346457
21
0.2759198031496063
0
LINE
8
BLACK
6
CONTINUOUS
10
0.1095223228346457
20
0.2759198031496063
11
0.1189478346456693
21
0.2859102755905512
0
LINE
8
BLACK
6
CONTINUOUS
10
0.1189478346456693
20
0.2859102755905512
11
0.1294694488188976
21
0.2947389763779528
0
LINE
8
BLACK
6
CONTINUOUS
10
0.1294694488188976
20
0.2947389763779528
11
0.1409448818897638
21
0.3022864566929134
0
LINE
8
BLACK
6
CONTINUOUS
10
0.1409448818897638
20
0.3022864566929134
11
0.153218937007874
21
0.3084507086614173
0
LINE
8
BLACK
6
CONTINUOUS
10
0.153218937007874
20
0.3084507086614173
11
0.1661255905511811
21
0.3131483858267716
0
LINE
8
BLACK
6
CONTINUOUS
10
0.1661255905511811
20
0.3131483858267716
11
0.1794903543307086
21
0.3163158661417323
0
LINE
8
BLACK
6
CONTINUOUS
10
0.1794903543307086
20
0.3163158661417323
11
0.1931325196850394
21
0.3179103937007874
0
LINE
8
BLACK
6
CONTINUOUS
10
0.1931325196850394
20
0.3179103937007874
11
0.2068674803149606
21
0.3179103937007874
0
LINE
8
BLACK
6
CONTINUOUS
10
0.2068674803149606
20
0.3179103937007874
11
0.2205096456692913
21
0.3163158661417323
0
LINE
8
BLACK
6
CONTINUOUS
10
2.2205096456692912
20
0.3163158661417323
11
2.233874409448819
21
0.3131483858267716
0
LINE
8
BLACK
6
CONTINUOUS
10
2.233874409448819
20
0.3131483858267716
11
2.2467810629921261
21
0.3084507086614173
0
LINE
8
BLACK
6
CONTINUOUS
10
2.2467810629921261
20
0.3084507086614173
11
2.2590551181102363
21
0.3022864566929134
0
LINE
8
BLACK
6
CONTINUOUS
10
2.2590551181102363
20
0.3022864566929134
11
2.2705305511811025
21
0.2947389763779528
0
LINE
8
BLACK
6
CONTINUOUS
10
2.2705305511811025
20
0.2947389763779528
11
2.2810521653543305
21
0.2859102755905512
0
LINE
8
BLACK
6
CONTINUOUS
10
2.2810521653543305
20
0.2859102755905512
11
2.2904776771653541
21
0.2759198031496063
0
LINE
8
BLACK
6
CONTINUOUS
10
2.2904776771653541
20
0.2759198031496063
11
2.2986796456692913
21
0.2649026377952756
0
LINE
8
BLACK
6
CONTINUOUS
10
2.2986796456692913
20
0.2649026377952756
11
2.3055471653543305
21
0.2530077952755905
0
LINE
8
BLACK
6
CONTINUOUS
10
2.3055471653543305
20
0.2530077952755905
11
2.3109873228346456
21
0.240396062992126
0
LINE
8
BLACK
6
CONTINUOUS
10
2.3109873228346456
20
0.240396062992126
11
2.3149265748031493
21
0.2272381102362205
0
LINE
8
BLACK
6
CONTINUOUS
10
2.3149265748031493
20
0.2272381102362205
11
2.3173116141732284
21
0.2137117716535433
0
LINE
8
BLACK
6
CONTINUOUS
10
2.3173116141732284
20
0.2137117716535433
11
2.3181102362204724
21
0.2
0
LINE
8
BLACK
6
CONTINUOUS
10
2.3181102362204724
20
0.2
11
2.3173116141732284
21
0.1862882283464567
0
LINE
8
BLACK
6
CONTINUOUS
10
2.3173116141732284
20
0.1862882283464567
11
2.3149265748031493
21
0.1727618897637795
0
LINE
8
BLACK
6
CONTINUOUS
10
2.3149265748031493
20
0.1727618897637795
11
2.3109873228346456
21
0.159603937007874
0
LINE
8
BLACK
6
CONTINUOUS
10
2.3109873228346456
20
0.159603937007874
11
2.3055471653543305
21
0.1469922047244094
0
LINE
8
BLACK
6
CONTINUOUS
10
2.3055471653543305
20
0.1469922047244094
11
2.2986796456692913
21
0.1350973622047244
0
LINE
8
BLACK
6
CONTINUOUS
10
2.2986796456692913
20
0.1350973622047244
11
2.2904776771653541
21
0.1240801968503937
0
LINE
8
BLACK
6
CONTINUOUS
10
2.2904776771653541
20
0.1240801968503937
11
2.2810521653543305
21
0.1140897244094488
0
LINE
8
BLACK
6
CONTINUOUS
10
2.2810521653543305
20
0.1140897244094488
11
2.2705305511811025
21
0.1052610236220472
0
LINE
8
BLACK
6
CONTINUOUS
10
2.2705305511811025
20
0.1052610236220472
11
2.2590551181102363
21
0.0977135433070866
0
LINE
8
BLACK
6
CONTINUOUS
10
2.2590551181102363
20
0.0977135433070866
11
2.2467810629921261
21
0.0915492913385827
0
LINE
8
BLACK
6
CONTINUOUS
10
2.2467810629921261
20
0.0915492913385827
11
2.233874409448819
21
0.0868516141732283
0
LINE
8
BLACK
6
CONTINUOUS
10
2.233874409448819
20
0.0868516141732283
11
2.2205096456692912
21
0.0836841338582677
0
LINE
8
BLACK
6
CONTINUOUS
10
2.2205096456692912
20
0.0836841338582677
11
2.2068674803149606
21
0.0820896062992126
0
LINE
8
BLACK
6
CONTINUOUS
10
2.2068674803149606
20
0.0820896062992126
11
2.1931325196850393
21
0.0820896062992126
0
LINE
8
BLACK
6
CONTINUOUS
10
2.1931325196850393
20
0.0820896062992126
11
2.1794903543307087
21
0.0836841338582677
0
LINE
8
BLACK
6
CONTINUOUS
10
2.1794903543307087
20
0.0836841338582677
11
2.1661255905511809
21
0.0868516141732283
0
LINE
8
BLACK
6
CONTINUOUS
10
2.1661255905511809
20
0.0868516141732283
11
2.1532189370078738
21
0.0915492913385827
0
LINE
8
BLACK
6
CONTINUOUS
10
2.1532189370078738
20
0.0915492913385827
11
2.1409448818897636
21
0.0977135433070866
0
LINE
8
BLACK
6
CONTINUOUS
10
2.1409448818897636
20
0.0977135433070866
11
2.1294694488188974
21
0.1052610236220472
0
LINE
8
BLACK
6
CONTINUOUS
10
2.1294694488188974
20
0.1052610236220472
11
2.1189478346456694
21
0.1140897244094488
0
LINE
8
BLACK
6
CONTINUOUS
10
2.1189478346456694
20
0.1140897244094488
11
2.1095223228346458
21
0.1240801968503937
0
LINE
8
BLACK
6
CONTINUOUS
10
2.1095223228346458
20
0.1240801968503937
11
2.1013203543307086
21
0.1350973622047244
0
LINE
8
BLACK
6
CONTINUOUS
10
2.1013203543307086
20
0.1350973622047244
11
2.0944528346456694
21
0.1469922047244094
0
LINE
8
BLACK
6
CONTINUOUS
10
2.0944528346456694
20
0.1469922047244094
11
2.0890126771653543
21
0.159603937007874
0
LINE
8
BLACK
6
CONTINUOUS
10
2.0890126771653543
20
0.159603937007874
11
2.0850734251968501
21
0.1727618897637795
0
LINE
8
BLACK
6
CONTINUOUS
10
2.0850734251968501
20
0.1727618897637795
11
2.0826883858267715
21
0.1862882283464567
0
LINE
8
BLACK
6
CONTINUOUS
10
2.0826883858267715
20
0.1862882283464567
11
2.0818897637795275
21
0.2
0
LINE
8
BLACK
6
CONTINUOUS
10
2.0818897637795275
20
0.2
11
2.0826883858267715
21
0.2137117716535433
0
LINE
8
BLACK
6
CONTINUOUS
10
2.0826883858267715
20
0.2137117716535433
11
2.0850734251968501
21
0.2272381102362205
0
LINE
8
BLACK
6
CONTINUOUS
10
2.0850734251968501
20
0.2272381102362205
11
2.0890126771653543
21
0.240396062992126
0
LINE
8
BLACK
6
CONTINUOUS
10
2.0890126771653543
20
0.240396062992126
11
2.0944528346456694
21
0.2530077952755905
0
LINE
8
BLACK
6
CONTINUOUS
10
2.0944528346456694
20
0.2530077952755905
11
2.1013203543307086
21
0.2649026377952756
0
LINE
8
BLACK
6
CONTINUOUS
10
2.1013203543307086
20
0.2649026377952756
11
2.1095223228346458
21
0.2759198031496063
0
LINE
8
BLACK
6
CONTINUOUS
10
2.1095223228346458
20
0.2759198031496063
11
2.1189478346456694
21
0.2859102755905512
0
LINE
8
BLACK
6
CONTINUOUS
10
2.1189478346456694
20
0.2859102755905512
11
2.1294694488188974
21
0.2947389763779528
0
LINE
8
BLACK
6
CONTINUOUS
10
2.1294694488188974
20
0.2947389763779528
11
2.1409448818897636
21
0.3022864566929134
0
LINE
8
BLACK
6
CONTINUOUS
10
2.1409448818897636
20
0.3022864566929134
11
2.1532189370078738
21
0.3084507086614173
0
LINE
8
BLACK
6
CONTINUOUS
10
2.1532189370078738
20
0.3084507086614173
11
2.1661255905511809
21
0.3131483858267716
0
LINE
8
BLACK
6
CONTINUOUS
10
2.1661255905511809
20
0.3131483858267716
11
2.1794903543307087
21
0.3163158661417323
0
LINE
8
BLACK
6
CONTINUOUS
10
2.1794903543307087
20
0.3163158661417323
11
2.1931325196850393
21
0.3179103937007874
0
LINE
8
BLACK
6
CONTINUOUS
10
2.1931325196850393
20
0.3179103937007874
11
2.2068674803149606
21
0.3179103937007874
0
LINE
8
BLACK
6
CONTINUOUS
10
2.2068674803149606
20
0.3179103937007874
11
2.2205096456692912
21
0.3163158661417323
0
LINE
8
BLACK
6
CONTINUOUS
10
0.2205096456692913
20
1.5163158661417322
11
0.2338744094488189
21
1.5131483858267716
0
LINE
8
BLACK
6
CONTINUOUS
10
0.2338744094488189
20
1.5131483858267716
11
0.246781062992126
21
1.5084507086614174
0
LINE
8
BLACK
6
CONTINUOUS
10
0.246781062992126
20
1.5084507086614174
11
0.2590551181102362
21
1.5022864566929133
0
LINE
8
BLACK
6
CONTINUOUS
10
0.2590551181102362
20
1.5022864566929133
11
0.2705305511811024
21
1.4947389763779528
0
LINE
8
BLACK
6
CONTINUOUS
10
0.2705305511811024
20
1.4947389763779528
11
0.2810521653543307
21
1.4859102755905511
0
LINE
8
BLACK
6
CONTINUOUS
10
0.2810521653543307
20
1.4859102755905511
11
0.2904776771653543
21
1.4759198031496064
0
LINE
8
BLACK
6
CONTINUOUS
10
0.2904776771653543
20
1.4759198031496064
11
0.2986796456692913
21
1.4649026377952756
0
LINE
8
BLACK
6
CONTINUOUS
10
0.2986796456692913
20
1.4649026377952756
11
0.3055471653543307
21
1.4530077952755904
0
LINE
8
BLACK
6
CONTINUOUS
10
0.3055471653543307
20
1.4530077952755904
11
0.3109873228346456
21
1.440396062992126
0
LINE
8
BLACK
6
CONTINUOUS
10
0.3109873228346456
20
1.440396062992126
11
0.3149265748031496
21
1.4272381102362204
0
LINE
8
BLACK
6
CONTINUOUS
10
0.3149265748031496
20
1.4272381102362204
11
0.3173116141732283
21
1.4137117716535432
0
LINE
8
BLACK
6
CONTINUOUS
10
0.3173116141732283
20
1.4137117716535432
11
0.3181102362204724
21
1.3999999999999999
0
LINE
8
BLACK
6
CONTINUOUS
10
0.3181102362204724
20
1.3999999999999999
11
0.3173116141732283
21
1.3862882283464566
0
LINE
8
BLACK
6
CONTINUOUS
10
0.3173116141732283
20
1.3862882283464566
11
0.3149265748031496
21
1.3727618897637794
0
LINE
8
BLACK
6
CONTINUOUS
10
0.3149265748031496
20
1.3727618897637794
11
0.3109873228346456
21
1.3596039370078741
0
LINE
8
BLACK
6
CONTINUOUS
10
0.3109873228346456
20
1.3596039370078741
11
0.3055471653543307
21
1.3469922047244094
0
LINE
8
BLACK
6
CONTINUOUS
10
0.3055471653543307
20
1.3469922047244094
11
0.2986796456692913
21
1.3350973622047244
0
LINE
8
BLACK
6
CONTINUOUS
10
0.2986796456692913
20
1.3350973622047244
11
0.2904776771653543
21
1.3240801968503937
0
LINE
8
BLACK
6
CONTINUOUS
10
0.2904776771653543
20
1.3240801968503937
11
0.2810521653543307
21
1.3140897244094487
0
LINE
8
BLACK
6
CONTINUOUS
10
0.2810521653543307
20
1.3140897244094487
11
0.2705305511811024
21
1.3052610236220472
0
LINE
8
BLACK
6
CONTINUOUS
10
0.2705305511811024
20
1.3052610236220472
11
0.2590551181102362
21
1.2977135433070865
0
LINE
8
BLACK
6
CONTINUOUS
10
0.2590551181102362
20
1.2977135433070865
11
0.246781062992126
21
1.2915492913385827
0
LINE
8
BLACK
6
CONTINUOUS
10
0.246781062992126
20
1.2915492913385827
11
0.2338744094488189
21
1.2868516141732282
0
LINE
8
BLACK
6
CONTINUOUS
10
0.2338744094488189
20
1.2868516141732282
11
0.2205096456692913
21
1.2836841338582676
0
LINE
8
BLACK
6
CONTINUOUS
10
0.2205096456692913
20
1.2836841338582676
11
0.2068674803149606
21
1.2820896062992126
0
LINE
8
BLACK
6
CONTINUOUS
10
0.2068674803149606
20
1.2820896062992126
11
0.1931325196850394
21
1.2820896062992126
0
LINE
8
BLACK
6
CONTINUOUS
10
0.1931325196850394
20
1.2820896062992126
11
0.1794903543307086
21
1.2836841338582676
0
LINE
8
BLACK
6
CONTINUOUS
10
0.1794903543307086
20
1.2836841338582676
11
0.1661255905511811
21
1.2868516141732282
0
LINE
8
BLACK
6
CONTINUOUS
10
0.1661255905511811
20
1.2868516141732282
11
0.153218937007874
21
1.2915492913385827
0
LINE
8
BLACK
6
CONTINUOUS
10
0.153218937007874
20
1.2915492913385827
11
0.1409448818897638
21
1.2977135433070865
0
LINE
8
BLACK
6
CONTINUOUS
10
0.1409448818897638
20
1.2977135433070865
11
0.1294694488188976
21
1.3052610236220472
0
LINE
8
BLACK
6
CONTINUOUS
10
0.1294694488188976
20
1.3052610236220472
11
0.1189478346456693
21
1.3140897244094487
0
LINE
8
BLACK
6
CONTINUOUS
10
0.1189478346456693
20
1.3140897244094487
11
0.1095223228346457
21
1.3240801968503937
0
LINE
8
BLACK
6
CONTINUOUS
10
0.1095223228346457
20
1.3240801968503937
11
0.1013203543307087
21
1.3350973622047244
0
LINE
8
BLACK
6
CONTINUOUS
10
0.1013203543307087
20
1.3350973622047244
11
0.0944528346456693
21
1.3469922047244094
0
LINE
8
BLACK
6
CONTINUOUS
10
0.0944528346456693
20
1.3469922047244094
11
0.0890126771653543
21
1.3596039370078741
0
LINE
8
BLACK
6
CONTINUOUS
10
0.0890126771653543
20
1.3596039370078741
11
0.0850734251968504
21
1.3727618897637794
0
LINE
8
BLACK
6
CONTINUOUS
10
0.0850734251968504
20
1.3727618897637794
11
0.0826883858267717
21
1.3862882283464566
0
LINE
8
BLACK
6
CONTINUOUS
10
0.0826883858267717
20
1.3862882283464566
11
0.0818897637795276
21
1.3999999999999999
0
LINE
8
BLACK
6
CONTINUOUS
10
0.0818897637795276
20
1.3999999999999999
11
0.0826883858267717
21
1.4137117716535432
0
LINE
8
BLACK
6
CONTINUOUS
10
0.0826883858267717
20
1.4137117716535432
11
0.0850734251968504
21
1.4272381102362204
0
LINE
8
BLACK
6
CONTINUOUS
10
0.0850734251968504
20
1.4272381102362204
11
0.0890126771653543
21
1.440396062992126
0
LINE
8
BLACK
6
CONTINUOUS
10
0.0890126771653543
20
1.440396062992126
11
0.0944528346456693
21
1.4530077952755904
0
LINE
8
BLACK
6
CONTINUOUS
10
0.0944528346456693
20
1.4530077952755904
11
0.1013203543307087
21
1.4649026377952756
0
LINE
8
BLACK
6
CONTINUOUS
10
0.1013203543307087
20
1.4649026377952756
11
0.1095223228346457
21
1.4759198031496064
0
LINE
8
BLACK
6
CONTINUOUS
10
0.1095223228346457
20
1.4759198031496064
11
0.1189478346456693
21
1.4859102755905511
0
LINE
8
BLACK
6
CONTINUOUS
10
0.1189478346456693
20
1.4859102755905511
11
0.1294694488188976
21
1.4947389763779528
0
LINE
8
BLACK
6
CONTINUOUS
10
0.1294694488188976
20
1.4947389763779528
11
0.1409448818897638
21
1.5022864566929133
0
LINE
8
BLACK
6
CONTINUOUS
10
0.1409448818897638
20
1.5022864566929133
11
0.153218937007874
21
1.5084507086614174
0
LINE
8
BLACK
6
CONTINUOUS
10
0.153218937007874
20
1.5084507086614174
11
0.1661255905511811
21
1.5131483858267716
0
LINE
8
BLACK
6
CONTINUOUS
10
0.1661255905511811
20
1.5131483858267716
11
0.1794903543307086
21
1.5163158661417322
0
LINE
8
BLACK
6
CONTINUOUS
10
0.1794903543307086
20
1.5163158661417322
11
0.1931325196850394
21
1.5179103937007874
0
LINE
8
BLACK
6
CONTINUOUS
10
0.1931325196850394
20
1.5179103937007874
11
0.2068674803149606
21
1.5179103937007874
0
LINE
8
BLACK
6
CONTINUOUS
10
0.2068674803149606
20
1.5179103937007874
11
0.2205096456692913
21
1.5163158661417322
0
LINE
8
BLACK
6
CONTINUOUS
10
2.2205096456692912
20
1.5163158661417322
11
2.233874409448819
21
1.5131483858267716
0
LINE
8
BLACK
6
CONTINUOUS
10
2.233874409448819
20
1.5131483858267716
11
2.2467810629921261
21
1.5084507086614174
0
LINE
8
BLACK
6
CONTINUOUS
10
2.2467810629921261
20
1.5084507086614174
11
2.2590551181102363
21
1.5022864566929133
0
LINE
8
BLACK
6
CONTINUOUS
10
2.2590551181102363
20
1.5022864566929133
11
2.2705305511811025
21
1.4947389763779528
0
LINE
8
BLACK
6
CONTINUOUS
10
2.2705305511811025
20
1.4947389763779528
11
2.2810521653543305
21
1.4859102755905511
0
LINE
8
BLACK
6
CONTINUOUS
10
2.2810521653543305
20
1.4859102755905511
11
2.2904776771653541
21
1.4759198031496064
0
LINE
8
BLACK
6
CONTINUOUS
10
2.2904776771653541
20
1.4759198031496064
11
2.2986796456692913
21
1.4649026377952756
0
LINE
8
BLACK
6
CONTINUOUS
10
2.2986796456692913
20
1.4649026377952756
11
2.3055471653543305
21
1.4530077952755904
0
LINE
8
BLACK
6
CONTINUOUS
10
2.3055471653543305
20
1.4530077952755904
11
2.3109873228346456
21
1.440396062992126
0
LINE
8
BLACK
6
CONTINUOUS
10
2.3109873228346456
20
1.440396062992126
11
2.3149265748031493
21
1.4272381102362204
0
LINE
8
BLACK
6
CONTINUOUS
10
2.3149265748031493
20
1.4272381102362204
11
2.3173116141732284
21
1.4137117716535432
0
LINE
8
BLACK
6
CONTINUOUS
10
2.3173116141732284
20
1.4137117716535432
11
2.3181102362204724
21
1.3999999999999999
0
LINE
8
BLACK
6
CONTINUOUS
10
2.3181102362204724
20
1.3999999999999999
11
2.3173116141732284
21
1.3862882283464566
0
LINE
8
BLACK
6
CONTINUOUS
10
2.3173116141732284
20
1.3862882283464566
11
2.3149265748031493
21
1.3727618897637794
0
LINE
8
BLACK
6
CONTINUOUS
10
2.3149265748031493
20
1.3727618897637794
11
2.3109873228346456
21
1.3596039370078741
0
LINE
8
BLACK
6
CONTINUOUS
10
2.3109873228346456
20
1.3596039370078741
11
2.3055471653543305
21
1.3469922047244094
0
LINE
8
BLACK
6
CONTINUOUS
10
2.3055471653543305
20
1.3469922047244094
11
2.2986796456692913
21
1.3350973622047244
0
LINE
8
BLACK
6
CONTINUOUS
10
2.2986796456692913
20
1.3350973622047244
11
2.2904776771653541
21
1.3240801968503937
0
LINE
8
BLACK
6
CONTINUOUS
10
2.2904776771653541
20
1.3240801968503937
11
2.2810521653543305
21
1.3140897244094487
0
LINE
8
BLACK
6
CONTINUOUS
10
2.2810521653543305
20
1.3140897244094487
11
2.2705305511811025
21
1.3052610236220472
0
LINE
8
BLACK
6
CONTINUOUS
10
2.2705305511811025
20
1.3052610236220472
11
2.2590551181102363
21
1.2977135433070865
0
LINE
8
BLACK
6
CONTINUOUS
10
2.2590551181102363
20
1.2977135433070865
11
2.2467810629921261
21
1.2915492913385827
0
LINE
8
BLACK
6
CONTINUOUS
10
2.2467810629921261
20
1.2915492913385827
11
2.233874409448819
21
1.2868516141732282
0
LINE
8
BLACK
6
CONTINUOUS
10
2.233874409448819
20
1.2868516141732282
11
2.2205096456692912
21
1.2836841338582676
0
LINE
8
BLACK
6
CONTINUOUS
10
2.2205096456692912
20
1.2836841338582676
11
2.2068674803149606
21
1.2820896062992126
0
LINE
8
BLACK
6
CONTINUOUS
10
2.2068674803149606
20
1.2820896062992126
11
2.1931325196850393
21
1.2820896062992126
0
LINE
8
BLACK
6
CONTINUOUS
10
2.1931325196850393
20
1.2820896062992126
11
2.1794903543307087
21
1.2836841338582676
0
LINE
8
BLACK
6
CONTINUOUS
10
2.1794903543307087
20
1.2836841338582676
11
2.1661255905511809
21
1.2868516141732282
0
LINE
8
BLACK
6
CONTINUOUS
10
2.1661255905511809
20
1.2868516141732282
11
2.1532189370078738
21
1.2915492913385827
0
LINE
8
BLACK
6
CONTINUOUS
10
2.1532189370078738
20
1.2915492913385827
11
2.1409448818897636
21
1.2977135433070865
0
LINE
8
BLACK
6
CONTINUOUS
10
2.1409448818897636
20
1.2977135433070865
11
2.1294694488188974
21
1.3052610236220472
0
LINE
8
BLACK
6
CONTINUOUS
10
2.1294694488188974
20
1.3052610236220472
11
2.1189478346456694
21
1.3140897244094487
0
LINE
8
BLACK
6
CONTINUOUS
10
2.1189478346456694
20
1.3140897244094487
11
2.1095223228346458
21
1.3240801968503937
0
LINE
8
BLACK
6
CONTINUOUS
10
2.1095223228346458
20
1.3240801968503937
11
2.1013203543307086
21
1.3350973622047244
0
LINE
8
BLACK
6
CONTINUOUS
10
2.1013203543307086
20
1.3350973622047244
11
2.0944528346456694
21
1.3469922047244094
0
LINE
8
BLACK
6
CONTINUOUS
10
2.0944528346456694
20
1.3469922047244094
11
2.0890126771653543
21
1.3596039370078741
0
LINE
8
BLACK
6
CONTINUOUS
10
2.0890126771653543
20
1.3596039370078741
11
2.0850734251968501
21
1.3727618897637794
0
LINE
8
BLACK
6
CONTINUOUS
10
2.0850734251968501
20
1.3727618897637794
11
2.0826883858267715
21
1.3862882283464566
0
LINE
8
BLACK
6
CONTINUOUS
10
2.0826883858267715
20
1.3862882283464566
11
2.0818897637795275
21
1.3999999999999999
0
LINE
8
BLACK
6
CONTINUOUS
10
2.0818897637795275
20
1.3999999999999999
11
2.0826883858267715
21
1.4137117716535432
0
LINE
8
BLACK
6
CONTINUOUS
10
2.0826883858267715
20
1.4137117716535432
11
2.0850734251968501
21
1.4272381102362204
0
LINE
8
BLACK
6
CONTINUOUS
10
2.0850734251968501
20
1.4272381102362204
11
2.0890126771653543
21
1.440396062992126
0
LINE
8
BLACK
6
CONTINUOUS
10
2.0890126771653543
20
1.440396062992126
11
2.0944528346456694
21
1.4530077952755904
0
LINE
8
BLACK
6
CONTINUOUS
10
2.0944528346456694
20
1.4530077952755904
11
2.1013203543307086
21
1.4649026377952756
0
LINE
8
BLACK
6
CONTINUOUS
10
2.1013203543307086
20
1.4649026377952756
11
2.1095223228346458
21
1.4759198031496064
0
LINE
8
BLACK
6
CONTINUOUS
10
2.1095223228346458
20
1.4759198031496064
11
2.1189478346456694
21
1.4859102755905511
0
LINE
8
BLACK
6
CONTINUOUS
10
2.1189478346456694
20
1.4859102755905511
11
2.1294694488188974
21
1.4947389763779528
0
LINE
8
BLACK
6
CONTINUOUS
10
2.1294694488188974
20
1.4947389763779528
11
2.1409448818897636
21
1.5022864566929133
0
LINE
8
BLACK
6
CONTINUOUS
10
2.1409448818897636
20
1.5022864566929133
11
2.1532189370078738
21
1.5084507086614174
0
LINE
8
BLACK
6
CONTINUOUS
10
2.1532189370078738
20
1.5084507086614174
11
2.1661255905511809
21
1.5131483858267716
0
LINE
8
BLACK
6
CONTINUOUS
10
2.1661255905511809
20
1.5131483858267716
11
2.1794903543307087
21
1.5163158661417322
0
LINE
8
BLACK
6
CONTINUOUS
10
2.1794903543307087
20
1.5163158661417322
11
2.1931325196850393
21
1.5179103937007874
0
LINE
8
BLACK
6
CONTINUOUS
10
2.1931325196850393
20
1.5179103937007874
11
2.2068674803149606
21
1.5179103937007874
0
LINE
8
BLACK
6
CONTINUOUS
10
2.2068674803149606
20
1.5179103937007874
11
2.2205096456692912
21
1.5163158661417322
  0
ENDSEC
  0
EOF
