M48
; DRILL file {KiCad 7.0.11+1} date Thu Jul  4 22:03:27 2024
; FORMAT={3:3/ absolute / metric / suppress leading zeros}
; #@! TF.CreationDate,2024-07-04T22:03:27+00:00
; #@! TF.GenerationSoftware,Kicad,Pcbnew,7.0.11+1
; #@! TF.FileFunction,Plated,1,2,PTH
FMAT,2
METRIC,TZ
; #@! TA.AperFunction,Plated,PTH,ViaDrill
T1C0.400
; #@! TA.AperFunction,Plated,PTH,ComponentDrill
T2C0.800
; #@! TA.AperFunction,Plated,PTH,ComponentDrill
T3C0.889
; #@! TA.AperFunction,Plated,PTH,ComponentDrill
T4C1.000
; #@! TA.AperFunction,Plated,PTH,ComponentDrill
T5C1.200
; #@! TA.AperFunction,Plated,PTH,ComponentDrill
T6C3.000
%
G90
G05
T1
X27686Y22860
X49530Y21590
X56515Y20955
T2
X52705Y28575
X52705Y22860
X52705Y17145
X52705Y11430
X55245Y28575
X55245Y22860
X55245Y17145
X55245Y11430
X57785Y28575
X57785Y22860
X57785Y17145
X57785Y11430
T3
X2032Y30988
X2032Y28448
X4572Y30988
X4572Y28448
X7112Y30988
X7112Y28448
X46355Y38100
X46355Y35560
X46355Y33020
X46355Y12700
X46355Y10160
X46355Y5080
X46355Y2540
X48895Y38100
X48895Y35560
X48895Y33020
X48895Y5080
X48895Y2540
T4
X42545Y22860
X42545Y17860
T5
X2565Y20320
X10820Y33655
X10820Y6985
X34265Y20320
X42520Y33655
X42520Y6985
T6
X5080Y35560
X5080Y5080
X55880Y35560
X55880Y5080
M30
