%TF.GenerationSoftware,KiCad,Pcbnew,7.0.11+1*%
%TF.CreationDate,2024-07-04T22:03:27+00:00*%
%TF.ProjectId,SIPMPOWER01,5349504d-504f-4574-9552-30312e6b6963,rev?*%
%TF.SameCoordinates,Original*%
%TF.FileFunction,Soldermask,Top*%
%TF.FilePolarity,Negative*%
%FSLAX46Y46*%
G04 Gerber Fmt 4.6, Leading zero omitted, Abs format (unit mm)*
G04 Created by KiCad (PCBNEW 7.0.11+1) date 2024-07-04 22:03:27*
%MOMM*%
%LPD*%
G01*
G04 APERTURE LIST*
G04 APERTURE END LIST*
G36*
X47133058Y3498805D02*
G01*
X47165727Y3494505D01*
X47173944Y3490673D01*
X47193537Y3486776D01*
X47219485Y3469437D01*
X47230608Y3464251D01*
X47237375Y3457483D01*
X47258421Y3443421D01*
X47272483Y3422375D01*
X47279251Y3415608D01*
X47284437Y3404485D01*
X47301776Y3378537D01*
X47305673Y3358944D01*
X47309505Y3350727D01*
X47313806Y3318056D01*
X47317000Y3302000D01*
X47317000Y1778000D01*
X47313806Y1761943D01*
X47309505Y1729272D01*
X47305672Y1721053D01*
X47301776Y1701463D01*
X47284438Y1675516D01*
X47279251Y1664391D01*
X47272481Y1657621D01*
X47258421Y1636579D01*
X47237378Y1622518D01*
X47230608Y1615748D01*
X47219480Y1610559D01*
X47193537Y1593224D01*
X47173948Y1589327D01*
X47165727Y1585494D01*
X47133041Y1581190D01*
X47117000Y1578000D01*
X47108805Y1578000D01*
X45601196Y1578000D01*
X45593000Y1578000D01*
X45576958Y1581190D01*
X45544272Y1585494D01*
X45536049Y1589327D01*
X45516463Y1593224D01*
X45490521Y1610557D01*
X45479391Y1615748D01*
X45472618Y1622520D01*
X45451579Y1636579D01*
X45437520Y1657618D01*
X45430748Y1664391D01*
X45425557Y1675521D01*
X45408224Y1701463D01*
X45404327Y1721049D01*
X45400494Y1729272D01*
X45396190Y1761960D01*
X45393000Y1778000D01*
X45393000Y3302000D01*
X45396191Y3318043D01*
X45400494Y3350727D01*
X45404327Y3358948D01*
X45408224Y3378537D01*
X45425559Y3404480D01*
X45430748Y3415608D01*
X45437518Y3422378D01*
X45451579Y3443421D01*
X45472621Y3457481D01*
X45479391Y3464251D01*
X45490516Y3469438D01*
X45516463Y3486776D01*
X45536053Y3490672D01*
X45544272Y3494505D01*
X45576945Y3498806D01*
X45593000Y3502000D01*
X47117000Y3502000D01*
X47133058Y3498805D01*
G37*
G36*
X49673058Y3498805D02*
G01*
X49705727Y3494505D01*
X49713944Y3490673D01*
X49733537Y3486776D01*
X49759485Y3469437D01*
X49770608Y3464251D01*
X49777375Y3457483D01*
X49798421Y3443421D01*
X49812483Y3422375D01*
X49819251Y3415608D01*
X49824437Y3404485D01*
X49841776Y3378537D01*
X49845673Y3358944D01*
X49849505Y3350727D01*
X49853806Y3318056D01*
X49857000Y3302000D01*
X49857000Y1778000D01*
X49853806Y1761943D01*
X49849505Y1729272D01*
X49845672Y1721053D01*
X49841776Y1701463D01*
X49824438Y1675516D01*
X49819251Y1664391D01*
X49812481Y1657621D01*
X49798421Y1636579D01*
X49777378Y1622518D01*
X49770608Y1615748D01*
X49759480Y1610559D01*
X49733537Y1593224D01*
X49713948Y1589327D01*
X49705727Y1585494D01*
X49673041Y1581190D01*
X49657000Y1578000D01*
X49648805Y1578000D01*
X48141196Y1578000D01*
X48133000Y1578000D01*
X48116958Y1581190D01*
X48084272Y1585494D01*
X48076049Y1589327D01*
X48056463Y1593224D01*
X48030521Y1610557D01*
X48019391Y1615748D01*
X48012618Y1622520D01*
X47991579Y1636579D01*
X47977520Y1657618D01*
X47970748Y1664391D01*
X47965557Y1675521D01*
X47948224Y1701463D01*
X47944327Y1721049D01*
X47940494Y1729272D01*
X47936190Y1761960D01*
X47933000Y1778000D01*
X47933000Y3302000D01*
X47936191Y3318043D01*
X47940494Y3350727D01*
X47944327Y3358948D01*
X47948224Y3378537D01*
X47965559Y3404480D01*
X47970748Y3415608D01*
X47977518Y3422378D01*
X47991579Y3443421D01*
X48012621Y3457481D01*
X48019391Y3464251D01*
X48030516Y3469438D01*
X48056463Y3486776D01*
X48076053Y3490672D01*
X48084272Y3494505D01*
X48116945Y3498806D01*
X48133000Y3502000D01*
X49657000Y3502000D01*
X49673058Y3498805D01*
G37*
G36*
X5166825Y8275124D02*
G01*
X5253237Y8275124D01*
X5345495Y8265090D01*
X5438286Y8259879D01*
X5518105Y8246317D01*
X5597667Y8237664D01*
X5694562Y8216335D01*
X5792067Y8199769D01*
X5864084Y8179021D01*
X5936043Y8163182D01*
X6036181Y8129441D01*
X6136893Y8100427D01*
X6200554Y8074057D01*
X6264374Y8052554D01*
X6366197Y8005445D01*
X6468428Y7963100D01*
X6523423Y7932704D01*
X6578822Y7907075D01*
X6680608Y7845831D01*
X6782503Y7789517D01*
X6828794Y7756671D01*
X6875694Y7728453D01*
X6975578Y7652522D01*
X7075167Y7581861D01*
X7112954Y7548092D01*
X7151514Y7518780D01*
X7247539Y7427819D01*
X7342742Y7342742D01*
X7372450Y7309498D01*
X7403055Y7280508D01*
X7493242Y7174331D01*
X7581861Y7075167D01*
X7604116Y7043801D01*
X7627352Y7016446D01*
X7709648Y6895067D01*
X7789517Y6782503D01*
X7805164Y6754191D01*
X7821784Y6729679D01*
X7894132Y6593215D01*
X7963100Y6468428D01*
X7973135Y6444199D01*
X7984075Y6423566D01*
X8044491Y6271932D01*
X8100427Y6136893D01*
X8105989Y6117584D01*
X8112315Y6101709D01*
X8158871Y5934025D01*
X8199769Y5792067D01*
X8202107Y5778302D01*
X8205007Y5767860D01*
X8235929Y5579243D01*
X8259879Y5438286D01*
X8260317Y5430485D01*
X8261058Y5425966D01*
X8274673Y5174852D01*
X8280000Y5080000D01*
X8274673Y4985154D01*
X8261058Y4734033D01*
X8260316Y4729513D01*
X8259879Y4721714D01*
X8235934Y4580784D01*
X8205007Y4392139D01*
X8202107Y4381695D01*
X8199769Y4367933D01*
X8158879Y4226001D01*
X8112315Y4058290D01*
X8105988Y4042412D01*
X8100427Y4023107D01*
X8044501Y3888092D01*
X7984075Y3736433D01*
X7973134Y3715796D01*
X7963100Y3691572D01*
X7894145Y3566808D01*
X7821784Y3430320D01*
X7805161Y3405803D01*
X7789517Y3377497D01*
X7709663Y3264954D01*
X7627352Y3143553D01*
X7604111Y3116192D01*
X7581861Y3084833D01*
X7493259Y2985687D01*
X7403055Y2879491D01*
X7372444Y2850495D01*
X7342742Y2817258D01*
X7247558Y2732196D01*
X7151514Y2641219D01*
X7112946Y2611900D01*
X7075167Y2578139D01*
X6975598Y2507491D01*
X6875694Y2431546D01*
X6828784Y2403321D01*
X6782503Y2370483D01*
X6680629Y2314179D01*
X6578822Y2252924D01*
X6523412Y2227288D01*
X6468428Y2196900D01*
X6366218Y2154563D01*
X6264374Y2107445D01*
X6200542Y2085937D01*
X6136893Y2059573D01*
X6036201Y2030564D01*
X5936043Y1996817D01*
X5864070Y1980974D01*
X5792067Y1960231D01*
X5694582Y1943667D01*
X5597667Y1922335D01*
X5518093Y1913680D01*
X5438286Y1900121D01*
X5345500Y1894910D01*
X5253237Y1884876D01*
X5166825Y1884876D01*
X5080000Y1880000D01*
X4993175Y1884876D01*
X4906763Y1884876D01*
X4814498Y1894910D01*
X4721714Y1900121D01*
X4641908Y1913680D01*
X4562332Y1922335D01*
X4465413Y1943668D01*
X4367933Y1960231D01*
X4295933Y1980973D01*
X4223956Y1996817D01*
X4123791Y2030566D01*
X4023107Y2059573D01*
X3959462Y2085935D01*
X3895625Y2107445D01*
X3793772Y2154567D01*
X3691572Y2196900D01*
X3636592Y2227286D01*
X3581177Y2252924D01*
X3479358Y2314186D01*
X3377497Y2370483D01*
X3331220Y2403317D01*
X3284305Y2431546D01*
X3184386Y2507501D01*
X3084833Y2578139D01*
X3047059Y2611895D01*
X3008485Y2641219D01*
X2912424Y2732212D01*
X2817258Y2817258D01*
X2787560Y2850489D01*
X2756944Y2879491D01*
X2666720Y2985710D01*
X2578139Y3084833D01*
X2555893Y3116185D01*
X2532647Y3143553D01*
X2450313Y3264985D01*
X2370483Y3377497D01*
X2354843Y3405795D01*
X2338215Y3430320D01*
X2265829Y3566852D01*
X2196900Y3691572D01*
X2186869Y3715787D01*
X2175924Y3736433D01*
X2115471Y3888156D01*
X2059573Y4023107D01*
X2054013Y4042403D01*
X2047684Y4058290D01*
X2001092Y4226096D01*
X1960231Y4367933D01*
X1957894Y4381685D01*
X1954992Y4392139D01*
X1924037Y4580952D01*
X1900121Y4721714D01*
X1899683Y4729503D01*
X1898941Y4734033D01*
X1885297Y4985670D01*
X1880000Y5080000D01*
X1885297Y5174337D01*
X1898941Y5425966D01*
X1899683Y5430494D01*
X1900121Y5438286D01*
X1924042Y5579075D01*
X1954992Y5767860D01*
X1957893Y5778311D01*
X1960231Y5792067D01*
X2001100Y5933929D01*
X2047684Y6101709D01*
X2054012Y6117593D01*
X2059573Y6136893D01*
X2115482Y6271869D01*
X2175924Y6423566D01*
X2186867Y6444207D01*
X2196900Y6468428D01*
X2265842Y6593170D01*
X2338215Y6729679D01*
X2354840Y6754199D01*
X2370483Y6782503D01*
X2450329Y6895035D01*
X2532647Y7016446D01*
X2555888Y7043808D01*
X2578139Y7075167D01*
X2666737Y7174308D01*
X2756944Y7280508D01*
X2787555Y7309504D01*
X2817258Y7342742D01*
X2912442Y7427804D01*
X3008485Y7518780D01*
X3047051Y7548097D01*
X3084833Y7581861D01*
X3184406Y7652512D01*
X3284305Y7728453D01*
X3331211Y7756675D01*
X3377497Y7789517D01*
X3479378Y7845825D01*
X3581177Y7907075D01*
X3636581Y7932707D01*
X3691572Y7963100D01*
X3793792Y8005441D01*
X3895625Y8052554D01*
X3959449Y8074059D01*
X4023107Y8100427D01*
X4123811Y8129439D01*
X4223956Y8163182D01*
X4295918Y8179022D01*
X4367933Y8199769D01*
X4465432Y8216334D01*
X4562332Y8237664D01*
X4641895Y8246317D01*
X4721714Y8259879D01*
X4814504Y8265090D01*
X4906763Y8275124D01*
X4993175Y8275124D01*
X5080000Y8280000D01*
X5166825Y8275124D01*
G37*
G36*
X55966825Y8275124D02*
G01*
X56053237Y8275124D01*
X56145495Y8265090D01*
X56238286Y8259879D01*
X56318105Y8246317D01*
X56397667Y8237664D01*
X56494562Y8216335D01*
X56592067Y8199769D01*
X56664084Y8179021D01*
X56736043Y8163182D01*
X56836181Y8129441D01*
X56936893Y8100427D01*
X57000554Y8074057D01*
X57064374Y8052554D01*
X57166197Y8005445D01*
X57268428Y7963100D01*
X57323423Y7932704D01*
X57378822Y7907075D01*
X57480608Y7845831D01*
X57582503Y7789517D01*
X57628794Y7756671D01*
X57675694Y7728453D01*
X57775578Y7652522D01*
X57875167Y7581861D01*
X57912954Y7548092D01*
X57951514Y7518780D01*
X58047539Y7427819D01*
X58142742Y7342742D01*
X58172450Y7309498D01*
X58203055Y7280508D01*
X58293242Y7174331D01*
X58381861Y7075167D01*
X58404116Y7043801D01*
X58427352Y7016446D01*
X58509648Y6895067D01*
X58589517Y6782503D01*
X58605164Y6754191D01*
X58621784Y6729679D01*
X58694132Y6593215D01*
X58763100Y6468428D01*
X58773135Y6444199D01*
X58784075Y6423566D01*
X58844491Y6271932D01*
X58900427Y6136893D01*
X58905989Y6117584D01*
X58912315Y6101709D01*
X58958871Y5934025D01*
X58999769Y5792067D01*
X59002107Y5778302D01*
X59005007Y5767860D01*
X59035929Y5579243D01*
X59059879Y5438286D01*
X59060317Y5430485D01*
X59061058Y5425966D01*
X59074673Y5174852D01*
X59080000Y5080000D01*
X59074673Y4985154D01*
X59061058Y4734033D01*
X59060316Y4729513D01*
X59059879Y4721714D01*
X59035934Y4580784D01*
X59005007Y4392139D01*
X59002107Y4381695D01*
X58999769Y4367933D01*
X58958879Y4226001D01*
X58912315Y4058290D01*
X58905988Y4042412D01*
X58900427Y4023107D01*
X58844501Y3888092D01*
X58784075Y3736433D01*
X58773134Y3715796D01*
X58763100Y3691572D01*
X58694145Y3566808D01*
X58621784Y3430320D01*
X58605161Y3405803D01*
X58589517Y3377497D01*
X58509663Y3264954D01*
X58427352Y3143553D01*
X58404111Y3116192D01*
X58381861Y3084833D01*
X58293259Y2985687D01*
X58203055Y2879491D01*
X58172444Y2850495D01*
X58142742Y2817258D01*
X58047558Y2732196D01*
X57951514Y2641219D01*
X57912946Y2611900D01*
X57875167Y2578139D01*
X57775598Y2507491D01*
X57675694Y2431546D01*
X57628784Y2403321D01*
X57582503Y2370483D01*
X57480629Y2314179D01*
X57378822Y2252924D01*
X57323412Y2227288D01*
X57268428Y2196900D01*
X57166218Y2154563D01*
X57064374Y2107445D01*
X57000542Y2085937D01*
X56936893Y2059573D01*
X56836201Y2030564D01*
X56736043Y1996817D01*
X56664070Y1980974D01*
X56592067Y1960231D01*
X56494582Y1943667D01*
X56397667Y1922335D01*
X56318093Y1913680D01*
X56238286Y1900121D01*
X56145500Y1894910D01*
X56053237Y1884876D01*
X55966825Y1884876D01*
X55880000Y1880000D01*
X55793175Y1884876D01*
X55706763Y1884876D01*
X55614498Y1894910D01*
X55521714Y1900121D01*
X55441908Y1913680D01*
X55362332Y1922335D01*
X55265413Y1943668D01*
X55167933Y1960231D01*
X55095933Y1980973D01*
X55023956Y1996817D01*
X54923791Y2030566D01*
X54823107Y2059573D01*
X54759462Y2085935D01*
X54695625Y2107445D01*
X54593772Y2154567D01*
X54491572Y2196900D01*
X54436592Y2227286D01*
X54381177Y2252924D01*
X54279358Y2314186D01*
X54177497Y2370483D01*
X54131220Y2403317D01*
X54084305Y2431546D01*
X53984386Y2507501D01*
X53884833Y2578139D01*
X53847059Y2611895D01*
X53808485Y2641219D01*
X53712424Y2732212D01*
X53617258Y2817258D01*
X53587560Y2850489D01*
X53556944Y2879491D01*
X53466720Y2985710D01*
X53378139Y3084833D01*
X53355893Y3116185D01*
X53332647Y3143553D01*
X53250313Y3264985D01*
X53170483Y3377497D01*
X53154843Y3405795D01*
X53138215Y3430320D01*
X53065829Y3566852D01*
X52996900Y3691572D01*
X52986869Y3715787D01*
X52975924Y3736433D01*
X52915471Y3888156D01*
X52859573Y4023107D01*
X52854013Y4042403D01*
X52847684Y4058290D01*
X52801092Y4226096D01*
X52760231Y4367933D01*
X52757894Y4381685D01*
X52754992Y4392139D01*
X52724037Y4580952D01*
X52700121Y4721714D01*
X52699683Y4729503D01*
X52698941Y4734033D01*
X52685297Y4985670D01*
X52680000Y5080000D01*
X52685297Y5174337D01*
X52698941Y5425966D01*
X52699683Y5430494D01*
X52700121Y5438286D01*
X52724042Y5579075D01*
X52754992Y5767860D01*
X52757893Y5778311D01*
X52760231Y5792067D01*
X52801100Y5933929D01*
X52847684Y6101709D01*
X52854012Y6117593D01*
X52859573Y6136893D01*
X52915482Y6271869D01*
X52975924Y6423566D01*
X52986867Y6444207D01*
X52996900Y6468428D01*
X53065842Y6593170D01*
X53138215Y6729679D01*
X53154840Y6754199D01*
X53170483Y6782503D01*
X53250329Y6895035D01*
X53332647Y7016446D01*
X53355888Y7043808D01*
X53378139Y7075167D01*
X53466737Y7174308D01*
X53556944Y7280508D01*
X53587555Y7309504D01*
X53617258Y7342742D01*
X53712442Y7427804D01*
X53808485Y7518780D01*
X53847051Y7548097D01*
X53884833Y7581861D01*
X53984406Y7652512D01*
X54084305Y7728453D01*
X54131211Y7756675D01*
X54177497Y7789517D01*
X54279378Y7845825D01*
X54381177Y7907075D01*
X54436581Y7932707D01*
X54491572Y7963100D01*
X54593792Y8005441D01*
X54695625Y8052554D01*
X54759449Y8074059D01*
X54823107Y8100427D01*
X54923811Y8129439D01*
X55023956Y8163182D01*
X55095918Y8179022D01*
X55167933Y8199769D01*
X55265432Y8216334D01*
X55362332Y8237664D01*
X55441895Y8246317D01*
X55521714Y8259879D01*
X55614504Y8265090D01*
X55706763Y8275124D01*
X55793175Y8275124D01*
X55880000Y8280000D01*
X55966825Y8275124D01*
G37*
G36*
X47133058Y6038805D02*
G01*
X47165727Y6034505D01*
X47173944Y6030673D01*
X47193537Y6026776D01*
X47219485Y6009437D01*
X47230608Y6004251D01*
X47237375Y5997483D01*
X47258421Y5983421D01*
X47272483Y5962375D01*
X47279251Y5955608D01*
X47284437Y5944485D01*
X47301776Y5918537D01*
X47305673Y5898944D01*
X47309505Y5890727D01*
X47313806Y5858056D01*
X47317000Y5842000D01*
X47317000Y4318000D01*
X47313806Y4301943D01*
X47309505Y4269272D01*
X47305672Y4261053D01*
X47301776Y4241463D01*
X47284438Y4215516D01*
X47279251Y4204391D01*
X47272481Y4197621D01*
X47258421Y4176579D01*
X47237378Y4162518D01*
X47230608Y4155748D01*
X47219480Y4150559D01*
X47193537Y4133224D01*
X47173948Y4129327D01*
X47165727Y4125494D01*
X47133041Y4121190D01*
X47117000Y4118000D01*
X47108805Y4118000D01*
X45601196Y4118000D01*
X45593000Y4118000D01*
X45576958Y4121190D01*
X45544272Y4125494D01*
X45536049Y4129327D01*
X45516463Y4133224D01*
X45490521Y4150557D01*
X45479391Y4155748D01*
X45472618Y4162520D01*
X45451579Y4176579D01*
X45437520Y4197618D01*
X45430748Y4204391D01*
X45425557Y4215521D01*
X45408224Y4241463D01*
X45404327Y4261049D01*
X45400494Y4269272D01*
X45396190Y4301960D01*
X45393000Y4318000D01*
X45393000Y5842000D01*
X45396191Y5858043D01*
X45400494Y5890727D01*
X45404327Y5898948D01*
X45408224Y5918537D01*
X45425559Y5944480D01*
X45430748Y5955608D01*
X45437518Y5962378D01*
X45451579Y5983421D01*
X45472621Y5997481D01*
X45479391Y6004251D01*
X45490516Y6009438D01*
X45516463Y6026776D01*
X45536053Y6030672D01*
X45544272Y6034505D01*
X45576945Y6038806D01*
X45593000Y6042000D01*
X47117000Y6042000D01*
X47133058Y6038805D01*
G37*
G36*
X49673058Y6038805D02*
G01*
X49705727Y6034505D01*
X49713944Y6030673D01*
X49733537Y6026776D01*
X49759485Y6009437D01*
X49770608Y6004251D01*
X49777375Y5997483D01*
X49798421Y5983421D01*
X49812483Y5962375D01*
X49819251Y5955608D01*
X49824437Y5944485D01*
X49841776Y5918537D01*
X49845673Y5898944D01*
X49849505Y5890727D01*
X49853806Y5858056D01*
X49857000Y5842000D01*
X49857000Y4318000D01*
X49853806Y4301943D01*
X49849505Y4269272D01*
X49845672Y4261053D01*
X49841776Y4241463D01*
X49824438Y4215516D01*
X49819251Y4204391D01*
X49812481Y4197621D01*
X49798421Y4176579D01*
X49777378Y4162518D01*
X49770608Y4155748D01*
X49759480Y4150559D01*
X49733537Y4133224D01*
X49713948Y4129327D01*
X49705727Y4125494D01*
X49673041Y4121190D01*
X49657000Y4118000D01*
X49648805Y4118000D01*
X48141196Y4118000D01*
X48133000Y4118000D01*
X48116958Y4121190D01*
X48084272Y4125494D01*
X48076049Y4129327D01*
X48056463Y4133224D01*
X48030521Y4150557D01*
X48019391Y4155748D01*
X48012618Y4162520D01*
X47991579Y4176579D01*
X47977520Y4197618D01*
X47970748Y4204391D01*
X47965557Y4215521D01*
X47948224Y4241463D01*
X47944327Y4261049D01*
X47940494Y4269272D01*
X47936190Y4301960D01*
X47933000Y4318000D01*
X47933000Y5842000D01*
X47936191Y5858043D01*
X47940494Y5890727D01*
X47944327Y5898948D01*
X47948224Y5918537D01*
X47965559Y5944480D01*
X47970748Y5955608D01*
X47977518Y5962378D01*
X47991579Y5983421D01*
X48012621Y5997481D01*
X48019391Y6004251D01*
X48030516Y6009438D01*
X48056463Y6026776D01*
X48076053Y6030672D01*
X48084272Y6034505D01*
X48116945Y6038806D01*
X48133000Y6042000D01*
X49657000Y6042000D01*
X49673058Y6038805D01*
G37*
G36*
X42578002Y8430048D02*
G01*
X42639740Y8430048D01*
X42694850Y8420851D01*
X42746773Y8416765D01*
X42809311Y8401750D01*
X42875954Y8390630D01*
X42923214Y8374405D01*
X42967952Y8363665D01*
X43033072Y8336691D01*
X43102458Y8312871D01*
X43141214Y8291897D01*
X43178111Y8276614D01*
X43243506Y8236539D01*
X43313075Y8198891D01*
X43343179Y8175459D01*
X43372058Y8157763D01*
X43435157Y8103870D01*
X43502058Y8051800D01*
X43523884Y8028090D01*
X43545030Y8010030D01*
X43603102Y7942036D01*
X43664254Y7875608D01*
X43678625Y7853610D01*
X43692763Y7837058D01*
X43743002Y7755074D01*
X43795237Y7675124D01*
X43803398Y7656517D01*
X43811614Y7643111D01*
X43851210Y7547516D01*
X43891435Y7455814D01*
X43894958Y7441900D01*
X43898665Y7432952D01*
X43924948Y7323470D01*
X43950224Y7223662D01*
X43950916Y7215308D01*
X43951765Y7211773D01*
X43962287Y7078080D01*
X43970000Y6985000D01*
X43962287Y6891927D01*
X43951765Y6758226D01*
X43950916Y6754689D01*
X43950224Y6746338D01*
X43924953Y6646547D01*
X43898665Y6537047D01*
X43894957Y6528096D01*
X43891435Y6514186D01*
X43851218Y6422500D01*
X43811614Y6326888D01*
X43803397Y6313479D01*
X43795237Y6294876D01*
X43743012Y6214940D01*
X43692763Y6132941D01*
X43678622Y6116385D01*
X43664254Y6094392D01*
X43603114Y6027976D01*
X43545030Y5959969D01*
X43523880Y5941905D01*
X43502058Y5918200D01*
X43435170Y5866139D01*
X43372058Y5812236D01*
X43343173Y5794535D01*
X43313075Y5771109D01*
X43243520Y5733468D01*
X43178111Y5693385D01*
X43141206Y5678098D01*
X43102458Y5657129D01*
X43033086Y5633313D01*
X42967952Y5606334D01*
X42923204Y5595591D01*
X42875954Y5579370D01*
X42809325Y5568251D01*
X42746773Y5553234D01*
X42694838Y5549146D01*
X42639740Y5539952D01*
X42578015Y5539952D01*
X42520000Y5535386D01*
X42461985Y5539952D01*
X42400260Y5539952D01*
X42345161Y5549146D01*
X42293226Y5553234D01*
X42230671Y5568251D01*
X42164046Y5579370D01*
X42116797Y5595590D01*
X42072047Y5606334D01*
X42006907Y5633315D01*
X41937542Y5657129D01*
X41898796Y5678096D01*
X41861888Y5693385D01*
X41796470Y5733472D01*
X41726925Y5771109D01*
X41696830Y5794532D01*
X41667941Y5812236D01*
X41604818Y5866148D01*
X41537942Y5918200D01*
X41516123Y5941901D01*
X41494969Y5959969D01*
X41436872Y6027991D01*
X41375746Y6094392D01*
X41361380Y6116380D01*
X41347236Y6132941D01*
X41296971Y6214964D01*
X41244763Y6294876D01*
X41236605Y6313473D01*
X41228385Y6326888D01*
X41188763Y6422541D01*
X41148565Y6514186D01*
X41145043Y6528090D01*
X41141334Y6537047D01*
X41115027Y6646623D01*
X41089776Y6746338D01*
X41089084Y6754683D01*
X41088234Y6758226D01*
X41077692Y6892167D01*
X41070000Y6985000D01*
X41077692Y7077839D01*
X41088234Y7211773D01*
X41089084Y7215314D01*
X41089776Y7223662D01*
X41115031Y7323394D01*
X41141334Y7432952D01*
X41145043Y7441906D01*
X41148565Y7455814D01*
X41188771Y7547475D01*
X41228385Y7643111D01*
X41236603Y7656522D01*
X41244763Y7675124D01*
X41296981Y7755050D01*
X41347236Y7837058D01*
X41361377Y7853615D01*
X41375746Y7875608D01*
X41436883Y7942021D01*
X41494969Y8010030D01*
X41516119Y8028094D01*
X41537942Y8051800D01*
X41604831Y8103862D01*
X41667941Y8157763D01*
X41696824Y8175462D01*
X41726925Y8198891D01*
X41796484Y8236534D01*
X41861888Y8276614D01*
X41898788Y8291898D01*
X41937542Y8312871D01*
X42006921Y8336688D01*
X42072047Y8363665D01*
X42116787Y8374406D01*
X42164046Y8390630D01*
X42230684Y8401750D01*
X42293226Y8416765D01*
X42345150Y8420851D01*
X42400260Y8430048D01*
X42461998Y8430048D01*
X42520000Y8434613D01*
X42578002Y8430048D01*
G37*
G36*
X11986058Y8331805D02*
G01*
X12018727Y8327505D01*
X12026944Y8323673D01*
X12046537Y8319776D01*
X12072485Y8302437D01*
X12083608Y8297251D01*
X12090375Y8290483D01*
X12111421Y8276421D01*
X12125483Y8255375D01*
X12132251Y8248608D01*
X12137437Y8237485D01*
X12154776Y8211537D01*
X12158673Y8191944D01*
X12162505Y8183727D01*
X12166806Y8151056D01*
X12170000Y8135000D01*
X12170000Y5835000D01*
X12166806Y5818943D01*
X12162505Y5786272D01*
X12158672Y5778053D01*
X12154776Y5758463D01*
X12137438Y5732516D01*
X12132251Y5721391D01*
X12125481Y5714621D01*
X12111421Y5693579D01*
X12090378Y5679518D01*
X12083608Y5672748D01*
X12072480Y5667559D01*
X12046537Y5650224D01*
X12026948Y5646327D01*
X12018727Y5642494D01*
X11986041Y5638190D01*
X11970000Y5635000D01*
X11961805Y5635000D01*
X9678196Y5635000D01*
X9670000Y5635000D01*
X9653958Y5638190D01*
X9621272Y5642494D01*
X9613049Y5646327D01*
X9593463Y5650224D01*
X9567521Y5667557D01*
X9556391Y5672748D01*
X9549618Y5679520D01*
X9528579Y5693579D01*
X9514520Y5714618D01*
X9507748Y5721391D01*
X9502557Y5732521D01*
X9485224Y5758463D01*
X9481327Y5778049D01*
X9477494Y5786272D01*
X9473190Y5818960D01*
X9470000Y5835000D01*
X9470000Y8135000D01*
X9473191Y8151043D01*
X9477494Y8183727D01*
X9481327Y8191948D01*
X9485224Y8211537D01*
X9502559Y8237480D01*
X9507748Y8248608D01*
X9514518Y8255378D01*
X9528579Y8276421D01*
X9549621Y8290481D01*
X9556391Y8297251D01*
X9567516Y8302438D01*
X9593463Y8319776D01*
X9613053Y8323672D01*
X9621272Y8327505D01*
X9653945Y8331806D01*
X9670000Y8335000D01*
X11970000Y8335000D01*
X11986058Y8331805D01*
G37*
G36*
X47133058Y11118805D02*
G01*
X47165727Y11114505D01*
X47173944Y11110673D01*
X47193537Y11106776D01*
X47219485Y11089437D01*
X47230608Y11084251D01*
X47237375Y11077483D01*
X47258421Y11063421D01*
X47272483Y11042375D01*
X47279251Y11035608D01*
X47284437Y11024485D01*
X47301776Y10998537D01*
X47305673Y10978944D01*
X47309505Y10970727D01*
X47313806Y10938056D01*
X47317000Y10922000D01*
X47317000Y9398000D01*
X47313806Y9381943D01*
X47309505Y9349272D01*
X47305672Y9341053D01*
X47301776Y9321463D01*
X47284438Y9295516D01*
X47279251Y9284391D01*
X47272481Y9277621D01*
X47258421Y9256579D01*
X47237378Y9242518D01*
X47230608Y9235748D01*
X47219480Y9230559D01*
X47193537Y9213224D01*
X47173948Y9209327D01*
X47165727Y9205494D01*
X47133041Y9201190D01*
X47117000Y9198000D01*
X47108805Y9198000D01*
X45601196Y9198000D01*
X45593000Y9198000D01*
X45576958Y9201190D01*
X45544272Y9205494D01*
X45536049Y9209327D01*
X45516463Y9213224D01*
X45490521Y9230557D01*
X45479391Y9235748D01*
X45472618Y9242520D01*
X45451579Y9256579D01*
X45437520Y9277618D01*
X45430748Y9284391D01*
X45425557Y9295521D01*
X45408224Y9321463D01*
X45404327Y9341049D01*
X45400494Y9349272D01*
X45396190Y9381960D01*
X45393000Y9398000D01*
X45393000Y10922000D01*
X45396191Y10938043D01*
X45400494Y10970727D01*
X45404327Y10978948D01*
X45408224Y10998537D01*
X45425559Y11024480D01*
X45430748Y11035608D01*
X45437518Y11042378D01*
X45451579Y11063421D01*
X45472621Y11077481D01*
X45479391Y11084251D01*
X45490516Y11089438D01*
X45516463Y11106776D01*
X45536053Y11110672D01*
X45544272Y11114505D01*
X45576945Y11118806D01*
X45593000Y11122000D01*
X47117000Y11122000D01*
X47133058Y11118805D01*
G37*
G36*
X52750031Y12344960D02*
G01*
X52801166Y12344960D01*
X52845317Y12335575D01*
X52884361Y12331730D01*
X52933410Y12316850D01*
X52989296Y12304972D01*
X53025059Y12289048D01*
X53056841Y12279408D01*
X53107348Y12252411D01*
X53165000Y12226743D01*
X53191802Y12207270D01*
X53215787Y12194450D01*
X53264712Y12154297D01*
X53320600Y12113693D01*
X53338746Y12093539D01*
X53355110Y12080110D01*
X53399082Y12026529D01*
X53449296Y11970762D01*
X53459844Y11952490D01*
X53469450Y11940787D01*
X53504980Y11874314D01*
X53545462Y11804198D01*
X53550119Y11789865D01*
X53554408Y11781841D01*
X53578061Y11703868D01*
X53604896Y11621279D01*
X53605840Y11612293D01*
X53606730Y11609361D01*
X53615386Y11521465D01*
X53625000Y11430000D01*
X53615387Y11338541D01*
X53606730Y11250638D01*
X53605840Y11247704D01*
X53604896Y11238721D01*
X53578065Y11156145D01*
X53554408Y11078158D01*
X53550118Y11070132D01*
X53545462Y11055802D01*
X53504987Y10985697D01*
X53469450Y10919212D01*
X53459842Y10907505D01*
X53449296Y10889238D01*
X53399092Y10833481D01*
X53355110Y10779889D01*
X53338743Y10766457D01*
X53320600Y10746307D01*
X53264723Y10705710D01*
X53215787Y10665549D01*
X53191796Y10652726D01*
X53165000Y10633257D01*
X53107360Y10607593D01*
X53056841Y10580591D01*
X53025052Y10570947D01*
X52989296Y10555028D01*
X52933421Y10543151D01*
X52884361Y10528269D01*
X52845309Y10524422D01*
X52801166Y10515040D01*
X52750041Y10515040D01*
X52705000Y10510604D01*
X52659959Y10515040D01*
X52608834Y10515040D01*
X52564691Y10524422D01*
X52525638Y10528269D01*
X52476574Y10543152D01*
X52420704Y10555028D01*
X52384949Y10570946D01*
X52353158Y10580591D01*
X52302633Y10607596D01*
X52245000Y10633257D01*
X52218205Y10652724D01*
X52194212Y10665549D01*
X52145267Y10705716D01*
X52089400Y10746307D01*
X52071259Y10766454D01*
X52054889Y10779889D01*
X52010896Y10833493D01*
X51960704Y10889238D01*
X51950159Y10907501D01*
X51940549Y10919212D01*
X51904999Y10985721D01*
X51864538Y11055802D01*
X51859883Y11070127D01*
X51855591Y11078158D01*
X51831919Y11156192D01*
X51805104Y11238721D01*
X51804160Y11247699D01*
X51803269Y11250638D01*
X51794596Y11338692D01*
X51785000Y11430000D01*
X51794597Y11521314D01*
X51803269Y11609361D01*
X51804160Y11612298D01*
X51805104Y11621279D01*
X51831923Y11703821D01*
X51855591Y11781841D01*
X51859882Y11789869D01*
X51864538Y11804198D01*
X51905006Y11874291D01*
X51940549Y11940787D01*
X51950157Y11952494D01*
X51960704Y11970762D01*
X52010905Y12026516D01*
X52054889Y12080110D01*
X52071256Y12093542D01*
X52089400Y12113693D01*
X52145278Y12154290D01*
X52194212Y12194450D01*
X52218200Y12207272D01*
X52245000Y12226743D01*
X52302645Y12252408D01*
X52353158Y12279408D01*
X52384942Y12289049D01*
X52420704Y12304972D01*
X52476585Y12316849D01*
X52525638Y12331730D01*
X52564682Y12335575D01*
X52608834Y12344960D01*
X52659969Y12344960D01*
X52705000Y12349395D01*
X52750031Y12344960D01*
G37*
G36*
X55290031Y12344960D02*
G01*
X55341166Y12344960D01*
X55385317Y12335575D01*
X55424361Y12331730D01*
X55473410Y12316850D01*
X55529296Y12304972D01*
X55565059Y12289048D01*
X55596841Y12279408D01*
X55647348Y12252411D01*
X55705000Y12226743D01*
X55731802Y12207270D01*
X55755787Y12194450D01*
X55804712Y12154297D01*
X55860600Y12113693D01*
X55878746Y12093539D01*
X55895110Y12080110D01*
X55939082Y12026529D01*
X55989296Y11970762D01*
X55999844Y11952490D01*
X56009450Y11940787D01*
X56044980Y11874314D01*
X56085462Y11804198D01*
X56090119Y11789865D01*
X56094408Y11781841D01*
X56118061Y11703868D01*
X56144896Y11621279D01*
X56145840Y11612293D01*
X56146730Y11609361D01*
X56155386Y11521465D01*
X56165000Y11430000D01*
X56155387Y11338541D01*
X56146730Y11250638D01*
X56145840Y11247704D01*
X56144896Y11238721D01*
X56118065Y11156145D01*
X56094408Y11078158D01*
X56090118Y11070132D01*
X56085462Y11055802D01*
X56044987Y10985697D01*
X56009450Y10919212D01*
X55999842Y10907505D01*
X55989296Y10889238D01*
X55939092Y10833481D01*
X55895110Y10779889D01*
X55878743Y10766457D01*
X55860600Y10746307D01*
X55804723Y10705710D01*
X55755787Y10665549D01*
X55731796Y10652726D01*
X55705000Y10633257D01*
X55647360Y10607593D01*
X55596841Y10580591D01*
X55565052Y10570947D01*
X55529296Y10555028D01*
X55473421Y10543151D01*
X55424361Y10528269D01*
X55385309Y10524422D01*
X55341166Y10515040D01*
X55290041Y10515040D01*
X55245000Y10510604D01*
X55199959Y10515040D01*
X55148834Y10515040D01*
X55104691Y10524422D01*
X55065638Y10528269D01*
X55016574Y10543152D01*
X54960704Y10555028D01*
X54924949Y10570946D01*
X54893158Y10580591D01*
X54842633Y10607596D01*
X54785000Y10633257D01*
X54758205Y10652724D01*
X54734212Y10665549D01*
X54685267Y10705716D01*
X54629400Y10746307D01*
X54611259Y10766454D01*
X54594889Y10779889D01*
X54550896Y10833493D01*
X54500704Y10889238D01*
X54490159Y10907501D01*
X54480549Y10919212D01*
X54444999Y10985721D01*
X54404538Y11055802D01*
X54399883Y11070127D01*
X54395591Y11078158D01*
X54371919Y11156192D01*
X54345104Y11238721D01*
X54344160Y11247699D01*
X54343269Y11250638D01*
X54334596Y11338692D01*
X54325000Y11430000D01*
X54334597Y11521314D01*
X54343269Y11609361D01*
X54344160Y11612298D01*
X54345104Y11621279D01*
X54371923Y11703821D01*
X54395591Y11781841D01*
X54399882Y11789869D01*
X54404538Y11804198D01*
X54445006Y11874291D01*
X54480549Y11940787D01*
X54490157Y11952494D01*
X54500704Y11970762D01*
X54550905Y12026516D01*
X54594889Y12080110D01*
X54611256Y12093542D01*
X54629400Y12113693D01*
X54685278Y12154290D01*
X54734212Y12194450D01*
X54758200Y12207272D01*
X54785000Y12226743D01*
X54842645Y12252408D01*
X54893158Y12279408D01*
X54924942Y12289049D01*
X54960704Y12304972D01*
X55016585Y12316849D01*
X55065638Y12331730D01*
X55104682Y12335575D01*
X55148834Y12344960D01*
X55199969Y12344960D01*
X55245000Y12349395D01*
X55290031Y12344960D01*
G37*
G36*
X57830031Y12344960D02*
G01*
X57881166Y12344960D01*
X57925317Y12335575D01*
X57964361Y12331730D01*
X58013410Y12316850D01*
X58069296Y12304972D01*
X58105059Y12289048D01*
X58136841Y12279408D01*
X58187348Y12252411D01*
X58245000Y12226743D01*
X58271802Y12207270D01*
X58295787Y12194450D01*
X58344712Y12154297D01*
X58400600Y12113693D01*
X58418746Y12093539D01*
X58435110Y12080110D01*
X58479082Y12026529D01*
X58529296Y11970762D01*
X58539844Y11952490D01*
X58549450Y11940787D01*
X58584980Y11874314D01*
X58625462Y11804198D01*
X58630119Y11789865D01*
X58634408Y11781841D01*
X58658061Y11703868D01*
X58684896Y11621279D01*
X58685840Y11612293D01*
X58686730Y11609361D01*
X58695386Y11521465D01*
X58705000Y11430000D01*
X58695387Y11338541D01*
X58686730Y11250638D01*
X58685840Y11247704D01*
X58684896Y11238721D01*
X58658065Y11156145D01*
X58634408Y11078158D01*
X58630118Y11070132D01*
X58625462Y11055802D01*
X58584987Y10985697D01*
X58549450Y10919212D01*
X58539842Y10907505D01*
X58529296Y10889238D01*
X58479092Y10833481D01*
X58435110Y10779889D01*
X58418743Y10766457D01*
X58400600Y10746307D01*
X58344723Y10705710D01*
X58295787Y10665549D01*
X58271796Y10652726D01*
X58245000Y10633257D01*
X58187360Y10607593D01*
X58136841Y10580591D01*
X58105052Y10570947D01*
X58069296Y10555028D01*
X58013421Y10543151D01*
X57964361Y10528269D01*
X57925309Y10524422D01*
X57881166Y10515040D01*
X57830041Y10515040D01*
X57785000Y10510604D01*
X57739959Y10515040D01*
X57688834Y10515040D01*
X57644691Y10524422D01*
X57605638Y10528269D01*
X57556574Y10543152D01*
X57500704Y10555028D01*
X57464949Y10570946D01*
X57433158Y10580591D01*
X57382633Y10607596D01*
X57325000Y10633257D01*
X57298205Y10652724D01*
X57274212Y10665549D01*
X57225267Y10705716D01*
X57169400Y10746307D01*
X57151259Y10766454D01*
X57134889Y10779889D01*
X57090896Y10833493D01*
X57040704Y10889238D01*
X57030159Y10907501D01*
X57020549Y10919212D01*
X56984999Y10985721D01*
X56944538Y11055802D01*
X56939883Y11070127D01*
X56935591Y11078158D01*
X56911919Y11156192D01*
X56885104Y11238721D01*
X56884160Y11247699D01*
X56883269Y11250638D01*
X56874596Y11338692D01*
X56865000Y11430000D01*
X56874597Y11521314D01*
X56883269Y11609361D01*
X56884160Y11612298D01*
X56885104Y11621279D01*
X56911923Y11703821D01*
X56935591Y11781841D01*
X56939882Y11789869D01*
X56944538Y11804198D01*
X56985006Y11874291D01*
X57020549Y11940787D01*
X57030157Y11952494D01*
X57040704Y11970762D01*
X57090905Y12026516D01*
X57134889Y12080110D01*
X57151256Y12093542D01*
X57169400Y12113693D01*
X57225278Y12154290D01*
X57274212Y12194450D01*
X57298200Y12207272D01*
X57325000Y12226743D01*
X57382645Y12252408D01*
X57433158Y12279408D01*
X57464942Y12289049D01*
X57500704Y12304972D01*
X57556585Y12316849D01*
X57605638Y12331730D01*
X57644682Y12335575D01*
X57688834Y12344960D01*
X57739969Y12344960D01*
X57785000Y12349395D01*
X57830031Y12344960D01*
G37*
G36*
X47133058Y13658805D02*
G01*
X47165727Y13654505D01*
X47173944Y13650673D01*
X47193537Y13646776D01*
X47219485Y13629437D01*
X47230608Y13624251D01*
X47237375Y13617483D01*
X47258421Y13603421D01*
X47272483Y13582375D01*
X47279251Y13575608D01*
X47284437Y13564485D01*
X47301776Y13538537D01*
X47305673Y13518944D01*
X47309505Y13510727D01*
X47313806Y13478056D01*
X47317000Y13462000D01*
X47317000Y11938000D01*
X47313806Y11921943D01*
X47309505Y11889272D01*
X47305672Y11881053D01*
X47301776Y11861463D01*
X47284438Y11835516D01*
X47279251Y11824391D01*
X47272481Y11817621D01*
X47258421Y11796579D01*
X47237378Y11782518D01*
X47230608Y11775748D01*
X47219480Y11770559D01*
X47193537Y11753224D01*
X47173948Y11749327D01*
X47165727Y11745494D01*
X47133041Y11741190D01*
X47117000Y11738000D01*
X47108805Y11738000D01*
X45601196Y11738000D01*
X45593000Y11738000D01*
X45576958Y11741190D01*
X45544272Y11745494D01*
X45536049Y11749327D01*
X45516463Y11753224D01*
X45490521Y11770557D01*
X45479391Y11775748D01*
X45472618Y11782520D01*
X45451579Y11796579D01*
X45437520Y11817618D01*
X45430748Y11824391D01*
X45425557Y11835521D01*
X45408224Y11861463D01*
X45404327Y11881049D01*
X45400494Y11889272D01*
X45396190Y11921960D01*
X45393000Y11938000D01*
X45393000Y13462000D01*
X45396191Y13478043D01*
X45400494Y13510727D01*
X45404327Y13518948D01*
X45408224Y13538537D01*
X45425559Y13564480D01*
X45430748Y13575608D01*
X45437518Y13582378D01*
X45451579Y13603421D01*
X45472621Y13617481D01*
X45479391Y13624251D01*
X45490516Y13629438D01*
X45516463Y13646776D01*
X45536053Y13650672D01*
X45544272Y13654505D01*
X45576945Y13658806D01*
X45593000Y13662000D01*
X47117000Y13662000D01*
X47133058Y13658805D01*
G37*
G36*
X52750031Y18059960D02*
G01*
X52801166Y18059960D01*
X52845317Y18050575D01*
X52884361Y18046730D01*
X52933410Y18031850D01*
X52989296Y18019972D01*
X53025059Y18004048D01*
X53056841Y17994408D01*
X53107348Y17967411D01*
X53165000Y17941743D01*
X53191802Y17922270D01*
X53215787Y17909450D01*
X53264712Y17869297D01*
X53320600Y17828693D01*
X53338746Y17808539D01*
X53355110Y17795110D01*
X53399082Y17741529D01*
X53449296Y17685762D01*
X53459844Y17667490D01*
X53469450Y17655787D01*
X53504980Y17589314D01*
X53545462Y17519198D01*
X53550119Y17504865D01*
X53554408Y17496841D01*
X53578061Y17418868D01*
X53604896Y17336279D01*
X53605840Y17327293D01*
X53606730Y17324361D01*
X53615386Y17236465D01*
X53625000Y17145000D01*
X53615387Y17053541D01*
X53606730Y16965638D01*
X53605840Y16962704D01*
X53604896Y16953721D01*
X53578065Y16871145D01*
X53554408Y16793158D01*
X53550118Y16785132D01*
X53545462Y16770802D01*
X53504987Y16700697D01*
X53469450Y16634212D01*
X53459842Y16622505D01*
X53449296Y16604238D01*
X53399092Y16548481D01*
X53355110Y16494889D01*
X53338743Y16481457D01*
X53320600Y16461307D01*
X53264723Y16420710D01*
X53215787Y16380549D01*
X53191796Y16367726D01*
X53165000Y16348257D01*
X53107360Y16322593D01*
X53056841Y16295591D01*
X53025052Y16285947D01*
X52989296Y16270028D01*
X52933421Y16258151D01*
X52884361Y16243269D01*
X52845309Y16239422D01*
X52801166Y16230040D01*
X52750041Y16230040D01*
X52705000Y16225604D01*
X52659959Y16230040D01*
X52608834Y16230040D01*
X52564691Y16239422D01*
X52525638Y16243269D01*
X52476574Y16258152D01*
X52420704Y16270028D01*
X52384949Y16285946D01*
X52353158Y16295591D01*
X52302633Y16322596D01*
X52245000Y16348257D01*
X52218205Y16367724D01*
X52194212Y16380549D01*
X52145267Y16420716D01*
X52089400Y16461307D01*
X52071259Y16481454D01*
X52054889Y16494889D01*
X52010896Y16548493D01*
X51960704Y16604238D01*
X51950159Y16622501D01*
X51940549Y16634212D01*
X51904999Y16700721D01*
X51864538Y16770802D01*
X51859883Y16785127D01*
X51855591Y16793158D01*
X51831919Y16871192D01*
X51805104Y16953721D01*
X51804160Y16962699D01*
X51803269Y16965638D01*
X51794596Y17053692D01*
X51785000Y17145000D01*
X51794597Y17236314D01*
X51803269Y17324361D01*
X51804160Y17327298D01*
X51805104Y17336279D01*
X51831923Y17418821D01*
X51855591Y17496841D01*
X51859882Y17504869D01*
X51864538Y17519198D01*
X51905006Y17589291D01*
X51940549Y17655787D01*
X51950157Y17667494D01*
X51960704Y17685762D01*
X52010905Y17741516D01*
X52054889Y17795110D01*
X52071256Y17808542D01*
X52089400Y17828693D01*
X52145278Y17869290D01*
X52194212Y17909450D01*
X52218200Y17922272D01*
X52245000Y17941743D01*
X52302645Y17967408D01*
X52353158Y17994408D01*
X52384942Y18004049D01*
X52420704Y18019972D01*
X52476585Y18031849D01*
X52525638Y18046730D01*
X52564682Y18050575D01*
X52608834Y18059960D01*
X52659969Y18059960D01*
X52705000Y18064395D01*
X52750031Y18059960D01*
G37*
G36*
X55290031Y18059960D02*
G01*
X55341166Y18059960D01*
X55385317Y18050575D01*
X55424361Y18046730D01*
X55473410Y18031850D01*
X55529296Y18019972D01*
X55565059Y18004048D01*
X55596841Y17994408D01*
X55647348Y17967411D01*
X55705000Y17941743D01*
X55731802Y17922270D01*
X55755787Y17909450D01*
X55804712Y17869297D01*
X55860600Y17828693D01*
X55878746Y17808539D01*
X55895110Y17795110D01*
X55939082Y17741529D01*
X55989296Y17685762D01*
X55999844Y17667490D01*
X56009450Y17655787D01*
X56044980Y17589314D01*
X56085462Y17519198D01*
X56090119Y17504865D01*
X56094408Y17496841D01*
X56118061Y17418868D01*
X56144896Y17336279D01*
X56145840Y17327293D01*
X56146730Y17324361D01*
X56155386Y17236465D01*
X56165000Y17145000D01*
X56155387Y17053541D01*
X56146730Y16965638D01*
X56145840Y16962704D01*
X56144896Y16953721D01*
X56118065Y16871145D01*
X56094408Y16793158D01*
X56090118Y16785132D01*
X56085462Y16770802D01*
X56044987Y16700697D01*
X56009450Y16634212D01*
X55999842Y16622505D01*
X55989296Y16604238D01*
X55939092Y16548481D01*
X55895110Y16494889D01*
X55878743Y16481457D01*
X55860600Y16461307D01*
X55804723Y16420710D01*
X55755787Y16380549D01*
X55731796Y16367726D01*
X55705000Y16348257D01*
X55647360Y16322593D01*
X55596841Y16295591D01*
X55565052Y16285947D01*
X55529296Y16270028D01*
X55473421Y16258151D01*
X55424361Y16243269D01*
X55385309Y16239422D01*
X55341166Y16230040D01*
X55290041Y16230040D01*
X55245000Y16225604D01*
X55199959Y16230040D01*
X55148834Y16230040D01*
X55104691Y16239422D01*
X55065638Y16243269D01*
X55016574Y16258152D01*
X54960704Y16270028D01*
X54924949Y16285946D01*
X54893158Y16295591D01*
X54842633Y16322596D01*
X54785000Y16348257D01*
X54758205Y16367724D01*
X54734212Y16380549D01*
X54685267Y16420716D01*
X54629400Y16461307D01*
X54611259Y16481454D01*
X54594889Y16494889D01*
X54550896Y16548493D01*
X54500704Y16604238D01*
X54490159Y16622501D01*
X54480549Y16634212D01*
X54444999Y16700721D01*
X54404538Y16770802D01*
X54399883Y16785127D01*
X54395591Y16793158D01*
X54371919Y16871192D01*
X54345104Y16953721D01*
X54344160Y16962699D01*
X54343269Y16965638D01*
X54334596Y17053692D01*
X54325000Y17145000D01*
X54334597Y17236314D01*
X54343269Y17324361D01*
X54344160Y17327298D01*
X54345104Y17336279D01*
X54371923Y17418821D01*
X54395591Y17496841D01*
X54399882Y17504869D01*
X54404538Y17519198D01*
X54445006Y17589291D01*
X54480549Y17655787D01*
X54490157Y17667494D01*
X54500704Y17685762D01*
X54550905Y17741516D01*
X54594889Y17795110D01*
X54611256Y17808542D01*
X54629400Y17828693D01*
X54685278Y17869290D01*
X54734212Y17909450D01*
X54758200Y17922272D01*
X54785000Y17941743D01*
X54842645Y17967408D01*
X54893158Y17994408D01*
X54924942Y18004049D01*
X54960704Y18019972D01*
X55016585Y18031849D01*
X55065638Y18046730D01*
X55104682Y18050575D01*
X55148834Y18059960D01*
X55199969Y18059960D01*
X55245000Y18064395D01*
X55290031Y18059960D01*
G37*
G36*
X57830031Y18059960D02*
G01*
X57881166Y18059960D01*
X57925317Y18050575D01*
X57964361Y18046730D01*
X58013410Y18031850D01*
X58069296Y18019972D01*
X58105059Y18004048D01*
X58136841Y17994408D01*
X58187348Y17967411D01*
X58245000Y17941743D01*
X58271802Y17922270D01*
X58295787Y17909450D01*
X58344712Y17869297D01*
X58400600Y17828693D01*
X58418746Y17808539D01*
X58435110Y17795110D01*
X58479082Y17741529D01*
X58529296Y17685762D01*
X58539844Y17667490D01*
X58549450Y17655787D01*
X58584980Y17589314D01*
X58625462Y17519198D01*
X58630119Y17504865D01*
X58634408Y17496841D01*
X58658061Y17418868D01*
X58684896Y17336279D01*
X58685840Y17327293D01*
X58686730Y17324361D01*
X58695386Y17236465D01*
X58705000Y17145000D01*
X58695387Y17053541D01*
X58686730Y16965638D01*
X58685840Y16962704D01*
X58684896Y16953721D01*
X58658065Y16871145D01*
X58634408Y16793158D01*
X58630118Y16785132D01*
X58625462Y16770802D01*
X58584987Y16700697D01*
X58549450Y16634212D01*
X58539842Y16622505D01*
X58529296Y16604238D01*
X58479092Y16548481D01*
X58435110Y16494889D01*
X58418743Y16481457D01*
X58400600Y16461307D01*
X58344723Y16420710D01*
X58295787Y16380549D01*
X58271796Y16367726D01*
X58245000Y16348257D01*
X58187360Y16322593D01*
X58136841Y16295591D01*
X58105052Y16285947D01*
X58069296Y16270028D01*
X58013421Y16258151D01*
X57964361Y16243269D01*
X57925309Y16239422D01*
X57881166Y16230040D01*
X57830041Y16230040D01*
X57785000Y16225604D01*
X57739959Y16230040D01*
X57688834Y16230040D01*
X57644691Y16239422D01*
X57605638Y16243269D01*
X57556574Y16258152D01*
X57500704Y16270028D01*
X57464949Y16285946D01*
X57433158Y16295591D01*
X57382633Y16322596D01*
X57325000Y16348257D01*
X57298205Y16367724D01*
X57274212Y16380549D01*
X57225267Y16420716D01*
X57169400Y16461307D01*
X57151259Y16481454D01*
X57134889Y16494889D01*
X57090896Y16548493D01*
X57040704Y16604238D01*
X57030159Y16622501D01*
X57020549Y16634212D01*
X56984999Y16700721D01*
X56944538Y16770802D01*
X56939883Y16785127D01*
X56935591Y16793158D01*
X56911919Y16871192D01*
X56885104Y16953721D01*
X56884160Y16962699D01*
X56883269Y16965638D01*
X56874596Y17053692D01*
X56865000Y17145000D01*
X56874597Y17236314D01*
X56883269Y17324361D01*
X56884160Y17327298D01*
X56885104Y17336279D01*
X56911923Y17418821D01*
X56935591Y17496841D01*
X56939882Y17504869D01*
X56944538Y17519198D01*
X56985006Y17589291D01*
X57020549Y17655787D01*
X57030157Y17667494D01*
X57040704Y17685762D01*
X57090905Y17741516D01*
X57134889Y17795110D01*
X57151256Y17808542D01*
X57169400Y17828693D01*
X57225278Y17869290D01*
X57274212Y17909450D01*
X57298200Y17922272D01*
X57325000Y17941743D01*
X57382645Y17967408D01*
X57433158Y17994408D01*
X57464942Y18004049D01*
X57500704Y18019972D01*
X57556585Y18031849D01*
X57605638Y18046730D01*
X57644682Y18050575D01*
X57688834Y18059960D01*
X57739969Y18059960D01*
X57785000Y18064395D01*
X57830031Y18059960D01*
G37*
G36*
X42598047Y19054881D02*
G01*
X42655722Y19054881D01*
X42706462Y19045395D01*
X42753292Y19041299D01*
X42810770Y19025897D01*
X42873396Y19014191D01*
X42915871Y18997735D01*
X42955259Y18987182D01*
X43014893Y18959374D01*
X43079886Y18934196D01*
X43113429Y18913426D01*
X43144763Y18898816D01*
X43203865Y18857431D01*
X43268162Y18817621D01*
X43292810Y18795150D01*
X43316036Y18778888D01*
X43371592Y18723331D01*
X43431811Y18668435D01*
X43448226Y18646697D01*
X43463890Y18631034D01*
X43512751Y18561253D01*
X43565261Y18491719D01*
X43574668Y18472826D01*
X43583814Y18459765D01*
X43622759Y18376247D01*
X43663967Y18293490D01*
X43668064Y18279089D01*
X43672182Y18270259D01*
X43698133Y18173407D01*
X43724568Y18080499D01*
X43725382Y18071714D01*
X43726299Y18068292D01*
X43736440Y17952370D01*
X43745000Y17860000D01*
X43736441Y17767636D01*
X43726299Y17651707D01*
X43725381Y17648284D01*
X43724568Y17639501D01*
X43698138Y17546609D01*
X43672182Y17449740D01*
X43668063Y17440907D01*
X43663967Y17426510D01*
X43622775Y17343786D01*
X43583816Y17260236D01*
X43574665Y17247167D01*
X43565261Y17228281D01*
X43512759Y17158757D01*
X43463888Y17088963D01*
X43448223Y17073298D01*
X43431811Y17051565D01*
X43371603Y16996678D01*
X43316036Y16941111D01*
X43292805Y16924844D01*
X43268162Y16902379D01*
X43203877Y16862576D01*
X43144763Y16821183D01*
X43113422Y16806569D01*
X43079886Y16785804D01*
X43014906Y16760630D01*
X42955259Y16732817D01*
X42915862Y16722260D01*
X42873396Y16705809D01*
X42810782Y16694104D01*
X42753292Y16678700D01*
X42706452Y16674602D01*
X42655722Y16665119D01*
X42598059Y16665119D01*
X42545000Y16660477D01*
X42491941Y16665119D01*
X42434278Y16665119D01*
X42383547Y16674602D01*
X42336707Y16678700D01*
X42279213Y16694105D01*
X42216604Y16705809D01*
X42174139Y16722259D01*
X42134740Y16732817D01*
X42075087Y16760632D01*
X42010114Y16785804D01*
X41976580Y16806567D01*
X41945236Y16821183D01*
X41886113Y16862581D01*
X41821838Y16902379D01*
X41797197Y16924841D01*
X41773963Y16941111D01*
X41718384Y16996689D01*
X41658189Y17051565D01*
X41641779Y17073294D01*
X41626111Y17088963D01*
X41577227Y17158775D01*
X41524739Y17228281D01*
X41515336Y17247163D01*
X41506183Y17260236D01*
X41467208Y17343818D01*
X41426033Y17426510D01*
X41421938Y17440902D01*
X41417817Y17449740D01*
X41391844Y17546669D01*
X41365432Y17639501D01*
X41364618Y17648278D01*
X41363700Y17651707D01*
X41353540Y17767829D01*
X41345000Y17860000D01*
X41353541Y17952177D01*
X41363700Y18068292D01*
X41364618Y18071719D01*
X41365432Y18080499D01*
X41391849Y18173346D01*
X41417817Y18270259D01*
X41421937Y18279094D01*
X41426033Y18293490D01*
X41467225Y18376215D01*
X41506185Y18459765D01*
X41515333Y18472830D01*
X41524739Y18491719D01*
X41577235Y18561234D01*
X41626109Y18631034D01*
X41641776Y18646701D01*
X41658189Y18668435D01*
X41718396Y18723321D01*
X41773965Y18778890D01*
X41797194Y18795155D01*
X41821838Y18817621D01*
X41886128Y18857427D01*
X41945234Y18898814D01*
X41976567Y18913425D01*
X42010114Y18934196D01*
X42075104Y18959373D01*
X42134740Y18987182D01*
X42174131Y18997736D01*
X42216604Y19014191D01*
X42279226Y19025896D01*
X42336707Y19041299D01*
X42383537Y19045396D01*
X42434278Y19054881D01*
X42491952Y19054881D01*
X42545000Y19059522D01*
X42598047Y19054881D01*
G37*
G36*
X2623002Y21765048D02*
G01*
X2684740Y21765048D01*
X2739850Y21755851D01*
X2791773Y21751765D01*
X2854311Y21736750D01*
X2920954Y21725630D01*
X2968214Y21709405D01*
X3012952Y21698665D01*
X3078072Y21671691D01*
X3147458Y21647871D01*
X3186214Y21626897D01*
X3223111Y21611614D01*
X3288506Y21571539D01*
X3358075Y21533891D01*
X3388179Y21510459D01*
X3417058Y21492763D01*
X3480157Y21438870D01*
X3547058Y21386800D01*
X3568884Y21363090D01*
X3590030Y21345030D01*
X3648102Y21277036D01*
X3709254Y21210608D01*
X3723625Y21188610D01*
X3737763Y21172058D01*
X3788002Y21090074D01*
X3840237Y21010124D01*
X3848398Y20991517D01*
X3856614Y20978111D01*
X3896210Y20882516D01*
X3936435Y20790814D01*
X3939958Y20776900D01*
X3943665Y20767952D01*
X3969948Y20658470D01*
X3995224Y20558662D01*
X3995916Y20550308D01*
X3996765Y20546773D01*
X4007287Y20413080D01*
X4015000Y20320000D01*
X4007287Y20226927D01*
X3996765Y20093226D01*
X3995916Y20089689D01*
X3995224Y20081338D01*
X3969953Y19981547D01*
X3943665Y19872047D01*
X3939957Y19863096D01*
X3936435Y19849186D01*
X3896218Y19757500D01*
X3856614Y19661888D01*
X3848397Y19648479D01*
X3840237Y19629876D01*
X3788012Y19549940D01*
X3737763Y19467941D01*
X3723622Y19451385D01*
X3709254Y19429392D01*
X3648114Y19362976D01*
X3590030Y19294969D01*
X3568880Y19276905D01*
X3547058Y19253200D01*
X3480170Y19201139D01*
X3417058Y19147236D01*
X3388173Y19129535D01*
X3358075Y19106109D01*
X3288520Y19068468D01*
X3223111Y19028385D01*
X3186206Y19013098D01*
X3147458Y18992129D01*
X3078086Y18968313D01*
X3012952Y18941334D01*
X2968204Y18930591D01*
X2920954Y18914370D01*
X2854325Y18903251D01*
X2791773Y18888234D01*
X2739838Y18884146D01*
X2684740Y18874952D01*
X2623015Y18874952D01*
X2565000Y18870386D01*
X2506985Y18874952D01*
X2445260Y18874952D01*
X2390161Y18884146D01*
X2338226Y18888234D01*
X2275671Y18903251D01*
X2209046Y18914370D01*
X2161797Y18930590D01*
X2117047Y18941334D01*
X2051907Y18968315D01*
X1982542Y18992129D01*
X1943796Y19013096D01*
X1906888Y19028385D01*
X1841470Y19068472D01*
X1771925Y19106109D01*
X1741830Y19129532D01*
X1712941Y19147236D01*
X1649818Y19201148D01*
X1582942Y19253200D01*
X1561123Y19276901D01*
X1539969Y19294969D01*
X1481872Y19362991D01*
X1420746Y19429392D01*
X1406380Y19451380D01*
X1392236Y19467941D01*
X1341971Y19549964D01*
X1289763Y19629876D01*
X1281605Y19648473D01*
X1273385Y19661888D01*
X1233763Y19757541D01*
X1193565Y19849186D01*
X1190043Y19863090D01*
X1186334Y19872047D01*
X1160027Y19981623D01*
X1134776Y20081338D01*
X1134084Y20089683D01*
X1133234Y20093226D01*
X1122692Y20227167D01*
X1115000Y20320000D01*
X1122692Y20412839D01*
X1133234Y20546773D01*
X1134084Y20550314D01*
X1134776Y20558662D01*
X1160031Y20658394D01*
X1186334Y20767952D01*
X1190043Y20776906D01*
X1193565Y20790814D01*
X1233771Y20882475D01*
X1273385Y20978111D01*
X1281603Y20991522D01*
X1289763Y21010124D01*
X1341981Y21090050D01*
X1392236Y21172058D01*
X1406377Y21188615D01*
X1420746Y21210608D01*
X1481883Y21277021D01*
X1539969Y21345030D01*
X1561119Y21363094D01*
X1582942Y21386800D01*
X1649831Y21438862D01*
X1712941Y21492763D01*
X1741824Y21510462D01*
X1771925Y21533891D01*
X1841484Y21571534D01*
X1906888Y21611614D01*
X1943788Y21626898D01*
X1982542Y21647871D01*
X2051921Y21671688D01*
X2117047Y21698665D01*
X2161787Y21709406D01*
X2209046Y21725630D01*
X2275684Y21736750D01*
X2338226Y21751765D01*
X2390150Y21755851D01*
X2445260Y21765048D01*
X2506998Y21765048D01*
X2565000Y21769613D01*
X2623002Y21765048D01*
G37*
G36*
X35431058Y21666805D02*
G01*
X35463727Y21662505D01*
X35471944Y21658673D01*
X35491537Y21654776D01*
X35517485Y21637437D01*
X35528608Y21632251D01*
X35535375Y21625483D01*
X35556421Y21611421D01*
X35570483Y21590375D01*
X35577251Y21583608D01*
X35582437Y21572485D01*
X35599776Y21546537D01*
X35603673Y21526944D01*
X35607505Y21518727D01*
X35611806Y21486056D01*
X35615000Y21470000D01*
X35615000Y19170000D01*
X35611806Y19153943D01*
X35607505Y19121272D01*
X35603672Y19113053D01*
X35599776Y19093463D01*
X35582438Y19067516D01*
X35577251Y19056391D01*
X35570481Y19049621D01*
X35556421Y19028579D01*
X35535378Y19014518D01*
X35528608Y19007748D01*
X35517480Y19002559D01*
X35491537Y18985224D01*
X35471948Y18981327D01*
X35463727Y18977494D01*
X35431041Y18973190D01*
X35415000Y18970000D01*
X35406805Y18970000D01*
X33123196Y18970000D01*
X33115000Y18970000D01*
X33098958Y18973190D01*
X33066272Y18977494D01*
X33058049Y18981327D01*
X33038463Y18985224D01*
X33012521Y19002557D01*
X33001391Y19007748D01*
X32994618Y19014520D01*
X32973579Y19028579D01*
X32959520Y19049618D01*
X32952748Y19056391D01*
X32947557Y19067521D01*
X32930224Y19093463D01*
X32926327Y19113049D01*
X32922494Y19121272D01*
X32918190Y19153960D01*
X32915000Y19170000D01*
X32915000Y21470000D01*
X32918191Y21486043D01*
X32922494Y21518727D01*
X32926327Y21526948D01*
X32930224Y21546537D01*
X32947559Y21572480D01*
X32952748Y21583608D01*
X32959518Y21590378D01*
X32973579Y21611421D01*
X32994621Y21625481D01*
X33001391Y21632251D01*
X33012516Y21637438D01*
X33038463Y21654776D01*
X33058053Y21658672D01*
X33066272Y21662505D01*
X33098945Y21666806D01*
X33115000Y21670000D01*
X35415000Y21670000D01*
X35431058Y21666805D01*
G37*
G36*
X43561058Y24056805D02*
G01*
X43593727Y24052505D01*
X43601944Y24048673D01*
X43621537Y24044776D01*
X43647485Y24027437D01*
X43658608Y24022251D01*
X43665375Y24015483D01*
X43686421Y24001421D01*
X43700483Y23980375D01*
X43707251Y23973608D01*
X43712437Y23962485D01*
X43729776Y23936537D01*
X43733673Y23916944D01*
X43737505Y23908727D01*
X43741806Y23876056D01*
X43745000Y23860000D01*
X43745000Y21860000D01*
X43741806Y21843943D01*
X43737505Y21811272D01*
X43733672Y21803053D01*
X43729776Y21783463D01*
X43712438Y21757516D01*
X43707251Y21746391D01*
X43700481Y21739621D01*
X43686421Y21718579D01*
X43665378Y21704518D01*
X43658608Y21697748D01*
X43647480Y21692559D01*
X43621537Y21675224D01*
X43601948Y21671327D01*
X43593727Y21667494D01*
X43561041Y21663190D01*
X43545000Y21660000D01*
X43536805Y21660000D01*
X41553196Y21660000D01*
X41545000Y21660000D01*
X41528958Y21663190D01*
X41496272Y21667494D01*
X41488049Y21671327D01*
X41468463Y21675224D01*
X41442521Y21692557D01*
X41431391Y21697748D01*
X41424618Y21704520D01*
X41403579Y21718579D01*
X41389520Y21739618D01*
X41382748Y21746391D01*
X41377557Y21757521D01*
X41360224Y21783463D01*
X41356327Y21803049D01*
X41352494Y21811272D01*
X41348190Y21843960D01*
X41345000Y21860000D01*
X41345000Y23860000D01*
X41348191Y23876043D01*
X41352494Y23908727D01*
X41356327Y23916948D01*
X41360224Y23936537D01*
X41377559Y23962480D01*
X41382748Y23973608D01*
X41389518Y23980378D01*
X41403579Y24001421D01*
X41424621Y24015481D01*
X41431391Y24022251D01*
X41442516Y24027438D01*
X41468463Y24044776D01*
X41488053Y24048672D01*
X41496272Y24052505D01*
X41528945Y24056806D01*
X41545000Y24060000D01*
X43545000Y24060000D01*
X43561058Y24056805D01*
G37*
G36*
X52750031Y23774960D02*
G01*
X52801166Y23774960D01*
X52845317Y23765575D01*
X52884361Y23761730D01*
X52933410Y23746850D01*
X52989296Y23734972D01*
X53025059Y23719048D01*
X53056841Y23709408D01*
X53107348Y23682411D01*
X53165000Y23656743D01*
X53191802Y23637270D01*
X53215787Y23624450D01*
X53264712Y23584297D01*
X53320600Y23543693D01*
X53338746Y23523539D01*
X53355110Y23510110D01*
X53399082Y23456529D01*
X53449296Y23400762D01*
X53459844Y23382490D01*
X53469450Y23370787D01*
X53504980Y23304314D01*
X53545462Y23234198D01*
X53550119Y23219865D01*
X53554408Y23211841D01*
X53578061Y23133868D01*
X53604896Y23051279D01*
X53605840Y23042293D01*
X53606730Y23039361D01*
X53615386Y22951465D01*
X53625000Y22860000D01*
X53615387Y22768541D01*
X53606730Y22680638D01*
X53605840Y22677704D01*
X53604896Y22668721D01*
X53578065Y22586145D01*
X53554408Y22508158D01*
X53550118Y22500132D01*
X53545462Y22485802D01*
X53504987Y22415697D01*
X53469450Y22349212D01*
X53459842Y22337505D01*
X53449296Y22319238D01*
X53399092Y22263481D01*
X53355110Y22209889D01*
X53338743Y22196457D01*
X53320600Y22176307D01*
X53264723Y22135710D01*
X53215787Y22095549D01*
X53191796Y22082726D01*
X53165000Y22063257D01*
X53107360Y22037593D01*
X53056841Y22010591D01*
X53025052Y22000947D01*
X52989296Y21985028D01*
X52933421Y21973151D01*
X52884361Y21958269D01*
X52845309Y21954422D01*
X52801166Y21945040D01*
X52750041Y21945040D01*
X52705000Y21940604D01*
X52659959Y21945040D01*
X52608834Y21945040D01*
X52564691Y21954422D01*
X52525638Y21958269D01*
X52476574Y21973152D01*
X52420704Y21985028D01*
X52384949Y22000946D01*
X52353158Y22010591D01*
X52302633Y22037596D01*
X52245000Y22063257D01*
X52218205Y22082724D01*
X52194212Y22095549D01*
X52145267Y22135716D01*
X52089400Y22176307D01*
X52071259Y22196454D01*
X52054889Y22209889D01*
X52010896Y22263493D01*
X51960704Y22319238D01*
X51950159Y22337501D01*
X51940549Y22349212D01*
X51904999Y22415721D01*
X51864538Y22485802D01*
X51859883Y22500127D01*
X51855591Y22508158D01*
X51831919Y22586192D01*
X51805104Y22668721D01*
X51804160Y22677699D01*
X51803269Y22680638D01*
X51794596Y22768692D01*
X51785000Y22860000D01*
X51794597Y22951314D01*
X51803269Y23039361D01*
X51804160Y23042298D01*
X51805104Y23051279D01*
X51831923Y23133821D01*
X51855591Y23211841D01*
X51859882Y23219869D01*
X51864538Y23234198D01*
X51905006Y23304291D01*
X51940549Y23370787D01*
X51950157Y23382494D01*
X51960704Y23400762D01*
X52010905Y23456516D01*
X52054889Y23510110D01*
X52071256Y23523542D01*
X52089400Y23543693D01*
X52145278Y23584290D01*
X52194212Y23624450D01*
X52218200Y23637272D01*
X52245000Y23656743D01*
X52302645Y23682408D01*
X52353158Y23709408D01*
X52384942Y23719049D01*
X52420704Y23734972D01*
X52476585Y23746849D01*
X52525638Y23761730D01*
X52564682Y23765575D01*
X52608834Y23774960D01*
X52659969Y23774960D01*
X52705000Y23779395D01*
X52750031Y23774960D01*
G37*
G36*
X55290031Y23774960D02*
G01*
X55341166Y23774960D01*
X55385317Y23765575D01*
X55424361Y23761730D01*
X55473410Y23746850D01*
X55529296Y23734972D01*
X55565059Y23719048D01*
X55596841Y23709408D01*
X55647348Y23682411D01*
X55705000Y23656743D01*
X55731802Y23637270D01*
X55755787Y23624450D01*
X55804712Y23584297D01*
X55860600Y23543693D01*
X55878746Y23523539D01*
X55895110Y23510110D01*
X55939082Y23456529D01*
X55989296Y23400762D01*
X55999844Y23382490D01*
X56009450Y23370787D01*
X56044980Y23304314D01*
X56085462Y23234198D01*
X56090119Y23219865D01*
X56094408Y23211841D01*
X56118061Y23133868D01*
X56144896Y23051279D01*
X56145840Y23042293D01*
X56146730Y23039361D01*
X56155386Y22951465D01*
X56165000Y22860000D01*
X56155387Y22768541D01*
X56146730Y22680638D01*
X56145840Y22677704D01*
X56144896Y22668721D01*
X56118065Y22586145D01*
X56094408Y22508158D01*
X56090118Y22500132D01*
X56085462Y22485802D01*
X56044987Y22415697D01*
X56009450Y22349212D01*
X55999842Y22337505D01*
X55989296Y22319238D01*
X55939092Y22263481D01*
X55895110Y22209889D01*
X55878743Y22196457D01*
X55860600Y22176307D01*
X55804723Y22135710D01*
X55755787Y22095549D01*
X55731796Y22082726D01*
X55705000Y22063257D01*
X55647360Y22037593D01*
X55596841Y22010591D01*
X55565052Y22000947D01*
X55529296Y21985028D01*
X55473421Y21973151D01*
X55424361Y21958269D01*
X55385309Y21954422D01*
X55341166Y21945040D01*
X55290041Y21945040D01*
X55245000Y21940604D01*
X55199959Y21945040D01*
X55148834Y21945040D01*
X55104691Y21954422D01*
X55065638Y21958269D01*
X55016574Y21973152D01*
X54960704Y21985028D01*
X54924949Y22000946D01*
X54893158Y22010591D01*
X54842633Y22037596D01*
X54785000Y22063257D01*
X54758205Y22082724D01*
X54734212Y22095549D01*
X54685267Y22135716D01*
X54629400Y22176307D01*
X54611259Y22196454D01*
X54594889Y22209889D01*
X54550896Y22263493D01*
X54500704Y22319238D01*
X54490159Y22337501D01*
X54480549Y22349212D01*
X54444999Y22415721D01*
X54404538Y22485802D01*
X54399883Y22500127D01*
X54395591Y22508158D01*
X54371919Y22586192D01*
X54345104Y22668721D01*
X54344160Y22677699D01*
X54343269Y22680638D01*
X54334596Y22768692D01*
X54325000Y22860000D01*
X54334597Y22951314D01*
X54343269Y23039361D01*
X54344160Y23042298D01*
X54345104Y23051279D01*
X54371923Y23133821D01*
X54395591Y23211841D01*
X54399882Y23219869D01*
X54404538Y23234198D01*
X54445006Y23304291D01*
X54480549Y23370787D01*
X54490157Y23382494D01*
X54500704Y23400762D01*
X54550905Y23456516D01*
X54594889Y23510110D01*
X54611256Y23523542D01*
X54629400Y23543693D01*
X54685278Y23584290D01*
X54734212Y23624450D01*
X54758200Y23637272D01*
X54785000Y23656743D01*
X54842645Y23682408D01*
X54893158Y23709408D01*
X54924942Y23719049D01*
X54960704Y23734972D01*
X55016585Y23746849D01*
X55065638Y23761730D01*
X55104682Y23765575D01*
X55148834Y23774960D01*
X55199969Y23774960D01*
X55245000Y23779395D01*
X55290031Y23774960D01*
G37*
G36*
X57830031Y23774960D02*
G01*
X57881166Y23774960D01*
X57925317Y23765575D01*
X57964361Y23761730D01*
X58013410Y23746850D01*
X58069296Y23734972D01*
X58105059Y23719048D01*
X58136841Y23709408D01*
X58187348Y23682411D01*
X58245000Y23656743D01*
X58271802Y23637270D01*
X58295787Y23624450D01*
X58344712Y23584297D01*
X58400600Y23543693D01*
X58418746Y23523539D01*
X58435110Y23510110D01*
X58479082Y23456529D01*
X58529296Y23400762D01*
X58539844Y23382490D01*
X58549450Y23370787D01*
X58584980Y23304314D01*
X58625462Y23234198D01*
X58630119Y23219865D01*
X58634408Y23211841D01*
X58658061Y23133868D01*
X58684896Y23051279D01*
X58685840Y23042293D01*
X58686730Y23039361D01*
X58695386Y22951465D01*
X58705000Y22860000D01*
X58695387Y22768541D01*
X58686730Y22680638D01*
X58685840Y22677704D01*
X58684896Y22668721D01*
X58658065Y22586145D01*
X58634408Y22508158D01*
X58630118Y22500132D01*
X58625462Y22485802D01*
X58584987Y22415697D01*
X58549450Y22349212D01*
X58539842Y22337505D01*
X58529296Y22319238D01*
X58479092Y22263481D01*
X58435110Y22209889D01*
X58418743Y22196457D01*
X58400600Y22176307D01*
X58344723Y22135710D01*
X58295787Y22095549D01*
X58271796Y22082726D01*
X58245000Y22063257D01*
X58187360Y22037593D01*
X58136841Y22010591D01*
X58105052Y22000947D01*
X58069296Y21985028D01*
X58013421Y21973151D01*
X57964361Y21958269D01*
X57925309Y21954422D01*
X57881166Y21945040D01*
X57830041Y21945040D01*
X57785000Y21940604D01*
X57739959Y21945040D01*
X57688834Y21945040D01*
X57644691Y21954422D01*
X57605638Y21958269D01*
X57556574Y21973152D01*
X57500704Y21985028D01*
X57464949Y22000946D01*
X57433158Y22010591D01*
X57382633Y22037596D01*
X57325000Y22063257D01*
X57298205Y22082724D01*
X57274212Y22095549D01*
X57225267Y22135716D01*
X57169400Y22176307D01*
X57151259Y22196454D01*
X57134889Y22209889D01*
X57090896Y22263493D01*
X57040704Y22319238D01*
X57030159Y22337501D01*
X57020549Y22349212D01*
X56984999Y22415721D01*
X56944538Y22485802D01*
X56939883Y22500127D01*
X56935591Y22508158D01*
X56911919Y22586192D01*
X56885104Y22668721D01*
X56884160Y22677699D01*
X56883269Y22680638D01*
X56874596Y22768692D01*
X56865000Y22860000D01*
X56874597Y22951314D01*
X56883269Y23039361D01*
X56884160Y23042298D01*
X56885104Y23051279D01*
X56911923Y23133821D01*
X56935591Y23211841D01*
X56939882Y23219869D01*
X56944538Y23234198D01*
X56985006Y23304291D01*
X57020549Y23370787D01*
X57030157Y23382494D01*
X57040704Y23400762D01*
X57090905Y23456516D01*
X57134889Y23510110D01*
X57151256Y23523542D01*
X57169400Y23543693D01*
X57225278Y23584290D01*
X57274212Y23624450D01*
X57298200Y23637272D01*
X57325000Y23656743D01*
X57382645Y23682408D01*
X57433158Y23709408D01*
X57464942Y23719049D01*
X57500704Y23734972D01*
X57556585Y23746849D01*
X57605638Y23761730D01*
X57644682Y23765575D01*
X57688834Y23774960D01*
X57739969Y23774960D01*
X57785000Y23779395D01*
X57830031Y23774960D01*
G37*
G36*
X2810058Y29406805D02*
G01*
X2842727Y29402505D01*
X2850944Y29398673D01*
X2870537Y29394776D01*
X2896485Y29377437D01*
X2907608Y29372251D01*
X2914375Y29365483D01*
X2935421Y29351421D01*
X2949483Y29330375D01*
X2956251Y29323608D01*
X2961437Y29312485D01*
X2978776Y29286537D01*
X2982673Y29266944D01*
X2986505Y29258727D01*
X2990806Y29226056D01*
X2994000Y29210000D01*
X2994000Y27686000D01*
X2990806Y27669943D01*
X2986505Y27637272D01*
X2982672Y27629053D01*
X2978776Y27609463D01*
X2961438Y27583516D01*
X2956251Y27572391D01*
X2949481Y27565621D01*
X2935421Y27544579D01*
X2914378Y27530518D01*
X2907608Y27523748D01*
X2896480Y27518559D01*
X2870537Y27501224D01*
X2850948Y27497327D01*
X2842727Y27493494D01*
X2810041Y27489190D01*
X2794000Y27486000D01*
X2785805Y27486000D01*
X1278196Y27486000D01*
X1270000Y27486000D01*
X1253958Y27489190D01*
X1221272Y27493494D01*
X1213049Y27497327D01*
X1193463Y27501224D01*
X1167521Y27518557D01*
X1156391Y27523748D01*
X1149618Y27530520D01*
X1128579Y27544579D01*
X1114520Y27565618D01*
X1107748Y27572391D01*
X1102557Y27583521D01*
X1085224Y27609463D01*
X1081327Y27629049D01*
X1077494Y27637272D01*
X1073190Y27669960D01*
X1070000Y27686000D01*
X1070000Y29210000D01*
X1073191Y29226043D01*
X1077494Y29258727D01*
X1081327Y29266948D01*
X1085224Y29286537D01*
X1102559Y29312480D01*
X1107748Y29323608D01*
X1114518Y29330378D01*
X1128579Y29351421D01*
X1149621Y29365481D01*
X1156391Y29372251D01*
X1167516Y29377438D01*
X1193463Y29394776D01*
X1213053Y29398672D01*
X1221272Y29402505D01*
X1253945Y29406806D01*
X1270000Y29410000D01*
X2794000Y29410000D01*
X2810058Y29406805D01*
G37*
G36*
X5350058Y29406805D02*
G01*
X5382727Y29402505D01*
X5390944Y29398673D01*
X5410537Y29394776D01*
X5436485Y29377437D01*
X5447608Y29372251D01*
X5454375Y29365483D01*
X5475421Y29351421D01*
X5489483Y29330375D01*
X5496251Y29323608D01*
X5501437Y29312485D01*
X5518776Y29286537D01*
X5522673Y29266944D01*
X5526505Y29258727D01*
X5530806Y29226056D01*
X5534000Y29210000D01*
X5534000Y27686000D01*
X5530806Y27669943D01*
X5526505Y27637272D01*
X5522672Y27629053D01*
X5518776Y27609463D01*
X5501438Y27583516D01*
X5496251Y27572391D01*
X5489481Y27565621D01*
X5475421Y27544579D01*
X5454378Y27530518D01*
X5447608Y27523748D01*
X5436480Y27518559D01*
X5410537Y27501224D01*
X5390948Y27497327D01*
X5382727Y27493494D01*
X5350041Y27489190D01*
X5334000Y27486000D01*
X5325805Y27486000D01*
X3818196Y27486000D01*
X3810000Y27486000D01*
X3793958Y27489190D01*
X3761272Y27493494D01*
X3753049Y27497327D01*
X3733463Y27501224D01*
X3707521Y27518557D01*
X3696391Y27523748D01*
X3689618Y27530520D01*
X3668579Y27544579D01*
X3654520Y27565618D01*
X3647748Y27572391D01*
X3642557Y27583521D01*
X3625224Y27609463D01*
X3621327Y27629049D01*
X3617494Y27637272D01*
X3613190Y27669960D01*
X3610000Y27686000D01*
X3610000Y29210000D01*
X3613191Y29226043D01*
X3617494Y29258727D01*
X3621327Y29266948D01*
X3625224Y29286537D01*
X3642559Y29312480D01*
X3647748Y29323608D01*
X3654518Y29330378D01*
X3668579Y29351421D01*
X3689621Y29365481D01*
X3696391Y29372251D01*
X3707516Y29377438D01*
X3733463Y29394776D01*
X3753053Y29398672D01*
X3761272Y29402505D01*
X3793945Y29406806D01*
X3810000Y29410000D01*
X5334000Y29410000D01*
X5350058Y29406805D01*
G37*
G36*
X7890058Y29406805D02*
G01*
X7922727Y29402505D01*
X7930944Y29398673D01*
X7950537Y29394776D01*
X7976485Y29377437D01*
X7987608Y29372251D01*
X7994375Y29365483D01*
X8015421Y29351421D01*
X8029483Y29330375D01*
X8036251Y29323608D01*
X8041437Y29312485D01*
X8058776Y29286537D01*
X8062673Y29266944D01*
X8066505Y29258727D01*
X8070806Y29226056D01*
X8074000Y29210000D01*
X8074000Y27686000D01*
X8070806Y27669943D01*
X8066505Y27637272D01*
X8062672Y27629053D01*
X8058776Y27609463D01*
X8041438Y27583516D01*
X8036251Y27572391D01*
X8029481Y27565621D01*
X8015421Y27544579D01*
X7994378Y27530518D01*
X7987608Y27523748D01*
X7976480Y27518559D01*
X7950537Y27501224D01*
X7930948Y27497327D01*
X7922727Y27493494D01*
X7890041Y27489190D01*
X7874000Y27486000D01*
X7865805Y27486000D01*
X6358196Y27486000D01*
X6350000Y27486000D01*
X6333958Y27489190D01*
X6301272Y27493494D01*
X6293049Y27497327D01*
X6273463Y27501224D01*
X6247521Y27518557D01*
X6236391Y27523748D01*
X6229618Y27530520D01*
X6208579Y27544579D01*
X6194520Y27565618D01*
X6187748Y27572391D01*
X6182557Y27583521D01*
X6165224Y27609463D01*
X6161327Y27629049D01*
X6157494Y27637272D01*
X6153190Y27669960D01*
X6150000Y27686000D01*
X6150000Y29210000D01*
X6153191Y29226043D01*
X6157494Y29258727D01*
X6161327Y29266948D01*
X6165224Y29286537D01*
X6182559Y29312480D01*
X6187748Y29323608D01*
X6194518Y29330378D01*
X6208579Y29351421D01*
X6229621Y29365481D01*
X6236391Y29372251D01*
X6247516Y29377438D01*
X6273463Y29394776D01*
X6293053Y29398672D01*
X6301272Y29402505D01*
X6333945Y29406806D01*
X6350000Y29410000D01*
X7874000Y29410000D01*
X7890058Y29406805D01*
G37*
G36*
X52750031Y29489960D02*
G01*
X52801166Y29489960D01*
X52845317Y29480575D01*
X52884361Y29476730D01*
X52933410Y29461850D01*
X52989296Y29449972D01*
X53025059Y29434048D01*
X53056841Y29424408D01*
X53107348Y29397411D01*
X53165000Y29371743D01*
X53191802Y29352270D01*
X53215787Y29339450D01*
X53264712Y29299297D01*
X53320600Y29258693D01*
X53338746Y29238539D01*
X53355110Y29225110D01*
X53399082Y29171529D01*
X53449296Y29115762D01*
X53459844Y29097490D01*
X53469450Y29085787D01*
X53504980Y29019314D01*
X53545462Y28949198D01*
X53550119Y28934865D01*
X53554408Y28926841D01*
X53578061Y28848868D01*
X53604896Y28766279D01*
X53605840Y28757293D01*
X53606730Y28754361D01*
X53615386Y28666465D01*
X53625000Y28575000D01*
X53615387Y28483541D01*
X53606730Y28395638D01*
X53605840Y28392704D01*
X53604896Y28383721D01*
X53578065Y28301145D01*
X53554408Y28223158D01*
X53550118Y28215132D01*
X53545462Y28200802D01*
X53504987Y28130697D01*
X53469450Y28064212D01*
X53459842Y28052505D01*
X53449296Y28034238D01*
X53399092Y27978481D01*
X53355110Y27924889D01*
X53338743Y27911457D01*
X53320600Y27891307D01*
X53264723Y27850710D01*
X53215787Y27810549D01*
X53191796Y27797726D01*
X53165000Y27778257D01*
X53107360Y27752593D01*
X53056841Y27725591D01*
X53025052Y27715947D01*
X52989296Y27700028D01*
X52933421Y27688151D01*
X52884361Y27673269D01*
X52845309Y27669422D01*
X52801166Y27660040D01*
X52750041Y27660040D01*
X52705000Y27655604D01*
X52659959Y27660040D01*
X52608834Y27660040D01*
X52564691Y27669422D01*
X52525638Y27673269D01*
X52476574Y27688152D01*
X52420704Y27700028D01*
X52384949Y27715946D01*
X52353158Y27725591D01*
X52302633Y27752596D01*
X52245000Y27778257D01*
X52218205Y27797724D01*
X52194212Y27810549D01*
X52145267Y27850716D01*
X52089400Y27891307D01*
X52071259Y27911454D01*
X52054889Y27924889D01*
X52010896Y27978493D01*
X51960704Y28034238D01*
X51950159Y28052501D01*
X51940549Y28064212D01*
X51904999Y28130721D01*
X51864538Y28200802D01*
X51859883Y28215127D01*
X51855591Y28223158D01*
X51831919Y28301192D01*
X51805104Y28383721D01*
X51804160Y28392699D01*
X51803269Y28395638D01*
X51794596Y28483692D01*
X51785000Y28575000D01*
X51794597Y28666314D01*
X51803269Y28754361D01*
X51804160Y28757298D01*
X51805104Y28766279D01*
X51831923Y28848821D01*
X51855591Y28926841D01*
X51859882Y28934869D01*
X51864538Y28949198D01*
X51905006Y29019291D01*
X51940549Y29085787D01*
X51950157Y29097494D01*
X51960704Y29115762D01*
X52010905Y29171516D01*
X52054889Y29225110D01*
X52071256Y29238542D01*
X52089400Y29258693D01*
X52145278Y29299290D01*
X52194212Y29339450D01*
X52218200Y29352272D01*
X52245000Y29371743D01*
X52302645Y29397408D01*
X52353158Y29424408D01*
X52384942Y29434049D01*
X52420704Y29449972D01*
X52476585Y29461849D01*
X52525638Y29476730D01*
X52564682Y29480575D01*
X52608834Y29489960D01*
X52659969Y29489960D01*
X52705000Y29494395D01*
X52750031Y29489960D01*
G37*
G36*
X55290031Y29489960D02*
G01*
X55341166Y29489960D01*
X55385317Y29480575D01*
X55424361Y29476730D01*
X55473410Y29461850D01*
X55529296Y29449972D01*
X55565059Y29434048D01*
X55596841Y29424408D01*
X55647348Y29397411D01*
X55705000Y29371743D01*
X55731802Y29352270D01*
X55755787Y29339450D01*
X55804712Y29299297D01*
X55860600Y29258693D01*
X55878746Y29238539D01*
X55895110Y29225110D01*
X55939082Y29171529D01*
X55989296Y29115762D01*
X55999844Y29097490D01*
X56009450Y29085787D01*
X56044980Y29019314D01*
X56085462Y28949198D01*
X56090119Y28934865D01*
X56094408Y28926841D01*
X56118061Y28848868D01*
X56144896Y28766279D01*
X56145840Y28757293D01*
X56146730Y28754361D01*
X56155386Y28666465D01*
X56165000Y28575000D01*
X56155387Y28483541D01*
X56146730Y28395638D01*
X56145840Y28392704D01*
X56144896Y28383721D01*
X56118065Y28301145D01*
X56094408Y28223158D01*
X56090118Y28215132D01*
X56085462Y28200802D01*
X56044987Y28130697D01*
X56009450Y28064212D01*
X55999842Y28052505D01*
X55989296Y28034238D01*
X55939092Y27978481D01*
X55895110Y27924889D01*
X55878743Y27911457D01*
X55860600Y27891307D01*
X55804723Y27850710D01*
X55755787Y27810549D01*
X55731796Y27797726D01*
X55705000Y27778257D01*
X55647360Y27752593D01*
X55596841Y27725591D01*
X55565052Y27715947D01*
X55529296Y27700028D01*
X55473421Y27688151D01*
X55424361Y27673269D01*
X55385309Y27669422D01*
X55341166Y27660040D01*
X55290041Y27660040D01*
X55245000Y27655604D01*
X55199959Y27660040D01*
X55148834Y27660040D01*
X55104691Y27669422D01*
X55065638Y27673269D01*
X55016574Y27688152D01*
X54960704Y27700028D01*
X54924949Y27715946D01*
X54893158Y27725591D01*
X54842633Y27752596D01*
X54785000Y27778257D01*
X54758205Y27797724D01*
X54734212Y27810549D01*
X54685267Y27850716D01*
X54629400Y27891307D01*
X54611259Y27911454D01*
X54594889Y27924889D01*
X54550896Y27978493D01*
X54500704Y28034238D01*
X54490159Y28052501D01*
X54480549Y28064212D01*
X54444999Y28130721D01*
X54404538Y28200802D01*
X54399883Y28215127D01*
X54395591Y28223158D01*
X54371919Y28301192D01*
X54345104Y28383721D01*
X54344160Y28392699D01*
X54343269Y28395638D01*
X54334596Y28483692D01*
X54325000Y28575000D01*
X54334597Y28666314D01*
X54343269Y28754361D01*
X54344160Y28757298D01*
X54345104Y28766279D01*
X54371923Y28848821D01*
X54395591Y28926841D01*
X54399882Y28934869D01*
X54404538Y28949198D01*
X54445006Y29019291D01*
X54480549Y29085787D01*
X54490157Y29097494D01*
X54500704Y29115762D01*
X54550905Y29171516D01*
X54594889Y29225110D01*
X54611256Y29238542D01*
X54629400Y29258693D01*
X54685278Y29299290D01*
X54734212Y29339450D01*
X54758200Y29352272D01*
X54785000Y29371743D01*
X54842645Y29397408D01*
X54893158Y29424408D01*
X54924942Y29434049D01*
X54960704Y29449972D01*
X55016585Y29461849D01*
X55065638Y29476730D01*
X55104682Y29480575D01*
X55148834Y29489960D01*
X55199969Y29489960D01*
X55245000Y29494395D01*
X55290031Y29489960D01*
G37*
G36*
X57830031Y29489960D02*
G01*
X57881166Y29489960D01*
X57925317Y29480575D01*
X57964361Y29476730D01*
X58013410Y29461850D01*
X58069296Y29449972D01*
X58105059Y29434048D01*
X58136841Y29424408D01*
X58187348Y29397411D01*
X58245000Y29371743D01*
X58271802Y29352270D01*
X58295787Y29339450D01*
X58344712Y29299297D01*
X58400600Y29258693D01*
X58418746Y29238539D01*
X58435110Y29225110D01*
X58479082Y29171529D01*
X58529296Y29115762D01*
X58539844Y29097490D01*
X58549450Y29085787D01*
X58584980Y29019314D01*
X58625462Y28949198D01*
X58630119Y28934865D01*
X58634408Y28926841D01*
X58658061Y28848868D01*
X58684896Y28766279D01*
X58685840Y28757293D01*
X58686730Y28754361D01*
X58695386Y28666465D01*
X58705000Y28575000D01*
X58695387Y28483541D01*
X58686730Y28395638D01*
X58685840Y28392704D01*
X58684896Y28383721D01*
X58658065Y28301145D01*
X58634408Y28223158D01*
X58630118Y28215132D01*
X58625462Y28200802D01*
X58584987Y28130697D01*
X58549450Y28064212D01*
X58539842Y28052505D01*
X58529296Y28034238D01*
X58479092Y27978481D01*
X58435110Y27924889D01*
X58418743Y27911457D01*
X58400600Y27891307D01*
X58344723Y27850710D01*
X58295787Y27810549D01*
X58271796Y27797726D01*
X58245000Y27778257D01*
X58187360Y27752593D01*
X58136841Y27725591D01*
X58105052Y27715947D01*
X58069296Y27700028D01*
X58013421Y27688151D01*
X57964361Y27673269D01*
X57925309Y27669422D01*
X57881166Y27660040D01*
X57830041Y27660040D01*
X57785000Y27655604D01*
X57739959Y27660040D01*
X57688834Y27660040D01*
X57644691Y27669422D01*
X57605638Y27673269D01*
X57556574Y27688152D01*
X57500704Y27700028D01*
X57464949Y27715946D01*
X57433158Y27725591D01*
X57382633Y27752596D01*
X57325000Y27778257D01*
X57298205Y27797724D01*
X57274212Y27810549D01*
X57225267Y27850716D01*
X57169400Y27891307D01*
X57151259Y27911454D01*
X57134889Y27924889D01*
X57090896Y27978493D01*
X57040704Y28034238D01*
X57030159Y28052501D01*
X57020549Y28064212D01*
X56984999Y28130721D01*
X56944538Y28200802D01*
X56939883Y28215127D01*
X56935591Y28223158D01*
X56911919Y28301192D01*
X56885104Y28383721D01*
X56884160Y28392699D01*
X56883269Y28395638D01*
X56874596Y28483692D01*
X56865000Y28575000D01*
X56874597Y28666314D01*
X56883269Y28754361D01*
X56884160Y28757298D01*
X56885104Y28766279D01*
X56911923Y28848821D01*
X56935591Y28926841D01*
X56939882Y28934869D01*
X56944538Y28949198D01*
X56985006Y29019291D01*
X57020549Y29085787D01*
X57030157Y29097494D01*
X57040704Y29115762D01*
X57090905Y29171516D01*
X57134889Y29225110D01*
X57151256Y29238542D01*
X57169400Y29258693D01*
X57225278Y29299290D01*
X57274212Y29339450D01*
X57298200Y29352272D01*
X57325000Y29371743D01*
X57382645Y29397408D01*
X57433158Y29424408D01*
X57464942Y29434049D01*
X57500704Y29449972D01*
X57556585Y29461849D01*
X57605638Y29476730D01*
X57644682Y29480575D01*
X57688834Y29489960D01*
X57739969Y29489960D01*
X57785000Y29494395D01*
X57830031Y29489960D01*
G37*
G36*
X2810058Y31946805D02*
G01*
X2842727Y31942505D01*
X2850944Y31938673D01*
X2870537Y31934776D01*
X2896485Y31917437D01*
X2907608Y31912251D01*
X2914375Y31905483D01*
X2935421Y31891421D01*
X2949483Y31870375D01*
X2956251Y31863608D01*
X2961437Y31852485D01*
X2978776Y31826537D01*
X2982673Y31806944D01*
X2986505Y31798727D01*
X2990806Y31766056D01*
X2994000Y31750000D01*
X2994000Y30226000D01*
X2990806Y30209943D01*
X2986505Y30177272D01*
X2982672Y30169053D01*
X2978776Y30149463D01*
X2961438Y30123516D01*
X2956251Y30112391D01*
X2949481Y30105621D01*
X2935421Y30084579D01*
X2914378Y30070518D01*
X2907608Y30063748D01*
X2896480Y30058559D01*
X2870537Y30041224D01*
X2850948Y30037327D01*
X2842727Y30033494D01*
X2810041Y30029190D01*
X2794000Y30026000D01*
X2785805Y30026000D01*
X1278196Y30026000D01*
X1270000Y30026000D01*
X1253958Y30029190D01*
X1221272Y30033494D01*
X1213049Y30037327D01*
X1193463Y30041224D01*
X1167521Y30058557D01*
X1156391Y30063748D01*
X1149618Y30070520D01*
X1128579Y30084579D01*
X1114520Y30105618D01*
X1107748Y30112391D01*
X1102557Y30123521D01*
X1085224Y30149463D01*
X1081327Y30169049D01*
X1077494Y30177272D01*
X1073190Y30209960D01*
X1070000Y30226000D01*
X1070000Y31750000D01*
X1073191Y31766043D01*
X1077494Y31798727D01*
X1081327Y31806948D01*
X1085224Y31826537D01*
X1102559Y31852480D01*
X1107748Y31863608D01*
X1114518Y31870378D01*
X1128579Y31891421D01*
X1149621Y31905481D01*
X1156391Y31912251D01*
X1167516Y31917438D01*
X1193463Y31934776D01*
X1213053Y31938672D01*
X1221272Y31942505D01*
X1253945Y31946806D01*
X1270000Y31950000D01*
X2794000Y31950000D01*
X2810058Y31946805D01*
G37*
G36*
X5350058Y31946805D02*
G01*
X5382727Y31942505D01*
X5390944Y31938673D01*
X5410537Y31934776D01*
X5436485Y31917437D01*
X5447608Y31912251D01*
X5454375Y31905483D01*
X5475421Y31891421D01*
X5489483Y31870375D01*
X5496251Y31863608D01*
X5501437Y31852485D01*
X5518776Y31826537D01*
X5522673Y31806944D01*
X5526505Y31798727D01*
X5530806Y31766056D01*
X5534000Y31750000D01*
X5534000Y30226000D01*
X5530806Y30209943D01*
X5526505Y30177272D01*
X5522672Y30169053D01*
X5518776Y30149463D01*
X5501438Y30123516D01*
X5496251Y30112391D01*
X5489481Y30105621D01*
X5475421Y30084579D01*
X5454378Y30070518D01*
X5447608Y30063748D01*
X5436480Y30058559D01*
X5410537Y30041224D01*
X5390948Y30037327D01*
X5382727Y30033494D01*
X5350041Y30029190D01*
X5334000Y30026000D01*
X5325805Y30026000D01*
X3818196Y30026000D01*
X3810000Y30026000D01*
X3793958Y30029190D01*
X3761272Y30033494D01*
X3753049Y30037327D01*
X3733463Y30041224D01*
X3707521Y30058557D01*
X3696391Y30063748D01*
X3689618Y30070520D01*
X3668579Y30084579D01*
X3654520Y30105618D01*
X3647748Y30112391D01*
X3642557Y30123521D01*
X3625224Y30149463D01*
X3621327Y30169049D01*
X3617494Y30177272D01*
X3613190Y30209960D01*
X3610000Y30226000D01*
X3610000Y31750000D01*
X3613191Y31766043D01*
X3617494Y31798727D01*
X3621327Y31806948D01*
X3625224Y31826537D01*
X3642559Y31852480D01*
X3647748Y31863608D01*
X3654518Y31870378D01*
X3668579Y31891421D01*
X3689621Y31905481D01*
X3696391Y31912251D01*
X3707516Y31917438D01*
X3733463Y31934776D01*
X3753053Y31938672D01*
X3761272Y31942505D01*
X3793945Y31946806D01*
X3810000Y31950000D01*
X5334000Y31950000D01*
X5350058Y31946805D01*
G37*
G36*
X7890058Y31946805D02*
G01*
X7922727Y31942505D01*
X7930944Y31938673D01*
X7950537Y31934776D01*
X7976485Y31917437D01*
X7987608Y31912251D01*
X7994375Y31905483D01*
X8015421Y31891421D01*
X8029483Y31870375D01*
X8036251Y31863608D01*
X8041437Y31852485D01*
X8058776Y31826537D01*
X8062673Y31806944D01*
X8066505Y31798727D01*
X8070806Y31766056D01*
X8074000Y31750000D01*
X8074000Y30226000D01*
X8070806Y30209943D01*
X8066505Y30177272D01*
X8062672Y30169053D01*
X8058776Y30149463D01*
X8041438Y30123516D01*
X8036251Y30112391D01*
X8029481Y30105621D01*
X8015421Y30084579D01*
X7994378Y30070518D01*
X7987608Y30063748D01*
X7976480Y30058559D01*
X7950537Y30041224D01*
X7930948Y30037327D01*
X7922727Y30033494D01*
X7890041Y30029190D01*
X7874000Y30026000D01*
X7865805Y30026000D01*
X6358196Y30026000D01*
X6350000Y30026000D01*
X6333958Y30029190D01*
X6301272Y30033494D01*
X6293049Y30037327D01*
X6273463Y30041224D01*
X6247521Y30058557D01*
X6236391Y30063748D01*
X6229618Y30070520D01*
X6208579Y30084579D01*
X6194520Y30105618D01*
X6187748Y30112391D01*
X6182557Y30123521D01*
X6165224Y30149463D01*
X6161327Y30169049D01*
X6157494Y30177272D01*
X6153190Y30209960D01*
X6150000Y30226000D01*
X6150000Y31750000D01*
X6153191Y31766043D01*
X6157494Y31798727D01*
X6161327Y31806948D01*
X6165224Y31826537D01*
X6182559Y31852480D01*
X6187748Y31863608D01*
X6194518Y31870378D01*
X6208579Y31891421D01*
X6229621Y31905481D01*
X6236391Y31912251D01*
X6247516Y31917438D01*
X6273463Y31934776D01*
X6293053Y31938672D01*
X6301272Y31942505D01*
X6333945Y31946806D01*
X6350000Y31950000D01*
X7874000Y31950000D01*
X7890058Y31946805D01*
G37*
G36*
X47133058Y33978805D02*
G01*
X47165727Y33974505D01*
X47173944Y33970673D01*
X47193537Y33966776D01*
X47219485Y33949437D01*
X47230608Y33944251D01*
X47237375Y33937483D01*
X47258421Y33923421D01*
X47272483Y33902375D01*
X47279251Y33895608D01*
X47284437Y33884485D01*
X47301776Y33858537D01*
X47305673Y33838944D01*
X47309505Y33830727D01*
X47313806Y33798056D01*
X47317000Y33782000D01*
X47317000Y32258000D01*
X47313806Y32241943D01*
X47309505Y32209272D01*
X47305672Y32201053D01*
X47301776Y32181463D01*
X47284438Y32155516D01*
X47279251Y32144391D01*
X47272481Y32137621D01*
X47258421Y32116579D01*
X47237378Y32102518D01*
X47230608Y32095748D01*
X47219480Y32090559D01*
X47193537Y32073224D01*
X47173948Y32069327D01*
X47165727Y32065494D01*
X47133041Y32061190D01*
X47117000Y32058000D01*
X47108805Y32058000D01*
X45601196Y32058000D01*
X45593000Y32058000D01*
X45576958Y32061190D01*
X45544272Y32065494D01*
X45536049Y32069327D01*
X45516463Y32073224D01*
X45490521Y32090557D01*
X45479391Y32095748D01*
X45472618Y32102520D01*
X45451579Y32116579D01*
X45437520Y32137618D01*
X45430748Y32144391D01*
X45425557Y32155521D01*
X45408224Y32181463D01*
X45404327Y32201049D01*
X45400494Y32209272D01*
X45396190Y32241960D01*
X45393000Y32258000D01*
X45393000Y33782000D01*
X45396191Y33798043D01*
X45400494Y33830727D01*
X45404327Y33838948D01*
X45408224Y33858537D01*
X45425559Y33884480D01*
X45430748Y33895608D01*
X45437518Y33902378D01*
X45451579Y33923421D01*
X45472621Y33937481D01*
X45479391Y33944251D01*
X45490516Y33949438D01*
X45516463Y33966776D01*
X45536053Y33970672D01*
X45544272Y33974505D01*
X45576945Y33978806D01*
X45593000Y33982000D01*
X47117000Y33982000D01*
X47133058Y33978805D01*
G37*
G36*
X49673058Y33978805D02*
G01*
X49705727Y33974505D01*
X49713944Y33970673D01*
X49733537Y33966776D01*
X49759485Y33949437D01*
X49770608Y33944251D01*
X49777375Y33937483D01*
X49798421Y33923421D01*
X49812483Y33902375D01*
X49819251Y33895608D01*
X49824437Y33884485D01*
X49841776Y33858537D01*
X49845673Y33838944D01*
X49849505Y33830727D01*
X49853806Y33798056D01*
X49857000Y33782000D01*
X49857000Y32258000D01*
X49853806Y32241943D01*
X49849505Y32209272D01*
X49845672Y32201053D01*
X49841776Y32181463D01*
X49824438Y32155516D01*
X49819251Y32144391D01*
X49812481Y32137621D01*
X49798421Y32116579D01*
X49777378Y32102518D01*
X49770608Y32095748D01*
X49759480Y32090559D01*
X49733537Y32073224D01*
X49713948Y32069327D01*
X49705727Y32065494D01*
X49673041Y32061190D01*
X49657000Y32058000D01*
X49648805Y32058000D01*
X48141196Y32058000D01*
X48133000Y32058000D01*
X48116958Y32061190D01*
X48084272Y32065494D01*
X48076049Y32069327D01*
X48056463Y32073224D01*
X48030521Y32090557D01*
X48019391Y32095748D01*
X48012618Y32102520D01*
X47991579Y32116579D01*
X47977520Y32137618D01*
X47970748Y32144391D01*
X47965557Y32155521D01*
X47948224Y32181463D01*
X47944327Y32201049D01*
X47940494Y32209272D01*
X47936190Y32241960D01*
X47933000Y32258000D01*
X47933000Y33782000D01*
X47936191Y33798043D01*
X47940494Y33830727D01*
X47944327Y33838948D01*
X47948224Y33858537D01*
X47965559Y33884480D01*
X47970748Y33895608D01*
X47977518Y33902378D01*
X47991579Y33923421D01*
X48012621Y33937481D01*
X48019391Y33944251D01*
X48030516Y33949438D01*
X48056463Y33966776D01*
X48076053Y33970672D01*
X48084272Y33974505D01*
X48116945Y33978806D01*
X48133000Y33982000D01*
X49657000Y33982000D01*
X49673058Y33978805D01*
G37*
G36*
X10878002Y35100048D02*
G01*
X10939740Y35100048D01*
X10994850Y35090851D01*
X11046773Y35086765D01*
X11109311Y35071750D01*
X11175954Y35060630D01*
X11223214Y35044405D01*
X11267952Y35033665D01*
X11333072Y35006691D01*
X11402458Y34982871D01*
X11441214Y34961897D01*
X11478111Y34946614D01*
X11543506Y34906539D01*
X11613075Y34868891D01*
X11643179Y34845459D01*
X11672058Y34827763D01*
X11735157Y34773870D01*
X11802058Y34721800D01*
X11823884Y34698090D01*
X11845030Y34680030D01*
X11903102Y34612036D01*
X11964254Y34545608D01*
X11978625Y34523610D01*
X11992763Y34507058D01*
X12043002Y34425074D01*
X12095237Y34345124D01*
X12103398Y34326517D01*
X12111614Y34313111D01*
X12151210Y34217516D01*
X12191435Y34125814D01*
X12194958Y34111900D01*
X12198665Y34102952D01*
X12224948Y33993470D01*
X12250224Y33893662D01*
X12250916Y33885308D01*
X12251765Y33881773D01*
X12262287Y33748080D01*
X12270000Y33655000D01*
X12262287Y33561927D01*
X12251765Y33428226D01*
X12250916Y33424689D01*
X12250224Y33416338D01*
X12224953Y33316547D01*
X12198665Y33207047D01*
X12194957Y33198096D01*
X12191435Y33184186D01*
X12151218Y33092500D01*
X12111614Y32996888D01*
X12103397Y32983479D01*
X12095237Y32964876D01*
X12043012Y32884940D01*
X11992763Y32802941D01*
X11978622Y32786385D01*
X11964254Y32764392D01*
X11903114Y32697976D01*
X11845030Y32629969D01*
X11823880Y32611905D01*
X11802058Y32588200D01*
X11735170Y32536139D01*
X11672058Y32482236D01*
X11643173Y32464535D01*
X11613075Y32441109D01*
X11543520Y32403468D01*
X11478111Y32363385D01*
X11441206Y32348098D01*
X11402458Y32327129D01*
X11333086Y32303313D01*
X11267952Y32276334D01*
X11223204Y32265591D01*
X11175954Y32249370D01*
X11109325Y32238251D01*
X11046773Y32223234D01*
X10994838Y32219146D01*
X10939740Y32209952D01*
X10878015Y32209952D01*
X10820000Y32205386D01*
X10761985Y32209952D01*
X10700260Y32209952D01*
X10645161Y32219146D01*
X10593226Y32223234D01*
X10530671Y32238251D01*
X10464046Y32249370D01*
X10416797Y32265590D01*
X10372047Y32276334D01*
X10306907Y32303315D01*
X10237542Y32327129D01*
X10198796Y32348096D01*
X10161888Y32363385D01*
X10096470Y32403472D01*
X10026925Y32441109D01*
X9996830Y32464532D01*
X9967941Y32482236D01*
X9904818Y32536148D01*
X9837942Y32588200D01*
X9816123Y32611901D01*
X9794969Y32629969D01*
X9736872Y32697991D01*
X9675746Y32764392D01*
X9661380Y32786380D01*
X9647236Y32802941D01*
X9596971Y32884964D01*
X9544763Y32964876D01*
X9536605Y32983473D01*
X9528385Y32996888D01*
X9488763Y33092541D01*
X9448565Y33184186D01*
X9445043Y33198090D01*
X9441334Y33207047D01*
X9415027Y33316623D01*
X9389776Y33416338D01*
X9389084Y33424683D01*
X9388234Y33428226D01*
X9377692Y33562167D01*
X9370000Y33655000D01*
X9377692Y33747839D01*
X9388234Y33881773D01*
X9389084Y33885314D01*
X9389776Y33893662D01*
X9415031Y33993394D01*
X9441334Y34102952D01*
X9445043Y34111906D01*
X9448565Y34125814D01*
X9488771Y34217475D01*
X9528385Y34313111D01*
X9536603Y34326522D01*
X9544763Y34345124D01*
X9596981Y34425050D01*
X9647236Y34507058D01*
X9661377Y34523615D01*
X9675746Y34545608D01*
X9736883Y34612021D01*
X9794969Y34680030D01*
X9816119Y34698094D01*
X9837942Y34721800D01*
X9904831Y34773862D01*
X9967941Y34827763D01*
X9996824Y34845462D01*
X10026925Y34868891D01*
X10096484Y34906534D01*
X10161888Y34946614D01*
X10198788Y34961898D01*
X10237542Y34982871D01*
X10306921Y35006688D01*
X10372047Y35033665D01*
X10416787Y35044406D01*
X10464046Y35060630D01*
X10530684Y35071750D01*
X10593226Y35086765D01*
X10645150Y35090851D01*
X10700260Y35100048D01*
X10761998Y35100048D01*
X10820000Y35104613D01*
X10878002Y35100048D01*
G37*
G36*
X43686058Y35001805D02*
G01*
X43718727Y34997505D01*
X43726944Y34993673D01*
X43746537Y34989776D01*
X43772485Y34972437D01*
X43783608Y34967251D01*
X43790375Y34960483D01*
X43811421Y34946421D01*
X43825483Y34925375D01*
X43832251Y34918608D01*
X43837437Y34907485D01*
X43854776Y34881537D01*
X43858673Y34861944D01*
X43862505Y34853727D01*
X43866806Y34821056D01*
X43870000Y34805000D01*
X43870000Y32505000D01*
X43866806Y32488943D01*
X43862505Y32456272D01*
X43858672Y32448053D01*
X43854776Y32428463D01*
X43837438Y32402516D01*
X43832251Y32391391D01*
X43825481Y32384621D01*
X43811421Y32363579D01*
X43790378Y32349518D01*
X43783608Y32342748D01*
X43772480Y32337559D01*
X43746537Y32320224D01*
X43726948Y32316327D01*
X43718727Y32312494D01*
X43686041Y32308190D01*
X43670000Y32305000D01*
X43661805Y32305000D01*
X41378196Y32305000D01*
X41370000Y32305000D01*
X41353958Y32308190D01*
X41321272Y32312494D01*
X41313049Y32316327D01*
X41293463Y32320224D01*
X41267521Y32337557D01*
X41256391Y32342748D01*
X41249618Y32349520D01*
X41228579Y32363579D01*
X41214520Y32384618D01*
X41207748Y32391391D01*
X41202557Y32402521D01*
X41185224Y32428463D01*
X41181327Y32448049D01*
X41177494Y32456272D01*
X41173190Y32488960D01*
X41170000Y32505000D01*
X41170000Y34805000D01*
X41173191Y34821043D01*
X41177494Y34853727D01*
X41181327Y34861948D01*
X41185224Y34881537D01*
X41202559Y34907480D01*
X41207748Y34918608D01*
X41214518Y34925378D01*
X41228579Y34946421D01*
X41249621Y34960481D01*
X41256391Y34967251D01*
X41267516Y34972438D01*
X41293463Y34989776D01*
X41313053Y34993672D01*
X41321272Y34997505D01*
X41353945Y35001806D01*
X41370000Y35005000D01*
X43670000Y35005000D01*
X43686058Y35001805D01*
G37*
G36*
X5166825Y38755124D02*
G01*
X5253237Y38755124D01*
X5345495Y38745090D01*
X5438286Y38739879D01*
X5518105Y38726317D01*
X5597667Y38717664D01*
X5694562Y38696335D01*
X5792067Y38679769D01*
X5864084Y38659021D01*
X5936043Y38643182D01*
X6036181Y38609441D01*
X6136893Y38580427D01*
X6200554Y38554057D01*
X6264374Y38532554D01*
X6366197Y38485445D01*
X6468428Y38443100D01*
X6523423Y38412704D01*
X6578822Y38387075D01*
X6680608Y38325831D01*
X6782503Y38269517D01*
X6828794Y38236671D01*
X6875694Y38208453D01*
X6975578Y38132522D01*
X7075167Y38061861D01*
X7112954Y38028092D01*
X7151514Y37998780D01*
X7247539Y37907819D01*
X7342742Y37822742D01*
X7372450Y37789498D01*
X7403055Y37760508D01*
X7493242Y37654331D01*
X7581861Y37555167D01*
X7604116Y37523801D01*
X7627352Y37496446D01*
X7709648Y37375067D01*
X7789517Y37262503D01*
X7805164Y37234191D01*
X7821784Y37209679D01*
X7894132Y37073215D01*
X7963100Y36948428D01*
X7973135Y36924199D01*
X7984075Y36903566D01*
X8044491Y36751932D01*
X8100427Y36616893D01*
X8105989Y36597584D01*
X8112315Y36581709D01*
X8158871Y36414025D01*
X8199769Y36272067D01*
X8202107Y36258302D01*
X8205007Y36247860D01*
X8235929Y36059243D01*
X8259879Y35918286D01*
X8260317Y35910485D01*
X8261058Y35905966D01*
X8274673Y35654852D01*
X8280000Y35560000D01*
X8274673Y35465154D01*
X8261058Y35214033D01*
X8260316Y35209513D01*
X8259879Y35201714D01*
X8235934Y35060784D01*
X8205007Y34872139D01*
X8202107Y34861695D01*
X8199769Y34847933D01*
X8158879Y34706001D01*
X8112315Y34538290D01*
X8105988Y34522412D01*
X8100427Y34503107D01*
X8044501Y34368092D01*
X7984075Y34216433D01*
X7973134Y34195796D01*
X7963100Y34171572D01*
X7894145Y34046808D01*
X7821784Y33910320D01*
X7805161Y33885803D01*
X7789517Y33857497D01*
X7709663Y33744954D01*
X7627352Y33623553D01*
X7604111Y33596192D01*
X7581861Y33564833D01*
X7493259Y33465687D01*
X7403055Y33359491D01*
X7372444Y33330495D01*
X7342742Y33297258D01*
X7247558Y33212196D01*
X7151514Y33121219D01*
X7112946Y33091900D01*
X7075167Y33058139D01*
X6975598Y32987491D01*
X6875694Y32911546D01*
X6828784Y32883321D01*
X6782503Y32850483D01*
X6680629Y32794179D01*
X6578822Y32732924D01*
X6523412Y32707288D01*
X6468428Y32676900D01*
X6366218Y32634563D01*
X6264374Y32587445D01*
X6200542Y32565937D01*
X6136893Y32539573D01*
X6036201Y32510564D01*
X5936043Y32476817D01*
X5864070Y32460974D01*
X5792067Y32440231D01*
X5694582Y32423667D01*
X5597667Y32402335D01*
X5518093Y32393680D01*
X5438286Y32380121D01*
X5345500Y32374910D01*
X5253237Y32364876D01*
X5166825Y32364876D01*
X5080000Y32360000D01*
X4993175Y32364876D01*
X4906763Y32364876D01*
X4814498Y32374910D01*
X4721714Y32380121D01*
X4641908Y32393680D01*
X4562332Y32402335D01*
X4465413Y32423668D01*
X4367933Y32440231D01*
X4295933Y32460973D01*
X4223956Y32476817D01*
X4123791Y32510566D01*
X4023107Y32539573D01*
X3959462Y32565935D01*
X3895625Y32587445D01*
X3793772Y32634567D01*
X3691572Y32676900D01*
X3636592Y32707286D01*
X3581177Y32732924D01*
X3479358Y32794186D01*
X3377497Y32850483D01*
X3331220Y32883317D01*
X3284305Y32911546D01*
X3184386Y32987501D01*
X3084833Y33058139D01*
X3047059Y33091895D01*
X3008485Y33121219D01*
X2912424Y33212212D01*
X2817258Y33297258D01*
X2787560Y33330489D01*
X2756944Y33359491D01*
X2666720Y33465710D01*
X2578139Y33564833D01*
X2555893Y33596185D01*
X2532647Y33623553D01*
X2450313Y33744985D01*
X2370483Y33857497D01*
X2354843Y33885795D01*
X2338215Y33910320D01*
X2265829Y34046852D01*
X2196900Y34171572D01*
X2186869Y34195787D01*
X2175924Y34216433D01*
X2115471Y34368156D01*
X2059573Y34503107D01*
X2054013Y34522403D01*
X2047684Y34538290D01*
X2001092Y34706096D01*
X1960231Y34847933D01*
X1957894Y34861685D01*
X1954992Y34872139D01*
X1924037Y35060952D01*
X1900121Y35201714D01*
X1899683Y35209503D01*
X1898941Y35214033D01*
X1885297Y35465670D01*
X1880000Y35560000D01*
X1885297Y35654337D01*
X1898941Y35905966D01*
X1899683Y35910494D01*
X1900121Y35918286D01*
X1924042Y36059075D01*
X1954992Y36247860D01*
X1957893Y36258311D01*
X1960231Y36272067D01*
X2001100Y36413929D01*
X2047684Y36581709D01*
X2054012Y36597593D01*
X2059573Y36616893D01*
X2115482Y36751869D01*
X2175924Y36903566D01*
X2186867Y36924207D01*
X2196900Y36948428D01*
X2265842Y37073170D01*
X2338215Y37209679D01*
X2354840Y37234199D01*
X2370483Y37262503D01*
X2450329Y37375035D01*
X2532647Y37496446D01*
X2555888Y37523808D01*
X2578139Y37555167D01*
X2666737Y37654308D01*
X2756944Y37760508D01*
X2787555Y37789504D01*
X2817258Y37822742D01*
X2912442Y37907804D01*
X3008485Y37998780D01*
X3047051Y38028097D01*
X3084833Y38061861D01*
X3184406Y38132512D01*
X3284305Y38208453D01*
X3331211Y38236675D01*
X3377497Y38269517D01*
X3479378Y38325825D01*
X3581177Y38387075D01*
X3636581Y38412707D01*
X3691572Y38443100D01*
X3793792Y38485441D01*
X3895625Y38532554D01*
X3959449Y38554059D01*
X4023107Y38580427D01*
X4123811Y38609439D01*
X4223956Y38643182D01*
X4295918Y38659022D01*
X4367933Y38679769D01*
X4465432Y38696334D01*
X4562332Y38717664D01*
X4641895Y38726317D01*
X4721714Y38739879D01*
X4814504Y38745090D01*
X4906763Y38755124D01*
X4993175Y38755124D01*
X5080000Y38760000D01*
X5166825Y38755124D01*
G37*
G36*
X55966825Y38755124D02*
G01*
X56053237Y38755124D01*
X56145495Y38745090D01*
X56238286Y38739879D01*
X56318105Y38726317D01*
X56397667Y38717664D01*
X56494562Y38696335D01*
X56592067Y38679769D01*
X56664084Y38659021D01*
X56736043Y38643182D01*
X56836181Y38609441D01*
X56936893Y38580427D01*
X57000554Y38554057D01*
X57064374Y38532554D01*
X57166197Y38485445D01*
X57268428Y38443100D01*
X57323423Y38412704D01*
X57378822Y38387075D01*
X57480608Y38325831D01*
X57582503Y38269517D01*
X57628794Y38236671D01*
X57675694Y38208453D01*
X57775578Y38132522D01*
X57875167Y38061861D01*
X57912954Y38028092D01*
X57951514Y37998780D01*
X58047539Y37907819D01*
X58142742Y37822742D01*
X58172450Y37789498D01*
X58203055Y37760508D01*
X58293242Y37654331D01*
X58381861Y37555167D01*
X58404116Y37523801D01*
X58427352Y37496446D01*
X58509648Y37375067D01*
X58589517Y37262503D01*
X58605164Y37234191D01*
X58621784Y37209679D01*
X58694132Y37073215D01*
X58763100Y36948428D01*
X58773135Y36924199D01*
X58784075Y36903566D01*
X58844491Y36751932D01*
X58900427Y36616893D01*
X58905989Y36597584D01*
X58912315Y36581709D01*
X58958871Y36414025D01*
X58999769Y36272067D01*
X59002107Y36258302D01*
X59005007Y36247860D01*
X59035929Y36059243D01*
X59059879Y35918286D01*
X59060317Y35910485D01*
X59061058Y35905966D01*
X59074673Y35654852D01*
X59080000Y35560000D01*
X59074673Y35465154D01*
X59061058Y35214033D01*
X59060316Y35209513D01*
X59059879Y35201714D01*
X59035934Y35060784D01*
X59005007Y34872139D01*
X59002107Y34861695D01*
X58999769Y34847933D01*
X58958879Y34706001D01*
X58912315Y34538290D01*
X58905988Y34522412D01*
X58900427Y34503107D01*
X58844501Y34368092D01*
X58784075Y34216433D01*
X58773134Y34195796D01*
X58763100Y34171572D01*
X58694145Y34046808D01*
X58621784Y33910320D01*
X58605161Y33885803D01*
X58589517Y33857497D01*
X58509663Y33744954D01*
X58427352Y33623553D01*
X58404111Y33596192D01*
X58381861Y33564833D01*
X58293259Y33465687D01*
X58203055Y33359491D01*
X58172444Y33330495D01*
X58142742Y33297258D01*
X58047558Y33212196D01*
X57951514Y33121219D01*
X57912946Y33091900D01*
X57875167Y33058139D01*
X57775598Y32987491D01*
X57675694Y32911546D01*
X57628784Y32883321D01*
X57582503Y32850483D01*
X57480629Y32794179D01*
X57378822Y32732924D01*
X57323412Y32707288D01*
X57268428Y32676900D01*
X57166218Y32634563D01*
X57064374Y32587445D01*
X57000542Y32565937D01*
X56936893Y32539573D01*
X56836201Y32510564D01*
X56736043Y32476817D01*
X56664070Y32460974D01*
X56592067Y32440231D01*
X56494582Y32423667D01*
X56397667Y32402335D01*
X56318093Y32393680D01*
X56238286Y32380121D01*
X56145500Y32374910D01*
X56053237Y32364876D01*
X55966825Y32364876D01*
X55880000Y32360000D01*
X55793175Y32364876D01*
X55706763Y32364876D01*
X55614498Y32374910D01*
X55521714Y32380121D01*
X55441908Y32393680D01*
X55362332Y32402335D01*
X55265413Y32423668D01*
X55167933Y32440231D01*
X55095933Y32460973D01*
X55023956Y32476817D01*
X54923791Y32510566D01*
X54823107Y32539573D01*
X54759462Y32565935D01*
X54695625Y32587445D01*
X54593772Y32634567D01*
X54491572Y32676900D01*
X54436592Y32707286D01*
X54381177Y32732924D01*
X54279358Y32794186D01*
X54177497Y32850483D01*
X54131220Y32883317D01*
X54084305Y32911546D01*
X53984386Y32987501D01*
X53884833Y33058139D01*
X53847059Y33091895D01*
X53808485Y33121219D01*
X53712424Y33212212D01*
X53617258Y33297258D01*
X53587560Y33330489D01*
X53556944Y33359491D01*
X53466720Y33465710D01*
X53378139Y33564833D01*
X53355893Y33596185D01*
X53332647Y33623553D01*
X53250313Y33744985D01*
X53170483Y33857497D01*
X53154843Y33885795D01*
X53138215Y33910320D01*
X53065829Y34046852D01*
X52996900Y34171572D01*
X52986869Y34195787D01*
X52975924Y34216433D01*
X52915471Y34368156D01*
X52859573Y34503107D01*
X52854013Y34522403D01*
X52847684Y34538290D01*
X52801092Y34706096D01*
X52760231Y34847933D01*
X52757894Y34861685D01*
X52754992Y34872139D01*
X52724037Y35060952D01*
X52700121Y35201714D01*
X52699683Y35209503D01*
X52698941Y35214033D01*
X52685297Y35465670D01*
X52680000Y35560000D01*
X52685297Y35654337D01*
X52698941Y35905966D01*
X52699683Y35910494D01*
X52700121Y35918286D01*
X52724042Y36059075D01*
X52754992Y36247860D01*
X52757893Y36258311D01*
X52760231Y36272067D01*
X52801100Y36413929D01*
X52847684Y36581709D01*
X52854012Y36597593D01*
X52859573Y36616893D01*
X52915482Y36751869D01*
X52975924Y36903566D01*
X52986867Y36924207D01*
X52996900Y36948428D01*
X53065842Y37073170D01*
X53138215Y37209679D01*
X53154840Y37234199D01*
X53170483Y37262503D01*
X53250329Y37375035D01*
X53332647Y37496446D01*
X53355888Y37523808D01*
X53378139Y37555167D01*
X53466737Y37654308D01*
X53556944Y37760508D01*
X53587555Y37789504D01*
X53617258Y37822742D01*
X53712442Y37907804D01*
X53808485Y37998780D01*
X53847051Y38028097D01*
X53884833Y38061861D01*
X53984406Y38132512D01*
X54084305Y38208453D01*
X54131211Y38236675D01*
X54177497Y38269517D01*
X54279378Y38325825D01*
X54381177Y38387075D01*
X54436581Y38412707D01*
X54491572Y38443100D01*
X54593792Y38485441D01*
X54695625Y38532554D01*
X54759449Y38554059D01*
X54823107Y38580427D01*
X54923811Y38609439D01*
X55023956Y38643182D01*
X55095918Y38659022D01*
X55167933Y38679769D01*
X55265432Y38696334D01*
X55362332Y38717664D01*
X55441895Y38726317D01*
X55521714Y38739879D01*
X55614504Y38745090D01*
X55706763Y38755124D01*
X55793175Y38755124D01*
X55880000Y38760000D01*
X55966825Y38755124D01*
G37*
G36*
X47133058Y36518805D02*
G01*
X47165727Y36514505D01*
X47173944Y36510673D01*
X47193537Y36506776D01*
X47219485Y36489437D01*
X47230608Y36484251D01*
X47237375Y36477483D01*
X47258421Y36463421D01*
X47272483Y36442375D01*
X47279251Y36435608D01*
X47284437Y36424485D01*
X47301776Y36398537D01*
X47305673Y36378944D01*
X47309505Y36370727D01*
X47313806Y36338056D01*
X47317000Y36322000D01*
X47317000Y34798000D01*
X47313806Y34781943D01*
X47309505Y34749272D01*
X47305672Y34741053D01*
X47301776Y34721463D01*
X47284438Y34695516D01*
X47279251Y34684391D01*
X47272481Y34677621D01*
X47258421Y34656579D01*
X47237378Y34642518D01*
X47230608Y34635748D01*
X47219480Y34630559D01*
X47193537Y34613224D01*
X47173948Y34609327D01*
X47165727Y34605494D01*
X47133041Y34601190D01*
X47117000Y34598000D01*
X47108805Y34598000D01*
X45601196Y34598000D01*
X45593000Y34598000D01*
X45576958Y34601190D01*
X45544272Y34605494D01*
X45536049Y34609327D01*
X45516463Y34613224D01*
X45490521Y34630557D01*
X45479391Y34635748D01*
X45472618Y34642520D01*
X45451579Y34656579D01*
X45437520Y34677618D01*
X45430748Y34684391D01*
X45425557Y34695521D01*
X45408224Y34721463D01*
X45404327Y34741049D01*
X45400494Y34749272D01*
X45396190Y34781960D01*
X45393000Y34798000D01*
X45393000Y36322000D01*
X45396191Y36338043D01*
X45400494Y36370727D01*
X45404327Y36378948D01*
X45408224Y36398537D01*
X45425559Y36424480D01*
X45430748Y36435608D01*
X45437518Y36442378D01*
X45451579Y36463421D01*
X45472621Y36477481D01*
X45479391Y36484251D01*
X45490516Y36489438D01*
X45516463Y36506776D01*
X45536053Y36510672D01*
X45544272Y36514505D01*
X45576945Y36518806D01*
X45593000Y36522000D01*
X47117000Y36522000D01*
X47133058Y36518805D01*
G37*
G36*
X49673058Y36518805D02*
G01*
X49705727Y36514505D01*
X49713944Y36510673D01*
X49733537Y36506776D01*
X49759485Y36489437D01*
X49770608Y36484251D01*
X49777375Y36477483D01*
X49798421Y36463421D01*
X49812483Y36442375D01*
X49819251Y36435608D01*
X49824437Y36424485D01*
X49841776Y36398537D01*
X49845673Y36378944D01*
X49849505Y36370727D01*
X49853806Y36338056D01*
X49857000Y36322000D01*
X49857000Y34798000D01*
X49853806Y34781943D01*
X49849505Y34749272D01*
X49845672Y34741053D01*
X49841776Y34721463D01*
X49824438Y34695516D01*
X49819251Y34684391D01*
X49812481Y34677621D01*
X49798421Y34656579D01*
X49777378Y34642518D01*
X49770608Y34635748D01*
X49759480Y34630559D01*
X49733537Y34613224D01*
X49713948Y34609327D01*
X49705727Y34605494D01*
X49673041Y34601190D01*
X49657000Y34598000D01*
X49648805Y34598000D01*
X48141196Y34598000D01*
X48133000Y34598000D01*
X48116958Y34601190D01*
X48084272Y34605494D01*
X48076049Y34609327D01*
X48056463Y34613224D01*
X48030521Y34630557D01*
X48019391Y34635748D01*
X48012618Y34642520D01*
X47991579Y34656579D01*
X47977520Y34677618D01*
X47970748Y34684391D01*
X47965557Y34695521D01*
X47948224Y34721463D01*
X47944327Y34741049D01*
X47940494Y34749272D01*
X47936190Y34781960D01*
X47933000Y34798000D01*
X47933000Y36322000D01*
X47936191Y36338043D01*
X47940494Y36370727D01*
X47944327Y36378948D01*
X47948224Y36398537D01*
X47965559Y36424480D01*
X47970748Y36435608D01*
X47977518Y36442378D01*
X47991579Y36463421D01*
X48012621Y36477481D01*
X48019391Y36484251D01*
X48030516Y36489438D01*
X48056463Y36506776D01*
X48076053Y36510672D01*
X48084272Y36514505D01*
X48116945Y36518806D01*
X48133000Y36522000D01*
X49657000Y36522000D01*
X49673058Y36518805D01*
G37*
G36*
X47133058Y39058805D02*
G01*
X47165727Y39054505D01*
X47173944Y39050673D01*
X47193537Y39046776D01*
X47219485Y39029437D01*
X47230608Y39024251D01*
X47237375Y39017483D01*
X47258421Y39003421D01*
X47272483Y38982375D01*
X47279251Y38975608D01*
X47284437Y38964485D01*
X47301776Y38938537D01*
X47305673Y38918944D01*
X47309505Y38910727D01*
X47313806Y38878056D01*
X47317000Y38862000D01*
X47317000Y37338000D01*
X47313806Y37321943D01*
X47309505Y37289272D01*
X47305672Y37281053D01*
X47301776Y37261463D01*
X47284438Y37235516D01*
X47279251Y37224391D01*
X47272481Y37217621D01*
X47258421Y37196579D01*
X47237378Y37182518D01*
X47230608Y37175748D01*
X47219480Y37170559D01*
X47193537Y37153224D01*
X47173948Y37149327D01*
X47165727Y37145494D01*
X47133041Y37141190D01*
X47117000Y37138000D01*
X47108805Y37138000D01*
X45601196Y37138000D01*
X45593000Y37138000D01*
X45576958Y37141190D01*
X45544272Y37145494D01*
X45536049Y37149327D01*
X45516463Y37153224D01*
X45490521Y37170557D01*
X45479391Y37175748D01*
X45472618Y37182520D01*
X45451579Y37196579D01*
X45437520Y37217618D01*
X45430748Y37224391D01*
X45425557Y37235521D01*
X45408224Y37261463D01*
X45404327Y37281049D01*
X45400494Y37289272D01*
X45396190Y37321960D01*
X45393000Y37338000D01*
X45393000Y38862000D01*
X45396191Y38878043D01*
X45400494Y38910727D01*
X45404327Y38918948D01*
X45408224Y38938537D01*
X45425559Y38964480D01*
X45430748Y38975608D01*
X45437518Y38982378D01*
X45451579Y39003421D01*
X45472621Y39017481D01*
X45479391Y39024251D01*
X45490516Y39029438D01*
X45516463Y39046776D01*
X45536053Y39050672D01*
X45544272Y39054505D01*
X45576945Y39058806D01*
X45593000Y39062000D01*
X47117000Y39062000D01*
X47133058Y39058805D01*
G37*
G36*
X49673058Y39058805D02*
G01*
X49705727Y39054505D01*
X49713944Y39050673D01*
X49733537Y39046776D01*
X49759485Y39029437D01*
X49770608Y39024251D01*
X49777375Y39017483D01*
X49798421Y39003421D01*
X49812483Y38982375D01*
X49819251Y38975608D01*
X49824437Y38964485D01*
X49841776Y38938537D01*
X49845673Y38918944D01*
X49849505Y38910727D01*
X49853806Y38878056D01*
X49857000Y38862000D01*
X49857000Y37338000D01*
X49853806Y37321943D01*
X49849505Y37289272D01*
X49845672Y37281053D01*
X49841776Y37261463D01*
X49824438Y37235516D01*
X49819251Y37224391D01*
X49812481Y37217621D01*
X49798421Y37196579D01*
X49777378Y37182518D01*
X49770608Y37175748D01*
X49759480Y37170559D01*
X49733537Y37153224D01*
X49713948Y37149327D01*
X49705727Y37145494D01*
X49673041Y37141190D01*
X49657000Y37138000D01*
X49648805Y37138000D01*
X48141196Y37138000D01*
X48133000Y37138000D01*
X48116958Y37141190D01*
X48084272Y37145494D01*
X48076049Y37149327D01*
X48056463Y37153224D01*
X48030521Y37170557D01*
X48019391Y37175748D01*
X48012618Y37182520D01*
X47991579Y37196579D01*
X47977520Y37217618D01*
X47970748Y37224391D01*
X47965557Y37235521D01*
X47948224Y37261463D01*
X47944327Y37281049D01*
X47940494Y37289272D01*
X47936190Y37321960D01*
X47933000Y37338000D01*
X47933000Y38862000D01*
X47936191Y38878043D01*
X47940494Y38910727D01*
X47944327Y38918948D01*
X47948224Y38938537D01*
X47965559Y38964480D01*
X47970748Y38975608D01*
X47977518Y38982378D01*
X47991579Y39003421D01*
X48012621Y39017481D01*
X48019391Y39024251D01*
X48030516Y39029438D01*
X48056463Y39046776D01*
X48076053Y39050672D01*
X48084272Y39054505D01*
X48116945Y39058806D01*
X48133000Y39062000D01*
X49657000Y39062000D01*
X49673058Y39058805D01*
G37*
M02*
