%TF.GenerationSoftware,KiCad,Pcbnew,7.0.11+1*%
%TF.CreationDate,2024-07-04T22:03:27+00:00*%
%TF.ProjectId,SIPMPOWER01,5349504d-504f-4574-9552-30312e6b6963,rev?*%
%TF.SameCoordinates,Original*%
%TF.FileFunction,Legend,Top*%
%TF.FilePolarity,Positive*%
%FSLAX46Y46*%
G04 Gerber Fmt 4.6, Leading zero omitted, Abs format (unit mm)*
G04 Created by KiCad (PCBNEW 7.0.11+1) date 2024-07-04 22:03:27*
%MOMM*%
%LPD*%
G01*
G04 APERTURE LIST*
%ADD10C,0.300000*%
%ADD11C,0.150000*%
%ADD12C,0.120000*%
%ADD13R,1.524000X1.524000*%
G04 APERTURE END LIST*
D10*
X8224286Y18443100D02*
X8438572Y18371671D01*
X8438572Y18371671D02*
X8795714Y18371671D01*
X8795714Y18371671D02*
X8938572Y18443100D01*
X8938572Y18443100D02*
X9010000Y18514528D01*
X9010000Y18514528D02*
X9081429Y18657385D01*
X9081429Y18657385D02*
X9081429Y18800242D01*
X9081429Y18800242D02*
X9010000Y18943100D01*
X9010000Y18943100D02*
X8938572Y19014528D01*
X8938572Y19014528D02*
X8795714Y19085957D01*
X8795714Y19085957D02*
X8510000Y19157385D01*
X8510000Y19157385D02*
X8367143Y19228814D01*
X8367143Y19228814D02*
X8295714Y19300242D01*
X8295714Y19300242D02*
X8224286Y19443100D01*
X8224286Y19443100D02*
X8224286Y19585957D01*
X8224286Y19585957D02*
X8295714Y19728814D01*
X8295714Y19728814D02*
X8367143Y19800242D01*
X8367143Y19800242D02*
X8510000Y19871671D01*
X8510000Y19871671D02*
X8867143Y19871671D01*
X8867143Y19871671D02*
X9081429Y19800242D01*
X9724285Y18371671D02*
X9724285Y19871671D01*
X10438571Y18371671D02*
X10438571Y19871671D01*
X10438571Y19871671D02*
X11010000Y19871671D01*
X11010000Y19871671D02*
X11152857Y19800242D01*
X11152857Y19800242D02*
X11224286Y19728814D01*
X11224286Y19728814D02*
X11295714Y19585957D01*
X11295714Y19585957D02*
X11295714Y19371671D01*
X11295714Y19371671D02*
X11224286Y19228814D01*
X11224286Y19228814D02*
X11152857Y19157385D01*
X11152857Y19157385D02*
X11010000Y19085957D01*
X11010000Y19085957D02*
X10438571Y19085957D01*
X11938571Y18371671D02*
X11938571Y19871671D01*
X11938571Y19871671D02*
X12438571Y18800242D01*
X12438571Y18800242D02*
X12938571Y19871671D01*
X12938571Y19871671D02*
X12938571Y18371671D01*
X13652857Y18371671D02*
X13652857Y19871671D01*
X13652857Y19871671D02*
X14224286Y19871671D01*
X14224286Y19871671D02*
X14367143Y19800242D01*
X14367143Y19800242D02*
X14438572Y19728814D01*
X14438572Y19728814D02*
X14510000Y19585957D01*
X14510000Y19585957D02*
X14510000Y19371671D01*
X14510000Y19371671D02*
X14438572Y19228814D01*
X14438572Y19228814D02*
X14367143Y19157385D01*
X14367143Y19157385D02*
X14224286Y19085957D01*
X14224286Y19085957D02*
X13652857Y19085957D01*
X15438572Y19871671D02*
X15724286Y19871671D01*
X15724286Y19871671D02*
X15867143Y19800242D01*
X15867143Y19800242D02*
X16010000Y19657385D01*
X16010000Y19657385D02*
X16081429Y19371671D01*
X16081429Y19371671D02*
X16081429Y18871671D01*
X16081429Y18871671D02*
X16010000Y18585957D01*
X16010000Y18585957D02*
X15867143Y18443100D01*
X15867143Y18443100D02*
X15724286Y18371671D01*
X15724286Y18371671D02*
X15438572Y18371671D01*
X15438572Y18371671D02*
X15295715Y18443100D01*
X15295715Y18443100D02*
X15152857Y18585957D01*
X15152857Y18585957D02*
X15081429Y18871671D01*
X15081429Y18871671D02*
X15081429Y19371671D01*
X15081429Y19371671D02*
X15152857Y19657385D01*
X15152857Y19657385D02*
X15295715Y19800242D01*
X15295715Y19800242D02*
X15438572Y19871671D01*
X16581429Y19871671D02*
X16938572Y18371671D01*
X16938572Y18371671D02*
X17224286Y19443100D01*
X17224286Y19443100D02*
X17510001Y18371671D01*
X17510001Y18371671D02*
X17867144Y19871671D01*
X18438572Y19157385D02*
X18938572Y19157385D01*
X19152858Y18371671D02*
X18438572Y18371671D01*
X18438572Y18371671D02*
X18438572Y19871671D01*
X18438572Y19871671D02*
X19152858Y19871671D01*
X20652858Y18371671D02*
X20152858Y19085957D01*
X19795715Y18371671D02*
X19795715Y19871671D01*
X19795715Y19871671D02*
X20367144Y19871671D01*
X20367144Y19871671D02*
X20510001Y19800242D01*
X20510001Y19800242D02*
X20581430Y19728814D01*
X20581430Y19728814D02*
X20652858Y19585957D01*
X20652858Y19585957D02*
X20652858Y19371671D01*
X20652858Y19371671D02*
X20581430Y19228814D01*
X20581430Y19228814D02*
X20510001Y19157385D01*
X20510001Y19157385D02*
X20367144Y19085957D01*
X20367144Y19085957D02*
X19795715Y19085957D01*
X21581430Y19871671D02*
X21724287Y19871671D01*
X21724287Y19871671D02*
X21867144Y19800242D01*
X21867144Y19800242D02*
X21938573Y19728814D01*
X21938573Y19728814D02*
X22010001Y19585957D01*
X22010001Y19585957D02*
X22081430Y19300242D01*
X22081430Y19300242D02*
X22081430Y18943100D01*
X22081430Y18943100D02*
X22010001Y18657385D01*
X22010001Y18657385D02*
X21938573Y18514528D01*
X21938573Y18514528D02*
X21867144Y18443100D01*
X21867144Y18443100D02*
X21724287Y18371671D01*
X21724287Y18371671D02*
X21581430Y18371671D01*
X21581430Y18371671D02*
X21438573Y18443100D01*
X21438573Y18443100D02*
X21367144Y18514528D01*
X21367144Y18514528D02*
X21295715Y18657385D01*
X21295715Y18657385D02*
X21224287Y18943100D01*
X21224287Y18943100D02*
X21224287Y19300242D01*
X21224287Y19300242D02*
X21295715Y19585957D01*
X21295715Y19585957D02*
X21367144Y19728814D01*
X21367144Y19728814D02*
X21438573Y19800242D01*
X21438573Y19800242D02*
X21581430Y19871671D01*
X23510001Y18371671D02*
X22652858Y18371671D01*
X23081429Y18371671D02*
X23081429Y19871671D01*
X23081429Y19871671D02*
X22938572Y19657385D01*
X22938572Y19657385D02*
X22795715Y19514528D01*
X22795715Y19514528D02*
X22652858Y19443100D01*
X24081429Y18800242D02*
X24795715Y18800242D01*
X23938572Y18371671D02*
X24438572Y19871671D01*
X24438572Y19871671D02*
X24938572Y18371671D01*
X1695000Y12886671D02*
X1695000Y11815242D01*
X1695000Y11815242D02*
X1623571Y11600957D01*
X1623571Y11600957D02*
X1480714Y11458100D01*
X1480714Y11458100D02*
X1266428Y11386671D01*
X1266428Y11386671D02*
X1123571Y11386671D01*
X2337857Y11815242D02*
X3052143Y11815242D01*
X2195000Y11386671D02*
X2695000Y12886671D01*
X2695000Y12886671D02*
X3195000Y11386671D01*
X4552142Y11529528D02*
X4480714Y11458100D01*
X4480714Y11458100D02*
X4266428Y11386671D01*
X4266428Y11386671D02*
X4123571Y11386671D01*
X4123571Y11386671D02*
X3909285Y11458100D01*
X3909285Y11458100D02*
X3766428Y11600957D01*
X3766428Y11600957D02*
X3694999Y11743814D01*
X3694999Y11743814D02*
X3623571Y12029528D01*
X3623571Y12029528D02*
X3623571Y12243814D01*
X3623571Y12243814D02*
X3694999Y12529528D01*
X3694999Y12529528D02*
X3766428Y12672385D01*
X3766428Y12672385D02*
X3909285Y12815242D01*
X3909285Y12815242D02*
X4123571Y12886671D01*
X4123571Y12886671D02*
X4266428Y12886671D01*
X4266428Y12886671D02*
X4480714Y12815242D01*
X4480714Y12815242D02*
X4552142Y12743814D01*
X5194999Y11386671D02*
X5194999Y12886671D01*
X5194999Y12172385D02*
X6052142Y12172385D01*
X6052142Y11386671D02*
X6052142Y12886671D01*
X7052143Y12886671D02*
X7337857Y12886671D01*
X7337857Y12886671D02*
X7480714Y12815242D01*
X7480714Y12815242D02*
X7623571Y12672385D01*
X7623571Y12672385D02*
X7695000Y12386671D01*
X7695000Y12386671D02*
X7695000Y11886671D01*
X7695000Y11886671D02*
X7623571Y11600957D01*
X7623571Y11600957D02*
X7480714Y11458100D01*
X7480714Y11458100D02*
X7337857Y11386671D01*
X7337857Y11386671D02*
X7052143Y11386671D01*
X7052143Y11386671D02*
X6909286Y11458100D01*
X6909286Y11458100D02*
X6766428Y11600957D01*
X6766428Y11600957D02*
X6695000Y11886671D01*
X6695000Y11886671D02*
X6695000Y12386671D01*
X6695000Y12386671D02*
X6766428Y12672385D01*
X6766428Y12672385D02*
X6909286Y12815242D01*
X6909286Y12815242D02*
X7052143Y12886671D01*
X50613328Y4364510D02*
X51827614Y4364510D01*
X51827614Y4364510D02*
X51970471Y4435939D01*
X51970471Y4435939D02*
X52041900Y4507368D01*
X52041900Y4507368D02*
X52113328Y4650225D01*
X52113328Y4650225D02*
X52113328Y4935939D01*
X52113328Y4935939D02*
X52041900Y5078796D01*
X52041900Y5078796D02*
X51970471Y5150225D01*
X51970471Y5150225D02*
X51827614Y5221653D01*
X51827614Y5221653D02*
X50613328Y5221653D01*
X50613328Y5793082D02*
X50613328Y6721654D01*
X50613328Y6721654D02*
X51184757Y6221654D01*
X51184757Y6221654D02*
X51184757Y6435939D01*
X51184757Y6435939D02*
X51256185Y6578797D01*
X51256185Y6578797D02*
X51327614Y6650225D01*
X51327614Y6650225D02*
X51470471Y6721654D01*
X51470471Y6721654D02*
X51827614Y6721654D01*
X51827614Y6721654D02*
X51970471Y6650225D01*
X51970471Y6650225D02*
X52041900Y6578797D01*
X52041900Y6578797D02*
X52113328Y6435939D01*
X52113328Y6435939D02*
X52113328Y6007368D01*
X52113328Y6007368D02*
X52041900Y5864511D01*
X52041900Y5864511D02*
X51970471Y5793082D01*
X50613328Y1189510D02*
X51827614Y1189510D01*
X51827614Y1189510D02*
X51970471Y1260939D01*
X51970471Y1260939D02*
X52041900Y1332368D01*
X52041900Y1332368D02*
X52113328Y1475225D01*
X52113328Y1475225D02*
X52113328Y1760939D01*
X52113328Y1760939D02*
X52041900Y1903796D01*
X52041900Y1903796D02*
X51970471Y1975225D01*
X51970471Y1975225D02*
X51827614Y2046653D01*
X51827614Y2046653D02*
X50613328Y2046653D01*
X51113328Y3403797D02*
X52113328Y3403797D01*
X50541900Y3046654D02*
X51613328Y2689511D01*
X51613328Y2689511D02*
X51613328Y3618082D01*
X50613328Y34844510D02*
X51827614Y34844510D01*
X51827614Y34844510D02*
X51970471Y34915939D01*
X51970471Y34915939D02*
X52041900Y34987368D01*
X52041900Y34987368D02*
X52113328Y35130225D01*
X52113328Y35130225D02*
X52113328Y35415939D01*
X52113328Y35415939D02*
X52041900Y35558796D01*
X52041900Y35558796D02*
X51970471Y35630225D01*
X51970471Y35630225D02*
X51827614Y35701653D01*
X51827614Y35701653D02*
X50613328Y35701653D01*
X52113328Y37201654D02*
X52113328Y36344511D01*
X52113328Y36773082D02*
X50613328Y36773082D01*
X50613328Y36773082D02*
X50827614Y36630225D01*
X50827614Y36630225D02*
X50970471Y36487368D01*
X50970471Y36487368D02*
X51041900Y36344511D01*
X50613328Y31669510D02*
X51827614Y31669510D01*
X51827614Y31669510D02*
X51970471Y31740939D01*
X51970471Y31740939D02*
X52041900Y31812368D01*
X52041900Y31812368D02*
X52113328Y31955225D01*
X52113328Y31955225D02*
X52113328Y32240939D01*
X52113328Y32240939D02*
X52041900Y32383796D01*
X52041900Y32383796D02*
X51970471Y32455225D01*
X51970471Y32455225D02*
X51827614Y32526653D01*
X51827614Y32526653D02*
X50613328Y32526653D01*
X50756185Y33169511D02*
X50684757Y33240939D01*
X50684757Y33240939D02*
X50613328Y33383797D01*
X50613328Y33383797D02*
X50613328Y33740939D01*
X50613328Y33740939D02*
X50684757Y33883797D01*
X50684757Y33883797D02*
X50756185Y33955225D01*
X50756185Y33955225D02*
X50899042Y34026654D01*
X50899042Y34026654D02*
X51041900Y34026654D01*
X51041900Y34026654D02*
X51256185Y33955225D01*
X51256185Y33955225D02*
X52113328Y33098082D01*
X52113328Y33098082D02*
X52113328Y34026654D01*
X50719510Y37993100D02*
X51862368Y37993100D01*
X51290939Y37421671D02*
X51290939Y38564528D01*
X48073328Y27859510D02*
X49287614Y27859510D01*
X49287614Y27859510D02*
X49430471Y27930939D01*
X49430471Y27930939D02*
X49501900Y28002368D01*
X49501900Y28002368D02*
X49573328Y28145225D01*
X49573328Y28145225D02*
X49573328Y28430939D01*
X49573328Y28430939D02*
X49501900Y28573796D01*
X49501900Y28573796D02*
X49430471Y28645225D01*
X49430471Y28645225D02*
X49287614Y28716653D01*
X49287614Y28716653D02*
X48073328Y28716653D01*
X49573328Y30216654D02*
X49573328Y29359511D01*
X49573328Y29788082D02*
X48073328Y29788082D01*
X48073328Y29788082D02*
X48287614Y29645225D01*
X48287614Y29645225D02*
X48430471Y29502368D01*
X48430471Y29502368D02*
X48501900Y29359511D01*
X48073328Y22144510D02*
X49287614Y22144510D01*
X49287614Y22144510D02*
X49430471Y22215939D01*
X49430471Y22215939D02*
X49501900Y22287368D01*
X49501900Y22287368D02*
X49573328Y22430225D01*
X49573328Y22430225D02*
X49573328Y22715939D01*
X49573328Y22715939D02*
X49501900Y22858796D01*
X49501900Y22858796D02*
X49430471Y22930225D01*
X49430471Y22930225D02*
X49287614Y23001653D01*
X49287614Y23001653D02*
X48073328Y23001653D01*
X48216185Y23644511D02*
X48144757Y23715939D01*
X48144757Y23715939D02*
X48073328Y23858797D01*
X48073328Y23858797D02*
X48073328Y24215939D01*
X48073328Y24215939D02*
X48144757Y24358797D01*
X48144757Y24358797D02*
X48216185Y24430225D01*
X48216185Y24430225D02*
X48359042Y24501654D01*
X48359042Y24501654D02*
X48501900Y24501654D01*
X48501900Y24501654D02*
X48716185Y24430225D01*
X48716185Y24430225D02*
X49573328Y23573082D01*
X49573328Y23573082D02*
X49573328Y24501654D01*
X48073328Y16429510D02*
X49287614Y16429510D01*
X49287614Y16429510D02*
X49430471Y16500939D01*
X49430471Y16500939D02*
X49501900Y16572368D01*
X49501900Y16572368D02*
X49573328Y16715225D01*
X49573328Y16715225D02*
X49573328Y17000939D01*
X49573328Y17000939D02*
X49501900Y17143796D01*
X49501900Y17143796D02*
X49430471Y17215225D01*
X49430471Y17215225D02*
X49287614Y17286653D01*
X49287614Y17286653D02*
X48073328Y17286653D01*
X48073328Y17858082D02*
X48073328Y18786654D01*
X48073328Y18786654D02*
X48644757Y18286654D01*
X48644757Y18286654D02*
X48644757Y18500939D01*
X48644757Y18500939D02*
X48716185Y18643797D01*
X48716185Y18643797D02*
X48787614Y18715225D01*
X48787614Y18715225D02*
X48930471Y18786654D01*
X48930471Y18786654D02*
X49287614Y18786654D01*
X49287614Y18786654D02*
X49430471Y18715225D01*
X49430471Y18715225D02*
X49501900Y18643797D01*
X49501900Y18643797D02*
X49573328Y18500939D01*
X49573328Y18500939D02*
X49573328Y18072368D01*
X49573328Y18072368D02*
X49501900Y17929511D01*
X49501900Y17929511D02*
X49430471Y17858082D01*
X48073328Y10714510D02*
X49287614Y10714510D01*
X49287614Y10714510D02*
X49430471Y10785939D01*
X49430471Y10785939D02*
X49501900Y10857368D01*
X49501900Y10857368D02*
X49573328Y11000225D01*
X49573328Y11000225D02*
X49573328Y11285939D01*
X49573328Y11285939D02*
X49501900Y11428796D01*
X49501900Y11428796D02*
X49430471Y11500225D01*
X49430471Y11500225D02*
X49287614Y11571653D01*
X49287614Y11571653D02*
X48073328Y11571653D01*
X48573328Y12928797D02*
X49573328Y12928797D01*
X48001900Y12571654D02*
X49073328Y12214511D01*
X49073328Y12214511D02*
X49073328Y13143082D01*
X1873572Y10203814D02*
X1945000Y10275242D01*
X1945000Y10275242D02*
X2087858Y10346671D01*
X2087858Y10346671D02*
X2445000Y10346671D01*
X2445000Y10346671D02*
X2587858Y10275242D01*
X2587858Y10275242D02*
X2659286Y10203814D01*
X2659286Y10203814D02*
X2730715Y10060957D01*
X2730715Y10060957D02*
X2730715Y9918100D01*
X2730715Y9918100D02*
X2659286Y9703814D01*
X2659286Y9703814D02*
X1802143Y8846671D01*
X1802143Y8846671D02*
X2730715Y8846671D01*
X3659286Y10346671D02*
X3802143Y10346671D01*
X3802143Y10346671D02*
X3945000Y10275242D01*
X3945000Y10275242D02*
X4016429Y10203814D01*
X4016429Y10203814D02*
X4087857Y10060957D01*
X4087857Y10060957D02*
X4159286Y9775242D01*
X4159286Y9775242D02*
X4159286Y9418100D01*
X4159286Y9418100D02*
X4087857Y9132385D01*
X4087857Y9132385D02*
X4016429Y8989528D01*
X4016429Y8989528D02*
X3945000Y8918100D01*
X3945000Y8918100D02*
X3802143Y8846671D01*
X3802143Y8846671D02*
X3659286Y8846671D01*
X3659286Y8846671D02*
X3516429Y8918100D01*
X3516429Y8918100D02*
X3445000Y8989528D01*
X3445000Y8989528D02*
X3373571Y9132385D01*
X3373571Y9132385D02*
X3302143Y9418100D01*
X3302143Y9418100D02*
X3302143Y9775242D01*
X3302143Y9775242D02*
X3373571Y10060957D01*
X3373571Y10060957D02*
X3445000Y10203814D01*
X3445000Y10203814D02*
X3516429Y10275242D01*
X3516429Y10275242D02*
X3659286Y10346671D01*
X5587857Y8846671D02*
X4730714Y8846671D01*
X5159285Y8846671D02*
X5159285Y10346671D01*
X5159285Y10346671D02*
X5016428Y10132385D01*
X5016428Y10132385D02*
X4873571Y9989528D01*
X4873571Y9989528D02*
X4730714Y9918100D01*
X6444999Y9703814D02*
X6302142Y9775242D01*
X6302142Y9775242D02*
X6230713Y9846671D01*
X6230713Y9846671D02*
X6159285Y9989528D01*
X6159285Y9989528D02*
X6159285Y10060957D01*
X6159285Y10060957D02*
X6230713Y10203814D01*
X6230713Y10203814D02*
X6302142Y10275242D01*
X6302142Y10275242D02*
X6444999Y10346671D01*
X6444999Y10346671D02*
X6730713Y10346671D01*
X6730713Y10346671D02*
X6873571Y10275242D01*
X6873571Y10275242D02*
X6944999Y10203814D01*
X6944999Y10203814D02*
X7016428Y10060957D01*
X7016428Y10060957D02*
X7016428Y9989528D01*
X7016428Y9989528D02*
X6944999Y9846671D01*
X6944999Y9846671D02*
X6873571Y9775242D01*
X6873571Y9775242D02*
X6730713Y9703814D01*
X6730713Y9703814D02*
X6444999Y9703814D01*
X6444999Y9703814D02*
X6302142Y9632385D01*
X6302142Y9632385D02*
X6230713Y9560957D01*
X6230713Y9560957D02*
X6159285Y9418100D01*
X6159285Y9418100D02*
X6159285Y9132385D01*
X6159285Y9132385D02*
X6230713Y8989528D01*
X6230713Y8989528D02*
X6302142Y8918100D01*
X6302142Y8918100D02*
X6444999Y8846671D01*
X6444999Y8846671D02*
X6730713Y8846671D01*
X6730713Y8846671D02*
X6873571Y8918100D01*
X6873571Y8918100D02*
X6944999Y8989528D01*
X6944999Y8989528D02*
X7016428Y9132385D01*
X7016428Y9132385D02*
X7016428Y9418100D01*
X7016428Y9418100D02*
X6944999Y9560957D01*
X6944999Y9560957D02*
X6873571Y9632385D01*
X6873571Y9632385D02*
X6730713Y9703814D01*
X11553571Y21546671D02*
X11553571Y23046671D01*
X11553571Y23046671D02*
X12053571Y21975242D01*
X12053571Y21975242D02*
X12553571Y23046671D01*
X12553571Y23046671D02*
X12553571Y21546671D01*
X13982143Y21546671D02*
X13267857Y21546671D01*
X13267857Y21546671D02*
X13267857Y23046671D01*
X14410715Y21975242D02*
X15125001Y21975242D01*
X14267858Y21546671D02*
X14767858Y23046671D01*
X14767858Y23046671D02*
X15267858Y21546671D01*
X16267857Y22332385D02*
X16482143Y22260957D01*
X16482143Y22260957D02*
X16553572Y22189528D01*
X16553572Y22189528D02*
X16625000Y22046671D01*
X16625000Y22046671D02*
X16625000Y21832385D01*
X16625000Y21832385D02*
X16553572Y21689528D01*
X16553572Y21689528D02*
X16482143Y21618100D01*
X16482143Y21618100D02*
X16339286Y21546671D01*
X16339286Y21546671D02*
X15767857Y21546671D01*
X15767857Y21546671D02*
X15767857Y23046671D01*
X15767857Y23046671D02*
X16267857Y23046671D01*
X16267857Y23046671D02*
X16410715Y22975242D01*
X16410715Y22975242D02*
X16482143Y22903814D01*
X16482143Y22903814D02*
X16553572Y22760957D01*
X16553572Y22760957D02*
X16553572Y22618100D01*
X16553572Y22618100D02*
X16482143Y22475242D01*
X16482143Y22475242D02*
X16410715Y22403814D01*
X16410715Y22403814D02*
X16267857Y22332385D01*
X16267857Y22332385D02*
X15767857Y22332385D01*
X17267857Y21689528D02*
X17339286Y21618100D01*
X17339286Y21618100D02*
X17267857Y21546671D01*
X17267857Y21546671D02*
X17196429Y21618100D01*
X17196429Y21618100D02*
X17267857Y21689528D01*
X17267857Y21689528D02*
X17267857Y21546671D01*
X18839286Y21689528D02*
X18767858Y21618100D01*
X18767858Y21618100D02*
X18553572Y21546671D01*
X18553572Y21546671D02*
X18410715Y21546671D01*
X18410715Y21546671D02*
X18196429Y21618100D01*
X18196429Y21618100D02*
X18053572Y21760957D01*
X18053572Y21760957D02*
X17982143Y21903814D01*
X17982143Y21903814D02*
X17910715Y22189528D01*
X17910715Y22189528D02*
X17910715Y22403814D01*
X17910715Y22403814D02*
X17982143Y22689528D01*
X17982143Y22689528D02*
X18053572Y22832385D01*
X18053572Y22832385D02*
X18196429Y22975242D01*
X18196429Y22975242D02*
X18410715Y23046671D01*
X18410715Y23046671D02*
X18553572Y23046671D01*
X18553572Y23046671D02*
X18767858Y22975242D01*
X18767858Y22975242D02*
X18839286Y22903814D01*
X19339286Y23046671D02*
X20339286Y23046671D01*
X20339286Y23046671D02*
X19339286Y21546671D01*
X19339286Y21546671D02*
X20339286Y21546671D01*
X1841428Y33167100D02*
X698571Y33167100D01*
X1269999Y32595671D02*
X1269999Y33738528D01*
D11*
X26824085Y20287390D02*
X26966942Y20239771D01*
X26966942Y20239771D02*
X27014561Y20192152D01*
X27014561Y20192152D02*
X27062180Y20096914D01*
X27062180Y20096914D02*
X27062180Y19954057D01*
X27062180Y19954057D02*
X27014561Y19858819D01*
X27014561Y19858819D02*
X26966942Y19811200D01*
X26966942Y19811200D02*
X26871704Y19763580D01*
X26871704Y19763580D02*
X26490752Y19763580D01*
X26490752Y19763580D02*
X26490752Y20763580D01*
X26490752Y20763580D02*
X26824085Y20763580D01*
X26824085Y20763580D02*
X26919323Y20715961D01*
X26919323Y20715961D02*
X26966942Y20668342D01*
X26966942Y20668342D02*
X27014561Y20573104D01*
X27014561Y20573104D02*
X27014561Y20477866D01*
X27014561Y20477866D02*
X26966942Y20382628D01*
X26966942Y20382628D02*
X26919323Y20335009D01*
X26919323Y20335009D02*
X26824085Y20287390D01*
X26824085Y20287390D02*
X26490752Y20287390D01*
X27347895Y20763580D02*
X27919323Y20763580D01*
X27633609Y19763580D02*
X27633609Y20763580D01*
X28205038Y20668342D02*
X28252657Y20715961D01*
X28252657Y20715961D02*
X28347895Y20763580D01*
X28347895Y20763580D02*
X28585990Y20763580D01*
X28585990Y20763580D02*
X28681228Y20715961D01*
X28681228Y20715961D02*
X28728847Y20668342D01*
X28728847Y20668342D02*
X28776466Y20573104D01*
X28776466Y20573104D02*
X28776466Y20477866D01*
X28776466Y20477866D02*
X28728847Y20335009D01*
X28728847Y20335009D02*
X28157419Y19763580D01*
X28157419Y19763580D02*
X28776466Y19763580D01*
X33883648Y22328933D02*
X34645553Y22328933D01*
X34264600Y21947980D02*
X34264600Y22709885D01*
X45444580Y22058333D02*
X45492200Y22010714D01*
X45492200Y22010714D02*
X45539819Y21867857D01*
X45539819Y21867857D02*
X45539819Y21772619D01*
X45539819Y21772619D02*
X45492200Y21629762D01*
X45492200Y21629762D02*
X45396961Y21534524D01*
X45396961Y21534524D02*
X45301723Y21486905D01*
X45301723Y21486905D02*
X45111247Y21439286D01*
X45111247Y21439286D02*
X44968390Y21439286D01*
X44968390Y21439286D02*
X44777914Y21486905D01*
X44777914Y21486905D02*
X44682676Y21534524D01*
X44682676Y21534524D02*
X44587438Y21629762D01*
X44587438Y21629762D02*
X44539819Y21772619D01*
X44539819Y21772619D02*
X44539819Y21867857D01*
X44539819Y21867857D02*
X44587438Y22010714D01*
X44587438Y22010714D02*
X44635057Y22058333D01*
X44635057Y22439286D02*
X44587438Y22486905D01*
X44587438Y22486905D02*
X44539819Y22582143D01*
X44539819Y22582143D02*
X44539819Y22820238D01*
X44539819Y22820238D02*
X44587438Y22915476D01*
X44587438Y22915476D02*
X44635057Y22963095D01*
X44635057Y22963095D02*
X44730295Y23010714D01*
X44730295Y23010714D02*
X44825533Y23010714D01*
X44825533Y23010714D02*
X44968390Y22963095D01*
X44968390Y22963095D02*
X45539819Y22391667D01*
X45539819Y22391667D02*
X45539819Y23010714D01*
X51474761Y30025180D02*
X51141428Y30501371D01*
X50903333Y30025180D02*
X50903333Y31025180D01*
X50903333Y31025180D02*
X51284285Y31025180D01*
X51284285Y31025180D02*
X51379523Y30977561D01*
X51379523Y30977561D02*
X51427142Y30929942D01*
X51427142Y30929942D02*
X51474761Y30834704D01*
X51474761Y30834704D02*
X51474761Y30691847D01*
X51474761Y30691847D02*
X51427142Y30596609D01*
X51427142Y30596609D02*
X51379523Y30548990D01*
X51379523Y30548990D02*
X51284285Y30501371D01*
X51284285Y30501371D02*
X50903333Y30501371D01*
X51760476Y31025180D02*
X52093809Y30025180D01*
X52093809Y30025180D02*
X52427142Y31025180D01*
X53284285Y30025180D02*
X52712857Y30025180D01*
X52998571Y30025180D02*
X52998571Y31025180D01*
X52998571Y31025180D02*
X52903333Y30882323D01*
X52903333Y30882323D02*
X52808095Y30787085D01*
X52808095Y30787085D02*
X52712857Y30739466D01*
X51474761Y24310180D02*
X51141428Y24786371D01*
X50903333Y24310180D02*
X50903333Y25310180D01*
X50903333Y25310180D02*
X51284285Y25310180D01*
X51284285Y25310180D02*
X51379523Y25262561D01*
X51379523Y25262561D02*
X51427142Y25214942D01*
X51427142Y25214942D02*
X51474761Y25119704D01*
X51474761Y25119704D02*
X51474761Y24976847D01*
X51474761Y24976847D02*
X51427142Y24881609D01*
X51427142Y24881609D02*
X51379523Y24833990D01*
X51379523Y24833990D02*
X51284285Y24786371D01*
X51284285Y24786371D02*
X50903333Y24786371D01*
X51760476Y25310180D02*
X52093809Y24310180D01*
X52093809Y24310180D02*
X52427142Y25310180D01*
X52712857Y25214942D02*
X52760476Y25262561D01*
X52760476Y25262561D02*
X52855714Y25310180D01*
X52855714Y25310180D02*
X53093809Y25310180D01*
X53093809Y25310180D02*
X53189047Y25262561D01*
X53189047Y25262561D02*
X53236666Y25214942D01*
X53236666Y25214942D02*
X53284285Y25119704D01*
X53284285Y25119704D02*
X53284285Y25024466D01*
X53284285Y25024466D02*
X53236666Y24881609D01*
X53236666Y24881609D02*
X52665238Y24310180D01*
X52665238Y24310180D02*
X53284285Y24310180D01*
X51474761Y18595180D02*
X51141428Y19071371D01*
X50903333Y18595180D02*
X50903333Y19595180D01*
X50903333Y19595180D02*
X51284285Y19595180D01*
X51284285Y19595180D02*
X51379523Y19547561D01*
X51379523Y19547561D02*
X51427142Y19499942D01*
X51427142Y19499942D02*
X51474761Y19404704D01*
X51474761Y19404704D02*
X51474761Y19261847D01*
X51474761Y19261847D02*
X51427142Y19166609D01*
X51427142Y19166609D02*
X51379523Y19118990D01*
X51379523Y19118990D02*
X51284285Y19071371D01*
X51284285Y19071371D02*
X50903333Y19071371D01*
X51760476Y19595180D02*
X52093809Y18595180D01*
X52093809Y18595180D02*
X52427142Y19595180D01*
X52665238Y19595180D02*
X53284285Y19595180D01*
X53284285Y19595180D02*
X52950952Y19214228D01*
X52950952Y19214228D02*
X53093809Y19214228D01*
X53093809Y19214228D02*
X53189047Y19166609D01*
X53189047Y19166609D02*
X53236666Y19118990D01*
X53236666Y19118990D02*
X53284285Y19023752D01*
X53284285Y19023752D02*
X53284285Y18785657D01*
X53284285Y18785657D02*
X53236666Y18690419D01*
X53236666Y18690419D02*
X53189047Y18642800D01*
X53189047Y18642800D02*
X53093809Y18595180D01*
X53093809Y18595180D02*
X52808095Y18595180D01*
X52808095Y18595180D02*
X52712857Y18642800D01*
X52712857Y18642800D02*
X52665238Y18690419D01*
X51474761Y12880180D02*
X51141428Y13356371D01*
X50903333Y12880180D02*
X50903333Y13880180D01*
X50903333Y13880180D02*
X51284285Y13880180D01*
X51284285Y13880180D02*
X51379523Y13832561D01*
X51379523Y13832561D02*
X51427142Y13784942D01*
X51427142Y13784942D02*
X51474761Y13689704D01*
X51474761Y13689704D02*
X51474761Y13546847D01*
X51474761Y13546847D02*
X51427142Y13451609D01*
X51427142Y13451609D02*
X51379523Y13403990D01*
X51379523Y13403990D02*
X51284285Y13356371D01*
X51284285Y13356371D02*
X50903333Y13356371D01*
X51760476Y13880180D02*
X52093809Y12880180D01*
X52093809Y12880180D02*
X52427142Y13880180D01*
X53189047Y13546847D02*
X53189047Y12880180D01*
X52950952Y13927800D02*
X52712857Y13213514D01*
X52712857Y13213514D02*
X53331904Y13213514D01*
X35079085Y33622390D02*
X35221942Y33574771D01*
X35221942Y33574771D02*
X35269561Y33527152D01*
X35269561Y33527152D02*
X35317180Y33431914D01*
X35317180Y33431914D02*
X35317180Y33289057D01*
X35317180Y33289057D02*
X35269561Y33193819D01*
X35269561Y33193819D02*
X35221942Y33146200D01*
X35221942Y33146200D02*
X35126704Y33098580D01*
X35126704Y33098580D02*
X34745752Y33098580D01*
X34745752Y33098580D02*
X34745752Y34098580D01*
X34745752Y34098580D02*
X35079085Y34098580D01*
X35079085Y34098580D02*
X35174323Y34050961D01*
X35174323Y34050961D02*
X35221942Y34003342D01*
X35221942Y34003342D02*
X35269561Y33908104D01*
X35269561Y33908104D02*
X35269561Y33812866D01*
X35269561Y33812866D02*
X35221942Y33717628D01*
X35221942Y33717628D02*
X35174323Y33670009D01*
X35174323Y33670009D02*
X35079085Y33622390D01*
X35079085Y33622390D02*
X34745752Y33622390D01*
X35602895Y34098580D02*
X36174323Y34098580D01*
X35888609Y33098580D02*
X35888609Y34098580D01*
X36412419Y34098580D02*
X37031466Y34098580D01*
X37031466Y34098580D02*
X36698133Y33717628D01*
X36698133Y33717628D02*
X36840990Y33717628D01*
X36840990Y33717628D02*
X36936228Y33670009D01*
X36936228Y33670009D02*
X36983847Y33622390D01*
X36983847Y33622390D02*
X37031466Y33527152D01*
X37031466Y33527152D02*
X37031466Y33289057D01*
X37031466Y33289057D02*
X36983847Y33193819D01*
X36983847Y33193819D02*
X36936228Y33146200D01*
X36936228Y33146200D02*
X36840990Y33098580D01*
X36840990Y33098580D02*
X36555276Y33098580D01*
X36555276Y33098580D02*
X36460038Y33146200D01*
X36460038Y33146200D02*
X36412419Y33193819D01*
X42138648Y35663933D02*
X42900553Y35663933D01*
X42519600Y35282980D02*
X42519600Y36044885D01*
X16689485Y7155590D02*
X16832342Y7107971D01*
X16832342Y7107971D02*
X16879961Y7060352D01*
X16879961Y7060352D02*
X16927580Y6965114D01*
X16927580Y6965114D02*
X16927580Y6822257D01*
X16927580Y6822257D02*
X16879961Y6727019D01*
X16879961Y6727019D02*
X16832342Y6679400D01*
X16832342Y6679400D02*
X16737104Y6631780D01*
X16737104Y6631780D02*
X16356152Y6631780D01*
X16356152Y6631780D02*
X16356152Y7631780D01*
X16356152Y7631780D02*
X16689485Y7631780D01*
X16689485Y7631780D02*
X16784723Y7584161D01*
X16784723Y7584161D02*
X16832342Y7536542D01*
X16832342Y7536542D02*
X16879961Y7441304D01*
X16879961Y7441304D02*
X16879961Y7346066D01*
X16879961Y7346066D02*
X16832342Y7250828D01*
X16832342Y7250828D02*
X16784723Y7203209D01*
X16784723Y7203209D02*
X16689485Y7155590D01*
X16689485Y7155590D02*
X16356152Y7155590D01*
X17213295Y7631780D02*
X17784723Y7631780D01*
X17499009Y6631780D02*
X17499009Y7631780D01*
X18641866Y6631780D02*
X18070438Y6631780D01*
X18356152Y6631780D02*
X18356152Y7631780D01*
X18356152Y7631780D02*
X18260914Y7488923D01*
X18260914Y7488923D02*
X18165676Y7393685D01*
X18165676Y7393685D02*
X18070438Y7346066D01*
X10439448Y4828333D02*
X11201353Y4828333D01*
X10820400Y4447380D02*
X10820400Y5209285D01*
%TO.C,J7*%
X762000Y32258000D02*
X3302000Y32258000D01*
X762000Y27178000D02*
X762000Y32258000D01*
X3302000Y32258000D02*
X3302000Y27178000D01*
X3302000Y27178000D02*
X762000Y27178000D01*
%TO.C,J8*%
X3302000Y32258000D02*
X5842000Y32258000D01*
X3302000Y27178000D02*
X3302000Y32258000D01*
X5842000Y32258000D02*
X5842000Y27178000D01*
X5842000Y27178000D02*
X3302000Y27178000D01*
%TO.C,J9*%
X5842000Y32258000D02*
X8382000Y32258000D01*
X5842000Y27178000D02*
X5842000Y32258000D01*
X8382000Y32258000D02*
X8382000Y27178000D01*
X8382000Y27178000D02*
X5842000Y27178000D01*
D12*
%TO.C,BT2*%
X36391600Y14294600D02*
X33391600Y14294600D01*
X36391600Y18294600D02*
X35391600Y18294600D01*
X36391600Y26294600D02*
X33391600Y26294600D01*
X36315000Y13770000D02*
X36315000Y26870000D01*
X35391600Y22294600D02*
X36391600Y22294600D01*
X31391600Y16294600D02*
X21391600Y16294600D01*
X31391600Y24294600D02*
X21391600Y24294600D01*
X7167800Y19269200D02*
X7167800Y21269200D01*
X6167800Y16269200D02*
X16167800Y16269200D01*
X6167800Y18269200D02*
X6167800Y22269200D01*
X6167800Y24269200D02*
X16167800Y24269200D01*
X5167800Y23269200D02*
X5167800Y17269200D01*
X4167800Y16269200D02*
X4167800Y24269200D01*
X1167800Y14269200D02*
X4167800Y14269200D01*
X1167800Y26269200D02*
X4167800Y26269200D01*
X515000Y13770000D02*
X36315000Y13770000D01*
X515000Y26820000D02*
X36315000Y26820000D01*
X515000Y26870000D02*
X515000Y13770000D01*
X31391600Y24294600D02*
G75*
G03*
X33391600Y26294600I1J1999999D01*
G01*
X33391600Y14294600D02*
G75*
G03*
X31391600Y16294600I-1999999J1D01*
G01*
X19391600Y26294600D02*
G75*
G03*
X21391600Y24294600I1999999J-1D01*
G01*
X21391600Y16294600D02*
G75*
G03*
X19391600Y14294600I-1J-1999999D01*
G01*
X16167800Y24269200D02*
G75*
G03*
X18167800Y26269200I0J2000000D01*
G01*
X18167800Y14269200D02*
G75*
G03*
X16167800Y16269200I-2000000J0D01*
G01*
X4167800Y26269200D02*
G75*
G03*
X6167800Y24269200I2000000J0D01*
G01*
X6167800Y16269200D02*
G75*
G03*
X4167800Y14269200I0J-2000000D01*
G01*
%TO.C,C2*%
X45420000Y25839646D02*
X45420000Y24839646D01*
X45920000Y25339646D02*
X44920000Y25339646D01*
X47625000Y20360000D02*
X37465000Y20360000D01*
X47625000Y20320000D02*
X37465000Y20320000D01*
X47625000Y20280000D02*
X37465000Y20280000D01*
X47624000Y20240000D02*
X37466000Y20240000D01*
X47623000Y20200000D02*
X37467000Y20200000D01*
X47622000Y20160000D02*
X37468000Y20160000D01*
X47620000Y20120000D02*
X37470000Y20120000D01*
X47618000Y20080000D02*
X37472000Y20080000D01*
X47615000Y20040000D02*
X37475000Y20040000D01*
X47613000Y20000000D02*
X37477000Y20000000D01*
X47610000Y19960000D02*
X37480000Y19960000D01*
X47607000Y19920000D02*
X37483000Y19920000D01*
X47603000Y19880000D02*
X37487000Y19880000D01*
X47599000Y19840000D02*
X37491000Y19840000D01*
X47595000Y19800000D02*
X37495000Y19800000D01*
X47590000Y19760000D02*
X37500000Y19760000D01*
X47585000Y19720000D02*
X37505000Y19720000D01*
X47580000Y19680000D02*
X37510000Y19680000D01*
X47575000Y19639000D02*
X37515000Y19639000D01*
X47569000Y19599000D02*
X37521000Y19599000D01*
X47563000Y19559000D02*
X37527000Y19559000D01*
X47556000Y19519000D02*
X37534000Y19519000D01*
X47549000Y19479000D02*
X37541000Y19479000D01*
X47542000Y19439000D02*
X37548000Y19439000D01*
X47535000Y19399000D02*
X37555000Y19399000D01*
X47527000Y19359000D02*
X37563000Y19359000D01*
X47519000Y19319000D02*
X37571000Y19319000D01*
X47510000Y19279000D02*
X37580000Y19279000D01*
X47501000Y19239000D02*
X37589000Y19239000D01*
X47492000Y19199000D02*
X37598000Y19199000D01*
X47483000Y19159000D02*
X37607000Y19159000D01*
X47473000Y19119000D02*
X37617000Y19119000D01*
X47463000Y19079000D02*
X43786000Y19079000D01*
X41304000Y19079000D02*
X37627000Y19079000D01*
X47452000Y19039000D02*
X43786000Y19039000D01*
X41304000Y19039000D02*
X37638000Y19039000D01*
X47442000Y18999000D02*
X43786000Y18999000D01*
X41304000Y18999000D02*
X37648000Y18999000D01*
X47430000Y18959000D02*
X43786000Y18959000D01*
X41304000Y18959000D02*
X37660000Y18959000D01*
X47419000Y18919000D02*
X43786000Y18919000D01*
X41304000Y18919000D02*
X37671000Y18919000D01*
X47407000Y18879000D02*
X43786000Y18879000D01*
X41304000Y18879000D02*
X37683000Y18879000D01*
X47395000Y18839000D02*
X43786000Y18839000D01*
X41304000Y18839000D02*
X37695000Y18839000D01*
X47382000Y18799000D02*
X43786000Y18799000D01*
X41304000Y18799000D02*
X37708000Y18799000D01*
X47369000Y18759000D02*
X43786000Y18759000D01*
X41304000Y18759000D02*
X37721000Y18759000D01*
X47356000Y18719000D02*
X43786000Y18719000D01*
X41304000Y18719000D02*
X37734000Y18719000D01*
X47342000Y18679000D02*
X43786000Y18679000D01*
X41304000Y18679000D02*
X37748000Y18679000D01*
X47328000Y18639000D02*
X43786000Y18639000D01*
X41304000Y18639000D02*
X37762000Y18639000D01*
X47313000Y18599000D02*
X43786000Y18599000D01*
X41304000Y18599000D02*
X37777000Y18599000D01*
X47299000Y18559000D02*
X43786000Y18559000D01*
X41304000Y18559000D02*
X37791000Y18559000D01*
X47283000Y18519000D02*
X43786000Y18519000D01*
X41304000Y18519000D02*
X37807000Y18519000D01*
X47268000Y18479000D02*
X43786000Y18479000D01*
X41304000Y18479000D02*
X37822000Y18479000D01*
X47252000Y18439000D02*
X43786000Y18439000D01*
X41304000Y18439000D02*
X37838000Y18439000D01*
X47235000Y18399000D02*
X43786000Y18399000D01*
X41304000Y18399000D02*
X37855000Y18399000D01*
X47219000Y18359000D02*
X43786000Y18359000D01*
X41304000Y18359000D02*
X37871000Y18359000D01*
X47202000Y18319000D02*
X43786000Y18319000D01*
X41304000Y18319000D02*
X37888000Y18319000D01*
X47184000Y18279000D02*
X43786000Y18279000D01*
X41304000Y18279000D02*
X37906000Y18279000D01*
X47166000Y18239000D02*
X43786000Y18239000D01*
X41304000Y18239000D02*
X37924000Y18239000D01*
X47148000Y18199000D02*
X43786000Y18199000D01*
X41304000Y18199000D02*
X37942000Y18199000D01*
X47129000Y18159000D02*
X43786000Y18159000D01*
X41304000Y18159000D02*
X37961000Y18159000D01*
X47109000Y18119000D02*
X43786000Y18119000D01*
X41304000Y18119000D02*
X37981000Y18119000D01*
X47090000Y18079000D02*
X43786000Y18079000D01*
X41304000Y18079000D02*
X38000000Y18079000D01*
X47070000Y18039000D02*
X43786000Y18039000D01*
X41304000Y18039000D02*
X38020000Y18039000D01*
X47049000Y17999000D02*
X43786000Y17999000D01*
X41304000Y17999000D02*
X38041000Y17999000D01*
X47028000Y17959000D02*
X43786000Y17959000D01*
X41304000Y17959000D02*
X38062000Y17959000D01*
X47007000Y17919000D02*
X43786000Y17919000D01*
X41304000Y17919000D02*
X38083000Y17919000D01*
X46985000Y17879000D02*
X43786000Y17879000D01*
X41304000Y17879000D02*
X38105000Y17879000D01*
X46962000Y17839000D02*
X43786000Y17839000D01*
X41304000Y17839000D02*
X38128000Y17839000D01*
X46940000Y17799000D02*
X43786000Y17799000D01*
X41304000Y17799000D02*
X38150000Y17799000D01*
X46916000Y17759000D02*
X43786000Y17759000D01*
X41304000Y17759000D02*
X38174000Y17759000D01*
X46892000Y17719000D02*
X43786000Y17719000D01*
X41304000Y17719000D02*
X38198000Y17719000D01*
X46868000Y17679000D02*
X43786000Y17679000D01*
X41304000Y17679000D02*
X38222000Y17679000D01*
X46843000Y17639000D02*
X43786000Y17639000D01*
X41304000Y17639000D02*
X38247000Y17639000D01*
X46818000Y17599000D02*
X43786000Y17599000D01*
X41304000Y17599000D02*
X38272000Y17599000D01*
X46792000Y17559000D02*
X43786000Y17559000D01*
X41304000Y17559000D02*
X38298000Y17559000D01*
X46766000Y17519000D02*
X43786000Y17519000D01*
X41304000Y17519000D02*
X38324000Y17519000D01*
X46739000Y17479000D02*
X43786000Y17479000D01*
X41304000Y17479000D02*
X38351000Y17479000D01*
X46711000Y17439000D02*
X43786000Y17439000D01*
X41304000Y17439000D02*
X38379000Y17439000D01*
X46683000Y17399000D02*
X43786000Y17399000D01*
X41304000Y17399000D02*
X38407000Y17399000D01*
X46655000Y17359000D02*
X43786000Y17359000D01*
X41304000Y17359000D02*
X38435000Y17359000D01*
X46625000Y17319000D02*
X43786000Y17319000D01*
X41304000Y17319000D02*
X38465000Y17319000D01*
X46595000Y17279000D02*
X43786000Y17279000D01*
X41304000Y17279000D02*
X38495000Y17279000D01*
X46565000Y17239000D02*
X43786000Y17239000D01*
X41304000Y17239000D02*
X38525000Y17239000D01*
X46534000Y17199000D02*
X43786000Y17199000D01*
X41304000Y17199000D02*
X38556000Y17199000D01*
X46502000Y17159000D02*
X43786000Y17159000D01*
X41304000Y17159000D02*
X38588000Y17159000D01*
X46470000Y17119000D02*
X43786000Y17119000D01*
X41304000Y17119000D02*
X38620000Y17119000D01*
X46437000Y17079000D02*
X43786000Y17079000D01*
X41304000Y17079000D02*
X38653000Y17079000D01*
X46403000Y17039000D02*
X43786000Y17039000D01*
X41304000Y17039000D02*
X38687000Y17039000D01*
X46369000Y16999000D02*
X43786000Y16999000D01*
X41304000Y16999000D02*
X38721000Y16999000D01*
X46334000Y16959000D02*
X43786000Y16959000D01*
X41304000Y16959000D02*
X38756000Y16959000D01*
X46298000Y16919000D02*
X43786000Y16919000D01*
X41304000Y16919000D02*
X38792000Y16919000D01*
X46261000Y16879000D02*
X43786000Y16879000D01*
X41304000Y16879000D02*
X38829000Y16879000D01*
X46224000Y16839000D02*
X43786000Y16839000D01*
X41304000Y16839000D02*
X38866000Y16839000D01*
X46185000Y16799000D02*
X43786000Y16799000D01*
X41304000Y16799000D02*
X38905000Y16799000D01*
X46146000Y16759000D02*
X43786000Y16759000D01*
X41304000Y16759000D02*
X38944000Y16759000D01*
X46106000Y16719000D02*
X43786000Y16719000D01*
X41304000Y16719000D02*
X38984000Y16719000D01*
X46065000Y16679000D02*
X43786000Y16679000D01*
X41304000Y16679000D02*
X39025000Y16679000D01*
X46023000Y16639000D02*
X43786000Y16639000D01*
X41304000Y16639000D02*
X39067000Y16639000D01*
X45981000Y16599000D02*
X39109000Y16599000D01*
X45937000Y16559000D02*
X39153000Y16559000D01*
X45892000Y16519000D02*
X39198000Y16519000D01*
X45846000Y16479000D02*
X39244000Y16479000D01*
X45799000Y16439000D02*
X39291000Y16439000D01*
X45751000Y16399000D02*
X39339000Y16399000D01*
X45701000Y16359000D02*
X39389000Y16359000D01*
X45651000Y16319000D02*
X39439000Y16319000D01*
X45599000Y16279000D02*
X39491000Y16279000D01*
X45545000Y16239000D02*
X39545000Y16239000D01*
X45490000Y16199000D02*
X39600000Y16199000D01*
X45434000Y16159000D02*
X39656000Y16159000D01*
X45375000Y16119000D02*
X39715000Y16119000D01*
X45315000Y16079000D02*
X39775000Y16079000D01*
X45254000Y16039000D02*
X39836000Y16039000D01*
X45190000Y15999000D02*
X39900000Y15999000D01*
X45124000Y15959000D02*
X39966000Y15959000D01*
X45055000Y15919000D02*
X40035000Y15919000D01*
X44984000Y15879000D02*
X40106000Y15879000D01*
X44910000Y15839000D02*
X40180000Y15839000D01*
X44834000Y15799000D02*
X40256000Y15799000D01*
X44754000Y15759000D02*
X40336000Y15759000D01*
X44670000Y15719000D02*
X40420000Y15719000D01*
X44582000Y15679000D02*
X40508000Y15679000D01*
X44489000Y15639000D02*
X40601000Y15639000D01*
X44391000Y15599000D02*
X40699000Y15599000D01*
X44287000Y15559000D02*
X40803000Y15559000D01*
X44175000Y15519000D02*
X40915000Y15519000D01*
X44055000Y15479000D02*
X41035000Y15479000D01*
X43923000Y15439000D02*
X41167000Y15439000D01*
X43775000Y15399000D02*
X41315000Y15399000D01*
X43607000Y15359000D02*
X41483000Y15359000D01*
X43407000Y15319000D02*
X41683000Y15319000D01*
X43144000Y15279000D02*
X41946000Y15279000D01*
X47665000Y20360000D02*
G75*
G03*
X37425000Y20360000I-5120000J0D01*
G01*
X37425000Y20360000D02*
G75*
G03*
X47665000Y20360000I5120000J0D01*
G01*
%TO.C,RV1*%
X50360000Y31105000D02*
X50360000Y26035000D01*
X50360000Y31105000D02*
X60130000Y31105000D01*
X50360000Y26035000D02*
X60130000Y26035000D01*
X60130000Y31105000D02*
X60130000Y26035000D01*
%TO.C,RV2*%
X50360000Y25390000D02*
X50360000Y20320000D01*
X50360000Y25390000D02*
X60130000Y25390000D01*
X50360000Y20320000D02*
X60130000Y20320000D01*
X60130000Y25390000D02*
X60130000Y20320000D01*
%TO.C,RV3*%
X50360000Y19675000D02*
X50360000Y14605000D01*
X50360000Y19675000D02*
X60130000Y19675000D01*
X50360000Y14605000D02*
X60130000Y14605000D01*
X60130000Y19675000D02*
X60130000Y14605000D01*
%TO.C,RV4*%
X50360000Y13960000D02*
X50360000Y8890000D01*
X50360000Y13960000D02*
X60130000Y13960000D01*
X50360000Y8890000D02*
X60130000Y8890000D01*
X60130000Y13960000D02*
X60130000Y8890000D01*
%TO.C,BT3*%
X44646600Y27629600D02*
X41646600Y27629600D01*
X44646600Y31629600D02*
X43646600Y31629600D01*
X44646600Y39629600D02*
X41646600Y39629600D01*
X44570000Y27105000D02*
X44570000Y40205000D01*
X43646600Y35629600D02*
X44646600Y35629600D01*
X39646600Y29629600D02*
X29646600Y29629600D01*
X39646600Y37629600D02*
X29646600Y37629600D01*
X15422800Y32604200D02*
X15422800Y34604200D01*
X14422800Y29604200D02*
X24422800Y29604200D01*
X14422800Y31604200D02*
X14422800Y35604200D01*
X14422800Y37604200D02*
X24422800Y37604200D01*
X13422800Y36604200D02*
X13422800Y30604200D01*
X12422800Y29604200D02*
X12422800Y37604200D01*
X9422800Y27604200D02*
X12422800Y27604200D01*
X9422800Y39604200D02*
X12422800Y39604200D01*
X8770000Y27105000D02*
X44570000Y27105000D01*
X8770000Y40155000D02*
X44570000Y40155000D01*
X8770000Y40205000D02*
X8770000Y27105000D01*
X39646600Y37629600D02*
G75*
G03*
X41646600Y39629600I1J1999999D01*
G01*
X41646600Y27629600D02*
G75*
G03*
X39646600Y29629600I-1999999J1D01*
G01*
X27646600Y39629600D02*
G75*
G03*
X29646600Y37629600I1999999J-1D01*
G01*
X29646600Y29629600D02*
G75*
G03*
X27646600Y27629600I-1J-1999999D01*
G01*
X24422800Y37604200D02*
G75*
G03*
X26422800Y39604200I0J2000000D01*
G01*
X26422800Y27604200D02*
G75*
G03*
X24422800Y29604200I-2000000J0D01*
G01*
X12422800Y39604200D02*
G75*
G03*
X14422800Y37604200I2000000J0D01*
G01*
X14422800Y29604200D02*
G75*
G03*
X12422800Y27604200I0J-2000000D01*
G01*
%TO.C,BT1*%
X8693400Y13010400D02*
X11693400Y13010400D01*
X8693400Y9010400D02*
X9693400Y9010400D01*
X8693400Y1010400D02*
X11693400Y1010400D01*
X8770000Y13535000D02*
X8770000Y435000D01*
X9693400Y5010400D02*
X8693400Y5010400D01*
X13693400Y11010400D02*
X23693400Y11010400D01*
X13693400Y3010400D02*
X23693400Y3010400D01*
X37917200Y8035800D02*
X37917200Y6035800D01*
X38917200Y11035800D02*
X28917200Y11035800D01*
X38917200Y9035800D02*
X38917200Y5035800D01*
X38917200Y3035800D02*
X28917200Y3035800D01*
X39917200Y4035800D02*
X39917200Y10035800D01*
X40917200Y11035800D02*
X40917200Y3035800D01*
X43917200Y13035800D02*
X40917200Y13035800D01*
X43917200Y1035800D02*
X40917200Y1035800D01*
X44570000Y13535000D02*
X8770000Y13535000D01*
X44570000Y485000D02*
X8770000Y485000D01*
X44570000Y435000D02*
X44570000Y13535000D01*
X13693400Y3010400D02*
G75*
G03*
X11693400Y1010400I-1J-1999999D01*
G01*
X11693400Y13010400D02*
G75*
G03*
X13693400Y11010400I1999999J-1D01*
G01*
X25693400Y1010400D02*
G75*
G03*
X23693400Y3010400I-1999999J1D01*
G01*
X23693400Y11010400D02*
G75*
G03*
X25693400Y13010400I1J1999999D01*
G01*
X28917200Y3035800D02*
G75*
G03*
X26917200Y1035800I0J-2000000D01*
G01*
X26917200Y13035800D02*
G75*
G03*
X28917200Y11035800I2000000J0D01*
G01*
X40917200Y1035800D02*
G75*
G03*
X38917200Y3035800I-2000000J0D01*
G01*
X38917200Y11035800D02*
G75*
G03*
X40917200Y13035800I0J2000000D01*
G01*
D11*
%TO.C,J6*%
X45085000Y13970000D02*
X47625000Y13970000D01*
X45085000Y8890000D02*
X45085000Y13970000D01*
X47625000Y13970000D02*
X47625000Y8890000D01*
X47625000Y8890000D02*
X45085000Y8890000D01*
%TO.C,J2*%
X45085000Y6350000D02*
X50165000Y6350000D01*
X45085000Y3810000D02*
X45085000Y6350000D01*
X50165000Y6350000D02*
X50165000Y3810000D01*
X50165000Y3810000D02*
X45085000Y3810000D01*
%TO.C,J1*%
X45085000Y3810000D02*
X50165000Y3810000D01*
X45085000Y1270000D02*
X45085000Y3810000D01*
X50165000Y3810000D02*
X50165000Y1270000D01*
X50165000Y1270000D02*
X45085000Y1270000D01*
%TO.C,J3*%
X45085000Y34290000D02*
X50165000Y34290000D01*
X45085000Y31750000D02*
X45085000Y34290000D01*
X50165000Y34290000D02*
X50165000Y31750000D01*
X50165000Y31750000D02*
X45085000Y31750000D01*
%TO.C,J4*%
X45085000Y36830000D02*
X50165000Y36830000D01*
X45085000Y34290000D02*
X45085000Y36830000D01*
X50165000Y36830000D02*
X50165000Y34290000D01*
X50165000Y34290000D02*
X45085000Y34290000D01*
%TO.C,J5*%
X45085000Y39370000D02*
X50165000Y39370000D01*
X45085000Y36830000D02*
X45085000Y39370000D01*
X50165000Y39370000D02*
X50165000Y36830000D01*
X50165000Y36830000D02*
X45085000Y36830000D01*
%TD*%
D13*
%TO.C,J7*%
X2032000Y30988000D03*
X2032000Y28448000D03*
%TD*%
%TO.C,J8*%
X4572000Y30988000D03*
X4572000Y28448000D03*
%TD*%
%TO.C,J9*%
X7112000Y30988000D03*
X7112000Y28448000D03*
%TD*%
%TO.C,J6*%
X46355000Y12700000D03*
X46355000Y10160000D03*
%TD*%
%TO.C,J2*%
X46355000Y5080000D03*
X48895000Y5080000D03*
%TD*%
%TO.C,J1*%
X46355000Y2540000D03*
X48895000Y2540000D03*
%TD*%
%TO.C,J3*%
X46355000Y33020000D03*
X48895000Y33020000D03*
%TD*%
%TO.C,J4*%
X46355000Y35560000D03*
X48895000Y35560000D03*
%TD*%
%TO.C,J5*%
X46355000Y38100000D03*
X48895000Y38100000D03*
%TD*%
M02*
