%TF.GenerationSoftware,KiCad,Pcbnew,7.0.11+1*%
%TF.CreationDate,2024-07-04T22:03:27+00:00*%
%TF.ProjectId,SIPMPOWER01,5349504d-504f-4574-9552-30312e6b6963,rev?*%
%TF.SameCoordinates,Original*%
%TF.FileFunction,Legend,Bot*%
%TF.FilePolarity,Positive*%
%FSLAX46Y46*%
G04 Gerber Fmt 4.6, Leading zero omitted, Abs format (unit mm)*
G04 Created by KiCad (PCBNEW 7.0.11+1) date 2024-07-04 22:03:27*
%MOMM*%
%LPD*%
G01*
G04 APERTURE LIST*
%ADD10C,0.150000*%
%ADD11C,0.304800*%
%ADD12C,0.120000*%
G04 APERTURE END LIST*
D10*
X45444580Y20486666D02*
X45492200Y20534285D01*
X45492200Y20534285D02*
X45539819Y20677142D01*
X45539819Y20677142D02*
X45539819Y20772380D01*
X45539819Y20772380D02*
X45492200Y20915237D01*
X45492200Y20915237D02*
X45396961Y21010475D01*
X45396961Y21010475D02*
X45301723Y21058094D01*
X45301723Y21058094D02*
X45111247Y21105713D01*
X45111247Y21105713D02*
X44968390Y21105713D01*
X44968390Y21105713D02*
X44777914Y21058094D01*
X44777914Y21058094D02*
X44682676Y21010475D01*
X44682676Y21010475D02*
X44587438Y20915237D01*
X44587438Y20915237D02*
X44539819Y20772380D01*
X44539819Y20772380D02*
X44539819Y20677142D01*
X44539819Y20677142D02*
X44587438Y20534285D01*
X44587438Y20534285D02*
X44635057Y20486666D01*
X44873152Y19629523D02*
X45539819Y19629523D01*
X44492200Y19867618D02*
X45206485Y20105713D01*
X45206485Y20105713D02*
X45206485Y19486666D01*
X42904580Y20486666D02*
X42952200Y20534285D01*
X42952200Y20534285D02*
X42999819Y20677142D01*
X42999819Y20677142D02*
X42999819Y20772380D01*
X42999819Y20772380D02*
X42952200Y20915237D01*
X42952200Y20915237D02*
X42856961Y21010475D01*
X42856961Y21010475D02*
X42761723Y21058094D01*
X42761723Y21058094D02*
X42571247Y21105713D01*
X42571247Y21105713D02*
X42428390Y21105713D01*
X42428390Y21105713D02*
X42237914Y21058094D01*
X42237914Y21058094D02*
X42142676Y21010475D01*
X42142676Y21010475D02*
X42047438Y20915237D01*
X42047438Y20915237D02*
X41999819Y20772380D01*
X41999819Y20772380D02*
X41999819Y20677142D01*
X41999819Y20677142D02*
X42047438Y20534285D01*
X42047438Y20534285D02*
X42095057Y20486666D01*
X41999819Y19581904D02*
X41999819Y20058094D01*
X41999819Y20058094D02*
X42476009Y20105713D01*
X42476009Y20105713D02*
X42428390Y20058094D01*
X42428390Y20058094D02*
X42380771Y19962856D01*
X42380771Y19962856D02*
X42380771Y19724761D01*
X42380771Y19724761D02*
X42428390Y19629523D01*
X42428390Y19629523D02*
X42476009Y19581904D01*
X42476009Y19581904D02*
X42571247Y19534285D01*
X42571247Y19534285D02*
X42809342Y19534285D01*
X42809342Y19534285D02*
X42904580Y19581904D01*
X42904580Y19581904D02*
X42952200Y19629523D01*
X42952200Y19629523D02*
X42999819Y19724761D01*
X42999819Y19724761D02*
X42999819Y19962856D01*
X42999819Y19962856D02*
X42952200Y20058094D01*
X42952200Y20058094D02*
X42904580Y20105713D01*
X54334580Y20486666D02*
X54382200Y20534285D01*
X54382200Y20534285D02*
X54429819Y20677142D01*
X54429819Y20677142D02*
X54429819Y20772380D01*
X54429819Y20772380D02*
X54382200Y20915237D01*
X54382200Y20915237D02*
X54286961Y21010475D01*
X54286961Y21010475D02*
X54191723Y21058094D01*
X54191723Y21058094D02*
X54001247Y21105713D01*
X54001247Y21105713D02*
X53858390Y21105713D01*
X53858390Y21105713D02*
X53667914Y21058094D01*
X53667914Y21058094D02*
X53572676Y21010475D01*
X53572676Y21010475D02*
X53477438Y20915237D01*
X53477438Y20915237D02*
X53429819Y20772380D01*
X53429819Y20772380D02*
X53429819Y20677142D01*
X53429819Y20677142D02*
X53477438Y20534285D01*
X53477438Y20534285D02*
X53525057Y20486666D01*
X53429819Y20153332D02*
X53429819Y19486666D01*
X53429819Y19486666D02*
X54429819Y19915237D01*
X52871666Y14245419D02*
X52919285Y14197800D01*
X52919285Y14197800D02*
X53062142Y14150180D01*
X53062142Y14150180D02*
X53157380Y14150180D01*
X53157380Y14150180D02*
X53300237Y14197800D01*
X53300237Y14197800D02*
X53395475Y14293038D01*
X53395475Y14293038D02*
X53443094Y14388276D01*
X53443094Y14388276D02*
X53490713Y14578752D01*
X53490713Y14578752D02*
X53490713Y14721609D01*
X53490713Y14721609D02*
X53443094Y14912085D01*
X53443094Y14912085D02*
X53395475Y15007323D01*
X53395475Y15007323D02*
X53300237Y15102561D01*
X53300237Y15102561D02*
X53157380Y15150180D01*
X53157380Y15150180D02*
X53062142Y15150180D01*
X53062142Y15150180D02*
X52919285Y15102561D01*
X52919285Y15102561D02*
X52871666Y15054942D01*
X52300237Y14721609D02*
X52395475Y14769228D01*
X52395475Y14769228D02*
X52443094Y14816847D01*
X52443094Y14816847D02*
X52490713Y14912085D01*
X52490713Y14912085D02*
X52490713Y14959704D01*
X52490713Y14959704D02*
X52443094Y15054942D01*
X52443094Y15054942D02*
X52395475Y15102561D01*
X52395475Y15102561D02*
X52300237Y15150180D01*
X52300237Y15150180D02*
X52109761Y15150180D01*
X52109761Y15150180D02*
X52014523Y15102561D01*
X52014523Y15102561D02*
X51966904Y15054942D01*
X51966904Y15054942D02*
X51919285Y14959704D01*
X51919285Y14959704D02*
X51919285Y14912085D01*
X51919285Y14912085D02*
X51966904Y14816847D01*
X51966904Y14816847D02*
X52014523Y14769228D01*
X52014523Y14769228D02*
X52109761Y14721609D01*
X52109761Y14721609D02*
X52300237Y14721609D01*
X52300237Y14721609D02*
X52395475Y14673990D01*
X52395475Y14673990D02*
X52443094Y14626371D01*
X52443094Y14626371D02*
X52490713Y14531133D01*
X52490713Y14531133D02*
X52490713Y14340657D01*
X52490713Y14340657D02*
X52443094Y14245419D01*
X52443094Y14245419D02*
X52395475Y14197800D01*
X52395475Y14197800D02*
X52300237Y14150180D01*
X52300237Y14150180D02*
X52109761Y14150180D01*
X52109761Y14150180D02*
X52014523Y14197800D01*
X52014523Y14197800D02*
X51966904Y14245419D01*
X51966904Y14245419D02*
X51919285Y14340657D01*
X51919285Y14340657D02*
X51919285Y14531133D01*
X51919285Y14531133D02*
X51966904Y14626371D01*
X51966904Y14626371D02*
X52014523Y14673990D01*
X52014523Y14673990D02*
X52109761Y14721609D01*
X49696666Y8530419D02*
X49744285Y8482800D01*
X49744285Y8482800D02*
X49887142Y8435180D01*
X49887142Y8435180D02*
X49982380Y8435180D01*
X49982380Y8435180D02*
X50125237Y8482800D01*
X50125237Y8482800D02*
X50220475Y8578038D01*
X50220475Y8578038D02*
X50268094Y8673276D01*
X50268094Y8673276D02*
X50315713Y8863752D01*
X50315713Y8863752D02*
X50315713Y9006609D01*
X50315713Y9006609D02*
X50268094Y9197085D01*
X50268094Y9197085D02*
X50220475Y9292323D01*
X50220475Y9292323D02*
X50125237Y9387561D01*
X50125237Y9387561D02*
X49982380Y9435180D01*
X49982380Y9435180D02*
X49887142Y9435180D01*
X49887142Y9435180D02*
X49744285Y9387561D01*
X49744285Y9387561D02*
X49696666Y9339942D01*
X49220475Y8435180D02*
X49029999Y8435180D01*
X49029999Y8435180D02*
X48934761Y8482800D01*
X48934761Y8482800D02*
X48887142Y8530419D01*
X48887142Y8530419D02*
X48791904Y8673276D01*
X48791904Y8673276D02*
X48744285Y8863752D01*
X48744285Y8863752D02*
X48744285Y9244704D01*
X48744285Y9244704D02*
X48791904Y9339942D01*
X48791904Y9339942D02*
X48839523Y9387561D01*
X48839523Y9387561D02*
X48934761Y9435180D01*
X48934761Y9435180D02*
X49125237Y9435180D01*
X49125237Y9435180D02*
X49220475Y9387561D01*
X49220475Y9387561D02*
X49268094Y9339942D01*
X49268094Y9339942D02*
X49315713Y9244704D01*
X49315713Y9244704D02*
X49315713Y9006609D01*
X49315713Y9006609D02*
X49268094Y8911371D01*
X49268094Y8911371D02*
X49220475Y8863752D01*
X49220475Y8863752D02*
X49125237Y8816133D01*
X49125237Y8816133D02*
X48934761Y8816133D01*
X48934761Y8816133D02*
X48839523Y8863752D01*
X48839523Y8863752D02*
X48791904Y8911371D01*
X48791904Y8911371D02*
X48744285Y9006609D01*
X58874819Y25566666D02*
X58398628Y25899999D01*
X58874819Y26138094D02*
X57874819Y26138094D01*
X57874819Y26138094D02*
X57874819Y25757142D01*
X57874819Y25757142D02*
X57922438Y25661904D01*
X57922438Y25661904D02*
X57970057Y25614285D01*
X57970057Y25614285D02*
X58065295Y25566666D01*
X58065295Y25566666D02*
X58208152Y25566666D01*
X58208152Y25566666D02*
X58303390Y25614285D01*
X58303390Y25614285D02*
X58351009Y25661904D01*
X58351009Y25661904D02*
X58398628Y25757142D01*
X58398628Y25757142D02*
X58398628Y26138094D01*
X57874819Y25233332D02*
X57874819Y24614285D01*
X57874819Y24614285D02*
X58255771Y24947618D01*
X58255771Y24947618D02*
X58255771Y24804761D01*
X58255771Y24804761D02*
X58303390Y24709523D01*
X58303390Y24709523D02*
X58351009Y24661904D01*
X58351009Y24661904D02*
X58446247Y24614285D01*
X58446247Y24614285D02*
X58684342Y24614285D01*
X58684342Y24614285D02*
X58779580Y24661904D01*
X58779580Y24661904D02*
X58827200Y24709523D01*
X58827200Y24709523D02*
X58874819Y24804761D01*
X58874819Y24804761D02*
X58874819Y25090475D01*
X58874819Y25090475D02*
X58827200Y25185713D01*
X58827200Y25185713D02*
X58779580Y25233332D01*
X56681666Y19230180D02*
X57014999Y19706371D01*
X57253094Y19230180D02*
X57253094Y20230180D01*
X57253094Y20230180D02*
X56872142Y20230180D01*
X56872142Y20230180D02*
X56776904Y20182561D01*
X56776904Y20182561D02*
X56729285Y20134942D01*
X56729285Y20134942D02*
X56681666Y20039704D01*
X56681666Y20039704D02*
X56681666Y19896847D01*
X56681666Y19896847D02*
X56729285Y19801609D01*
X56729285Y19801609D02*
X56776904Y19753990D01*
X56776904Y19753990D02*
X56872142Y19706371D01*
X56872142Y19706371D02*
X57253094Y19706371D01*
X55776904Y20230180D02*
X56253094Y20230180D01*
X56253094Y20230180D02*
X56300713Y19753990D01*
X56300713Y19753990D02*
X56253094Y19801609D01*
X56253094Y19801609D02*
X56157856Y19849228D01*
X56157856Y19849228D02*
X55919761Y19849228D01*
X55919761Y19849228D02*
X55824523Y19801609D01*
X55824523Y19801609D02*
X55776904Y19753990D01*
X55776904Y19753990D02*
X55729285Y19658752D01*
X55729285Y19658752D02*
X55729285Y19420657D01*
X55729285Y19420657D02*
X55776904Y19325419D01*
X55776904Y19325419D02*
X55824523Y19277800D01*
X55824523Y19277800D02*
X55919761Y19230180D01*
X55919761Y19230180D02*
X56157856Y19230180D01*
X56157856Y19230180D02*
X56253094Y19277800D01*
X56253094Y19277800D02*
X56300713Y19325419D01*
X56681666Y13515180D02*
X57014999Y13991371D01*
X57253094Y13515180D02*
X57253094Y14515180D01*
X57253094Y14515180D02*
X56872142Y14515180D01*
X56872142Y14515180D02*
X56776904Y14467561D01*
X56776904Y14467561D02*
X56729285Y14419942D01*
X56729285Y14419942D02*
X56681666Y14324704D01*
X56681666Y14324704D02*
X56681666Y14181847D01*
X56681666Y14181847D02*
X56729285Y14086609D01*
X56729285Y14086609D02*
X56776904Y14038990D01*
X56776904Y14038990D02*
X56872142Y13991371D01*
X56872142Y13991371D02*
X57253094Y13991371D01*
X56348332Y14515180D02*
X55681666Y14515180D01*
X55681666Y14515180D02*
X56110237Y13515180D01*
X49696666Y28120180D02*
X50029999Y28596371D01*
X50268094Y28120180D02*
X50268094Y29120180D01*
X50268094Y29120180D02*
X49887142Y29120180D01*
X49887142Y29120180D02*
X49791904Y29072561D01*
X49791904Y29072561D02*
X49744285Y29024942D01*
X49744285Y29024942D02*
X49696666Y28929704D01*
X49696666Y28929704D02*
X49696666Y28786847D01*
X49696666Y28786847D02*
X49744285Y28691609D01*
X49744285Y28691609D02*
X49791904Y28643990D01*
X49791904Y28643990D02*
X49887142Y28596371D01*
X49887142Y28596371D02*
X50268094Y28596371D01*
X49315713Y29024942D02*
X49268094Y29072561D01*
X49268094Y29072561D02*
X49172856Y29120180D01*
X49172856Y29120180D02*
X48934761Y29120180D01*
X48934761Y29120180D02*
X48839523Y29072561D01*
X48839523Y29072561D02*
X48791904Y29024942D01*
X48791904Y29024942D02*
X48744285Y28929704D01*
X48744285Y28929704D02*
X48744285Y28834466D01*
X48744285Y28834466D02*
X48791904Y28691609D01*
X48791904Y28691609D02*
X49363332Y28120180D01*
X49363332Y28120180D02*
X48744285Y28120180D01*
X56334819Y25566666D02*
X55858628Y25899999D01*
X56334819Y26138094D02*
X55334819Y26138094D01*
X55334819Y26138094D02*
X55334819Y25757142D01*
X55334819Y25757142D02*
X55382438Y25661904D01*
X55382438Y25661904D02*
X55430057Y25614285D01*
X55430057Y25614285D02*
X55525295Y25566666D01*
X55525295Y25566666D02*
X55668152Y25566666D01*
X55668152Y25566666D02*
X55763390Y25614285D01*
X55763390Y25614285D02*
X55811009Y25661904D01*
X55811009Y25661904D02*
X55858628Y25757142D01*
X55858628Y25757142D02*
X55858628Y26138094D01*
X56334819Y24614285D02*
X56334819Y25185713D01*
X56334819Y24899999D02*
X55334819Y24899999D01*
X55334819Y24899999D02*
X55477676Y24995237D01*
X55477676Y24995237D02*
X55572914Y25090475D01*
X55572914Y25090475D02*
X55620533Y25185713D01*
X52871666Y25675419D02*
X52919285Y25627800D01*
X52919285Y25627800D02*
X53062142Y25580180D01*
X53062142Y25580180D02*
X53157380Y25580180D01*
X53157380Y25580180D02*
X53300237Y25627800D01*
X53300237Y25627800D02*
X53395475Y25723038D01*
X53395475Y25723038D02*
X53443094Y25818276D01*
X53443094Y25818276D02*
X53490713Y26008752D01*
X53490713Y26008752D02*
X53490713Y26151609D01*
X53490713Y26151609D02*
X53443094Y26342085D01*
X53443094Y26342085D02*
X53395475Y26437323D01*
X53395475Y26437323D02*
X53300237Y26532561D01*
X53300237Y26532561D02*
X53157380Y26580180D01*
X53157380Y26580180D02*
X53062142Y26580180D01*
X53062142Y26580180D02*
X52919285Y26532561D01*
X52919285Y26532561D02*
X52871666Y26484942D01*
X52014523Y26580180D02*
X52204999Y26580180D01*
X52204999Y26580180D02*
X52300237Y26532561D01*
X52300237Y26532561D02*
X52347856Y26484942D01*
X52347856Y26484942D02*
X52443094Y26342085D01*
X52443094Y26342085D02*
X52490713Y26151609D01*
X52490713Y26151609D02*
X52490713Y25770657D01*
X52490713Y25770657D02*
X52443094Y25675419D01*
X52443094Y25675419D02*
X52395475Y25627800D01*
X52395475Y25627800D02*
X52300237Y25580180D01*
X52300237Y25580180D02*
X52109761Y25580180D01*
X52109761Y25580180D02*
X52014523Y25627800D01*
X52014523Y25627800D02*
X51966904Y25675419D01*
X51966904Y25675419D02*
X51919285Y25770657D01*
X51919285Y25770657D02*
X51919285Y26008752D01*
X51919285Y26008752D02*
X51966904Y26103990D01*
X51966904Y26103990D02*
X52014523Y26151609D01*
X52014523Y26151609D02*
X52109761Y26199228D01*
X52109761Y26199228D02*
X52300237Y26199228D01*
X52300237Y26199228D02*
X52395475Y26151609D01*
X52395475Y26151609D02*
X52443094Y26103990D01*
X52443094Y26103990D02*
X52490713Y26008752D01*
D11*
X36429038Y20558759D02*
X36501610Y20631331D01*
X36501610Y20631331D02*
X36574181Y20849045D01*
X36574181Y20849045D02*
X36574181Y20994188D01*
X36574181Y20994188D02*
X36501610Y21211902D01*
X36501610Y21211902D02*
X36356467Y21357045D01*
X36356467Y21357045D02*
X36211324Y21429616D01*
X36211324Y21429616D02*
X35921038Y21502188D01*
X35921038Y21502188D02*
X35703324Y21502188D01*
X35703324Y21502188D02*
X35413038Y21429616D01*
X35413038Y21429616D02*
X35267895Y21357045D01*
X35267895Y21357045D02*
X35122752Y21211902D01*
X35122752Y21211902D02*
X35050181Y20994188D01*
X35050181Y20994188D02*
X35050181Y20849045D01*
X35050181Y20849045D02*
X35122752Y20631331D01*
X35122752Y20631331D02*
X35195324Y20558759D01*
X35050181Y20050759D02*
X35050181Y19107331D01*
X35050181Y19107331D02*
X35630752Y19615331D01*
X35630752Y19615331D02*
X35630752Y19397616D01*
X35630752Y19397616D02*
X35703324Y19252474D01*
X35703324Y19252474D02*
X35775895Y19179902D01*
X35775895Y19179902D02*
X35921038Y19107331D01*
X35921038Y19107331D02*
X36283895Y19107331D01*
X36283895Y19107331D02*
X36429038Y19179902D01*
X36429038Y19179902D02*
X36501610Y19252474D01*
X36501610Y19252474D02*
X36574181Y19397616D01*
X36574181Y19397616D02*
X36574181Y19833045D01*
X36574181Y19833045D02*
X36501610Y19978188D01*
X36501610Y19978188D02*
X36429038Y20050759D01*
X36293450Y25884050D02*
X36293450Y24722908D01*
X36874021Y25303479D02*
X35712878Y25303479D01*
D10*
X48619580Y19216666D02*
X48667200Y19264285D01*
X48667200Y19264285D02*
X48714819Y19407142D01*
X48714819Y19407142D02*
X48714819Y19502380D01*
X48714819Y19502380D02*
X48667200Y19645237D01*
X48667200Y19645237D02*
X48571961Y19740475D01*
X48571961Y19740475D02*
X48476723Y19788094D01*
X48476723Y19788094D02*
X48286247Y19835713D01*
X48286247Y19835713D02*
X48143390Y19835713D01*
X48143390Y19835713D02*
X47952914Y19788094D01*
X47952914Y19788094D02*
X47857676Y19740475D01*
X47857676Y19740475D02*
X47762438Y19645237D01*
X47762438Y19645237D02*
X47714819Y19502380D01*
X47714819Y19502380D02*
X47714819Y19407142D01*
X47714819Y19407142D02*
X47762438Y19264285D01*
X47762438Y19264285D02*
X47810057Y19216666D01*
X48714819Y18264285D02*
X48714819Y18835713D01*
X48714819Y18549999D02*
X47714819Y18549999D01*
X47714819Y18549999D02*
X47857676Y18645237D01*
X47857676Y18645237D02*
X47952914Y18740475D01*
X47952914Y18740475D02*
X48000533Y18835713D01*
X49696666Y10975180D02*
X50029999Y11451371D01*
X50268094Y10975180D02*
X50268094Y11975180D01*
X50268094Y11975180D02*
X49887142Y11975180D01*
X49887142Y11975180D02*
X49791904Y11927561D01*
X49791904Y11927561D02*
X49744285Y11879942D01*
X49744285Y11879942D02*
X49696666Y11784704D01*
X49696666Y11784704D02*
X49696666Y11641847D01*
X49696666Y11641847D02*
X49744285Y11546609D01*
X49744285Y11546609D02*
X49791904Y11498990D01*
X49791904Y11498990D02*
X49887142Y11451371D01*
X49887142Y11451371D02*
X50268094Y11451371D01*
X49125237Y11546609D02*
X49220475Y11594228D01*
X49220475Y11594228D02*
X49268094Y11641847D01*
X49268094Y11641847D02*
X49315713Y11737085D01*
X49315713Y11737085D02*
X49315713Y11784704D01*
X49315713Y11784704D02*
X49268094Y11879942D01*
X49268094Y11879942D02*
X49220475Y11927561D01*
X49220475Y11927561D02*
X49125237Y11975180D01*
X49125237Y11975180D02*
X48934761Y11975180D01*
X48934761Y11975180D02*
X48839523Y11927561D01*
X48839523Y11927561D02*
X48791904Y11879942D01*
X48791904Y11879942D02*
X48744285Y11784704D01*
X48744285Y11784704D02*
X48744285Y11737085D01*
X48744285Y11737085D02*
X48791904Y11641847D01*
X48791904Y11641847D02*
X48839523Y11594228D01*
X48839523Y11594228D02*
X48934761Y11546609D01*
X48934761Y11546609D02*
X49125237Y11546609D01*
X49125237Y11546609D02*
X49220475Y11498990D01*
X49220475Y11498990D02*
X49268094Y11451371D01*
X49268094Y11451371D02*
X49315713Y11356133D01*
X49315713Y11356133D02*
X49315713Y11165657D01*
X49315713Y11165657D02*
X49268094Y11070419D01*
X49268094Y11070419D02*
X49220475Y11022800D01*
X49220475Y11022800D02*
X49125237Y10975180D01*
X49125237Y10975180D02*
X48934761Y10975180D01*
X48934761Y10975180D02*
X48839523Y11022800D01*
X48839523Y11022800D02*
X48791904Y11070419D01*
X48791904Y11070419D02*
X48744285Y11165657D01*
X48744285Y11165657D02*
X48744285Y11356133D01*
X48744285Y11356133D02*
X48791904Y11451371D01*
X48791904Y11451371D02*
X48839523Y11498990D01*
X48839523Y11498990D02*
X48934761Y11546609D01*
X51889819Y20486666D02*
X51413628Y20819999D01*
X51889819Y21058094D02*
X50889819Y21058094D01*
X50889819Y21058094D02*
X50889819Y20677142D01*
X50889819Y20677142D02*
X50937438Y20581904D01*
X50937438Y20581904D02*
X50985057Y20534285D01*
X50985057Y20534285D02*
X51080295Y20486666D01*
X51080295Y20486666D02*
X51223152Y20486666D01*
X51223152Y20486666D02*
X51318390Y20534285D01*
X51318390Y20534285D02*
X51366009Y20581904D01*
X51366009Y20581904D02*
X51413628Y20677142D01*
X51413628Y20677142D02*
X51413628Y21058094D01*
X50889819Y19629523D02*
X50889819Y19819999D01*
X50889819Y19819999D02*
X50937438Y19915237D01*
X50937438Y19915237D02*
X50985057Y19962856D01*
X50985057Y19962856D02*
X51127914Y20058094D01*
X51127914Y20058094D02*
X51318390Y20105713D01*
X51318390Y20105713D02*
X51699342Y20105713D01*
X51699342Y20105713D02*
X51794580Y20058094D01*
X51794580Y20058094D02*
X51842200Y20010475D01*
X51842200Y20010475D02*
X51889819Y19915237D01*
X51889819Y19915237D02*
X51889819Y19724761D01*
X51889819Y19724761D02*
X51842200Y19629523D01*
X51842200Y19629523D02*
X51794580Y19581904D01*
X51794580Y19581904D02*
X51699342Y19534285D01*
X51699342Y19534285D02*
X51461247Y19534285D01*
X51461247Y19534285D02*
X51366009Y19581904D01*
X51366009Y19581904D02*
X51318390Y19629523D01*
X51318390Y19629523D02*
X51270771Y19724761D01*
X51270771Y19724761D02*
X51270771Y19915237D01*
X51270771Y19915237D02*
X51318390Y20010475D01*
X51318390Y20010475D02*
X51366009Y20058094D01*
X51366009Y20058094D02*
X51461247Y20105713D01*
X49696666Y23040180D02*
X50029999Y23516371D01*
X50268094Y23040180D02*
X50268094Y24040180D01*
X50268094Y24040180D02*
X49887142Y24040180D01*
X49887142Y24040180D02*
X49791904Y23992561D01*
X49791904Y23992561D02*
X49744285Y23944942D01*
X49744285Y23944942D02*
X49696666Y23849704D01*
X49696666Y23849704D02*
X49696666Y23706847D01*
X49696666Y23706847D02*
X49744285Y23611609D01*
X49744285Y23611609D02*
X49791904Y23563990D01*
X49791904Y23563990D02*
X49887142Y23516371D01*
X49887142Y23516371D02*
X50268094Y23516371D01*
X48839523Y23706847D02*
X48839523Y23040180D01*
X49077618Y24087800D02*
X49315713Y23373514D01*
X49315713Y23373514D02*
X48696666Y23373514D01*
%TO.C,C3*%
X36182300Y25905460D02*
X36182300Y24706580D01*
X35681920Y25306020D02*
X36781740Y25306020D01*
X37035740Y24604980D02*
X40434260Y24604980D01*
X40434260Y17305020D02*
X40434260Y23304500D01*
X37035740Y17305020D02*
X37035740Y23304500D01*
D12*
%TO.C,C1*%
X47350000Y17938748D02*
X47350000Y20161252D01*
X49170000Y17938748D02*
X49170000Y20161252D01*
%TD*%
M02*
